  0
SECTION
  2
HEADER
  9
$ACADVER
  1
AC1009
  9
$FILLMODE
 70
 0
  9
$SPLFRAME
 70
 1
  9
$EXTMIN
 10
0
 20
0
 30
0.0
  9
$EXTMAX
 10
1058.33
 20
1058.33
 30
0.0
  0
ENDSEC
  0
SECTION
  2
TABLES
  0
TABLE
  2
LAYER
 70
1
  0
LAYER
  2
0
 70
     0
 62
     7
  6
CONTINUOUS
  0
ENDTAB
  0
ENDSEC
  0
SECTION
  2
ENTITIES
  0
POLYLINE
  8
0
 62
     0
 66
     1
 10
0
 20
0
 30
0.0
 70
     1
 40
0.566929
 41
0.566929
  0
VERTEX
  8
0
 10
18.7992
 20
10.0004
 30
0.0
 40
0.2
 41
0.2
  0
VERTEX
  8
0
 10
118.801
 20
10.0004
 30
0.0
 40
0.2
 41
0.2
  0
VERTEX
  8
0
 10
118.801
 20
19.9995
 30
0.0
 40
0.2
 41
0.2
  0
VERTEX
  8
0
 10
18.7992
 20
19.9995
 30
0.0
 40
0.2
 41
0.2
  0
VERTEX
  8
0
 10
18.7992
 20
10.0004
 30
0.0
 40
0.2
 41
0.2
  0
SEQEND
 8
0
  0
TEXT
  8
0
 62
     1
 10
24.1138
 20
13.3923
 30
0.0
 40
8.001
  1
100.00mm, burn:0.10mm
 50
0
  0
POLYLINE
  8
0
 62
     0
 66
     1
 10
0
 20
0
 30
0.0
 70
     1
 40
0.566929
 41
0.566929
  0
VERTEX
  8
0
 10
36.8004
 20
24.6999
 30
0.0
 40
0.2
 41
0.2
  0
VERTEX
  8
0
 10
45.1997
 20
24.6999
 30
0.0
 40
0.2
 41
0.2
  0
VERTEX
  8
0
 10
45.2092
 20
24.6999
 30
0.0
 40
0.2
 41
0.2
  0
VERTEX
  8
0
 10
45.2409
 20
24.7151
 30
0.0
 40
0.2
 41
0.2
  0
VERTEX
  8
0
 10
45.2367
 20
24.7385
 30
0.0
 40
0.2
 41
0.2
  0
VERTEX
  8
0
 10
45.2134
 20
24.7427
 30
0.0
 40
0.2
 41
0.2
  0
VERTEX
  8
0
 10
45.1997
 20
24.711
 30
0.0
 40
0.2
 41
0.2
  0
VERTEX
  8
0
 10
45.1997
 20
24.6999
 30
0.0
 40
0.2
 41
0.2
  0
VERTEX
  8
0
 10
45.1997
 20
21.8006
 30
0.0
 40
0.2
 41
0.2
  0
VERTEX
  8
0
 10
45.1997
 20
21.784
 30
0.0
 40
0.2
 41
0.2
  0
VERTEX
  8
0
 10
45.2286
 20
21.7303
 30
0.0
 40
0.2
 41
0.2
  0
VERTEX
  8
0
 10
45.2822
 20
21.7
 30
0.0
 40
0.2
 41
0.2
  0
VERTEX
  8
0
 10
45.3002
 20
21.7
 30
0.0
 40
0.2
 41
0.2
  0
VERTEX
  8
0
 10
51.3002
 20
21.7
 30
0.0
 40
0.2
 41
0.2
  0
VERTEX
  8
0
 10
51.3168
 20
21.7
 30
0.0
 40
0.2
 41
0.2
  0
VERTEX
  8
0
 10
51.3704
 20
21.7303
 30
0.0
 40
0.2
 41
0.2
  0
VERTEX
  8
0
 10
51.3994
 20
21.784
 30
0.0
 40
0.2
 41
0.2
  0
VERTEX
  8
0
 10
51.3994
 20
21.8006
 30
0.0
 40
0.2
 41
0.2
  0
VERTEX
  8
0
 10
51.3994
 20
24.6999
 30
0.0
 40
0.2
 41
0.2
  0
VERTEX
  8
0
 10
51.3994
 20
24.711
 30
0.0
 40
0.2
 41
0.2
  0
VERTEX
  8
0
 10
51.3842
 20
24.7427
 30
0.0
 40
0.2
 41
0.2
  0
VERTEX
  8
0
 10
51.3623
 20
24.7385
 30
0.0
 40
0.2
 41
0.2
  0
VERTEX
  8
0
 10
51.3567
 20
24.7151
 30
0.0
 40
0.2
 41
0.2
  0
VERTEX
  8
0
 10
51.3884
 20
24.6999
 30
0.0
 40
0.2
 41
0.2
  0
VERTEX
  8
0
 10
51.3994
 20
24.6999
 30
0.0
 40
0.2
 41
0.2
  0
VERTEX
  8
0
 10
57.1997
 20
24.6999
 30
0.0
 40
0.2
 41
0.2
  0
VERTEX
  8
0
 10
57.2093
 20
24.6999
 30
0.0
 40
0.2
 41
0.2
  0
VERTEX
  8
0
 10
57.241
 20
24.7151
 30
0.0
 40
0.2
 41
0.2
  0
VERTEX
  8
0
 10
57.2368
 20
24.7385
 30
0.0
 40
0.2
 41
0.2
  0
VERTEX
  8
0
 10
57.2135
 20
24.7427
 30
0.0
 40
0.2
 41
0.2
  0
VERTEX
  8
0
 10
57.1997
 20
24.711
 30
0.0
 40
0.2
 41
0.2
  0
VERTEX
  8
0
 10
57.1997
 20
24.6999
 30
0.0
 40
0.2
 41
0.2
  0
VERTEX
  8
0
 10
57.1997
 20
21.8006
 30
0.0
 40
0.2
 41
0.2
  0
VERTEX
  8
0
 10
57.1997
 20
21.784
 30
0.0
 40
0.2
 41
0.2
  0
VERTEX
  8
0
 10
57.2287
 20
21.7303
 30
0.0
 40
0.2
 41
0.2
  0
VERTEX
  8
0
 10
57.2823
 20
21.7
 30
0.0
 40
0.2
 41
0.2
  0
VERTEX
  8
0
 10
57.3003
 20
21.7
 30
0.0
 40
0.2
 41
0.2
  0
VERTEX
  8
0
 10
63.3003
 20
21.7
 30
0.0
 40
0.2
 41
0.2
  0
VERTEX
  8
0
 10
63.3166
 20
21.7
 30
0.0
 40
0.2
 41
0.2
  0
VERTEX
  8
0
 10
63.3705
 20
21.7303
 30
0.0
 40
0.2
 41
0.2
  0
VERTEX
  8
0
 10
63.4009
 20
21.784
 30
0.0
 40
0.2
 41
0.2
  0
VERTEX
  8
0
 10
63.4009
 20
21.8006
 30
0.0
 40
0.2
 41
0.2
  0
VERTEX
  8
0
 10
63.4009
 20
24.6999
 30
0.0
 40
0.2
 41
0.2
  0
VERTEX
  8
0
 10
63.4009
 20
24.711
 30
0.0
 40
0.2
 41
0.2
  0
VERTEX
  8
0
 10
63.3857
 20
24.7427
 30
0.0
 40
0.2
 41
0.2
  0
VERTEX
  8
0
 10
63.3621
 20
24.7385
 30
0.0
 40
0.2
 41
0.2
  0
VERTEX
  8
0
 10
63.3582
 20
24.7151
 30
0.0
 40
0.2
 41
0.2
  0
VERTEX
  8
0
 10
63.3899
 20
24.6999
 30
0.0
 40
0.2
 41
0.2
  0
VERTEX
  8
0
 10
63.4009
 20
24.6999
 30
0.0
 40
0.2
 41
0.2
  0
VERTEX
  8
0
 10
71.7998
 20
24.6999
 30
0.0
 40
0.2
 41
0.2
  0
VERTEX
  8
0
 10
80.2005
 20
24.6999
 30
0.0
 40
0.2
 41
0.2
  0
VERTEX
  8
0
 10
80.21
 20
24.6999
 30
0.0
 40
0.2
 41
0.2
  0
VERTEX
  8
0
 10
80.2418
 20
24.7151
 30
0.0
 40
0.2
 41
0.2
  0
VERTEX
  8
0
 10
80.2375
 20
24.7385
 30
0.0
 40
0.2
 41
0.2
  0
VERTEX
  8
0
 10
80.2143
 20
24.7427
 30
0.0
 40
0.2
 41
0.2
  0
VERTEX
  8
0
 10
80.2005
 20
24.711
 30
0.0
 40
0.2
 41
0.2
  0
VERTEX
  8
0
 10
80.2005
 20
24.6999
 30
0.0
 40
0.2
 41
0.2
  0
VERTEX
  8
0
 10
80.2005
 20
21.8006
 30
0.0
 40
0.2
 41
0.2
  0
VERTEX
  8
0
 10
80.2005
 20
21.784
 30
0.0
 40
0.2
 41
0.2
  0
VERTEX
  8
0
 10
80.2294
 20
21.7303
 30
0.0
 40
0.2
 41
0.2
  0
VERTEX
  8
0
 10
80.2816
 20
21.7
 30
0.0
 40
0.2
 41
0.2
  0
VERTEX
  8
0
 10
80.2996
 20
21.7
 30
0.0
 40
0.2
 41
0.2
  0
VERTEX
  8
0
 10
86.2997
 20
21.7
 30
0.0
 40
0.2
 41
0.2
  0
VERTEX
  8
0
 10
86.3163
 20
21.7
 30
0.0
 40
0.2
 41
0.2
  0
VERTEX
  8
0
 10
86.3699
 20
21.7303
 30
0.0
 40
0.2
 41
0.2
  0
VERTEX
  8
0
 10
86.4002
 20
21.784
 30
0.0
 40
0.2
 41
0.2
  0
VERTEX
  8
0
 10
86.4002
 20
21.8006
 30
0.0
 40
0.2
 41
0.2
  0
VERTEX
  8
0
 10
86.4002
 20
24.6999
 30
0.0
 40
0.2
 41
0.2
  0
VERTEX
  8
0
 10
86.4002
 20
24.711
 30
0.0
 40
0.2
 41
0.2
  0
VERTEX
  8
0
 10
86.385
 20
24.7427
 30
0.0
 40
0.2
 41
0.2
  0
VERTEX
  8
0
 10
86.3618
 20
24.7385
 30
0.0
 40
0.2
 41
0.2
  0
VERTEX
  8
0
 10
86.3575
 20
24.7151
 30
0.0
 40
0.2
 41
0.2
  0
VERTEX
  8
0
 10
86.3893
 20
24.6999
 30
0.0
 40
0.2
 41
0.2
  0
VERTEX
  8
0
 10
86.4002
 20
24.6999
 30
0.0
 40
0.2
 41
0.2
  0
VERTEX
  8
0
 10
92.2002
 20
24.6999
 30
0.0
 40
0.2
 41
0.2
  0
VERTEX
  8
0
 10
92.2101
 20
24.6999
 30
0.0
 40
0.2
 41
0.2
  0
VERTEX
  8
0
 10
92.2419
 20
24.7151
 30
0.0
 40
0.2
 41
0.2
  0
VERTEX
  8
0
 10
92.2376
 20
24.7385
 30
0.0
 40
0.2
 41
0.2
  0
VERTEX
  8
0
 10
92.2143
 20
24.7427
 30
0.0
 40
0.2
 41
0.2
  0
VERTEX
  8
0
 10
92.2002
 20
24.711
 30
0.0
 40
0.2
 41
0.2
  0
VERTEX
  8
0
 10
92.2002
 20
24.6999
 30
0.0
 40
0.2
 41
0.2
  0
VERTEX
  8
0
 10
92.2002
 20
21.8006
 30
0.0
 40
0.2
 41
0.2
  0
VERTEX
  8
0
 10
92.2002
 20
21.784
 30
0.0
 40
0.2
 41
0.2
  0
VERTEX
  8
0
 10
92.2295
 20
21.7303
 30
0.0
 40
0.2
 41
0.2
  0
VERTEX
  8
0
 10
92.2817
 20
21.7
 30
0.0
 40
0.2
 41
0.2
  0
VERTEX
  8
0
 10
92.2997
 20
21.7
 30
0.0
 40
0.2
 41
0.2
  0
VERTEX
  8
0
 10
98.2998
 20
21.7
 30
0.0
 40
0.2
 41
0.2
  0
VERTEX
  8
0
 10
98.316
 20
21.7
 30
0.0
 40
0.2
 41
0.2
  0
VERTEX
  8
0
 10
98.37
 20
21.7303
 30
0.0
 40
0.2
 41
0.2
  0
VERTEX
  8
0
 10
98.4003
 20
21.784
 30
0.0
 40
0.2
 41
0.2
  0
VERTEX
  8
0
 10
98.4003
 20
21.8006
 30
0.0
 40
0.2
 41
0.2
  0
VERTEX
  8
0
 10
98.4003
 20
24.6999
 30
0.0
 40
0.2
 41
0.2
  0
VERTEX
  8
0
 10
98.4003
 20
24.711
 30
0.0
 40
0.2
 41
0.2
  0
VERTEX
  8
0
 10
98.3851
 20
24.7427
 30
0.0
 40
0.2
 41
0.2
  0
VERTEX
  8
0
 10
98.3615
 20
24.7385
 30
0.0
 40
0.2
 41
0.2
  0
VERTEX
  8
0
 10
98.3576
 20
24.7151
 30
0.0
 40
0.2
 41
0.2
  0
VERTEX
  8
0
 10
98.389
 20
24.6999
 30
0.0
 40
0.2
 41
0.2
  0
VERTEX
  8
0
 10
98.4003
 20
24.6999
 30
0.0
 40
0.2
 41
0.2
  0
VERTEX
  8
0
 10
106.799
 20
24.6999
 30
0.0
 40
0.2
 41
0.2
  0
VERTEX
  8
0
 10
107.293
 20
24.6999
 30
0.0
 40
0.2
 41
0.2
  0
VERTEX
  8
0
 10
108.774
 20
24.8309
 30
0.0
 40
0.2
 41
0.2
  0
VERTEX
  8
0
 10
110.707
 20
25.2154
 30
0.0
 40
0.2
 41
0.2
  0
VERTEX
  8
0
 10
112.575
 20
25.8479
 30
0.0
 40
0.2
 41
0.2
  0
VERTEX
  8
0
 10
113.923
 20
26.4763
 30
0.0
 40
0.2
 41
0.2
  0
VERTEX
  8
0
 10
114.35
 20
26.7229
 30
0.0
 40
0.2
 41
0.2
  0
VERTEX
  8
0
 10
114.563
 20
26.847
 30
0.0
 40
0.2
 41
0.2
  0
VERTEX
  8
0
 10
115.191
 20
27.248
 30
0.0
 40
0.2
 41
0.2
  0
VERTEX
  8
0
 10
115.995
 20
27.824
 30
0.0
 40
0.2
 41
0.2
  0
VERTEX
  8
0
 10
116.757
 20
28.4496
 30
0.0
 40
0.2
 41
0.2
  0
VERTEX
  8
0
 10
117.476
 20
29.1235
 30
0.0
 40
0.2
 41
0.2
  0
VERTEX
  8
0
 10
118.15
 20
29.8428
 30
0.0
 40
0.2
 41
0.2
  0
VERTEX
  8
0
 10
118.776
 20
30.6048
 30
0.0
 40
0.2
 41
0.2
  0
VERTEX
  8
0
 10
119.352
 20
31.4083
 30
0.0
 40
0.2
 41
0.2
  0
VERTEX
  8
0
 10
119.753
 20
32.0366
 30
0.0
 40
0.2
 41
0.2
  0
VERTEX
  8
0
 10
119.877
 20
32.2502
 30
0.0
 40
0.2
 41
0.2
  0
VERTEX
  8
0
 10
120.124
 20
32.6788
 30
0.0
 40
0.2
 41
0.2
  0
VERTEX
  8
0
 10
120.752
 20
34.0265
 30
0.0
 40
0.2
 41
0.2
  0
VERTEX
  8
0
 10
121.384
 20
35.8923
 30
0.0
 40
0.2
 41
0.2
  0
VERTEX
  8
0
 10
121.769
 20
37.8259
 30
0.0
 40
0.2
 41
0.2
  0
VERTEX
  8
0
 10
121.9
 20
39.3072
 30
0.0
 40
0.2
 41
0.2
  0
VERTEX
  8
0
 10
121.9
 20
39.8004
 30
0.0
 40
0.2
 41
0.2
  0
VERTEX
  8
0
 10
121.9
 20
49.7004
 30
0.0
 40
0.2
 41
0.2
  0
VERTEX
  8
0
 10
121.9
 20
49.7113
 30
0.0
 40
0.2
 41
0.2
  0
VERTEX
  8
0
 10
121.885
 20
49.7431
 30
0.0
 40
0.2
 41
0.2
  0
VERTEX
  8
0
 10
121.863
 20
49.7374
 30
0.0
 40
0.2
 41
0.2
  0
VERTEX
  8
0
 10
121.857
 20
49.7156
 30
0.0
 40
0.2
 41
0.2
  0
VERTEX
  8
0
 10
121.889
 20
49.7004
 30
0.0
 40
0.2
 41
0.2
  0
VERTEX
  8
0
 10
121.9
 20
49.7004
 30
0.0
 40
0.2
 41
0.2
  0
VERTEX
  8
0
 10
124.801
 20
49.7004
 30
0.0
 40
0.2
 41
0.2
  0
VERTEX
  8
0
 10
124.817
 20
49.7004
 30
0.0
 40
0.2
 41
0.2
  0
VERTEX
  8
0
 10
124.871
 20
49.7293
 30
0.0
 40
0.2
 41
0.2
  0
VERTEX
  8
0
 10
124.9
 20
49.7829
 30
0.0
 40
0.2
 41
0.2
  0
VERTEX
  8
0
 10
124.9
 20
49.7995
 30
0.0
 40
0.2
 41
0.2
  0
VERTEX
  8
0
 10
124.9
 20
55.7996
 30
0.0
 40
0.2
 41
0.2
  0
VERTEX
  8
0
 10
124.9
 20
55.8176
 30
0.0
 40
0.2
 41
0.2
  0
VERTEX
  8
0
 10
124.871
 20
55.8712
 30
0.0
 40
0.2
 41
0.2
  0
VERTEX
  8
0
 10
124.817
 20
55.9001
 30
0.0
 40
0.2
 41
0.2
  0
VERTEX
  8
0
 10
124.801
 20
55.9001
 30
0.0
 40
0.2
 41
0.2
  0
VERTEX
  8
0
 10
121.9
 20
55.9001
 30
0.0
 40
0.2
 41
0.2
  0
VERTEX
  8
0
 10
121.889
 20
55.9001
 30
0.0
 40
0.2
 41
0.2
  0
VERTEX
  8
0
 10
121.857
 20
55.8863
 30
0.0
 40
0.2
 41
0.2
  0
VERTEX
  8
0
 10
121.863
 20
55.8631
 30
0.0
 40
0.2
 41
0.2
  0
VERTEX
  8
0
 10
121.885
 20
55.8588
 30
0.0
 40
0.2
 41
0.2
  0
VERTEX
  8
0
 10
121.9
 20
55.8906
 30
0.0
 40
0.2
 41
0.2
  0
VERTEX
  8
0
 10
121.9
 20
55.9001
 30
0.0
 40
0.2
 41
0.2
  0
VERTEX
  8
0
 10
121.9
 20
61.7001
 30
0.0
 40
0.2
 41
0.2
  0
VERTEX
  8
0
 10
121.9
 20
61.7114
 30
0.0
 40
0.2
 41
0.2
  0
VERTEX
  8
0
 10
121.885
 20
61.7432
 30
0.0
 40
0.2
 41
0.2
  0
VERTEX
  8
0
 10
121.863
 20
61.7375
 30
0.0
 40
0.2
 41
0.2
  0
VERTEX
  8
0
 10
121.857
 20
61.7153
 30
0.0
 40
0.2
 41
0.2
  0
VERTEX
  8
0
 10
121.889
 20
61.7001
 30
0.0
 40
0.2
 41
0.2
  0
VERTEX
  8
0
 10
121.9
 20
61.7001
 30
0.0
 40
0.2
 41
0.2
  0
VERTEX
  8
0
 10
124.801
 20
61.7001
 30
0.0
 40
0.2
 41
0.2
  0
VERTEX
  8
0
 10
124.817
 20
61.7001
 30
0.0
 40
0.2
 41
0.2
  0
VERTEX
  8
0
 10
124.871
 20
61.7291
 30
0.0
 40
0.2
 41
0.2
  0
VERTEX
  8
0
 10
124.9
 20
61.783
 30
0.0
 40
0.2
 41
0.2
  0
VERTEX
  8
0
 10
124.9
 20
61.7996
 30
0.0
 40
0.2
 41
0.2
  0
VERTEX
  8
0
 10
124.9
 20
67.7997
 30
0.0
 40
0.2
 41
0.2
  0
VERTEX
  8
0
 10
124.9
 20
67.8173
 30
0.0
 40
0.2
 41
0.2
  0
VERTEX
  8
0
 10
124.871
 20
67.8713
 30
0.0
 40
0.2
 41
0.2
  0
VERTEX
  8
0
 10
124.817
 20
67.9002
 30
0.0
 40
0.2
 41
0.2
  0
VERTEX
  8
0
 10
124.801
 20
67.9002
 30
0.0
 40
0.2
 41
0.2
  0
VERTEX
  8
0
 10
121.9
 20
67.9002
 30
0.0
 40
0.2
 41
0.2
  0
VERTEX
  8
0
 10
121.889
 20
67.9002
 30
0.0
 40
0.2
 41
0.2
  0
VERTEX
  8
0
 10
121.857
 20
67.8864
 30
0.0
 40
0.2
 41
0.2
  0
VERTEX
  8
0
 10
121.863
 20
67.8628
 30
0.0
 40
0.2
 41
0.2
  0
VERTEX
  8
0
 10
121.885
 20
67.8586
 30
0.0
 40
0.2
 41
0.2
  0
VERTEX
  8
0
 10
121.9
 20
67.8903
 30
0.0
 40
0.2
 41
0.2
  0
VERTEX
  8
0
 10
121.9
 20
67.9002
 30
0.0
 40
0.2
 41
0.2
  0
VERTEX
  8
0
 10
121.9
 20
73.7002
 30
0.0
 40
0.2
 41
0.2
  0
VERTEX
  8
0
 10
121.9
 20
73.7112
 30
0.0
 40
0.2
 41
0.2
  0
VERTEX
  8
0
 10
121.885
 20
73.7429
 30
0.0
 40
0.2
 41
0.2
  0
VERTEX
  8
0
 10
121.863
 20
73.7376
 30
0.0
 40
0.2
 41
0.2
  0
VERTEX
  8
0
 10
121.857
 20
73.7154
 30
0.0
 40
0.2
 41
0.2
  0
VERTEX
  8
0
 10
121.889
 20
73.7002
 30
0.0
 40
0.2
 41
0.2
  0
VERTEX
  8
0
 10
121.9
 20
73.7002
 30
0.0
 40
0.2
 41
0.2
  0
VERTEX
  8
0
 10
124.801
 20
73.7002
 30
0.0
 40
0.2
 41
0.2
  0
VERTEX
  8
0
 10
124.817
 20
73.7002
 30
0.0
 40
0.2
 41
0.2
  0
VERTEX
  8
0
 10
124.871
 20
73.7291
 30
0.0
 40
0.2
 41
0.2
  0
VERTEX
  8
0
 10
124.9
 20
73.7828
 30
0.0
 40
0.2
 41
0.2
  0
VERTEX
  8
0
 10
124.9
 20
73.7994
 30
0.0
 40
0.2
 41
0.2
  0
VERTEX
  8
0
 10
124.9
 20
79.7994
 30
0.0
 40
0.2
 41
0.2
  0
VERTEX
  8
0
 10
124.9
 20
79.8174
 30
0.0
 40
0.2
 41
0.2
  0
VERTEX
  8
0
 10
124.871
 20
79.871
 30
0.0
 40
0.2
 41
0.2
  0
VERTEX
  8
0
 10
124.817
 20
79.8999
 30
0.0
 40
0.2
 41
0.2
  0
VERTEX
  8
0
 10
124.801
 20
79.8999
 30
0.0
 40
0.2
 41
0.2
  0
VERTEX
  8
0
 10
121.9
 20
79.8999
 30
0.0
 40
0.2
 41
0.2
  0
VERTEX
  8
0
 10
121.889
 20
79.8999
 30
0.0
 40
0.2
 41
0.2
  0
VERTEX
  8
0
 10
121.857
 20
79.8862
 30
0.0
 40
0.2
 41
0.2
  0
VERTEX
  8
0
 10
121.863
 20
79.8629
 30
0.0
 40
0.2
 41
0.2
  0
VERTEX
  8
0
 10
121.885
 20
79.8587
 30
0.0
 40
0.2
 41
0.2
  0
VERTEX
  8
0
 10
121.9
 20
79.8904
 30
0.0
 40
0.2
 41
0.2
  0
VERTEX
  8
0
 10
121.9
 20
79.8999
 30
0.0
 40
0.2
 41
0.2
  0
VERTEX
  8
0
 10
121.9
 20
89.7999
 30
0.0
 40
0.2
 41
0.2
  0
VERTEX
  8
0
 10
121.9
 20
90.2945
 30
0.0
 40
0.2
 41
0.2
  0
VERTEX
  8
0
 10
121.769
 20
91.7758
 30
0.0
 40
0.2
 41
0.2
  0
VERTEX
  8
0
 10
121.384
 20
93.7094
 30
0.0
 40
0.2
 41
0.2
  0
VERTEX
  8
0
 10
120.752
 20
95.5753
 30
0.0
 40
0.2
 41
0.2
  0
VERTEX
  8
0
 10
120.124
 20
96.9229
 30
0.0
 40
0.2
 41
0.2
  0
VERTEX
  8
0
 10
119.877
 20
97.3501
 30
0.0
 40
0.2
 41
0.2
  0
VERTEX
  8
0
 10
119.753
 20
97.5653
 30
0.0
 40
0.2
 41
0.2
  0
VERTEX
  8
0
 10
119.352
 20
98.1936
 30
0.0
 40
0.2
 41
0.2
  0
VERTEX
  8
0
 10
118.776
 20
98.9969
 30
0.0
 40
0.2
 41
0.2
  0
VERTEX
  8
0
 10
118.15
 20
99.7589
 30
0.0
 40
0.2
 41
0.2
  0
VERTEX
  8
0
 10
117.476
 20
100.478
 30
0.0
 40
0.2
 41
0.2
  0
VERTEX
  8
0
 10
116.757
 20
101.152
 30
0.0
 40
0.2
 41
0.2
  0
VERTEX
  8
0
 10
115.995
 20
101.778
 30
0.0
 40
0.2
 41
0.2
  0
VERTEX
  8
0
 10
115.191
 20
102.354
 30
0.0
 40
0.2
 41
0.2
  0
VERTEX
  8
0
 10
114.563
 20
102.755
 30
0.0
 40
0.2
 41
0.2
  0
VERTEX
  8
0
 10
114.35
 20
102.877
 30
0.0
 40
0.2
 41
0.2
  0
VERTEX
  8
0
 10
113.921
 20
103.125
 30
0.0
 40
0.2
 41
0.2
  0
VERTEX
  8
0
 10
112.575
 20
103.754
 30
0.0
 40
0.2
 41
0.2
  0
VERTEX
  8
0
 10
110.707
 20
104.386
 30
0.0
 40
0.2
 41
0.2
  0
VERTEX
  8
0
 10
108.774
 20
104.771
 30
0.0
 40
0.2
 41
0.2
  0
VERTEX
  8
0
 10
107.293
 20
104.9
 30
0.0
 40
0.2
 41
0.2
  0
VERTEX
  8
0
 10
106.799
 20
104.9
 30
0.0
 40
0.2
 41
0.2
  0
VERTEX
  8
0
 10
98.9005
 20
104.9
 30
0.0
 40
0.2
 41
0.2
  0
VERTEX
  8
0
 10
98.8893
 20
104.9
 30
0.0
 40
0.2
 41
0.2
  0
VERTEX
  8
0
 10
98.8579
 20
104.886
 30
0.0
 40
0.2
 41
0.2
  0
VERTEX
  8
0
 10
98.8617
 20
104.863
 30
0.0
 40
0.2
 41
0.2
  0
VERTEX
  8
0
 10
98.8854
 20
104.859
 30
0.0
 40
0.2
 41
0.2
  0
VERTEX
  8
0
 10
98.9005
 20
104.891
 30
0.0
 40
0.2
 41
0.2
  0
VERTEX
  8
0
 10
98.9005
 20
104.9
 30
0.0
 40
0.2
 41
0.2
  0
VERTEX
  8
0
 10
98.9005
 20
107.8
 30
0.0
 40
0.2
 41
0.2
  0
VERTEX
  8
0
 10
98.9005
 20
107.818
 30
0.0
 40
0.2
 41
0.2
  0
VERTEX
  8
0
 10
98.8702
 20
107.871
 30
0.0
 40
0.2
 41
0.2
  0
VERTEX
  8
0
 10
98.8162
 20
107.9
 30
0.0
 40
0.2
 41
0.2
  0
VERTEX
  8
0
 10
98.8
 20
107.9
 30
0.0
 40
0.2
 41
0.2
  0
VERTEX
  8
0
 10
92.8
 20
107.9
 30
0.0
 40
0.2
 41
0.2
  0
VERTEX
  8
0
 10
92.782
 20
107.9
 30
0.0
 40
0.2
 41
0.2
  0
VERTEX
  8
0
 10
92.7294
 20
107.871
 30
0.0
 40
0.2
 41
0.2
  0
VERTEX
  8
0
 10
92.7005
 20
107.818
 30
0.0
 40
0.2
 41
0.2
  0
VERTEX
  8
0
 10
92.7005
 20
107.8
 30
0.0
 40
0.2
 41
0.2
  0
VERTEX
  8
0
 10
92.7005
 20
104.9
 30
0.0
 40
0.2
 41
0.2
  0
VERTEX
  8
0
 10
92.7005
 20
104.891
 30
0.0
 40
0.2
 41
0.2
  0
VERTEX
  8
0
 10
92.7146
 20
104.859
 30
0.0
 40
0.2
 41
0.2
  0
VERTEX
  8
0
 10
92.7379
 20
104.863
 30
0.0
 40
0.2
 41
0.2
  0
VERTEX
  8
0
 10
92.7421
 20
104.886
 30
0.0
 40
0.2
 41
0.2
  0
VERTEX
  8
0
 10
92.7104
 20
104.9
 30
0.0
 40
0.2
 41
0.2
  0
VERTEX
  8
0
 10
92.7005
 20
104.9
 30
0.0
 40
0.2
 41
0.2
  0
VERTEX
  8
0
 10
86.9005
 20
104.9
 30
0.0
 40
0.2
 41
0.2
  0
VERTEX
  8
0
 10
86.8895
 20
104.9
 30
0.0
 40
0.2
 41
0.2
  0
VERTEX
  8
0
 10
86.8578
 20
104.886
 30
0.0
 40
0.2
 41
0.2
  0
VERTEX
  8
0
 10
86.862
 20
104.863
 30
0.0
 40
0.2
 41
0.2
  0
VERTEX
  8
0
 10
86.8853
 20
104.859
 30
0.0
 40
0.2
 41
0.2
  0
VERTEX
  8
0
 10
86.9005
 20
104.891
 30
0.0
 40
0.2
 41
0.2
  0
VERTEX
  8
0
 10
86.9005
 20
104.9
 30
0.0
 40
0.2
 41
0.2
  0
VERTEX
  8
0
 10
86.9005
 20
107.8
 30
0.0
 40
0.2
 41
0.2
  0
VERTEX
  8
0
 10
86.9005
 20
107.818
 30
0.0
 40
0.2
 41
0.2
  0
VERTEX
  8
0
 10
86.8701
 20
107.871
 30
0.0
 40
0.2
 41
0.2
  0
VERTEX
  8
0
 10
86.8165
 20
107.9
 30
0.0
 40
0.2
 41
0.2
  0
VERTEX
  8
0
 10
86.7999
 20
107.9
 30
0.0
 40
0.2
 41
0.2
  0
VERTEX
  8
0
 10
80.7999
 20
107.9
 30
0.0
 40
0.2
 41
0.2
  0
VERTEX
  8
0
 10
80.7819
 20
107.9
 30
0.0
 40
0.2
 41
0.2
  0
VERTEX
  8
0
 10
80.7297
 20
107.871
 30
0.0
 40
0.2
 41
0.2
  0
VERTEX
  8
0
 10
80.7007
 20
107.818
 30
0.0
 40
0.2
 41
0.2
  0
VERTEX
  8
0
 10
80.7007
 20
107.8
 30
0.0
 40
0.2
 41
0.2
  0
VERTEX
  8
0
 10
80.7007
 20
104.9
 30
0.0
 40
0.2
 41
0.2
  0
VERTEX
  8
0
 10
80.7007
 20
104.891
 30
0.0
 40
0.2
 41
0.2
  0
VERTEX
  8
0
 10
80.7145
 20
104.859
 30
0.0
 40
0.2
 41
0.2
  0
VERTEX
  8
0
 10
80.7378
 20
104.863
 30
0.0
 40
0.2
 41
0.2
  0
VERTEX
  8
0
 10
80.742
 20
104.886
 30
0.0
 40
0.2
 41
0.2
  0
VERTEX
  8
0
 10
80.7103
 20
104.9
 30
0.0
 40
0.2
 41
0.2
  0
VERTEX
  8
0
 10
80.7007
 20
104.9
 30
0.0
 40
0.2
 41
0.2
  0
VERTEX
  8
0
 10
74.9004
 20
104.9
 30
0.0
 40
0.2
 41
0.2
  0
VERTEX
  8
0
 10
74.8894
 20
104.9
 30
0.0
 40
0.2
 41
0.2
  0
VERTEX
  8
0
 10
74.8577
 20
104.886
 30
0.0
 40
0.2
 41
0.2
  0
VERTEX
  8
0
 10
74.8619
 20
104.863
 30
0.0
 40
0.2
 41
0.2
  0
VERTEX
  8
0
 10
74.8852
 20
104.859
 30
0.0
 40
0.2
 41
0.2
  0
VERTEX
  8
0
 10
74.9004
 20
104.891
 30
0.0
 40
0.2
 41
0.2
  0
VERTEX
  8
0
 10
74.9004
 20
104.9
 30
0.0
 40
0.2
 41
0.2
  0
VERTEX
  8
0
 10
74.9004
 20
107.8
 30
0.0
 40
0.2
 41
0.2
  0
VERTEX
  8
0
 10
74.9004
 20
107.818
 30
0.0
 40
0.2
 41
0.2
  0
VERTEX
  8
0
 10
74.87
 20
107.871
 30
0.0
 40
0.2
 41
0.2
  0
VERTEX
  8
0
 10
74.8164
 20
107.9
 30
0.0
 40
0.2
 41
0.2
  0
VERTEX
  8
0
 10
74.7998
 20
107.9
 30
0.0
 40
0.2
 41
0.2
  0
VERTEX
  8
0
 10
68.7998
 20
107.9
 30
0.0
 40
0.2
 41
0.2
  0
VERTEX
  8
0
 10
68.7821
 20
107.9
 30
0.0
 40
0.2
 41
0.2
  0
VERTEX
  8
0
 10
68.7282
 20
107.871
 30
0.0
 40
0.2
 41
0.2
  0
VERTEX
  8
0
 10
68.6992
 20
107.818
 30
0.0
 40
0.2
 41
0.2
  0
VERTEX
  8
0
 10
68.6992
 20
107.8
 30
0.0
 40
0.2
 41
0.2
  0
VERTEX
  8
0
 10
68.6992
 20
104.9
 30
0.0
 40
0.2
 41
0.2
  0
VERTEX
  8
0
 10
68.6992
 20
104.891
 30
0.0
 40
0.2
 41
0.2
  0
VERTEX
  8
0
 10
68.713
 20
104.859
 30
0.0
 40
0.2
 41
0.2
  0
VERTEX
  8
0
 10
68.7366
 20
104.863
 30
0.0
 40
0.2
 41
0.2
  0
VERTEX
  8
0
 10
68.7405
 20
104.886
 30
0.0
 40
0.2
 41
0.2
  0
VERTEX
  8
0
 10
68.7091
 20
104.9
 30
0.0
 40
0.2
 41
0.2
  0
VERTEX
  8
0
 10
68.6992
 20
104.9
 30
0.0
 40
0.2
 41
0.2
  0
VERTEX
  8
0
 10
62.9006
 20
104.9
 30
0.0
 40
0.2
 41
0.2
  0
VERTEX
  8
0
 10
62.8897
 20
104.9
 30
0.0
 40
0.2
 41
0.2
  0
VERTEX
  8
0
 10
62.8579
 20
104.886
 30
0.0
 40
0.2
 41
0.2
  0
VERTEX
  8
0
 10
62.8618
 20
104.863
 30
0.0
 40
0.2
 41
0.2
  0
VERTEX
  8
0
 10
62.8855
 20
104.859
 30
0.0
 40
0.2
 41
0.2
  0
VERTEX
  8
0
 10
62.9006
 20
104.891
 30
0.0
 40
0.2
 41
0.2
  0
VERTEX
  8
0
 10
62.9006
 20
104.9
 30
0.0
 40
0.2
 41
0.2
  0
VERTEX
  8
0
 10
62.9006
 20
107.8
 30
0.0
 40
0.2
 41
0.2
  0
VERTEX
  8
0
 10
62.9006
 20
107.818
 30
0.0
 40
0.2
 41
0.2
  0
VERTEX
  8
0
 10
62.8703
 20
107.871
 30
0.0
 40
0.2
 41
0.2
  0
VERTEX
  8
0
 10
62.8167
 20
107.9
 30
0.0
 40
0.2
 41
0.2
  0
VERTEX
  8
0
 10
62.8001
 20
107.9
 30
0.0
 40
0.2
 41
0.2
  0
VERTEX
  8
0
 10
56.8
 20
107.9
 30
0.0
 40
0.2
 41
0.2
  0
VERTEX
  8
0
 10
56.7821
 20
107.9
 30
0.0
 40
0.2
 41
0.2
  0
VERTEX
  8
0
 10
56.7284
 20
107.871
 30
0.0
 40
0.2
 41
0.2
  0
VERTEX
  8
0
 10
56.6995
 20
107.818
 30
0.0
 40
0.2
 41
0.2
  0
VERTEX
  8
0
 10
56.6995
 20
107.8
 30
0.0
 40
0.2
 41
0.2
  0
VERTEX
  8
0
 10
56.6995
 20
104.9
 30
0.0
 40
0.2
 41
0.2
  0
VERTEX
  8
0
 10
56.6995
 20
104.891
 30
0.0
 40
0.2
 41
0.2
  0
VERTEX
  8
0
 10
56.7133
 20
104.859
 30
0.0
 40
0.2
 41
0.2
  0
VERTEX
  8
0
 10
56.7365
 20
104.863
 30
0.0
 40
0.2
 41
0.2
  0
VERTEX
  8
0
 10
56.7408
 20
104.886
 30
0.0
 40
0.2
 41
0.2
  0
VERTEX
  8
0
 10
56.709
 20
104.9
 30
0.0
 40
0.2
 41
0.2
  0
VERTEX
  8
0
 10
56.6995
 20
104.9
 30
0.0
 40
0.2
 41
0.2
  0
VERTEX
  8
0
 10
50.8991
 20
104.9
 30
0.0
 40
0.2
 41
0.2
  0
VERTEX
  8
0
 10
50.8882
 20
104.9
 30
0.0
 40
0.2
 41
0.2
  0
VERTEX
  8
0
 10
50.8564
 20
104.886
 30
0.0
 40
0.2
 41
0.2
  0
VERTEX
  8
0
 10
50.8621
 20
104.863
 30
0.0
 40
0.2
 41
0.2
  0
VERTEX
  8
0
 10
50.884
 20
104.859
 30
0.0
 40
0.2
 41
0.2
  0
VERTEX
  8
0
 10
50.8991
 20
104.891
 30
0.0
 40
0.2
 41
0.2
  0
VERTEX
  8
0
 10
50.8991
 20
104.9
 30
0.0
 40
0.2
 41
0.2
  0
VERTEX
  8
0
 10
50.8991
 20
107.8
 30
0.0
 40
0.2
 41
0.2
  0
VERTEX
  8
0
 10
50.8991
 20
107.818
 30
0.0
 40
0.2
 41
0.2
  0
VERTEX
  8
0
 10
50.8702
 20
107.871
 30
0.0
 40
0.2
 41
0.2
  0
VERTEX
  8
0
 10
50.8166
 20
107.9
 30
0.0
 40
0.2
 41
0.2
  0
VERTEX
  8
0
 10
50.8
 20
107.9
 30
0.0
 40
0.2
 41
0.2
  0
VERTEX
  8
0
 10
44.8
 20
107.9
 30
0.0
 40
0.2
 41
0.2
  0
VERTEX
  8
0
 10
44.782
 20
107.9
 30
0.0
 40
0.2
 41
0.2
  0
VERTEX
  8
0
 10
44.7298
 20
107.871
 30
0.0
 40
0.2
 41
0.2
  0
VERTEX
  8
0
 10
44.7008
 20
107.818
 30
0.0
 40
0.2
 41
0.2
  0
VERTEX
  8
0
 10
44.7008
 20
107.8
 30
0.0
 40
0.2
 41
0.2
  0
VERTEX
  8
0
 10
44.7008
 20
104.9
 30
0.0
 40
0.2
 41
0.2
  0
VERTEX
  8
0
 10
44.7008
 20
104.891
 30
0.0
 40
0.2
 41
0.2
  0
VERTEX
  8
0
 10
44.7146
 20
104.859
 30
0.0
 40
0.2
 41
0.2
  0
VERTEX
  8
0
 10
44.7379
 20
104.863
 30
0.0
 40
0.2
 41
0.2
  0
VERTEX
  8
0
 10
44.7421
 20
104.886
 30
0.0
 40
0.2
 41
0.2
  0
VERTEX
  8
0
 10
44.7103
 20
104.9
 30
0.0
 40
0.2
 41
0.2
  0
VERTEX
  8
0
 10
44.7008
 20
104.9
 30
0.0
 40
0.2
 41
0.2
  0
VERTEX
  8
0
 10
36.8004
 20
104.9
 30
0.0
 40
0.2
 41
0.2
  0
VERTEX
  8
0
 10
36.3058
 20
104.9
 30
0.0
 40
0.2
 41
0.2
  0
VERTEX
  8
0
 10
34.8244
 20
104.771
 30
0.0
 40
0.2
 41
0.2
  0
VERTEX
  8
0
 10
32.891
 20
104.386
 30
0.0
 40
0.2
 41
0.2
  0
VERTEX
  8
0
 10
31.0251
 20
103.754
 30
0.0
 40
0.2
 41
0.2
  0
VERTEX
  8
0
 10
29.6774
 20
103.124
 30
0.0
 40
0.2
 41
0.2
  0
VERTEX
  8
0
 10
29.2503
 20
102.877
 30
0.0
 40
0.2
 41
0.2
  0
VERTEX
  8
0
 10
29.0353
 20
102.754
 30
0.0
 40
0.2
 41
0.2
  0
VERTEX
  8
0
 10
28.4069
 20
102.354
 30
0.0
 40
0.2
 41
0.2
  0
VERTEX
  8
0
 10
27.6035
 20
101.778
 30
0.0
 40
0.2
 41
0.2
  0
VERTEX
  8
0
 10
26.8414
 20
101.152
 30
0.0
 40
0.2
 41
0.2
  0
VERTEX
  8
0
 10
26.1221
 20
100.478
 30
0.0
 40
0.2
 41
0.2
  0
VERTEX
  8
0
 10
25.4482
 20
99.7589
 30
0.0
 40
0.2
 41
0.2
  0
VERTEX
  8
0
 10
24.8226
 20
98.9969
 30
0.0
 40
0.2
 41
0.2
  0
VERTEX
  8
0
 10
24.2466
 20
98.1936
 30
0.0
 40
0.2
 41
0.2
  0
VERTEX
  8
0
 10
23.847
 20
97.5653
 30
0.0
 40
0.2
 41
0.2
  0
VERTEX
  8
0
 10
23.7229
 20
97.3501
 30
0.0
 40
0.2
 41
0.2
  0
VERTEX
  8
0
 10
23.4763
 20
96.9229
 30
0.0
 40
0.2
 41
0.2
  0
VERTEX
  8
0
 10
22.8465
 20
95.5753
 30
0.0
 40
0.2
 41
0.2
  0
VERTEX
  8
0
 10
22.214
 20
93.7094
 30
0.0
 40
0.2
 41
0.2
  0
VERTEX
  8
0
 10
21.8295
 20
91.7758
 30
0.0
 40
0.2
 41
0.2
  0
VERTEX
  8
0
 10
21.7
 20
90.2945
 30
0.0
 40
0.2
 41
0.2
  0
VERTEX
  8
0
 10
21.7
 20
89.7999
 30
0.0
 40
0.2
 41
0.2
  0
VERTEX
  8
0
 10
21.7
 20
79.8999
 30
0.0
 40
0.2
 41
0.2
  0
VERTEX
  8
0
 10
21.7
 20
79.8904
 30
0.0
 40
0.2
 41
0.2
  0
VERTEX
  8
0
 10
21.7138
 20
79.8587
 30
0.0
 40
0.2
 41
0.2
  0
VERTEX
  8
0
 10
21.7372
 20
79.8629
 30
0.0
 40
0.2
 41
0.2
  0
VERTEX
  8
0
 10
21.7413
 20
79.8862
 30
0.0
 40
0.2
 41
0.2
  0
VERTEX
  8
0
 10
21.7096
 20
79.8999
 30
0.0
 40
0.2
 41
0.2
  0
VERTEX
  8
0
 10
21.7
 20
79.8999
 30
0.0
 40
0.2
 41
0.2
  0
VERTEX
  8
0
 10
18.7992
 20
79.8999
 30
0.0
 40
0.2
 41
0.2
  0
VERTEX
  8
0
 10
18.7813
 20
79.8999
 30
0.0
 40
0.2
 41
0.2
  0
VERTEX
  8
0
 10
18.7289
 20
79.871
 30
0.0
 40
0.2
 41
0.2
  0
VERTEX
  8
0
 10
18.7
 20
79.8174
 30
0.0
 40
0.2
 41
0.2
  0
VERTEX
  8
0
 10
18.7
 20
79.7994
 30
0.0
 40
0.2
 41
0.2
  0
VERTEX
  8
0
 10
18.7
 20
73.7994
 30
0.0
 40
0.2
 41
0.2
  0
VERTEX
  8
0
 10
18.7
 20
73.7828
 30
0.0
 40
0.2
 41
0.2
  0
VERTEX
  8
0
 10
18.7289
 20
73.7291
 30
0.0
 40
0.2
 41
0.2
  0
VERTEX
  8
0
 10
18.7813
 20
73.7002
 30
0.0
 40
0.2
 41
0.2
  0
VERTEX
  8
0
 10
18.7992
 20
73.7002
 30
0.0
 40
0.2
 41
0.2
  0
VERTEX
  8
0
 10
21.7
 20
73.7002
 30
0.0
 40
0.2
 41
0.2
  0
VERTEX
  8
0
 10
21.7096
 20
73.7002
 30
0.0
 40
0.2
 41
0.2
  0
VERTEX
  8
0
 10
21.7413
 20
73.7154
 30
0.0
 40
0.2
 41
0.2
  0
VERTEX
  8
0
 10
21.7372
 20
73.7376
 30
0.0
 40
0.2
 41
0.2
  0
VERTEX
  8
0
 10
21.7138
 20
73.7429
 30
0.0
 40
0.2
 41
0.2
  0
VERTEX
  8
0
 10
21.7
 20
73.7112
 30
0.0
 40
0.2
 41
0.2
  0
VERTEX
  8
0
 10
21.7
 20
73.7002
 30
0.0
 40
0.2
 41
0.2
  0
VERTEX
  8
0
 10
21.7
 20
67.9002
 30
0.0
 40
0.2
 41
0.2
  0
VERTEX
  8
0
 10
21.7
 20
67.8903
 30
0.0
 40
0.2
 41
0.2
  0
VERTEX
  8
0
 10
21.7138
 20
67.8586
 30
0.0
 40
0.2
 41
0.2
  0
VERTEX
  8
0
 10
21.7372
 20
67.8628
 30
0.0
 40
0.2
 41
0.2
  0
VERTEX
  8
0
 10
21.7413
 20
67.8864
 30
0.0
 40
0.2
 41
0.2
  0
VERTEX
  8
0
 10
21.7096
 20
67.9002
 30
0.0
 40
0.2
 41
0.2
  0
VERTEX
  8
0
 10
21.7
 20
67.9002
 30
0.0
 40
0.2
 41
0.2
  0
VERTEX
  8
0
 10
18.7992
 20
67.9002
 30
0.0
 40
0.2
 41
0.2
  0
VERTEX
  8
0
 10
18.7813
 20
67.9002
 30
0.0
 40
0.2
 41
0.2
  0
VERTEX
  8
0
 10
18.7289
 20
67.8713
 30
0.0
 40
0.2
 41
0.2
  0
VERTEX
  8
0
 10
18.7
 20
67.8173
 30
0.0
 40
0.2
 41
0.2
  0
VERTEX
  8
0
 10
18.7
 20
67.7997
 30
0.0
 40
0.2
 41
0.2
  0
VERTEX
  8
0
 10
18.7
 20
61.7996
 30
0.0
 40
0.2
 41
0.2
  0
VERTEX
  8
0
 10
18.7
 20
61.783
 30
0.0
 40
0.2
 41
0.2
  0
VERTEX
  8
0
 10
18.7289
 20
61.7291
 30
0.0
 40
0.2
 41
0.2
  0
VERTEX
  8
0
 10
18.7813
 20
61.7001
 30
0.0
 40
0.2
 41
0.2
  0
VERTEX
  8
0
 10
18.7992
 20
61.7001
 30
0.0
 40
0.2
 41
0.2
  0
VERTEX
  8
0
 10
21.7
 20
61.7001
 30
0.0
 40
0.2
 41
0.2
  0
VERTEX
  8
0
 10
21.7096
 20
61.7001
 30
0.0
 40
0.2
 41
0.2
  0
VERTEX
  8
0
 10
21.7413
 20
61.7153
 30
0.0
 40
0.2
 41
0.2
  0
VERTEX
  8
0
 10
21.7372
 20
61.7375
 30
0.0
 40
0.2
 41
0.2
  0
VERTEX
  8
0
 10
21.7138
 20
61.7432
 30
0.0
 40
0.2
 41
0.2
  0
VERTEX
  8
0
 10
21.7
 20
61.7114
 30
0.0
 40
0.2
 41
0.2
  0
VERTEX
  8
0
 10
21.7
 20
61.7001
 30
0.0
 40
0.2
 41
0.2
  0
VERTEX
  8
0
 10
21.7
 20
55.9001
 30
0.0
 40
0.2
 41
0.2
  0
VERTEX
  8
0
 10
21.7
 20
55.8906
 30
0.0
 40
0.2
 41
0.2
  0
VERTEX
  8
0
 10
21.7138
 20
55.8588
 30
0.0
 40
0.2
 41
0.2
  0
VERTEX
  8
0
 10
21.7372
 20
55.8631
 30
0.0
 40
0.2
 41
0.2
  0
VERTEX
  8
0
 10
21.7413
 20
55.8863
 30
0.0
 40
0.2
 41
0.2
  0
VERTEX
  8
0
 10
21.7096
 20
55.9001
 30
0.0
 40
0.2
 41
0.2
  0
VERTEX
  8
0
 10
21.7
 20
55.9001
 30
0.0
 40
0.2
 41
0.2
  0
VERTEX
  8
0
 10
18.7992
 20
55.9001
 30
0.0
 40
0.2
 41
0.2
  0
VERTEX
  8
0
 10
18.7813
 20
55.9001
 30
0.0
 40
0.2
 41
0.2
  0
VERTEX
  8
0
 10
18.7289
 20
55.8712
 30
0.0
 40
0.2
 41
0.2
  0
VERTEX
  8
0
 10
18.7
 20
55.8176
 30
0.0
 40
0.2
 41
0.2
  0
VERTEX
  8
0
 10
18.7
 20
55.7996
 30
0.0
 40
0.2
 41
0.2
  0
VERTEX
  8
0
 10
18.7
 20
49.7995
 30
0.0
 40
0.2
 41
0.2
  0
VERTEX
  8
0
 10
18.7
 20
49.7829
 30
0.0
 40
0.2
 41
0.2
  0
VERTEX
  8
0
 10
18.7289
 20
49.7293
 30
0.0
 40
0.2
 41
0.2
  0
VERTEX
  8
0
 10
18.7813
 20
49.7004
 30
0.0
 40
0.2
 41
0.2
  0
VERTEX
  8
0
 10
18.7992
 20
49.7004
 30
0.0
 40
0.2
 41
0.2
  0
VERTEX
  8
0
 10
21.7
 20
49.7004
 30
0.0
 40
0.2
 41
0.2
  0
VERTEX
  8
0
 10
21.7096
 20
49.7004
 30
0.0
 40
0.2
 41
0.2
  0
VERTEX
  8
0
 10
21.7413
 20
49.7156
 30
0.0
 40
0.2
 41
0.2
  0
VERTEX
  8
0
 10
21.7372
 20
49.7374
 30
0.0
 40
0.2
 41
0.2
  0
VERTEX
  8
0
 10
21.7138
 20
49.7431
 30
0.0
 40
0.2
 41
0.2
  0
VERTEX
  8
0
 10
21.7
 20
49.7113
 30
0.0
 40
0.2
 41
0.2
  0
VERTEX
  8
0
 10
21.7
 20
49.7004
 30
0.0
 40
0.2
 41
0.2
  0
VERTEX
  8
0
 10
21.7
 20
39.8004
 30
0.0
 40
0.2
 41
0.2
  0
VERTEX
  8
0
 10
21.7
 20
39.3072
 30
0.0
 40
0.2
 41
0.2
  0
VERTEX
  8
0
 10
21.8295
 20
37.8259
 30
0.0
 40
0.2
 41
0.2
  0
VERTEX
  8
0
 10
22.214
 20
35.8923
 30
0.0
 40
0.2
 41
0.2
  0
VERTEX
  8
0
 10
22.8465
 20
34.0265
 30
0.0
 40
0.2
 41
0.2
  0
VERTEX
  8
0
 10
23.4749
 20
32.6788
 30
0.0
 40
0.2
 41
0.2
  0
VERTEX
  8
0
 10
23.7229
 20
32.2502
 30
0.0
 40
0.2
 41
0.2
  0
VERTEX
  8
0
 10
23.8456
 20
32.0366
 30
0.0
 40
0.2
 41
0.2
  0
VERTEX
  8
0
 10
24.2466
 20
31.4083
 30
0.0
 40
0.2
 41
0.2
  0
VERTEX
  8
0
 10
24.8226
 20
30.6048
 30
0.0
 40
0.2
 41
0.2
  0
VERTEX
  8
0
 10
25.4482
 20
29.8428
 30
0.0
 40
0.2
 41
0.2
  0
VERTEX
  8
0
 10
26.1221
 20
29.1235
 30
0.0
 40
0.2
 41
0.2
  0
VERTEX
  8
0
 10
26.8414
 20
28.4496
 30
0.0
 40
0.2
 41
0.2
  0
VERTEX
  8
0
 10
27.6035
 20
27.824
 30
0.0
 40
0.2
 41
0.2
  0
VERTEX
  8
0
 10
28.4069
 20
27.248
 30
0.0
 40
0.2
 41
0.2
  0
VERTEX
  8
0
 10
29.0353
 20
26.847
 30
0.0
 40
0.2
 41
0.2
  0
VERTEX
  8
0
 10
29.2503
 20
26.7229
 30
0.0
 40
0.2
 41
0.2
  0
VERTEX
  8
0
 10
29.6774
 20
26.4763
 30
0.0
 40
0.2
 41
0.2
  0
VERTEX
  8
0
 10
31.0251
 20
25.8479
 30
0.0
 40
0.2
 41
0.2
  0
VERTEX
  8
0
 10
32.891
 20
25.2154
 30
0.0
 40
0.2
 41
0.2
  0
VERTEX
  8
0
 10
34.8244
 20
24.8309
 30
0.0
 40
0.2
 41
0.2
  0
VERTEX
  8
0
 10
36.3058
 20
24.6999
 30
0.0
 40
0.2
 41
0.2
  0
VERTEX
  8
0
 10
36.8004
 20
24.6999
 30
0.0
 40
0.2
 41
0.2
  0
SEQEND
 8
0
  0
POLYLINE
  8
0
 62
     0
 66
     1
 10
0
 20
0
 30
0.0
 70
     1
 40
0.566929
 41
0.566929
  0
VERTEX
  8
0
 10
144.5
 20
24.6999
 30
0.0
 40
0.2
 41
0.2
  0
VERTEX
  8
0
 10
152.9
 20
24.6999
 30
0.0
 40
0.2
 41
0.2
  0
VERTEX
  8
0
 10
152.91
 20
24.6999
 30
0.0
 40
0.2
 41
0.2
  0
VERTEX
  8
0
 10
152.942
 20
24.7151
 30
0.0
 40
0.2
 41
0.2
  0
VERTEX
  8
0
 10
152.937
 20
24.7385
 30
0.0
 40
0.2
 41
0.2
  0
VERTEX
  8
0
 10
152.914
 20
24.7427
 30
0.0
 40
0.2
 41
0.2
  0
VERTEX
  8
0
 10
152.9
 20
24.711
 30
0.0
 40
0.2
 41
0.2
  0
VERTEX
  8
0
 10
152.9
 20
24.6999
 30
0.0
 40
0.2
 41
0.2
  0
VERTEX
  8
0
 10
152.9
 20
21.8006
 30
0.0
 40
0.2
 41
0.2
  0
VERTEX
  8
0
 10
152.9
 20
21.784
 30
0.0
 40
0.2
 41
0.2
  0
VERTEX
  8
0
 10
152.929
 20
21.7303
 30
0.0
 40
0.2
 41
0.2
  0
VERTEX
  8
0
 10
152.981
 20
21.7
 30
0.0
 40
0.2
 41
0.2
  0
VERTEX
  8
0
 10
152.999
 20
21.7
 30
0.0
 40
0.2
 41
0.2
  0
VERTEX
  8
0
 10
159.001
 20
21.7
 30
0.0
 40
0.2
 41
0.2
  0
VERTEX
  8
0
 10
159.017
 20
21.7
 30
0.0
 40
0.2
 41
0.2
  0
VERTEX
  8
0
 10
159.07
 20
21.7303
 30
0.0
 40
0.2
 41
0.2
  0
VERTEX
  8
0
 10
159.1
 20
21.784
 30
0.0
 40
0.2
 41
0.2
  0
VERTEX
  8
0
 10
159.1
 20
21.8006
 30
0.0
 40
0.2
 41
0.2
  0
VERTEX
  8
0
 10
159.1
 20
24.6999
 30
0.0
 40
0.2
 41
0.2
  0
VERTEX
  8
0
 10
159.1
 20
24.711
 30
0.0
 40
0.2
 41
0.2
  0
VERTEX
  8
0
 10
159.085
 20
24.7427
 30
0.0
 40
0.2
 41
0.2
  0
VERTEX
  8
0
 10
159.063
 20
24.7385
 30
0.0
 40
0.2
 41
0.2
  0
VERTEX
  8
0
 10
159.057
 20
24.7151
 30
0.0
 40
0.2
 41
0.2
  0
VERTEX
  8
0
 10
159.089
 20
24.6999
 30
0.0
 40
0.2
 41
0.2
  0
VERTEX
  8
0
 10
159.1
 20
24.6999
 30
0.0
 40
0.2
 41
0.2
  0
VERTEX
  8
0
 10
164.9
 20
24.6999
 30
0.0
 40
0.2
 41
0.2
  0
VERTEX
  8
0
 10
164.91
 20
24.6999
 30
0.0
 40
0.2
 41
0.2
  0
VERTEX
  8
0
 10
164.942
 20
24.7151
 30
0.0
 40
0.2
 41
0.2
  0
VERTEX
  8
0
 10
164.937
 20
24.7385
 30
0.0
 40
0.2
 41
0.2
  0
VERTEX
  8
0
 10
164.914
 20
24.7427
 30
0.0
 40
0.2
 41
0.2
  0
VERTEX
  8
0
 10
164.9
 20
24.711
 30
0.0
 40
0.2
 41
0.2
  0
VERTEX
  8
0
 10
164.9
 20
24.6999
 30
0.0
 40
0.2
 41
0.2
  0
VERTEX
  8
0
 10
164.9
 20
21.8006
 30
0.0
 40
0.2
 41
0.2
  0
VERTEX
  8
0
 10
164.9
 20
21.784
 30
0.0
 40
0.2
 41
0.2
  0
VERTEX
  8
0
 10
164.929
 20
21.7303
 30
0.0
 40
0.2
 41
0.2
  0
VERTEX
  8
0
 10
164.983
 20
21.7
 30
0.0
 40
0.2
 41
0.2
  0
VERTEX
  8
0
 10
165.001
 20
21.7
 30
0.0
 40
0.2
 41
0.2
  0
VERTEX
  8
0
 10
171
 20
21.7
 30
0.0
 40
0.2
 41
0.2
  0
VERTEX
  8
0
 10
171.016
 20
21.7
 30
0.0
 40
0.2
 41
0.2
  0
VERTEX
  8
0
 10
171.07
 20
21.7303
 30
0.0
 40
0.2
 41
0.2
  0
VERTEX
  8
0
 10
171.1
 20
21.784
 30
0.0
 40
0.2
 41
0.2
  0
VERTEX
  8
0
 10
171.1
 20
21.8006
 30
0.0
 40
0.2
 41
0.2
  0
VERTEX
  8
0
 10
171.1
 20
24.6999
 30
0.0
 40
0.2
 41
0.2
  0
VERTEX
  8
0
 10
171.1
 20
24.711
 30
0.0
 40
0.2
 41
0.2
  0
VERTEX
  8
0
 10
171.085
 20
24.7427
 30
0.0
 40
0.2
 41
0.2
  0
VERTEX
  8
0
 10
171.061
 20
24.7385
 30
0.0
 40
0.2
 41
0.2
  0
VERTEX
  8
0
 10
171.057
 20
24.7151
 30
0.0
 40
0.2
 41
0.2
  0
VERTEX
  8
0
 10
171.089
 20
24.6999
 30
0.0
 40
0.2
 41
0.2
  0
VERTEX
  8
0
 10
171.1
 20
24.6999
 30
0.0
 40
0.2
 41
0.2
  0
VERTEX
  8
0
 10
179.5
 20
24.6999
 30
0.0
 40
0.2
 41
0.2
  0
VERTEX
  8
0
 10
187.9
 20
24.6999
 30
0.0
 40
0.2
 41
0.2
  0
VERTEX
  8
0
 10
187.909
 20
24.6999
 30
0.0
 40
0.2
 41
0.2
  0
VERTEX
  8
0
 10
187.941
 20
24.7151
 30
0.0
 40
0.2
 41
0.2
  0
VERTEX
  8
0
 10
187.937
 20
24.7385
 30
0.0
 40
0.2
 41
0.2
  0
VERTEX
  8
0
 10
187.913
 20
24.7427
 30
0.0
 40
0.2
 41
0.2
  0
VERTEX
  8
0
 10
187.9
 20
24.711
 30
0.0
 40
0.2
 41
0.2
  0
VERTEX
  8
0
 10
187.9
 20
24.6999
 30
0.0
 40
0.2
 41
0.2
  0
VERTEX
  8
0
 10
187.9
 20
21.8006
 30
0.0
 40
0.2
 41
0.2
  0
VERTEX
  8
0
 10
187.9
 20
21.784
 30
0.0
 40
0.2
 41
0.2
  0
VERTEX
  8
0
 10
187.929
 20
21.7303
 30
0.0
 40
0.2
 41
0.2
  0
VERTEX
  8
0
 10
187.982
 20
21.7
 30
0.0
 40
0.2
 41
0.2
  0
VERTEX
  8
0
 10
188
 20
21.7
 30
0.0
 40
0.2
 41
0.2
  0
VERTEX
  8
0
 10
194
 20
21.7
 30
0.0
 40
0.2
 41
0.2
  0
VERTEX
  8
0
 10
194.017
 20
21.7
 30
0.0
 40
0.2
 41
0.2
  0
VERTEX
  8
0
 10
194.07
 20
21.7303
 30
0.0
 40
0.2
 41
0.2
  0
VERTEX
  8
0
 10
194.099
 20
21.784
 30
0.0
 40
0.2
 41
0.2
  0
VERTEX
  8
0
 10
194.099
 20
21.8006
 30
0.0
 40
0.2
 41
0.2
  0
VERTEX
  8
0
 10
194.099
 20
24.6999
 30
0.0
 40
0.2
 41
0.2
  0
VERTEX
  8
0
 10
194.099
 20
24.711
 30
0.0
 40
0.2
 41
0.2
  0
VERTEX
  8
0
 10
194.084
 20
24.7427
 30
0.0
 40
0.2
 41
0.2
  0
VERTEX
  8
0
 10
194.062
 20
24.7385
 30
0.0
 40
0.2
 41
0.2
  0
VERTEX
  8
0
 10
194.057
 20
24.7151
 30
0.0
 40
0.2
 41
0.2
  0
VERTEX
  8
0
 10
194.088
 20
24.6999
 30
0.0
 40
0.2
 41
0.2
  0
VERTEX
  8
0
 10
194.099
 20
24.6999
 30
0.0
 40
0.2
 41
0.2
  0
VERTEX
  8
0
 10
199.9
 20
24.6999
 30
0.0
 40
0.2
 41
0.2
  0
VERTEX
  8
0
 10
199.909
 20
24.6999
 30
0.0
 40
0.2
 41
0.2
  0
VERTEX
  8
0
 10
199.941
 20
24.7151
 30
0.0
 40
0.2
 41
0.2
  0
VERTEX
  8
0
 10
199.937
 20
24.7385
 30
0.0
 40
0.2
 41
0.2
  0
VERTEX
  8
0
 10
199.914
 20
24.7427
 30
0.0
 40
0.2
 41
0.2
  0
VERTEX
  8
0
 10
199.9
 20
24.711
 30
0.0
 40
0.2
 41
0.2
  0
VERTEX
  8
0
 10
199.9
 20
24.6999
 30
0.0
 40
0.2
 41
0.2
  0
VERTEX
  8
0
 10
199.9
 20
21.8006
 30
0.0
 40
0.2
 41
0.2
  0
VERTEX
  8
0
 10
199.9
 20
21.784
 30
0.0
 40
0.2
 41
0.2
  0
VERTEX
  8
0
 10
199.929
 20
21.7303
 30
0.0
 40
0.2
 41
0.2
  0
VERTEX
  8
0
 10
199.982
 20
21.7
 30
0.0
 40
0.2
 41
0.2
  0
VERTEX
  8
0
 10
200
 20
21.7
 30
0.0
 40
0.2
 41
0.2
  0
VERTEX
  8
0
 10
206
 20
21.7
 30
0.0
 40
0.2
 41
0.2
  0
VERTEX
  8
0
 10
206.017
 20
21.7
 30
0.0
 40
0.2
 41
0.2
  0
VERTEX
  8
0
 10
206.071
 20
21.7303
 30
0.0
 40
0.2
 41
0.2
  0
VERTEX
  8
0
 10
206.099
 20
21.784
 30
0.0
 40
0.2
 41
0.2
  0
VERTEX
  8
0
 10
206.099
 20
21.8006
 30
0.0
 40
0.2
 41
0.2
  0
VERTEX
  8
0
 10
206.099
 20
24.6999
 30
0.0
 40
0.2
 41
0.2
  0
VERTEX
  8
0
 10
206.099
 20
24.711
 30
0.0
 40
0.2
 41
0.2
  0
VERTEX
  8
0
 10
206.084
 20
24.7427
 30
0.0
 40
0.2
 41
0.2
  0
VERTEX
  8
0
 10
206.062
 20
24.7385
 30
0.0
 40
0.2
 41
0.2
  0
VERTEX
  8
0
 10
206.057
 20
24.7151
 30
0.0
 40
0.2
 41
0.2
  0
VERTEX
  8
0
 10
206.089
 20
24.6999
 30
0.0
 40
0.2
 41
0.2
  0
VERTEX
  8
0
 10
206.099
 20
24.6999
 30
0.0
 40
0.2
 41
0.2
  0
VERTEX
  8
0
 10
214.5
 20
24.6999
 30
0.0
 40
0.2
 41
0.2
  0
VERTEX
  8
0
 10
214.993
 20
24.6999
 30
0.0
 40
0.2
 41
0.2
  0
VERTEX
  8
0
 10
216.475
 20
24.8309
 30
0.0
 40
0.2
 41
0.2
  0
VERTEX
  8
0
 10
218.408
 20
25.2154
 30
0.0
 40
0.2
 41
0.2
  0
VERTEX
  8
0
 10
220.274
 20
25.8479
 30
0.0
 40
0.2
 41
0.2
  0
VERTEX
  8
0
 10
221.622
 20
26.4763
 30
0.0
 40
0.2
 41
0.2
  0
VERTEX
  8
0
 10
222.05
 20
26.7229
 30
0.0
 40
0.2
 41
0.2
  0
VERTEX
  8
0
 10
222.264
 20
26.847
 30
0.0
 40
0.2
 41
0.2
  0
VERTEX
  8
0
 10
222.892
 20
27.248
 30
0.0
 40
0.2
 41
0.2
  0
VERTEX
  8
0
 10
223.696
 20
27.824
 30
0.0
 40
0.2
 41
0.2
  0
VERTEX
  8
0
 10
224.458
 20
28.4496
 30
0.0
 40
0.2
 41
0.2
  0
VERTEX
  8
0
 10
225.177
 20
29.1235
 30
0.0
 40
0.2
 41
0.2
  0
VERTEX
  8
0
 10
225.851
 20
29.8428
 30
0.0
 40
0.2
 41
0.2
  0
VERTEX
  8
0
 10
226.476
 20
30.6048
 30
0.0
 40
0.2
 41
0.2
  0
VERTEX
  8
0
 10
227.052
 20
31.4083
 30
0.0
 40
0.2
 41
0.2
  0
VERTEX
  8
0
 10
227.453
 20
32.0366
 30
0.0
 40
0.2
 41
0.2
  0
VERTEX
  8
0
 10
227.578
 20
32.2502
 30
0.0
 40
0.2
 41
0.2
  0
VERTEX
  8
0
 10
227.824
 20
32.6788
 30
0.0
 40
0.2
 41
0.2
  0
VERTEX
  8
0
 10
228.451
 20
34.0265
 30
0.0
 40
0.2
 41
0.2
  0
VERTEX
  8
0
 10
229.085
 20
35.8923
 30
0.0
 40
0.2
 41
0.2
  0
VERTEX
  8
0
 10
229.47
 20
37.8259
 30
0.0
 40
0.2
 41
0.2
  0
VERTEX
  8
0
 10
229.6
 20
39.3072
 30
0.0
 40
0.2
 41
0.2
  0
VERTEX
  8
0
 10
229.6
 20
39.8004
 30
0.0
 40
0.2
 41
0.2
  0
VERTEX
  8
0
 10
229.6
 20
49.7004
 30
0.0
 40
0.2
 41
0.2
  0
VERTEX
  8
0
 10
229.6
 20
49.7113
 30
0.0
 40
0.2
 41
0.2
  0
VERTEX
  8
0
 10
229.585
 20
49.7431
 30
0.0
 40
0.2
 41
0.2
  0
VERTEX
  8
0
 10
229.562
 20
49.7374
 30
0.0
 40
0.2
 41
0.2
  0
VERTEX
  8
0
 10
229.558
 20
49.7156
 30
0.0
 40
0.2
 41
0.2
  0
VERTEX
  8
0
 10
229.59
 20
49.7004
 30
0.0
 40
0.2
 41
0.2
  0
VERTEX
  8
0
 10
229.6
 20
49.7004
 30
0.0
 40
0.2
 41
0.2
  0
VERTEX
  8
0
 10
232.5
 20
49.7004
 30
0.0
 40
0.2
 41
0.2
  0
VERTEX
  8
0
 10
232.517
 20
49.7004
 30
0.0
 40
0.2
 41
0.2
  0
VERTEX
  8
0
 10
232.57
 20
49.7293
 30
0.0
 40
0.2
 41
0.2
  0
VERTEX
  8
0
 10
232.601
 20
49.7829
 30
0.0
 40
0.2
 41
0.2
  0
VERTEX
  8
0
 10
232.601
 20
49.7995
 30
0.0
 40
0.2
 41
0.2
  0
VERTEX
  8
0
 10
232.601
 20
55.7996
 30
0.0
 40
0.2
 41
0.2
  0
VERTEX
  8
0
 10
232.601
 20
55.8176
 30
0.0
 40
0.2
 41
0.2
  0
VERTEX
  8
0
 10
232.57
 20
55.8712
 30
0.0
 40
0.2
 41
0.2
  0
VERTEX
  8
0
 10
232.517
 20
55.9001
 30
0.0
 40
0.2
 41
0.2
  0
VERTEX
  8
0
 10
232.5
 20
55.9001
 30
0.0
 40
0.2
 41
0.2
  0
VERTEX
  8
0
 10
229.6
 20
55.9001
 30
0.0
 40
0.2
 41
0.2
  0
VERTEX
  8
0
 10
229.59
 20
55.9001
 30
0.0
 40
0.2
 41
0.2
  0
VERTEX
  8
0
 10
229.558
 20
55.8863
 30
0.0
 40
0.2
 41
0.2
  0
VERTEX
  8
0
 10
229.562
 20
55.8631
 30
0.0
 40
0.2
 41
0.2
  0
VERTEX
  8
0
 10
229.585
 20
55.8588
 30
0.0
 40
0.2
 41
0.2
  0
VERTEX
  8
0
 10
229.6
 20
55.8906
 30
0.0
 40
0.2
 41
0.2
  0
VERTEX
  8
0
 10
229.6
 20
55.9001
 30
0.0
 40
0.2
 41
0.2
  0
VERTEX
  8
0
 10
229.6
 20
61.7001
 30
0.0
 40
0.2
 41
0.2
  0
VERTEX
  8
0
 10
229.6
 20
61.7114
 30
0.0
 40
0.2
 41
0.2
  0
VERTEX
  8
0
 10
229.585
 20
61.7432
 30
0.0
 40
0.2
 41
0.2
  0
VERTEX
  8
0
 10
229.562
 20
61.7375
 30
0.0
 40
0.2
 41
0.2
  0
VERTEX
  8
0
 10
229.558
 20
61.7153
 30
0.0
 40
0.2
 41
0.2
  0
VERTEX
  8
0
 10
229.59
 20
61.7001
 30
0.0
 40
0.2
 41
0.2
  0
VERTEX
  8
0
 10
229.6
 20
61.7001
 30
0.0
 40
0.2
 41
0.2
  0
VERTEX
  8
0
 10
232.5
 20
61.7001
 30
0.0
 40
0.2
 41
0.2
  0
VERTEX
  8
0
 10
232.517
 20
61.7001
 30
0.0
 40
0.2
 41
0.2
  0
VERTEX
  8
0
 10
232.57
 20
61.7291
 30
0.0
 40
0.2
 41
0.2
  0
VERTEX
  8
0
 10
232.601
 20
61.783
 30
0.0
 40
0.2
 41
0.2
  0
VERTEX
  8
0
 10
232.601
 20
61.7996
 30
0.0
 40
0.2
 41
0.2
  0
VERTEX
  8
0
 10
232.601
 20
67.7997
 30
0.0
 40
0.2
 41
0.2
  0
VERTEX
  8
0
 10
232.601
 20
67.8173
 30
0.0
 40
0.2
 41
0.2
  0
VERTEX
  8
0
 10
232.57
 20
67.8713
 30
0.0
 40
0.2
 41
0.2
  0
VERTEX
  8
0
 10
232.517
 20
67.9002
 30
0.0
 40
0.2
 41
0.2
  0
VERTEX
  8
0
 10
232.5
 20
67.9002
 30
0.0
 40
0.2
 41
0.2
  0
VERTEX
  8
0
 10
229.6
 20
67.9002
 30
0.0
 40
0.2
 41
0.2
  0
VERTEX
  8
0
 10
229.59
 20
67.9002
 30
0.0
 40
0.2
 41
0.2
  0
VERTEX
  8
0
 10
229.558
 20
67.8864
 30
0.0
 40
0.2
 41
0.2
  0
VERTEX
  8
0
 10
229.562
 20
67.8628
 30
0.0
 40
0.2
 41
0.2
  0
VERTEX
  8
0
 10
229.585
 20
67.8586
 30
0.0
 40
0.2
 41
0.2
  0
VERTEX
  8
0
 10
229.6
 20
67.8903
 30
0.0
 40
0.2
 41
0.2
  0
VERTEX
  8
0
 10
229.6
 20
67.9002
 30
0.0
 40
0.2
 41
0.2
  0
VERTEX
  8
0
 10
229.6
 20
73.7002
 30
0.0
 40
0.2
 41
0.2
  0
VERTEX
  8
0
 10
229.6
 20
73.7112
 30
0.0
 40
0.2
 41
0.2
  0
VERTEX
  8
0
 10
229.585
 20
73.7429
 30
0.0
 40
0.2
 41
0.2
  0
VERTEX
  8
0
 10
229.562
 20
73.7376
 30
0.0
 40
0.2
 41
0.2
  0
VERTEX
  8
0
 10
229.558
 20
73.7154
 30
0.0
 40
0.2
 41
0.2
  0
VERTEX
  8
0
 10
229.59
 20
73.7002
 30
0.0
 40
0.2
 41
0.2
  0
VERTEX
  8
0
 10
229.6
 20
73.7002
 30
0.0
 40
0.2
 41
0.2
  0
VERTEX
  8
0
 10
232.5
 20
73.7002
 30
0.0
 40
0.2
 41
0.2
  0
VERTEX
  8
0
 10
232.517
 20
73.7002
 30
0.0
 40
0.2
 41
0.2
  0
VERTEX
  8
0
 10
232.57
 20
73.7291
 30
0.0
 40
0.2
 41
0.2
  0
VERTEX
  8
0
 10
232.601
 20
73.7828
 30
0.0
 40
0.2
 41
0.2
  0
VERTEX
  8
0
 10
232.601
 20
73.7994
 30
0.0
 40
0.2
 41
0.2
  0
VERTEX
  8
0
 10
232.601
 20
79.7994
 30
0.0
 40
0.2
 41
0.2
  0
VERTEX
  8
0
 10
232.601
 20
79.8174
 30
0.0
 40
0.2
 41
0.2
  0
VERTEX
  8
0
 10
232.57
 20
79.871
 30
0.0
 40
0.2
 41
0.2
  0
VERTEX
  8
0
 10
232.517
 20
79.8999
 30
0.0
 40
0.2
 41
0.2
  0
VERTEX
  8
0
 10
232.5
 20
79.8999
 30
0.0
 40
0.2
 41
0.2
  0
VERTEX
  8
0
 10
229.6
 20
79.8999
 30
0.0
 40
0.2
 41
0.2
  0
VERTEX
  8
0
 10
229.59
 20
79.8999
 30
0.0
 40
0.2
 41
0.2
  0
VERTEX
  8
0
 10
229.558
 20
79.8862
 30
0.0
 40
0.2
 41
0.2
  0
VERTEX
  8
0
 10
229.562
 20
79.8629
 30
0.0
 40
0.2
 41
0.2
  0
VERTEX
  8
0
 10
229.585
 20
79.8587
 30
0.0
 40
0.2
 41
0.2
  0
VERTEX
  8
0
 10
229.6
 20
79.8904
 30
0.0
 40
0.2
 41
0.2
  0
VERTEX
  8
0
 10
229.6
 20
79.8999
 30
0.0
 40
0.2
 41
0.2
  0
VERTEX
  8
0
 10
229.6
 20
89.7999
 30
0.0
 40
0.2
 41
0.2
  0
VERTEX
  8
0
 10
229.6
 20
90.2945
 30
0.0
 40
0.2
 41
0.2
  0
VERTEX
  8
0
 10
229.47
 20
91.7758
 30
0.0
 40
0.2
 41
0.2
  0
VERTEX
  8
0
 10
229.085
 20
93.7094
 30
0.0
 40
0.2
 41
0.2
  0
VERTEX
  8
0
 10
228.451
 20
95.5753
 30
0.0
 40
0.2
 41
0.2
  0
VERTEX
  8
0
 10
227.823
 20
96.9229
 30
0.0
 40
0.2
 41
0.2
  0
VERTEX
  8
0
 10
227.578
 20
97.3501
 30
0.0
 40
0.2
 41
0.2
  0
VERTEX
  8
0
 10
227.453
 20
97.5653
 30
0.0
 40
0.2
 41
0.2
  0
VERTEX
  8
0
 10
227.052
 20
98.1936
 30
0.0
 40
0.2
 41
0.2
  0
VERTEX
  8
0
 10
226.476
 20
98.9969
 30
0.0
 40
0.2
 41
0.2
  0
VERTEX
  8
0
 10
225.851
 20
99.7589
 30
0.0
 40
0.2
 41
0.2
  0
VERTEX
  8
0
 10
225.177
 20
100.478
 30
0.0
 40
0.2
 41
0.2
  0
VERTEX
  8
0
 10
224.458
 20
101.152
 30
0.0
 40
0.2
 41
0.2
  0
VERTEX
  8
0
 10
223.696
 20
101.778
 30
0.0
 40
0.2
 41
0.2
  0
VERTEX
  8
0
 10
222.892
 20
102.354
 30
0.0
 40
0.2
 41
0.2
  0
VERTEX
  8
0
 10
222.264
 20
102.755
 30
0.0
 40
0.2
 41
0.2
  0
VERTEX
  8
0
 10
222.05
 20
102.877
 30
0.0
 40
0.2
 41
0.2
  0
VERTEX
  8
0
 10
221.622
 20
103.125
 30
0.0
 40
0.2
 41
0.2
  0
VERTEX
  8
0
 10
220.274
 20
103.754
 30
0.0
 40
0.2
 41
0.2
  0
VERTEX
  8
0
 10
218.408
 20
104.386
 30
0.0
 40
0.2
 41
0.2
  0
VERTEX
  8
0
 10
216.475
 20
104.771
 30
0.0
 40
0.2
 41
0.2
  0
VERTEX
  8
0
 10
214.993
 20
104.9
 30
0.0
 40
0.2
 41
0.2
  0
VERTEX
  8
0
 10
214.5
 20
104.9
 30
0.0
 40
0.2
 41
0.2
  0
VERTEX
  8
0
 10
206.6
 20
104.9
 30
0.0
 40
0.2
 41
0.2
  0
VERTEX
  8
0
 10
206.588
 20
104.9
 30
0.0
 40
0.2
 41
0.2
  0
VERTEX
  8
0
 10
206.557
 20
104.886
 30
0.0
 40
0.2
 41
0.2
  0
VERTEX
  8
0
 10
206.562
 20
104.863
 30
0.0
 40
0.2
 41
0.2
  0
VERTEX
  8
0
 10
206.585
 20
104.859
 30
0.0
 40
0.2
 41
0.2
  0
VERTEX
  8
0
 10
206.6
 20
104.891
 30
0.0
 40
0.2
 41
0.2
  0
VERTEX
  8
0
 10
206.6
 20
104.9
 30
0.0
 40
0.2
 41
0.2
  0
VERTEX
  8
0
 10
206.6
 20
107.8
 30
0.0
 40
0.2
 41
0.2
  0
VERTEX
  8
0
 10
206.6
 20
107.818
 30
0.0
 40
0.2
 41
0.2
  0
VERTEX
  8
0
 10
206.571
 20
107.871
 30
0.0
 40
0.2
 41
0.2
  0
VERTEX
  8
0
 10
206.517
 20
107.9
 30
0.0
 40
0.2
 41
0.2
  0
VERTEX
  8
0
 10
206.5
 20
107.9
 30
0.0
 40
0.2
 41
0.2
  0
VERTEX
  8
0
 10
200.501
 20
107.9
 30
0.0
 40
0.2
 41
0.2
  0
VERTEX
  8
0
 10
200.483
 20
107.9
 30
0.0
 40
0.2
 41
0.2
  0
VERTEX
  8
0
 10
200.429
 20
107.871
 30
0.0
 40
0.2
 41
0.2
  0
VERTEX
  8
0
 10
200.4
 20
107.818
 30
0.0
 40
0.2
 41
0.2
  0
VERTEX
  8
0
 10
200.4
 20
107.8
 30
0.0
 40
0.2
 41
0.2
  0
VERTEX
  8
0
 10
200.4
 20
104.9
 30
0.0
 40
0.2
 41
0.2
  0
VERTEX
  8
0
 10
200.4
 20
104.891
 30
0.0
 40
0.2
 41
0.2
  0
VERTEX
  8
0
 10
200.414
 20
104.859
 30
0.0
 40
0.2
 41
0.2
  0
VERTEX
  8
0
 10
200.437
 20
104.863
 30
0.0
 40
0.2
 41
0.2
  0
VERTEX
  8
0
 10
200.441
 20
104.886
 30
0.0
 40
0.2
 41
0.2
  0
VERTEX
  8
0
 10
200.41
 20
104.9
 30
0.0
 40
0.2
 41
0.2
  0
VERTEX
  8
0
 10
200.4
 20
104.9
 30
0.0
 40
0.2
 41
0.2
  0
VERTEX
  8
0
 10
194.6
 20
104.9
 30
0.0
 40
0.2
 41
0.2
  0
VERTEX
  8
0
 10
194.589
 20
104.9
 30
0.0
 40
0.2
 41
0.2
  0
VERTEX
  8
0
 10
194.557
 20
104.886
 30
0.0
 40
0.2
 41
0.2
  0
VERTEX
  8
0
 10
194.563
 20
104.863
 30
0.0
 40
0.2
 41
0.2
  0
VERTEX
  8
0
 10
194.584
 20
104.859
 30
0.0
 40
0.2
 41
0.2
  0
VERTEX
  8
0
 10
194.6
 20
104.891
 30
0.0
 40
0.2
 41
0.2
  0
VERTEX
  8
0
 10
194.6
 20
104.9
 30
0.0
 40
0.2
 41
0.2
  0
VERTEX
  8
0
 10
194.6
 20
107.8
 30
0.0
 40
0.2
 41
0.2
  0
VERTEX
  8
0
 10
194.6
 20
107.818
 30
0.0
 40
0.2
 41
0.2
  0
VERTEX
  8
0
 10
194.571
 20
107.871
 30
0.0
 40
0.2
 41
0.2
  0
VERTEX
  8
0
 10
194.517
 20
107.9
 30
0.0
 40
0.2
 41
0.2
  0
VERTEX
  8
0
 10
194.501
 20
107.9
 30
0.0
 40
0.2
 41
0.2
  0
VERTEX
  8
0
 10
188.5
 20
107.9
 30
0.0
 40
0.2
 41
0.2
  0
VERTEX
  8
0
 10
188.482
 20
107.9
 30
0.0
 40
0.2
 41
0.2
  0
VERTEX
  8
0
 10
188.429
 20
107.871
 30
0.0
 40
0.2
 41
0.2
  0
VERTEX
  8
0
 10
188.4
 20
107.818
 30
0.0
 40
0.2
 41
0.2
  0
VERTEX
  8
0
 10
188.4
 20
107.8
 30
0.0
 40
0.2
 41
0.2
  0
VERTEX
  8
0
 10
188.4
 20
104.9
 30
0.0
 40
0.2
 41
0.2
  0
VERTEX
  8
0
 10
188.4
 20
104.891
 30
0.0
 40
0.2
 41
0.2
  0
VERTEX
  8
0
 10
188.414
 20
104.859
 30
0.0
 40
0.2
 41
0.2
  0
VERTEX
  8
0
 10
188.437
 20
104.863
 30
0.0
 40
0.2
 41
0.2
  0
VERTEX
  8
0
 10
188.441
 20
104.886
 30
0.0
 40
0.2
 41
0.2
  0
VERTEX
  8
0
 10
188.409
 20
104.9
 30
0.0
 40
0.2
 41
0.2
  0
VERTEX
  8
0
 10
188.4
 20
104.9
 30
0.0
 40
0.2
 41
0.2
  0
VERTEX
  8
0
 10
182.6
 20
104.9
 30
0.0
 40
0.2
 41
0.2
  0
VERTEX
  8
0
 10
182.589
 20
104.9
 30
0.0
 40
0.2
 41
0.2
  0
VERTEX
  8
0
 10
182.557
 20
104.886
 30
0.0
 40
0.2
 41
0.2
  0
VERTEX
  8
0
 10
182.563
 20
104.863
 30
0.0
 40
0.2
 41
0.2
  0
VERTEX
  8
0
 10
182.585
 20
104.859
 30
0.0
 40
0.2
 41
0.2
  0
VERTEX
  8
0
 10
182.6
 20
104.891
 30
0.0
 40
0.2
 41
0.2
  0
VERTEX
  8
0
 10
182.6
 20
104.9
 30
0.0
 40
0.2
 41
0.2
  0
VERTEX
  8
0
 10
182.6
 20
107.8
 30
0.0
 40
0.2
 41
0.2
  0
VERTEX
  8
0
 10
182.6
 20
107.818
 30
0.0
 40
0.2
 41
0.2
  0
VERTEX
  8
0
 10
182.571
 20
107.871
 30
0.0
 40
0.2
 41
0.2
  0
VERTEX
  8
0
 10
182.517
 20
107.9
 30
0.0
 40
0.2
 41
0.2
  0
VERTEX
  8
0
 10
182.5
 20
107.9
 30
0.0
 40
0.2
 41
0.2
  0
VERTEX
  8
0
 10
176.5
 20
107.9
 30
0.0
 40
0.2
 41
0.2
  0
VERTEX
  8
0
 10
176.483
 20
107.9
 30
0.0
 40
0.2
 41
0.2
  0
VERTEX
  8
0
 10
176.429
 20
107.871
 30
0.0
 40
0.2
 41
0.2
  0
VERTEX
  8
0
 10
176.4
 20
107.818
 30
0.0
 40
0.2
 41
0.2
  0
VERTEX
  8
0
 10
176.4
 20
107.8
 30
0.0
 40
0.2
 41
0.2
  0
VERTEX
  8
0
 10
176.4
 20
104.9
 30
0.0
 40
0.2
 41
0.2
  0
VERTEX
  8
0
 10
176.4
 20
104.891
 30
0.0
 40
0.2
 41
0.2
  0
VERTEX
  8
0
 10
176.414
 20
104.859
 30
0.0
 40
0.2
 41
0.2
  0
VERTEX
  8
0
 10
176.437
 20
104.863
 30
0.0
 40
0.2
 41
0.2
  0
VERTEX
  8
0
 10
176.441
 20
104.886
 30
0.0
 40
0.2
 41
0.2
  0
VERTEX
  8
0
 10
176.41
 20
104.9
 30
0.0
 40
0.2
 41
0.2
  0
VERTEX
  8
0
 10
176.4
 20
104.9
 30
0.0
 40
0.2
 41
0.2
  0
VERTEX
  8
0
 10
170.6
 20
104.9
 30
0.0
 40
0.2
 41
0.2
  0
VERTEX
  8
0
 10
170.589
 20
104.9
 30
0.0
 40
0.2
 41
0.2
  0
VERTEX
  8
0
 10
170.557
 20
104.886
 30
0.0
 40
0.2
 41
0.2
  0
VERTEX
  8
0
 10
170.562
 20
104.863
 30
0.0
 40
0.2
 41
0.2
  0
VERTEX
  8
0
 10
170.585
 20
104.859
 30
0.0
 40
0.2
 41
0.2
  0
VERTEX
  8
0
 10
170.6
 20
104.891
 30
0.0
 40
0.2
 41
0.2
  0
VERTEX
  8
0
 10
170.6
 20
104.9
 30
0.0
 40
0.2
 41
0.2
  0
VERTEX
  8
0
 10
170.6
 20
107.8
 30
0.0
 40
0.2
 41
0.2
  0
VERTEX
  8
0
 10
170.6
 20
107.818
 30
0.0
 40
0.2
 41
0.2
  0
VERTEX
  8
0
 10
170.571
 20
107.871
 30
0.0
 40
0.2
 41
0.2
  0
VERTEX
  8
0
 10
170.517
 20
107.9
 30
0.0
 40
0.2
 41
0.2
  0
VERTEX
  8
0
 10
170.501
 20
107.9
 30
0.0
 40
0.2
 41
0.2
  0
VERTEX
  8
0
 10
164.501
 20
107.9
 30
0.0
 40
0.2
 41
0.2
  0
VERTEX
  8
0
 10
164.483
 20
107.9
 30
0.0
 40
0.2
 41
0.2
  0
VERTEX
  8
0
 10
164.429
 20
107.871
 30
0.0
 40
0.2
 41
0.2
  0
VERTEX
  8
0
 10
164.4
 20
107.818
 30
0.0
 40
0.2
 41
0.2
  0
VERTEX
  8
0
 10
164.4
 20
107.8
 30
0.0
 40
0.2
 41
0.2
  0
VERTEX
  8
0
 10
164.4
 20
104.9
 30
0.0
 40
0.2
 41
0.2
  0
VERTEX
  8
0
 10
164.4
 20
104.891
 30
0.0
 40
0.2
 41
0.2
  0
VERTEX
  8
0
 10
164.414
 20
104.859
 30
0.0
 40
0.2
 41
0.2
  0
VERTEX
  8
0
 10
164.437
 20
104.863
 30
0.0
 40
0.2
 41
0.2
  0
VERTEX
  8
0
 10
164.441
 20
104.886
 30
0.0
 40
0.2
 41
0.2
  0
VERTEX
  8
0
 10
164.41
 20
104.9
 30
0.0
 40
0.2
 41
0.2
  0
VERTEX
  8
0
 10
164.4
 20
104.9
 30
0.0
 40
0.2
 41
0.2
  0
VERTEX
  8
0
 10
158.6
 20
104.9
 30
0.0
 40
0.2
 41
0.2
  0
VERTEX
  8
0
 10
158.589
 20
104.9
 30
0.0
 40
0.2
 41
0.2
  0
VERTEX
  8
0
 10
158.557
 20
104.886
 30
0.0
 40
0.2
 41
0.2
  0
VERTEX
  8
0
 10
158.561
 20
104.863
 30
0.0
 40
0.2
 41
0.2
  0
VERTEX
  8
0
 10
158.585
 20
104.859
 30
0.0
 40
0.2
 41
0.2
  0
VERTEX
  8
0
 10
158.6
 20
104.891
 30
0.0
 40
0.2
 41
0.2
  0
VERTEX
  8
0
 10
158.6
 20
104.9
 30
0.0
 40
0.2
 41
0.2
  0
VERTEX
  8
0
 10
158.6
 20
107.8
 30
0.0
 40
0.2
 41
0.2
  0
VERTEX
  8
0
 10
158.6
 20
107.818
 30
0.0
 40
0.2
 41
0.2
  0
VERTEX
  8
0
 10
158.569
 20
107.871
 30
0.0
 40
0.2
 41
0.2
  0
VERTEX
  8
0
 10
158.516
 20
107.9
 30
0.0
 40
0.2
 41
0.2
  0
VERTEX
  8
0
 10
158.499
 20
107.9
 30
0.0
 40
0.2
 41
0.2
  0
VERTEX
  8
0
 10
152.499
 20
107.9
 30
0.0
 40
0.2
 41
0.2
  0
VERTEX
  8
0
 10
152.481
 20
107.9
 30
0.0
 40
0.2
 41
0.2
  0
VERTEX
  8
0
 10
152.429
 20
107.871
 30
0.0
 40
0.2
 41
0.2
  0
VERTEX
  8
0
 10
152.4
 20
107.818
 30
0.0
 40
0.2
 41
0.2
  0
VERTEX
  8
0
 10
152.4
 20
107.8
 30
0.0
 40
0.2
 41
0.2
  0
VERTEX
  8
0
 10
152.4
 20
104.9
 30
0.0
 40
0.2
 41
0.2
  0
VERTEX
  8
0
 10
152.4
 20
104.891
 30
0.0
 40
0.2
 41
0.2
  0
VERTEX
  8
0
 10
152.414
 20
104.859
 30
0.0
 40
0.2
 41
0.2
  0
VERTEX
  8
0
 10
152.437
 20
104.863
 30
0.0
 40
0.2
 41
0.2
  0
VERTEX
  8
0
 10
152.441
 20
104.886
 30
0.0
 40
0.2
 41
0.2
  0
VERTEX
  8
0
 10
152.41
 20
104.9
 30
0.0
 40
0.2
 41
0.2
  0
VERTEX
  8
0
 10
152.4
 20
104.9
 30
0.0
 40
0.2
 41
0.2
  0
VERTEX
  8
0
 10
144.5
 20
104.9
 30
0.0
 40
0.2
 41
0.2
  0
VERTEX
  8
0
 10
144.005
 20
104.9
 30
0.0
 40
0.2
 41
0.2
  0
VERTEX
  8
0
 10
142.524
 20
104.771
 30
0.0
 40
0.2
 41
0.2
  0
VERTEX
  8
0
 10
140.591
 20
104.386
 30
0.0
 40
0.2
 41
0.2
  0
VERTEX
  8
0
 10
138.724
 20
103.754
 30
0.0
 40
0.2
 41
0.2
  0
VERTEX
  8
0
 10
137.377
 20
103.124
 30
0.0
 40
0.2
 41
0.2
  0
VERTEX
  8
0
 10
136.949
 20
102.877
 30
0.0
 40
0.2
 41
0.2
  0
VERTEX
  8
0
 10
136.735
 20
102.755
 30
0.0
 40
0.2
 41
0.2
  0
VERTEX
  8
0
 10
136.107
 20
102.354
 30
0.0
 40
0.2
 41
0.2
  0
VERTEX
  8
0
 10
135.304
 20
101.778
 30
0.0
 40
0.2
 41
0.2
  0
VERTEX
  8
0
 10
134.541
 20
101.152
 30
0.0
 40
0.2
 41
0.2
  0
VERTEX
  8
0
 10
133.823
 20
100.478
 30
0.0
 40
0.2
 41
0.2
  0
VERTEX
  8
0
 10
133.149
 20
99.7589
 30
0.0
 40
0.2
 41
0.2
  0
VERTEX
  8
0
 10
132.522
 20
98.9969
 30
0.0
 40
0.2
 41
0.2
  0
VERTEX
  8
0
 10
131.946
 20
98.1936
 30
0.0
 40
0.2
 41
0.2
  0
VERTEX
  8
0
 10
131.546
 20
97.5653
 30
0.0
 40
0.2
 41
0.2
  0
VERTEX
  8
0
 10
131.423
 20
97.3501
 30
0.0
 40
0.2
 41
0.2
  0
VERTEX
  8
0
 10
131.177
 20
96.9229
 30
0.0
 40
0.2
 41
0.2
  0
VERTEX
  8
0
 10
130.547
 20
95.5753
 30
0.0
 40
0.2
 41
0.2
  0
VERTEX
  8
0
 10
129.915
 20
93.7094
 30
0.0
 40
0.2
 41
0.2
  0
VERTEX
  8
0
 10
129.53
 20
91.7758
 30
0.0
 40
0.2
 41
0.2
  0
VERTEX
  8
0
 10
129.401
 20
90.2945
 30
0.0
 40
0.2
 41
0.2
  0
VERTEX
  8
0
 10
129.401
 20
89.7999
 30
0.0
 40
0.2
 41
0.2
  0
VERTEX
  8
0
 10
129.401
 20
79.8999
 30
0.0
 40
0.2
 41
0.2
  0
VERTEX
  8
0
 10
129.401
 20
79.8904
 30
0.0
 40
0.2
 41
0.2
  0
VERTEX
  8
0
 10
129.414
 20
79.8587
 30
0.0
 40
0.2
 41
0.2
  0
VERTEX
  8
0
 10
129.438
 20
79.8629
 30
0.0
 40
0.2
 41
0.2
  0
VERTEX
  8
0
 10
129.442
 20
79.8862
 30
0.0
 40
0.2
 41
0.2
  0
VERTEX
  8
0
 10
129.41
 20
79.8999
 30
0.0
 40
0.2
 41
0.2
  0
VERTEX
  8
0
 10
129.401
 20
79.8999
 30
0.0
 40
0.2
 41
0.2
  0
VERTEX
  8
0
 10
126.5
 20
79.8999
 30
0.0
 40
0.2
 41
0.2
  0
VERTEX
  8
0
 10
126.482
 20
79.8999
 30
0.0
 40
0.2
 41
0.2
  0
VERTEX
  8
0
 10
126.43
 20
79.871
 30
0.0
 40
0.2
 41
0.2
  0
VERTEX
  8
0
 10
126.401
 20
79.8174
 30
0.0
 40
0.2
 41
0.2
  0
VERTEX
  8
0
 10
126.401
 20
79.7994
 30
0.0
 40
0.2
 41
0.2
  0
VERTEX
  8
0
 10
126.401
 20
73.7994
 30
0.0
 40
0.2
 41
0.2
  0
VERTEX
  8
0
 10
126.401
 20
73.7828
 30
0.0
 40
0.2
 41
0.2
  0
VERTEX
  8
0
 10
126.43
 20
73.7291
 30
0.0
 40
0.2
 41
0.2
  0
VERTEX
  8
0
 10
126.482
 20
73.7002
 30
0.0
 40
0.2
 41
0.2
  0
VERTEX
  8
0
 10
126.5
 20
73.7002
 30
0.0
 40
0.2
 41
0.2
  0
VERTEX
  8
0
 10
129.401
 20
73.7002
 30
0.0
 40
0.2
 41
0.2
  0
VERTEX
  8
0
 10
129.41
 20
73.7002
 30
0.0
 40
0.2
 41
0.2
  0
VERTEX
  8
0
 10
129.442
 20
73.7154
 30
0.0
 40
0.2
 41
0.2
  0
VERTEX
  8
0
 10
129.438
 20
73.7376
 30
0.0
 40
0.2
 41
0.2
  0
VERTEX
  8
0
 10
129.414
 20
73.7429
 30
0.0
 40
0.2
 41
0.2
  0
VERTEX
  8
0
 10
129.401
 20
73.7112
 30
0.0
 40
0.2
 41
0.2
  0
VERTEX
  8
0
 10
129.401
 20
73.7002
 30
0.0
 40
0.2
 41
0.2
  0
VERTEX
  8
0
 10
129.401
 20
67.9002
 30
0.0
 40
0.2
 41
0.2
  0
VERTEX
  8
0
 10
129.401
 20
67.8903
 30
0.0
 40
0.2
 41
0.2
  0
VERTEX
  8
0
 10
129.414
 20
67.8586
 30
0.0
 40
0.2
 41
0.2
  0
VERTEX
  8
0
 10
129.438
 20
67.8628
 30
0.0
 40
0.2
 41
0.2
  0
VERTEX
  8
0
 10
129.442
 20
67.8864
 30
0.0
 40
0.2
 41
0.2
  0
VERTEX
  8
0
 10
129.41
 20
67.9002
 30
0.0
 40
0.2
 41
0.2
  0
VERTEX
  8
0
 10
129.401
 20
67.9002
 30
0.0
 40
0.2
 41
0.2
  0
VERTEX
  8
0
 10
126.5
 20
67.9002
 30
0.0
 40
0.2
 41
0.2
  0
VERTEX
  8
0
 10
126.482
 20
67.9002
 30
0.0
 40
0.2
 41
0.2
  0
VERTEX
  8
0
 10
126.43
 20
67.8713
 30
0.0
 40
0.2
 41
0.2
  0
VERTEX
  8
0
 10
126.401
 20
67.8173
 30
0.0
 40
0.2
 41
0.2
  0
VERTEX
  8
0
 10
126.401
 20
67.7997
 30
0.0
 40
0.2
 41
0.2
  0
VERTEX
  8
0
 10
126.401
 20
61.7996
 30
0.0
 40
0.2
 41
0.2
  0
VERTEX
  8
0
 10
126.401
 20
61.783
 30
0.0
 40
0.2
 41
0.2
  0
VERTEX
  8
0
 10
126.43
 20
61.7291
 30
0.0
 40
0.2
 41
0.2
  0
VERTEX
  8
0
 10
126.482
 20
61.7001
 30
0.0
 40
0.2
 41
0.2
  0
VERTEX
  8
0
 10
126.5
 20
61.7001
 30
0.0
 40
0.2
 41
0.2
  0
VERTEX
  8
0
 10
129.401
 20
61.7001
 30
0.0
 40
0.2
 41
0.2
  0
VERTEX
  8
0
 10
129.41
 20
61.7001
 30
0.0
 40
0.2
 41
0.2
  0
VERTEX
  8
0
 10
129.442
 20
61.7153
 30
0.0
 40
0.2
 41
0.2
  0
VERTEX
  8
0
 10
129.438
 20
61.7375
 30
0.0
 40
0.2
 41
0.2
  0
VERTEX
  8
0
 10
129.414
 20
61.7432
 30
0.0
 40
0.2
 41
0.2
  0
VERTEX
  8
0
 10
129.401
 20
61.7114
 30
0.0
 40
0.2
 41
0.2
  0
VERTEX
  8
0
 10
129.401
 20
61.7001
 30
0.0
 40
0.2
 41
0.2
  0
VERTEX
  8
0
 10
129.401
 20
55.9001
 30
0.0
 40
0.2
 41
0.2
  0
VERTEX
  8
0
 10
129.401
 20
55.8906
 30
0.0
 40
0.2
 41
0.2
  0
VERTEX
  8
0
 10
129.414
 20
55.8588
 30
0.0
 40
0.2
 41
0.2
  0
VERTEX
  8
0
 10
129.438
 20
55.8631
 30
0.0
 40
0.2
 41
0.2
  0
VERTEX
  8
0
 10
129.442
 20
55.8863
 30
0.0
 40
0.2
 41
0.2
  0
VERTEX
  8
0
 10
129.41
 20
55.9001
 30
0.0
 40
0.2
 41
0.2
  0
VERTEX
  8
0
 10
129.401
 20
55.9001
 30
0.0
 40
0.2
 41
0.2
  0
VERTEX
  8
0
 10
126.5
 20
55.9001
 30
0.0
 40
0.2
 41
0.2
  0
VERTEX
  8
0
 10
126.482
 20
55.9001
 30
0.0
 40
0.2
 41
0.2
  0
VERTEX
  8
0
 10
126.43
 20
55.8712
 30
0.0
 40
0.2
 41
0.2
  0
VERTEX
  8
0
 10
126.401
 20
55.8176
 30
0.0
 40
0.2
 41
0.2
  0
VERTEX
  8
0
 10
126.401
 20
55.7996
 30
0.0
 40
0.2
 41
0.2
  0
VERTEX
  8
0
 10
126.401
 20
49.7995
 30
0.0
 40
0.2
 41
0.2
  0
VERTEX
  8
0
 10
126.401
 20
49.7829
 30
0.0
 40
0.2
 41
0.2
  0
VERTEX
  8
0
 10
126.43
 20
49.7293
 30
0.0
 40
0.2
 41
0.2
  0
VERTEX
  8
0
 10
126.482
 20
49.7004
 30
0.0
 40
0.2
 41
0.2
  0
VERTEX
  8
0
 10
126.5
 20
49.7004
 30
0.0
 40
0.2
 41
0.2
  0
VERTEX
  8
0
 10
129.401
 20
49.7004
 30
0.0
 40
0.2
 41
0.2
  0
VERTEX
  8
0
 10
129.41
 20
49.7004
 30
0.0
 40
0.2
 41
0.2
  0
VERTEX
  8
0
 10
129.442
 20
49.7156
 30
0.0
 40
0.2
 41
0.2
  0
VERTEX
  8
0
 10
129.438
 20
49.7374
 30
0.0
 40
0.2
 41
0.2
  0
VERTEX
  8
0
 10
129.414
 20
49.7431
 30
0.0
 40
0.2
 41
0.2
  0
VERTEX
  8
0
 10
129.401
 20
49.7113
 30
0.0
 40
0.2
 41
0.2
  0
VERTEX
  8
0
 10
129.401
 20
49.7004
 30
0.0
 40
0.2
 41
0.2
  0
VERTEX
  8
0
 10
129.401
 20
39.8004
 30
0.0
 40
0.2
 41
0.2
  0
VERTEX
  8
0
 10
129.401
 20
39.3072
 30
0.0
 40
0.2
 41
0.2
  0
VERTEX
  8
0
 10
129.53
 20
37.8259
 30
0.0
 40
0.2
 41
0.2
  0
VERTEX
  8
0
 10
129.915
 20
35.8923
 30
0.0
 40
0.2
 41
0.2
  0
VERTEX
  8
0
 10
130.547
 20
34.0265
 30
0.0
 40
0.2
 41
0.2
  0
VERTEX
  8
0
 10
131.175
 20
32.6788
 30
0.0
 40
0.2
 41
0.2
  0
VERTEX
  8
0
 10
131.423
 20
32.2502
 30
0.0
 40
0.2
 41
0.2
  0
VERTEX
  8
0
 10
131.546
 20
32.0366
 30
0.0
 40
0.2
 41
0.2
  0
VERTEX
  8
0
 10
131.946
 20
31.4083
 30
0.0
 40
0.2
 41
0.2
  0
VERTEX
  8
0
 10
132.522
 20
30.6048
 30
0.0
 40
0.2
 41
0.2
  0
VERTEX
  8
0
 10
133.149
 20
29.8428
 30
0.0
 40
0.2
 41
0.2
  0
VERTEX
  8
0
 10
133.823
 20
29.1235
 30
0.0
 40
0.2
 41
0.2
  0
VERTEX
  8
0
 10
134.541
 20
28.4496
 30
0.0
 40
0.2
 41
0.2
  0
VERTEX
  8
0
 10
135.304
 20
27.824
 30
0.0
 40
0.2
 41
0.2
  0
VERTEX
  8
0
 10
136.107
 20
27.248
 30
0.0
 40
0.2
 41
0.2
  0
VERTEX
  8
0
 10
136.735
 20
26.847
 30
0.0
 40
0.2
 41
0.2
  0
VERTEX
  8
0
 10
136.949
 20
26.7229
 30
0.0
 40
0.2
 41
0.2
  0
VERTEX
  8
0
 10
137.377
 20
26.4763
 30
0.0
 40
0.2
 41
0.2
  0
VERTEX
  8
0
 10
138.724
 20
25.8479
 30
0.0
 40
0.2
 41
0.2
  0
VERTEX
  8
0
 10
140.591
 20
25.2154
 30
0.0
 40
0.2
 41
0.2
  0
VERTEX
  8
0
 10
142.524
 20
24.8309
 30
0.0
 40
0.2
 41
0.2
  0
VERTEX
  8
0
 10
144.005
 20
24.6999
 30
0.0
 40
0.2
 41
0.2
  0
VERTEX
  8
0
 10
144.5
 20
24.6999
 30
0.0
 40
0.2
 41
0.2
  0
SEQEND
 8
0
  0
POLYLINE
  8
0
 62
     0
 66
     1
 10
0
 20
0
 30
0.0
 70
     1
 40
0.566929
 41
0.566929
  0
VERTEX
  8
0
 10
18.7992
 20
109.4
 30
0.0
 40
0.2
 41
0.2
  0
VERTEX
  8
0
 10
27.3003
 20
109.4
 30
0.0
 40
0.2
 41
0.2
  0
VERTEX
  8
0
 10
27.3169
 20
109.4
 30
0.0
 40
0.2
 41
0.2
  0
VERTEX
  8
0
 10
27.3706
 20
109.43
 30
0.0
 40
0.2
 41
0.2
  0
VERTEX
  8
0
 10
27.3995
 20
109.484
 30
0.0
 40
0.2
 41
0.2
  0
VERTEX
  8
0
 10
27.3995
 20
109.5
 30
0.0
 40
0.2
 41
0.2
  0
VERTEX
  8
0
 10
27.3995
 20
112.4
 30
0.0
 40
0.2
 41
0.2
  0
VERTEX
  8
0
 10
27.3995
 20
112.411
 30
0.0
 40
0.2
 41
0.2
  0
VERTEX
  8
0
 10
27.3844
 20
112.442
 30
0.0
 40
0.2
 41
0.2
  0
VERTEX
  8
0
 10
27.3623
 20
112.438
 30
0.0
 40
0.2
 41
0.2
  0
VERTEX
  8
0
 10
27.3568
 20
112.415
 30
0.0
 40
0.2
 41
0.2
  0
VERTEX
  8
0
 10
27.3885
 20
112.4
 30
0.0
 40
0.2
 41
0.2
  0
VERTEX
  8
0
 10
27.3995
 20
112.4
 30
0.0
 40
0.2
 41
0.2
  0
VERTEX
  8
0
 10
33.1997
 20
112.4
 30
0.0
 40
0.2
 41
0.2
  0
VERTEX
  8
0
 10
33.2093
 20
112.4
 30
0.0
 40
0.2
 41
0.2
  0
VERTEX
  8
0
 10
33.2411
 20
112.415
 30
0.0
 40
0.2
 41
0.2
  0
VERTEX
  8
0
 10
33.2369
 20
112.438
 30
0.0
 40
0.2
 41
0.2
  0
VERTEX
  8
0
 10
33.2135
 20
112.442
 30
0.0
 40
0.2
 41
0.2
  0
VERTEX
  8
0
 10
33.1997
 20
112.411
 30
0.0
 40
0.2
 41
0.2
  0
VERTEX
  8
0
 10
33.1997
 20
112.4
 30
0.0
 40
0.2
 41
0.2
  0
VERTEX
  8
0
 10
33.1997
 20
109.5
 30
0.0
 40
0.2
 41
0.2
  0
VERTEX
  8
0
 10
33.1997
 20
109.484
 30
0.0
 40
0.2
 41
0.2
  0
VERTEX
  8
0
 10
33.2286
 20
109.43
 30
0.0
 40
0.2
 41
0.2
  0
VERTEX
  8
0
 10
33.2824
 20
109.4
 30
0.0
 40
0.2
 41
0.2
  0
VERTEX
  8
0
 10
33.3003
 20
109.4
 30
0.0
 40
0.2
 41
0.2
  0
VERTEX
  8
0
 10
39.3002
 20
109.4
 30
0.0
 40
0.2
 41
0.2
  0
VERTEX
  8
0
 10
39.3167
 20
109.4
 30
0.0
 40
0.2
 41
0.2
  0
VERTEX
  8
0
 10
39.3707
 20
109.43
 30
0.0
 40
0.2
 41
0.2
  0
VERTEX
  8
0
 10
39.3996
 20
109.484
 30
0.0
 40
0.2
 41
0.2
  0
VERTEX
  8
0
 10
39.3996
 20
109.5
 30
0.0
 40
0.2
 41
0.2
  0
VERTEX
  8
0
 10
39.3996
 20
112.4
 30
0.0
 40
0.2
 41
0.2
  0
VERTEX
  8
0
 10
39.3996
 20
112.411
 30
0.0
 40
0.2
 41
0.2
  0
VERTEX
  8
0
 10
39.3845
 20
112.442
 30
0.0
 40
0.2
 41
0.2
  0
VERTEX
  8
0
 10
39.3622
 20
112.438
 30
0.0
 40
0.2
 41
0.2
  0
VERTEX
  8
0
 10
39.3569
 20
112.415
 30
0.0
 40
0.2
 41
0.2
  0
VERTEX
  8
0
 10
39.3883
 20
112.4
 30
0.0
 40
0.2
 41
0.2
  0
VERTEX
  8
0
 10
39.3996
 20
112.4
 30
0.0
 40
0.2
 41
0.2
  0
VERTEX
  8
0
 10
45.1997
 20
112.4
 30
0.0
 40
0.2
 41
0.2
  0
VERTEX
  8
0
 10
45.2092
 20
112.4
 30
0.0
 40
0.2
 41
0.2
  0
VERTEX
  8
0
 10
45.2409
 20
112.415
 30
0.0
 40
0.2
 41
0.2
  0
VERTEX
  8
0
 10
45.2367
 20
112.438
 30
0.0
 40
0.2
 41
0.2
  0
VERTEX
  8
0
 10
45.2134
 20
112.442
 30
0.0
 40
0.2
 41
0.2
  0
VERTEX
  8
0
 10
45.1997
 20
112.411
 30
0.0
 40
0.2
 41
0.2
  0
VERTEX
  8
0
 10
45.1997
 20
112.4
 30
0.0
 40
0.2
 41
0.2
  0
VERTEX
  8
0
 10
45.1997
 20
109.5
 30
0.0
 40
0.2
 41
0.2
  0
VERTEX
  8
0
 10
45.1997
 20
109.484
 30
0.0
 40
0.2
 41
0.2
  0
VERTEX
  8
0
 10
45.2286
 20
109.43
 30
0.0
 40
0.2
 41
0.2
  0
VERTEX
  8
0
 10
45.2822
 20
109.4
 30
0.0
 40
0.2
 41
0.2
  0
VERTEX
  8
0
 10
45.3002
 20
109.4
 30
0.0
 40
0.2
 41
0.2
  0
VERTEX
  8
0
 10
53.8
 20
109.4
 30
0.0
 40
0.2
 41
0.2
  0
VERTEX
  8
0
 10
76.3887
 20
109.4
 30
0.0
 40
0.2
 41
0.2
  0
VERTEX
  8
0
 10
86.3893
 20
109.4
 30
0.0
 40
0.2
 41
0.2
  0
VERTEX
  8
0
 10
86.4059
 20
109.4
 30
0.0
 40
0.2
 41
0.2
  0
VERTEX
  8
0
 10
86.4595
 20
109.43
 30
0.0
 40
0.2
 41
0.2
  0
VERTEX
  8
0
 10
86.4898
 20
109.484
 30
0.0
 40
0.2
 41
0.2
  0
VERTEX
  8
0
 10
86.4898
 20
109.5
 30
0.0
 40
0.2
 41
0.2
  0
VERTEX
  8
0
 10
86.4898
 20
112.4
 30
0.0
 40
0.2
 41
0.2
  0
VERTEX
  8
0
 10
86.4898
 20
112.411
 30
0.0
 40
0.2
 41
0.2
  0
VERTEX
  8
0
 10
86.4747
 20
112.442
 30
0.0
 40
0.2
 41
0.2
  0
VERTEX
  8
0
 10
86.4514
 20
112.438
 30
0.0
 40
0.2
 41
0.2
  0
VERTEX
  8
0
 10
86.4471
 20
112.415
 30
0.0
 40
0.2
 41
0.2
  0
VERTEX
  8
0
 10
86.4789
 20
112.4
 30
0.0
 40
0.2
 41
0.2
  0
VERTEX
  8
0
 10
86.4898
 20
112.4
 30
0.0
 40
0.2
 41
0.2
  0
VERTEX
  8
0
 10
92.2898
 20
112.4
 30
0.0
 40
0.2
 41
0.2
  0
VERTEX
  8
0
 10
92.2997
 20
112.4
 30
0.0
 40
0.2
 41
0.2
  0
VERTEX
  8
0
 10
92.3315
 20
112.415
 30
0.0
 40
0.2
 41
0.2
  0
VERTEX
  8
0
 10
92.3272
 20
112.438
 30
0.0
 40
0.2
 41
0.2
  0
VERTEX
  8
0
 10
92.3036
 20
112.442
 30
0.0
 40
0.2
 41
0.2
  0
VERTEX
  8
0
 10
92.2898
 20
112.411
 30
0.0
 40
0.2
 41
0.2
  0
VERTEX
  8
0
 10
92.2898
 20
112.4
 30
0.0
 40
0.2
 41
0.2
  0
VERTEX
  8
0
 10
92.2898
 20
109.5
 30
0.0
 40
0.2
 41
0.2
  0
VERTEX
  8
0
 10
92.2898
 20
109.484
 30
0.0
 40
0.2
 41
0.2
  0
VERTEX
  8
0
 10
92.3188
 20
109.43
 30
0.0
 40
0.2
 41
0.2
  0
VERTEX
  8
0
 10
92.3713
 20
109.4
 30
0.0
 40
0.2
 41
0.2
  0
VERTEX
  8
0
 10
92.3893
 20
109.4
 30
0.0
 40
0.2
 41
0.2
  0
VERTEX
  8
0
 10
98.389
 20
109.4
 30
0.0
 40
0.2
 41
0.2
  0
VERTEX
  8
0
 10
98.4056
 20
109.4
 30
0.0
 40
0.2
 41
0.2
  0
VERTEX
  8
0
 10
98.4596
 20
109.43
 30
0.0
 40
0.2
 41
0.2
  0
VERTEX
  8
0
 10
98.4899
 20
109.484
 30
0.0
 40
0.2
 41
0.2
  0
VERTEX
  8
0
 10
98.4899
 20
109.5
 30
0.0
 40
0.2
 41
0.2
  0
VERTEX
  8
0
 10
98.4899
 20
112.4
 30
0.0
 40
0.2
 41
0.2
  0
VERTEX
  8
0
 10
98.4899
 20
112.411
 30
0.0
 40
0.2
 41
0.2
  0
VERTEX
  8
0
 10
98.4747
 20
112.442
 30
0.0
 40
0.2
 41
0.2
  0
VERTEX
  8
0
 10
98.4511
 20
112.438
 30
0.0
 40
0.2
 41
0.2
  0
VERTEX
  8
0
 10
98.4472
 20
112.415
 30
0.0
 40
0.2
 41
0.2
  0
VERTEX
  8
0
 10
98.4786
 20
112.4
 30
0.0
 40
0.2
 41
0.2
  0
VERTEX
  8
0
 10
98.4899
 20
112.4
 30
0.0
 40
0.2
 41
0.2
  0
VERTEX
  8
0
 10
104.29
 20
112.4
 30
0.0
 40
0.2
 41
0.2
  0
VERTEX
  8
0
 10
104.299
 20
112.4
 30
0.0
 40
0.2
 41
0.2
  0
VERTEX
  8
0
 10
104.331
 20
112.415
 30
0.0
 40
0.2
 41
0.2
  0
VERTEX
  8
0
 10
104.327
 20
112.438
 30
0.0
 40
0.2
 41
0.2
  0
VERTEX
  8
0
 10
104.304
 20
112.442
 30
0.0
 40
0.2
 41
0.2
  0
VERTEX
  8
0
 10
104.29
 20
112.411
 30
0.0
 40
0.2
 41
0.2
  0
VERTEX
  8
0
 10
104.29
 20
112.4
 30
0.0
 40
0.2
 41
0.2
  0
VERTEX
  8
0
 10
104.29
 20
109.5
 30
0.0
 40
0.2
 41
0.2
  0
VERTEX
  8
0
 10
104.29
 20
109.484
 30
0.0
 40
0.2
 41
0.2
  0
VERTEX
  8
0
 10
104.319
 20
109.43
 30
0.0
 40
0.2
 41
0.2
  0
VERTEX
  8
0
 10
104.371
 20
109.4
 30
0.0
 40
0.2
 41
0.2
  0
VERTEX
  8
0
 10
104.389
 20
109.4
 30
0.0
 40
0.2
 41
0.2
  0
VERTEX
  8
0
 10
110.389
 20
109.4
 30
0.0
 40
0.2
 41
0.2
  0
VERTEX
  8
0
 10
110.406
 20
109.4
 30
0.0
 40
0.2
 41
0.2
  0
VERTEX
  8
0
 10
110.459
 20
109.43
 30
0.0
 40
0.2
 41
0.2
  0
VERTEX
  8
0
 10
110.49
 20
109.484
 30
0.0
 40
0.2
 41
0.2
  0
VERTEX
  8
0
 10
110.49
 20
109.5
 30
0.0
 40
0.2
 41
0.2
  0
VERTEX
  8
0
 10
110.49
 20
112.4
 30
0.0
 40
0.2
 41
0.2
  0
VERTEX
  8
0
 10
110.49
 20
112.411
 30
0.0
 40
0.2
 41
0.2
  0
VERTEX
  8
0
 10
110.474
 20
112.442
 30
0.0
 40
0.2
 41
0.2
  0
VERTEX
  8
0
 10
110.451
 20
112.438
 30
0.0
 40
0.2
 41
0.2
  0
VERTEX
  8
0
 10
110.447
 20
112.415
 30
0.0
 40
0.2
 41
0.2
  0
VERTEX
  8
0
 10
110.479
 20
112.4
 30
0.0
 40
0.2
 41
0.2
  0
VERTEX
  8
0
 10
110.49
 20
112.4
 30
0.0
 40
0.2
 41
0.2
  0
VERTEX
  8
0
 10
116.29
 20
112.4
 30
0.0
 40
0.2
 41
0.2
  0
VERTEX
  8
0
 10
116.3
 20
112.4
 30
0.0
 40
0.2
 41
0.2
  0
VERTEX
  8
0
 10
116.331
 20
112.415
 30
0.0
 40
0.2
 41
0.2
  0
VERTEX
  8
0
 10
116.327
 20
112.438
 30
0.0
 40
0.2
 41
0.2
  0
VERTEX
  8
0
 10
116.304
 20
112.442
 30
0.0
 40
0.2
 41
0.2
  0
VERTEX
  8
0
 10
116.29
 20
112.411
 30
0.0
 40
0.2
 41
0.2
  0
VERTEX
  8
0
 10
116.29
 20
112.4
 30
0.0
 40
0.2
 41
0.2
  0
VERTEX
  8
0
 10
116.29
 20
109.5
 30
0.0
 40
0.2
 41
0.2
  0
VERTEX
  8
0
 10
116.29
 20
109.484
 30
0.0
 40
0.2
 41
0.2
  0
VERTEX
  8
0
 10
116.319
 20
109.43
 30
0.0
 40
0.2
 41
0.2
  0
VERTEX
  8
0
 10
116.371
 20
109.4
 30
0.0
 40
0.2
 41
0.2
  0
VERTEX
  8
0
 10
116.389
 20
109.4
 30
0.0
 40
0.2
 41
0.2
  0
VERTEX
  8
0
 10
126.39
 20
109.4
 30
0.0
 40
0.2
 41
0.2
  0
VERTEX
  8
0
 10
148.98
 20
109.4
 30
0.0
 40
0.2
 41
0.2
  0
VERTEX
  8
0
 10
156.979
 20
109.4
 30
0.0
 40
0.2
 41
0.2
  0
VERTEX
  8
0
 10
156.996
 20
109.4
 30
0.0
 40
0.2
 41
0.2
  0
VERTEX
  8
0
 10
157.05
 20
109.43
 30
0.0
 40
0.2
 41
0.2
  0
VERTEX
  8
0
 10
157.08
 20
109.484
 30
0.0
 40
0.2
 41
0.2
  0
VERTEX
  8
0
 10
157.08
 20
109.5
 30
0.0
 40
0.2
 41
0.2
  0
VERTEX
  8
0
 10
157.08
 20
112.4
 30
0.0
 40
0.2
 41
0.2
  0
VERTEX
  8
0
 10
157.08
 20
112.411
 30
0.0
 40
0.2
 41
0.2
  0
VERTEX
  8
0
 10
157.065
 20
112.442
 30
0.0
 40
0.2
 41
0.2
  0
VERTEX
  8
0
 10
157.041
 20
112.438
 30
0.0
 40
0.2
 41
0.2
  0
VERTEX
  8
0
 10
157.037
 20
112.415
 30
0.0
 40
0.2
 41
0.2
  0
VERTEX
  8
0
 10
157.069
 20
112.4
 30
0.0
 40
0.2
 41
0.2
  0
VERTEX
  8
0
 10
157.08
 20
112.4
 30
0.0
 40
0.2
 41
0.2
  0
VERTEX
  8
0
 10
162.879
 20
112.4
 30
0.0
 40
0.2
 41
0.2
  0
VERTEX
  8
0
 10
162.888
 20
112.4
 30
0.0
 40
0.2
 41
0.2
  0
VERTEX
  8
0
 10
162.92
 20
112.415
 30
0.0
 40
0.2
 41
0.2
  0
VERTEX
  8
0
 10
162.916
 20
112.438
 30
0.0
 40
0.2
 41
0.2
  0
VERTEX
  8
0
 10
162.892
 20
112.442
 30
0.0
 40
0.2
 41
0.2
  0
VERTEX
  8
0
 10
162.879
 20
112.411
 30
0.0
 40
0.2
 41
0.2
  0
VERTEX
  8
0
 10
162.879
 20
112.4
 30
0.0
 40
0.2
 41
0.2
  0
VERTEX
  8
0
 10
162.879
 20
109.5
 30
0.0
 40
0.2
 41
0.2
  0
VERTEX
  8
0
 10
162.879
 20
109.484
 30
0.0
 40
0.2
 41
0.2
  0
VERTEX
  8
0
 10
162.907
 20
109.43
 30
0.0
 40
0.2
 41
0.2
  0
VERTEX
  8
0
 10
162.961
 20
109.4
 30
0.0
 40
0.2
 41
0.2
  0
VERTEX
  8
0
 10
162.979
 20
109.4
 30
0.0
 40
0.2
 41
0.2
  0
VERTEX
  8
0
 10
168.979
 20
109.4
 30
0.0
 40
0.2
 41
0.2
  0
VERTEX
  8
0
 10
168.996
 20
109.4
 30
0.0
 40
0.2
 41
0.2
  0
VERTEX
  8
0
 10
169.049
 20
109.43
 30
0.0
 40
0.2
 41
0.2
  0
VERTEX
  8
0
 10
169.078
 20
109.484
 30
0.0
 40
0.2
 41
0.2
  0
VERTEX
  8
0
 10
169.078
 20
109.5
 30
0.0
 40
0.2
 41
0.2
  0
VERTEX
  8
0
 10
169.078
 20
112.4
 30
0.0
 40
0.2
 41
0.2
  0
VERTEX
  8
0
 10
169.078
 20
112.411
 30
0.0
 40
0.2
 41
0.2
  0
VERTEX
  8
0
 10
169.063
 20
112.442
 30
0.0
 40
0.2
 41
0.2
  0
VERTEX
  8
0
 10
169.041
 20
112.438
 30
0.0
 40
0.2
 41
0.2
  0
VERTEX
  8
0
 10
169.036
 20
112.415
 30
0.0
 40
0.2
 41
0.2
  0
VERTEX
  8
0
 10
169.067
 20
112.4
 30
0.0
 40
0.2
 41
0.2
  0
VERTEX
  8
0
 10
169.078
 20
112.4
 30
0.0
 40
0.2
 41
0.2
  0
VERTEX
  8
0
 10
174.879
 20
112.4
 30
0.0
 40
0.2
 41
0.2
  0
VERTEX
  8
0
 10
174.888
 20
112.4
 30
0.0
 40
0.2
 41
0.2
  0
VERTEX
  8
0
 10
174.92
 20
112.415
 30
0.0
 40
0.2
 41
0.2
  0
VERTEX
  8
0
 10
174.916
 20
112.438
 30
0.0
 40
0.2
 41
0.2
  0
VERTEX
  8
0
 10
174.892
 20
112.442
 30
0.0
 40
0.2
 41
0.2
  0
VERTEX
  8
0
 10
174.879
 20
112.411
 30
0.0
 40
0.2
 41
0.2
  0
VERTEX
  8
0
 10
174.879
 20
112.4
 30
0.0
 40
0.2
 41
0.2
  0
VERTEX
  8
0
 10
174.879
 20
109.5
 30
0.0
 40
0.2
 41
0.2
  0
VERTEX
  8
0
 10
174.879
 20
109.484
 30
0.0
 40
0.2
 41
0.2
  0
VERTEX
  8
0
 10
174.908
 20
109.43
 30
0.0
 40
0.2
 41
0.2
  0
VERTEX
  8
0
 10
174.961
 20
109.4
 30
0.0
 40
0.2
 41
0.2
  0
VERTEX
  8
0
 10
174.979
 20
109.4
 30
0.0
 40
0.2
 41
0.2
  0
VERTEX
  8
0
 10
180.979
 20
109.4
 30
0.0
 40
0.2
 41
0.2
  0
VERTEX
  8
0
 10
180.996
 20
109.4
 30
0.0
 40
0.2
 41
0.2
  0
VERTEX
  8
0
 10
181.049
 20
109.43
 30
0.0
 40
0.2
 41
0.2
  0
VERTEX
  8
0
 10
181.08
 20
109.484
 30
0.0
 40
0.2
 41
0.2
  0
VERTEX
  8
0
 10
181.08
 20
109.5
 30
0.0
 40
0.2
 41
0.2
  0
VERTEX
  8
0
 10
181.08
 20
112.4
 30
0.0
 40
0.2
 41
0.2
  0
VERTEX
  8
0
 10
181.08
 20
112.411
 30
0.0
 40
0.2
 41
0.2
  0
VERTEX
  8
0
 10
181.065
 20
112.442
 30
0.0
 40
0.2
 41
0.2
  0
VERTEX
  8
0
 10
181.041
 20
112.438
 30
0.0
 40
0.2
 41
0.2
  0
VERTEX
  8
0
 10
181.037
 20
112.415
 30
0.0
 40
0.2
 41
0.2
  0
VERTEX
  8
0
 10
181.069
 20
112.4
 30
0.0
 40
0.2
 41
0.2
  0
VERTEX
  8
0
 10
181.08
 20
112.4
 30
0.0
 40
0.2
 41
0.2
  0
VERTEX
  8
0
 10
186.878
 20
112.4
 30
0.0
 40
0.2
 41
0.2
  0
VERTEX
  8
0
 10
186.888
 20
112.4
 30
0.0
 40
0.2
 41
0.2
  0
VERTEX
  8
0
 10
186.92
 20
112.415
 30
0.0
 40
0.2
 41
0.2
  0
VERTEX
  8
0
 10
186.916
 20
112.438
 30
0.0
 40
0.2
 41
0.2
  0
VERTEX
  8
0
 10
186.892
 20
112.442
 30
0.0
 40
0.2
 41
0.2
  0
VERTEX
  8
0
 10
186.878
 20
112.411
 30
0.0
 40
0.2
 41
0.2
  0
VERTEX
  8
0
 10
186.878
 20
112.4
 30
0.0
 40
0.2
 41
0.2
  0
VERTEX
  8
0
 10
186.878
 20
109.5
 30
0.0
 40
0.2
 41
0.2
  0
VERTEX
  8
0
 10
186.878
 20
109.484
 30
0.0
 40
0.2
 41
0.2
  0
VERTEX
  8
0
 10
186.907
 20
109.43
 30
0.0
 40
0.2
 41
0.2
  0
VERTEX
  8
0
 10
186.961
 20
109.4
 30
0.0
 40
0.2
 41
0.2
  0
VERTEX
  8
0
 10
186.979
 20
109.4
 30
0.0
 40
0.2
 41
0.2
  0
VERTEX
  8
0
 10
192.979
 20
109.4
 30
0.0
 40
0.2
 41
0.2
  0
VERTEX
  8
0
 10
192.996
 20
109.4
 30
0.0
 40
0.2
 41
0.2
  0
VERTEX
  8
0
 10
193.05
 20
109.43
 30
0.0
 40
0.2
 41
0.2
  0
VERTEX
  8
0
 10
193.08
 20
109.484
 30
0.0
 40
0.2
 41
0.2
  0
VERTEX
  8
0
 10
193.08
 20
109.5
 30
0.0
 40
0.2
 41
0.2
  0
VERTEX
  8
0
 10
193.08
 20
112.4
 30
0.0
 40
0.2
 41
0.2
  0
VERTEX
  8
0
 10
193.08
 20
112.411
 30
0.0
 40
0.2
 41
0.2
  0
VERTEX
  8
0
 10
193.065
 20
112.442
 30
0.0
 40
0.2
 41
0.2
  0
VERTEX
  8
0
 10
193.041
 20
112.438
 30
0.0
 40
0.2
 41
0.2
  0
VERTEX
  8
0
 10
193.037
 20
112.415
 30
0.0
 40
0.2
 41
0.2
  0
VERTEX
  8
0
 10
193.069
 20
112.4
 30
0.0
 40
0.2
 41
0.2
  0
VERTEX
  8
0
 10
193.08
 20
112.4
 30
0.0
 40
0.2
 41
0.2
  0
VERTEX
  8
0
 10
198.88
 20
112.4
 30
0.0
 40
0.2
 41
0.2
  0
VERTEX
  8
0
 10
198.889
 20
112.4
 30
0.0
 40
0.2
 41
0.2
  0
VERTEX
  8
0
 10
198.921
 20
112.415
 30
0.0
 40
0.2
 41
0.2
  0
VERTEX
  8
0
 10
198.917
 20
112.438
 30
0.0
 40
0.2
 41
0.2
  0
VERTEX
  8
0
 10
198.894
 20
112.442
 30
0.0
 40
0.2
 41
0.2
  0
VERTEX
  8
0
 10
198.88
 20
112.411
 30
0.0
 40
0.2
 41
0.2
  0
VERTEX
  8
0
 10
198.88
 20
112.4
 30
0.0
 40
0.2
 41
0.2
  0
VERTEX
  8
0
 10
198.88
 20
109.5
 30
0.0
 40
0.2
 41
0.2
  0
VERTEX
  8
0
 10
198.88
 20
109.484
 30
0.0
 40
0.2
 41
0.2
  0
VERTEX
  8
0
 10
198.909
 20
109.43
 30
0.0
 40
0.2
 41
0.2
  0
VERTEX
  8
0
 10
198.961
 20
109.4
 30
0.0
 40
0.2
 41
0.2
  0
VERTEX
  8
0
 10
198.979
 20
109.4
 30
0.0
 40
0.2
 41
0.2
  0
VERTEX
  8
0
 10
204.979
 20
109.4
 30
0.0
 40
0.2
 41
0.2
  0
VERTEX
  8
0
 10
204.996
 20
109.4
 30
0.0
 40
0.2
 41
0.2
  0
VERTEX
  8
0
 10
205.049
 20
109.43
 30
0.0
 40
0.2
 41
0.2
  0
VERTEX
  8
0
 10
205.08
 20
109.484
 30
0.0
 40
0.2
 41
0.2
  0
VERTEX
  8
0
 10
205.08
 20
109.5
 30
0.0
 40
0.2
 41
0.2
  0
VERTEX
  8
0
 10
205.08
 20
112.4
 30
0.0
 40
0.2
 41
0.2
  0
VERTEX
  8
0
 10
205.08
 20
112.411
 30
0.0
 40
0.2
 41
0.2
  0
VERTEX
  8
0
 10
205.064
 20
112.442
 30
0.0
 40
0.2
 41
0.2
  0
VERTEX
  8
0
 10
205.041
 20
112.438
 30
0.0
 40
0.2
 41
0.2
  0
VERTEX
  8
0
 10
205.037
 20
112.415
 30
0.0
 40
0.2
 41
0.2
  0
VERTEX
  8
0
 10
205.069
 20
112.4
 30
0.0
 40
0.2
 41
0.2
  0
VERTEX
  8
0
 10
205.08
 20
112.4
 30
0.0
 40
0.2
 41
0.2
  0
VERTEX
  8
0
 10
210.88
 20
112.4
 30
0.0
 40
0.2
 41
0.2
  0
VERTEX
  8
0
 10
210.889
 20
112.4
 30
0.0
 40
0.2
 41
0.2
  0
VERTEX
  8
0
 10
210.921
 20
112.415
 30
0.0
 40
0.2
 41
0.2
  0
VERTEX
  8
0
 10
210.917
 20
112.438
 30
0.0
 40
0.2
 41
0.2
  0
VERTEX
  8
0
 10
210.894
 20
112.442
 30
0.0
 40
0.2
 41
0.2
  0
VERTEX
  8
0
 10
210.88
 20
112.411
 30
0.0
 40
0.2
 41
0.2
  0
VERTEX
  8
0
 10
210.88
 20
112.4
 30
0.0
 40
0.2
 41
0.2
  0
VERTEX
  8
0
 10
210.88
 20
109.5
 30
0.0
 40
0.2
 41
0.2
  0
VERTEX
  8
0
 10
210.88
 20
109.484
 30
0.0
 40
0.2
 41
0.2
  0
VERTEX
  8
0
 10
210.909
 20
109.43
 30
0.0
 40
0.2
 41
0.2
  0
VERTEX
  8
0
 10
210.961
 20
109.4
 30
0.0
 40
0.2
 41
0.2
  0
VERTEX
  8
0
 10
210.979
 20
109.4
 30
0.0
 40
0.2
 41
0.2
  0
VERTEX
  8
0
 10
218.979
 20
109.4
 30
0.0
 40
0.2
 41
0.2
  0
VERTEX
  8
0
 10
241.569
 20
109.4
 30
0.0
 40
0.2
 41
0.2
  0
VERTEX
  8
0
 10
251.569
 20
109.4
 30
0.0
 40
0.2
 41
0.2
  0
VERTEX
  8
0
 10
251.586
 20
109.4
 30
0.0
 40
0.2
 41
0.2
  0
VERTEX
  8
0
 10
251.64
 20
109.43
 30
0.0
 40
0.2
 41
0.2
  0
VERTEX
  8
0
 10
251.668
 20
109.484
 30
0.0
 40
0.2
 41
0.2
  0
VERTEX
  8
0
 10
251.668
 20
109.5
 30
0.0
 40
0.2
 41
0.2
  0
VERTEX
  8
0
 10
251.668
 20
112.4
 30
0.0
 40
0.2
 41
0.2
  0
VERTEX
  8
0
 10
251.668
 20
112.411
 30
0.0
 40
0.2
 41
0.2
  0
VERTEX
  8
0
 10
251.653
 20
112.442
 30
0.0
 40
0.2
 41
0.2
  0
VERTEX
  8
0
 10
251.631
 20
112.438
 30
0.0
 40
0.2
 41
0.2
  0
VERTEX
  8
0
 10
251.626
 20
112.415
 30
0.0
 40
0.2
 41
0.2
  0
VERTEX
  8
0
 10
251.657
 20
112.4
 30
0.0
 40
0.2
 41
0.2
  0
VERTEX
  8
0
 10
251.668
 20
112.4
 30
0.0
 40
0.2
 41
0.2
  0
VERTEX
  8
0
 10
257.469
 20
112.4
 30
0.0
 40
0.2
 41
0.2
  0
VERTEX
  8
0
 10
257.478
 20
112.4
 30
0.0
 40
0.2
 41
0.2
  0
VERTEX
  8
0
 10
257.51
 20
112.415
 30
0.0
 40
0.2
 41
0.2
  0
VERTEX
  8
0
 10
257.506
 20
112.438
 30
0.0
 40
0.2
 41
0.2
  0
VERTEX
  8
0
 10
257.482
 20
112.442
 30
0.0
 40
0.2
 41
0.2
  0
VERTEX
  8
0
 10
257.469
 20
112.411
 30
0.0
 40
0.2
 41
0.2
  0
VERTEX
  8
0
 10
257.469
 20
112.4
 30
0.0
 40
0.2
 41
0.2
  0
VERTEX
  8
0
 10
257.469
 20
109.5
 30
0.0
 40
0.2
 41
0.2
  0
VERTEX
  8
0
 10
257.469
 20
109.484
 30
0.0
 40
0.2
 41
0.2
  0
VERTEX
  8
0
 10
257.497
 20
109.43
 30
0.0
 40
0.2
 41
0.2
  0
VERTEX
  8
0
 10
257.551
 20
109.4
 30
0.0
 40
0.2
 41
0.2
  0
VERTEX
  8
0
 10
257.569
 20
109.4
 30
0.0
 40
0.2
 41
0.2
  0
VERTEX
  8
0
 10
263.569
 20
109.4
 30
0.0
 40
0.2
 41
0.2
  0
VERTEX
  8
0
 10
263.586
 20
109.4
 30
0.0
 40
0.2
 41
0.2
  0
VERTEX
  8
0
 10
263.639
 20
109.43
 30
0.0
 40
0.2
 41
0.2
  0
VERTEX
  8
0
 10
263.668
 20
109.484
 30
0.0
 40
0.2
 41
0.2
  0
VERTEX
  8
0
 10
263.668
 20
109.5
 30
0.0
 40
0.2
 41
0.2
  0
VERTEX
  8
0
 10
263.668
 20
112.4
 30
0.0
 40
0.2
 41
0.2
  0
VERTEX
  8
0
 10
263.668
 20
112.411
 30
0.0
 40
0.2
 41
0.2
  0
VERTEX
  8
0
 10
263.653
 20
112.442
 30
0.0
 40
0.2
 41
0.2
  0
VERTEX
  8
0
 10
263.631
 20
112.438
 30
0.0
 40
0.2
 41
0.2
  0
VERTEX
  8
0
 10
263.626
 20
112.415
 30
0.0
 40
0.2
 41
0.2
  0
VERTEX
  8
0
 10
263.657
 20
112.4
 30
0.0
 40
0.2
 41
0.2
  0
VERTEX
  8
0
 10
263.668
 20
112.4
 30
0.0
 40
0.2
 41
0.2
  0
VERTEX
  8
0
 10
269.469
 20
112.4
 30
0.0
 40
0.2
 41
0.2
  0
VERTEX
  8
0
 10
269.478
 20
112.4
 30
0.0
 40
0.2
 41
0.2
  0
VERTEX
  8
0
 10
269.51
 20
112.415
 30
0.0
 40
0.2
 41
0.2
  0
VERTEX
  8
0
 10
269.506
 20
112.438
 30
0.0
 40
0.2
 41
0.2
  0
VERTEX
  8
0
 10
269.482
 20
112.442
 30
0.0
 40
0.2
 41
0.2
  0
VERTEX
  8
0
 10
269.469
 20
112.411
 30
0.0
 40
0.2
 41
0.2
  0
VERTEX
  8
0
 10
269.469
 20
112.4
 30
0.0
 40
0.2
 41
0.2
  0
VERTEX
  8
0
 10
269.469
 20
109.5
 30
0.0
 40
0.2
 41
0.2
  0
VERTEX
  8
0
 10
269.469
 20
109.484
 30
0.0
 40
0.2
 41
0.2
  0
VERTEX
  8
0
 10
269.498
 20
109.43
 30
0.0
 40
0.2
 41
0.2
  0
VERTEX
  8
0
 10
269.551
 20
109.4
 30
0.0
 40
0.2
 41
0.2
  0
VERTEX
  8
0
 10
269.569
 20
109.4
 30
0.0
 40
0.2
 41
0.2
  0
VERTEX
  8
0
 10
275.569
 20
109.4
 30
0.0
 40
0.2
 41
0.2
  0
VERTEX
  8
0
 10
275.586
 20
109.4
 30
0.0
 40
0.2
 41
0.2
  0
VERTEX
  8
0
 10
275.639
 20
109.43
 30
0.0
 40
0.2
 41
0.2
  0
VERTEX
  8
0
 10
275.668
 20
109.484
 30
0.0
 40
0.2
 41
0.2
  0
VERTEX
  8
0
 10
275.668
 20
109.5
 30
0.0
 40
0.2
 41
0.2
  0
VERTEX
  8
0
 10
275.668
 20
112.4
 30
0.0
 40
0.2
 41
0.2
  0
VERTEX
  8
0
 10
275.668
 20
112.411
 30
0.0
 40
0.2
 41
0.2
  0
VERTEX
  8
0
 10
275.653
 20
112.442
 30
0.0
 40
0.2
 41
0.2
  0
VERTEX
  8
0
 10
275.631
 20
112.438
 30
0.0
 40
0.2
 41
0.2
  0
VERTEX
  8
0
 10
275.626
 20
112.415
 30
0.0
 40
0.2
 41
0.2
  0
VERTEX
  8
0
 10
275.657
 20
112.4
 30
0.0
 40
0.2
 41
0.2
  0
VERTEX
  8
0
 10
275.668
 20
112.4
 30
0.0
 40
0.2
 41
0.2
  0
VERTEX
  8
0
 10
281.468
 20
112.4
 30
0.0
 40
0.2
 41
0.2
  0
VERTEX
  8
0
 10
281.478
 20
112.4
 30
0.0
 40
0.2
 41
0.2
  0
VERTEX
  8
0
 10
281.51
 20
112.415
 30
0.0
 40
0.2
 41
0.2
  0
VERTEX
  8
0
 10
281.506
 20
112.438
 30
0.0
 40
0.2
 41
0.2
  0
VERTEX
  8
0
 10
281.482
 20
112.442
 30
0.0
 40
0.2
 41
0.2
  0
VERTEX
  8
0
 10
281.468
 20
112.411
 30
0.0
 40
0.2
 41
0.2
  0
VERTEX
  8
0
 10
281.468
 20
112.4
 30
0.0
 40
0.2
 41
0.2
  0
VERTEX
  8
0
 10
281.468
 20
109.5
 30
0.0
 40
0.2
 41
0.2
  0
VERTEX
  8
0
 10
281.468
 20
109.484
 30
0.0
 40
0.2
 41
0.2
  0
VERTEX
  8
0
 10
281.497
 20
109.43
 30
0.0
 40
0.2
 41
0.2
  0
VERTEX
  8
0
 10
281.551
 20
109.4
 30
0.0
 40
0.2
 41
0.2
  0
VERTEX
  8
0
 10
281.569
 20
109.4
 30
0.0
 40
0.2
 41
0.2
  0
VERTEX
  8
0
 10
291.568
 20
109.4
 30
0.0
 40
0.2
 41
0.2
  0
VERTEX
  8
0
 10
314.158
 20
109.4
 30
0.0
 40
0.2
 41
0.2
  0
VERTEX
  8
0
 10
322.658
 20
109.4
 30
0.0
 40
0.2
 41
0.2
  0
VERTEX
  8
0
 10
322.675
 20
109.4
 30
0.0
 40
0.2
 41
0.2
  0
VERTEX
  8
0
 10
322.728
 20
109.43
 30
0.0
 40
0.2
 41
0.2
  0
VERTEX
  8
0
 10
322.759
 20
109.484
 30
0.0
 40
0.2
 41
0.2
  0
VERTEX
  8
0
 10
322.759
 20
109.5
 30
0.0
 40
0.2
 41
0.2
  0
VERTEX
  8
0
 10
322.759
 20
112.4
 30
0.0
 40
0.2
 41
0.2
  0
VERTEX
  8
0
 10
322.759
 20
112.411
 30
0.0
 40
0.2
 41
0.2
  0
VERTEX
  8
0
 10
322.743
 20
112.442
 30
0.0
 40
0.2
 41
0.2
  0
VERTEX
  8
0
 10
322.72
 20
112.438
 30
0.0
 40
0.2
 41
0.2
  0
VERTEX
  8
0
 10
322.716
 20
112.415
 30
0.0
 40
0.2
 41
0.2
  0
VERTEX
  8
0
 10
322.748
 20
112.4
 30
0.0
 40
0.2
 41
0.2
  0
VERTEX
  8
0
 10
322.759
 20
112.4
 30
0.0
 40
0.2
 41
0.2
  0
VERTEX
  8
0
 10
328.559
 20
112.4
 30
0.0
 40
0.2
 41
0.2
  0
VERTEX
  8
0
 10
328.568
 20
112.4
 30
0.0
 40
0.2
 41
0.2
  0
VERTEX
  8
0
 10
328.6
 20
112.415
 30
0.0
 40
0.2
 41
0.2
  0
VERTEX
  8
0
 10
328.596
 20
112.438
 30
0.0
 40
0.2
 41
0.2
  0
VERTEX
  8
0
 10
328.573
 20
112.442
 30
0.0
 40
0.2
 41
0.2
  0
VERTEX
  8
0
 10
328.559
 20
112.411
 30
0.0
 40
0.2
 41
0.2
  0
VERTEX
  8
0
 10
328.559
 20
112.4
 30
0.0
 40
0.2
 41
0.2
  0
VERTEX
  8
0
 10
328.559
 20
109.5
 30
0.0
 40
0.2
 41
0.2
  0
VERTEX
  8
0
 10
328.559
 20
109.484
 30
0.0
 40
0.2
 41
0.2
  0
VERTEX
  8
0
 10
328.588
 20
109.43
 30
0.0
 40
0.2
 41
0.2
  0
VERTEX
  8
0
 10
328.64
 20
109.4
 30
0.0
 40
0.2
 41
0.2
  0
VERTEX
  8
0
 10
328.658
 20
109.4
 30
0.0
 40
0.2
 41
0.2
  0
VERTEX
  8
0
 10
334.658
 20
109.4
 30
0.0
 40
0.2
 41
0.2
  0
VERTEX
  8
0
 10
334.675
 20
109.4
 30
0.0
 40
0.2
 41
0.2
  0
VERTEX
  8
0
 10
334.728
 20
109.43
 30
0.0
 40
0.2
 41
0.2
  0
VERTEX
  8
0
 10
334.759
 20
109.484
 30
0.0
 40
0.2
 41
0.2
  0
VERTEX
  8
0
 10
334.759
 20
109.5
 30
0.0
 40
0.2
 41
0.2
  0
VERTEX
  8
0
 10
334.759
 20
112.4
 30
0.0
 40
0.2
 41
0.2
  0
VERTEX
  8
0
 10
334.759
 20
112.411
 30
0.0
 40
0.2
 41
0.2
  0
VERTEX
  8
0
 10
334.743
 20
112.442
 30
0.0
 40
0.2
 41
0.2
  0
VERTEX
  8
0
 10
334.72
 20
112.438
 30
0.0
 40
0.2
 41
0.2
  0
VERTEX
  8
0
 10
334.716
 20
112.415
 30
0.0
 40
0.2
 41
0.2
  0
VERTEX
  8
0
 10
334.748
 20
112.4
 30
0.0
 40
0.2
 41
0.2
  0
VERTEX
  8
0
 10
334.759
 20
112.4
 30
0.0
 40
0.2
 41
0.2
  0
VERTEX
  8
0
 10
340.559
 20
112.4
 30
0.0
 40
0.2
 41
0.2
  0
VERTEX
  8
0
 10
340.568
 20
112.4
 30
0.0
 40
0.2
 41
0.2
  0
VERTEX
  8
0
 10
340.6
 20
112.415
 30
0.0
 40
0.2
 41
0.2
  0
VERTEX
  8
0
 10
340.596
 20
112.438
 30
0.0
 40
0.2
 41
0.2
  0
VERTEX
  8
0
 10
340.572
 20
112.442
 30
0.0
 40
0.2
 41
0.2
  0
VERTEX
  8
0
 10
340.559
 20
112.411
 30
0.0
 40
0.2
 41
0.2
  0
VERTEX
  8
0
 10
340.559
 20
112.4
 30
0.0
 40
0.2
 41
0.2
  0
VERTEX
  8
0
 10
340.559
 20
109.5
 30
0.0
 40
0.2
 41
0.2
  0
VERTEX
  8
0
 10
340.559
 20
109.484
 30
0.0
 40
0.2
 41
0.2
  0
VERTEX
  8
0
 10
340.588
 20
109.43
 30
0.0
 40
0.2
 41
0.2
  0
VERTEX
  8
0
 10
340.64
 20
109.4
 30
0.0
 40
0.2
 41
0.2
  0
VERTEX
  8
0
 10
340.658
 20
109.4
 30
0.0
 40
0.2
 41
0.2
  0
VERTEX
  8
0
 10
349.158
 20
109.4
 30
0.0
 40
0.2
 41
0.2
  0
VERTEX
  8
0
 10
349.174
 20
109.4
 30
0.0
 40
0.2
 41
0.2
  0
VERTEX
  8
0
 10
349.228
 20
109.43
 30
0.0
 40
0.2
 41
0.2
  0
VERTEX
  8
0
 10
349.258
 20
109.484
 30
0.0
 40
0.2
 41
0.2
  0
VERTEX
  8
0
 10
349.258
 20
109.5
 30
0.0
 40
0.2
 41
0.2
  0
VERTEX
  8
0
 10
349.258
 20
112.5
 30
0.0
 40
0.2
 41
0.2
  0
VERTEX
  8
0
 10
349.258
 20
119.032
 30
0.0
 40
0.2
 41
0.2
  0
VERTEX
  8
0
 10
349.258
 20
119.071
 30
0.0
 40
0.2
 41
0.2
  0
VERTEX
  8
0
 10
349.28
 20
119.184
 30
0.0
 40
0.2
 41
0.2
  0
VERTEX
  8
0
 10
349.334
 20
119.3
 30
0.0
 40
0.2
 41
0.2
  0
VERTEX
  8
0
 10
349.349
 20
119.32
 30
0.0
 40
0.2
 41
0.2
  0
VERTEX
  8
0
 10
349.363
 20
119.342
 30
0.0
 40
0.2
 41
0.2
  0
VERTEX
  8
0
 10
349.454
 20
119.43
 30
0.0
 40
0.2
 41
0.2
  0
VERTEX
  8
0
 10
349.563
 20
119.494
 30
0.0
 40
0.2
 41
0.2
  0
VERTEX
  8
0
 10
349.588
 20
119.502
 30
0.0
 40
0.2
 41
0.2
  0
VERTEX
  8
0
 10
349.611
 20
119.512
 30
0.0
 40
0.2
 41
0.2
  0
VERTEX
  8
0
 10
349.863
 20
119.523
 30
0.0
 40
0.2
 41
0.2
  0
VERTEX
  8
0
 10
349.888
 20
119.516
 30
0.0
 40
0.2
 41
0.2
  0
VERTEX
  8
0
 10
349.913
 20
119.511
 30
0.0
 40
0.2
 41
0.2
  0
VERTEX
  8
0
 10
350.027
 20
119.455
 30
0.0
 40
0.2
 41
0.2
  0
VERTEX
  8
0
 10
350.125
 20
119.375
 30
0.0
 40
0.2
 41
0.2
  0
VERTEX
  8
0
 10
350.141
 20
119.355
 30
0.0
 40
0.2
 41
0.2
  0
VERTEX
  8
0
 10
352.521
 20
116.517
 30
0.0
 40
0.2
 41
0.2
  0
VERTEX
  8
0
 10
352.544
 20
116.49
 30
0.0
 40
0.2
 41
0.2
  0
VERTEX
  8
0
 10
352.681
 20
116.378
 30
0.0
 40
0.2
 41
0.2
  0
VERTEX
  8
0
 10
352.841
 20
116.301
 30
0.0
 40
0.2
 41
0.2
  0
VERTEX
  8
0
 10
352.877
 20
116.291
 30
0.0
 40
0.2
 41
0.2
  0
VERTEX
  8
0
 10
352.912
 20
116.283
 30
0.0
 40
0.2
 41
0.2
  0
VERTEX
  8
0
 10
353.088
 20
116.268
 30
0.0
 40
0.2
 41
0.2
  0
VERTEX
  8
0
 10
353.265
 20
116.297
 30
0.0
 40
0.2
 41
0.2
  0
VERTEX
  8
0
 10
353.296
 20
116.309
 30
0.0
 40
0.2
 41
0.2
  0
VERTEX
  8
0
 10
353.332
 20
116.321
 30
0.0
 40
0.2
 41
0.2
  0
VERTEX
  8
0
 10
353.483
 20
116.412
 30
0.0
 40
0.2
 41
0.2
  0
VERTEX
  8
0
 10
353.61
 20
116.537
 30
0.0
 40
0.2
 41
0.2
  0
VERTEX
  8
0
 10
353.631
 20
116.566
 30
0.0
 40
0.2
 41
0.2
  0
VERTEX
  8
0
 10
353.653
 20
116.596
 30
0.0
 40
0.2
 41
0.2
  0
VERTEX
  8
0
 10
353.723
 20
116.757
 30
0.0
 40
0.2
 41
0.2
  0
VERTEX
  8
0
 10
353.759
 20
116.914
 30
0.0
 40
0.2
 41
0.2
  0
VERTEX
  8
0
 10
353.759
 20
116.967
 30
0.0
 40
0.2
 41
0.2
  0
VERTEX
  8
0
 10
353.759
 20
128.034
 30
0.0
 40
0.2
 41
0.2
  0
VERTEX
  8
0
 10
353.759
 20
128.087
 30
0.0
 40
0.2
 41
0.2
  0
VERTEX
  8
0
 10
353.723
 20
128.244
 30
0.0
 40
0.2
 41
0.2
  0
VERTEX
  8
0
 10
353.653
 20
128.405
 30
0.0
 40
0.2
 41
0.2
  0
VERTEX
  8
0
 10
353.631
 20
128.434
 30
0.0
 40
0.2
 41
0.2
  0
VERTEX
  8
0
 10
353.61
 20
128.465
 30
0.0
 40
0.2
 41
0.2
  0
VERTEX
  8
0
 10
353.483
 20
128.589
 30
0.0
 40
0.2
 41
0.2
  0
VERTEX
  8
0
 10
353.332
 20
128.679
 30
0.0
 40
0.2
 41
0.2
  0
VERTEX
  8
0
 10
353.296
 20
128.691
 30
0.0
 40
0.2
 41
0.2
  0
VERTEX
  8
0
 10
353.265
 20
128.703
 30
0.0
 40
0.2
 41
0.2
  0
VERTEX
  8
0
 10
353.088
 20
128.734
 30
0.0
 40
0.2
 41
0.2
  0
VERTEX
  8
0
 10
352.912
 20
128.718
 30
0.0
 40
0.2
 41
0.2
  0
VERTEX
  8
0
 10
352.877
 20
128.709
 30
0.0
 40
0.2
 41
0.2
  0
VERTEX
  8
0
 10
352.841
 20
128.7
 30
0.0
 40
0.2
 41
0.2
  0
VERTEX
  8
0
 10
352.681
 20
128.623
 30
0.0
 40
0.2
 41
0.2
  0
VERTEX
  8
0
 10
352.544
 20
128.51
 30
0.0
 40
0.2
 41
0.2
  0
VERTEX
  8
0
 10
352.521
 20
128.483
 30
0.0
 40
0.2
 41
0.2
  0
VERTEX
  8
0
 10
350.141
 20
125.645
 30
0.0
 40
0.2
 41
0.2
  0
VERTEX
  8
0
 10
350.125
 20
125.626
 30
0.0
 40
0.2
 41
0.2
  0
VERTEX
  8
0
 10
350.027
 20
125.546
 30
0.0
 40
0.2
 41
0.2
  0
VERTEX
  8
0
 10
349.913
 20
125.491
 30
0.0
 40
0.2
 41
0.2
  0
VERTEX
  8
0
 10
349.888
 20
125.484
 30
0.0
 40
0.2
 41
0.2
  0
VERTEX
  8
0
 10
349.863
 20
125.479
 30
0.0
 40
0.2
 41
0.2
  0
VERTEX
  8
0
 10
349.611
 20
125.488
 30
0.0
 40
0.2
 41
0.2
  0
VERTEX
  8
0
 10
349.588
 20
125.496
 30
0.0
 40
0.2
 41
0.2
  0
VERTEX
  8
0
 10
349.563
 20
125.506
 30
0.0
 40
0.2
 41
0.2
  0
VERTEX
  8
0
 10
349.454
 20
125.571
 30
0.0
 40
0.2
 41
0.2
  0
VERTEX
  8
0
 10
349.363
 20
125.659
 30
0.0
 40
0.2
 41
0.2
  0
VERTEX
  8
0
 10
349.349
 20
125.68
 30
0.0
 40
0.2
 41
0.2
  0
VERTEX
  8
0
 10
349.334
 20
125.702
 30
0.0
 40
0.2
 41
0.2
  0
VERTEX
  8
0
 10
349.28
 20
125.817
 30
0.0
 40
0.2
 41
0.2
  0
VERTEX
  8
0
 10
349.258
 20
125.929
 30
0.0
 40
0.2
 41
0.2
  0
VERTEX
  8
0
 10
349.258
 20
125.966
 30
0.0
 40
0.2
 41
0.2
  0
VERTEX
  8
0
 10
349.258
 20
132.5
 30
0.0
 40
0.2
 41
0.2
  0
VERTEX
  8
0
 10
349.258
 20
135.5
 30
0.0
 40
0.2
 41
0.2
  0
VERTEX
  8
0
 10
349.258
 20
135.518
 30
0.0
 40
0.2
 41
0.2
  0
VERTEX
  8
0
 10
349.228
 20
135.571
 30
0.0
 40
0.2
 41
0.2
  0
VERTEX
  8
0
 10
349.174
 20
135.6
 30
0.0
 40
0.2
 41
0.2
  0
VERTEX
  8
0
 10
349.158
 20
135.6
 30
0.0
 40
0.2
 41
0.2
  0
VERTEX
  8
0
 10
340.658
 20
135.6
 30
0.0
 40
0.2
 41
0.2
  0
VERTEX
  8
0
 10
340.64
 20
135.6
 30
0.0
 40
0.2
 41
0.2
  0
VERTEX
  8
0
 10
340.588
 20
135.571
 30
0.0
 40
0.2
 41
0.2
  0
VERTEX
  8
0
 10
340.559
 20
135.518
 30
0.0
 40
0.2
 41
0.2
  0
VERTEX
  8
0
 10
340.559
 20
135.5
 30
0.0
 40
0.2
 41
0.2
  0
VERTEX
  8
0
 10
340.559
 20
132.6
 30
0.0
 40
0.2
 41
0.2
  0
VERTEX
  8
0
 10
340.559
 20
132.591
 30
0.0
 40
0.2
 41
0.2
  0
VERTEX
  8
0
 10
340.572
 20
132.559
 30
0.0
 40
0.2
 41
0.2
  0
VERTEX
  8
0
 10
340.596
 20
132.563
 30
0.0
 40
0.2
 41
0.2
  0
VERTEX
  8
0
 10
340.6
 20
132.587
 30
0.0
 40
0.2
 41
0.2
  0
VERTEX
  8
0
 10
340.568
 20
132.6
 30
0.0
 40
0.2
 41
0.2
  0
VERTEX
  8
0
 10
340.559
 20
132.6
 30
0.0
 40
0.2
 41
0.2
  0
VERTEX
  8
0
 10
334.759
 20
132.6
 30
0.0
 40
0.2
 41
0.2
  0
VERTEX
  8
0
 10
334.748
 20
132.6
 30
0.0
 40
0.2
 41
0.2
  0
VERTEX
  8
0
 10
334.716
 20
132.587
 30
0.0
 40
0.2
 41
0.2
  0
VERTEX
  8
0
 10
334.72
 20
132.563
 30
0.0
 40
0.2
 41
0.2
  0
VERTEX
  8
0
 10
334.743
 20
132.559
 30
0.0
 40
0.2
 41
0.2
  0
VERTEX
  8
0
 10
334.759
 20
132.591
 30
0.0
 40
0.2
 41
0.2
  0
VERTEX
  8
0
 10
334.759
 20
132.6
 30
0.0
 40
0.2
 41
0.2
  0
VERTEX
  8
0
 10
334.759
 20
135.5
 30
0.0
 40
0.2
 41
0.2
  0
VERTEX
  8
0
 10
334.759
 20
135.518
 30
0.0
 40
0.2
 41
0.2
  0
VERTEX
  8
0
 10
334.728
 20
135.571
 30
0.0
 40
0.2
 41
0.2
  0
VERTEX
  8
0
 10
334.675
 20
135.6
 30
0.0
 40
0.2
 41
0.2
  0
VERTEX
  8
0
 10
334.658
 20
135.6
 30
0.0
 40
0.2
 41
0.2
  0
VERTEX
  8
0
 10
328.658
 20
135.6
 30
0.0
 40
0.2
 41
0.2
  0
VERTEX
  8
0
 10
328.64
 20
135.6
 30
0.0
 40
0.2
 41
0.2
  0
VERTEX
  8
0
 10
328.588
 20
135.571
 30
0.0
 40
0.2
 41
0.2
  0
VERTEX
  8
0
 10
328.559
 20
135.518
 30
0.0
 40
0.2
 41
0.2
  0
VERTEX
  8
0
 10
328.559
 20
135.5
 30
0.0
 40
0.2
 41
0.2
  0
VERTEX
  8
0
 10
328.559
 20
132.6
 30
0.0
 40
0.2
 41
0.2
  0
VERTEX
  8
0
 10
328.559
 20
132.591
 30
0.0
 40
0.2
 41
0.2
  0
VERTEX
  8
0
 10
328.573
 20
132.559
 30
0.0
 40
0.2
 41
0.2
  0
VERTEX
  8
0
 10
328.596
 20
132.563
 30
0.0
 40
0.2
 41
0.2
  0
VERTEX
  8
0
 10
328.6
 20
132.587
 30
0.0
 40
0.2
 41
0.2
  0
VERTEX
  8
0
 10
328.568
 20
132.6
 30
0.0
 40
0.2
 41
0.2
  0
VERTEX
  8
0
 10
328.559
 20
132.6
 30
0.0
 40
0.2
 41
0.2
  0
VERTEX
  8
0
 10
322.759
 20
132.6
 30
0.0
 40
0.2
 41
0.2
  0
VERTEX
  8
0
 10
322.748
 20
132.6
 30
0.0
 40
0.2
 41
0.2
  0
VERTEX
  8
0
 10
322.716
 20
132.587
 30
0.0
 40
0.2
 41
0.2
  0
VERTEX
  8
0
 10
322.72
 20
132.563
 30
0.0
 40
0.2
 41
0.2
  0
VERTEX
  8
0
 10
322.743
 20
132.559
 30
0.0
 40
0.2
 41
0.2
  0
VERTEX
  8
0
 10
322.759
 20
132.591
 30
0.0
 40
0.2
 41
0.2
  0
VERTEX
  8
0
 10
322.759
 20
132.6
 30
0.0
 40
0.2
 41
0.2
  0
VERTEX
  8
0
 10
322.759
 20
135.5
 30
0.0
 40
0.2
 41
0.2
  0
VERTEX
  8
0
 10
322.759
 20
135.518
 30
0.0
 40
0.2
 41
0.2
  0
VERTEX
  8
0
 10
322.728
 20
135.571
 30
0.0
 40
0.2
 41
0.2
  0
VERTEX
  8
0
 10
322.675
 20
135.6
 30
0.0
 40
0.2
 41
0.2
  0
VERTEX
  8
0
 10
322.658
 20
135.6
 30
0.0
 40
0.2
 41
0.2
  0
VERTEX
  8
0
 10
314.158
 20
135.6
 30
0.0
 40
0.2
 41
0.2
  0
VERTEX
  8
0
 10
291.568
 20
135.6
 30
0.0
 40
0.2
 41
0.2
  0
VERTEX
  8
0
 10
281.569
 20
135.6
 30
0.0
 40
0.2
 41
0.2
  0
VERTEX
  8
0
 10
281.551
 20
135.6
 30
0.0
 40
0.2
 41
0.2
  0
VERTEX
  8
0
 10
281.497
 20
135.571
 30
0.0
 40
0.2
 41
0.2
  0
VERTEX
  8
0
 10
281.468
 20
135.518
 30
0.0
 40
0.2
 41
0.2
  0
VERTEX
  8
0
 10
281.468
 20
135.5
 30
0.0
 40
0.2
 41
0.2
  0
VERTEX
  8
0
 10
281.468
 20
132.6
 30
0.0
 40
0.2
 41
0.2
  0
VERTEX
  8
0
 10
281.468
 20
132.591
 30
0.0
 40
0.2
 41
0.2
  0
VERTEX
  8
0
 10
281.482
 20
132.559
 30
0.0
 40
0.2
 41
0.2
  0
VERTEX
  8
0
 10
281.506
 20
132.563
 30
0.0
 40
0.2
 41
0.2
  0
VERTEX
  8
0
 10
281.51
 20
132.587
 30
0.0
 40
0.2
 41
0.2
  0
VERTEX
  8
0
 10
281.478
 20
132.6
 30
0.0
 40
0.2
 41
0.2
  0
VERTEX
  8
0
 10
281.468
 20
132.6
 30
0.0
 40
0.2
 41
0.2
  0
VERTEX
  8
0
 10
275.668
 20
132.6
 30
0.0
 40
0.2
 41
0.2
  0
VERTEX
  8
0
 10
275.657
 20
132.6
 30
0.0
 40
0.2
 41
0.2
  0
VERTEX
  8
0
 10
275.626
 20
132.587
 30
0.0
 40
0.2
 41
0.2
  0
VERTEX
  8
0
 10
275.631
 20
132.563
 30
0.0
 40
0.2
 41
0.2
  0
VERTEX
  8
0
 10
275.653
 20
132.559
 30
0.0
 40
0.2
 41
0.2
  0
VERTEX
  8
0
 10
275.668
 20
132.591
 30
0.0
 40
0.2
 41
0.2
  0
VERTEX
  8
0
 10
275.668
 20
132.6
 30
0.0
 40
0.2
 41
0.2
  0
VERTEX
  8
0
 10
275.668
 20
135.5
 30
0.0
 40
0.2
 41
0.2
  0
VERTEX
  8
0
 10
275.668
 20
135.518
 30
0.0
 40
0.2
 41
0.2
  0
VERTEX
  8
0
 10
275.639
 20
135.571
 30
0.0
 40
0.2
 41
0.2
  0
VERTEX
  8
0
 10
275.586
 20
135.6
 30
0.0
 40
0.2
 41
0.2
  0
VERTEX
  8
0
 10
275.569
 20
135.6
 30
0.0
 40
0.2
 41
0.2
  0
VERTEX
  8
0
 10
269.569
 20
135.6
 30
0.0
 40
0.2
 41
0.2
  0
VERTEX
  8
0
 10
269.551
 20
135.6
 30
0.0
 40
0.2
 41
0.2
  0
VERTEX
  8
0
 10
269.498
 20
135.571
 30
0.0
 40
0.2
 41
0.2
  0
VERTEX
  8
0
 10
269.469
 20
135.518
 30
0.0
 40
0.2
 41
0.2
  0
VERTEX
  8
0
 10
269.469
 20
135.5
 30
0.0
 40
0.2
 41
0.2
  0
VERTEX
  8
0
 10
269.469
 20
132.6
 30
0.0
 40
0.2
 41
0.2
  0
VERTEX
  8
0
 10
269.469
 20
132.591
 30
0.0
 40
0.2
 41
0.2
  0
VERTEX
  8
0
 10
269.482
 20
132.559
 30
0.0
 40
0.2
 41
0.2
  0
VERTEX
  8
0
 10
269.506
 20
132.563
 30
0.0
 40
0.2
 41
0.2
  0
VERTEX
  8
0
 10
269.51
 20
132.587
 30
0.0
 40
0.2
 41
0.2
  0
VERTEX
  8
0
 10
269.478
 20
132.6
 30
0.0
 40
0.2
 41
0.2
  0
VERTEX
  8
0
 10
269.469
 20
132.6
 30
0.0
 40
0.2
 41
0.2
  0
VERTEX
  8
0
 10
263.668
 20
132.6
 30
0.0
 40
0.2
 41
0.2
  0
VERTEX
  8
0
 10
263.657
 20
132.6
 30
0.0
 40
0.2
 41
0.2
  0
VERTEX
  8
0
 10
263.626
 20
132.587
 30
0.0
 40
0.2
 41
0.2
  0
VERTEX
  8
0
 10
263.631
 20
132.563
 30
0.0
 40
0.2
 41
0.2
  0
VERTEX
  8
0
 10
263.653
 20
132.559
 30
0.0
 40
0.2
 41
0.2
  0
VERTEX
  8
0
 10
263.668
 20
132.591
 30
0.0
 40
0.2
 41
0.2
  0
VERTEX
  8
0
 10
263.668
 20
132.6
 30
0.0
 40
0.2
 41
0.2
  0
VERTEX
  8
0
 10
263.668
 20
135.5
 30
0.0
 40
0.2
 41
0.2
  0
VERTEX
  8
0
 10
263.668
 20
135.518
 30
0.0
 40
0.2
 41
0.2
  0
VERTEX
  8
0
 10
263.639
 20
135.571
 30
0.0
 40
0.2
 41
0.2
  0
VERTEX
  8
0
 10
263.586
 20
135.6
 30
0.0
 40
0.2
 41
0.2
  0
VERTEX
  8
0
 10
263.569
 20
135.6
 30
0.0
 40
0.2
 41
0.2
  0
VERTEX
  8
0
 10
257.569
 20
135.6
 30
0.0
 40
0.2
 41
0.2
  0
VERTEX
  8
0
 10
257.551
 20
135.6
 30
0.0
 40
0.2
 41
0.2
  0
VERTEX
  8
0
 10
257.497
 20
135.571
 30
0.0
 40
0.2
 41
0.2
  0
VERTEX
  8
0
 10
257.469
 20
135.518
 30
0.0
 40
0.2
 41
0.2
  0
VERTEX
  8
0
 10
257.469
 20
135.5
 30
0.0
 40
0.2
 41
0.2
  0
VERTEX
  8
0
 10
257.469
 20
132.6
 30
0.0
 40
0.2
 41
0.2
  0
VERTEX
  8
0
 10
257.469
 20
132.591
 30
0.0
 40
0.2
 41
0.2
  0
VERTEX
  8
0
 10
257.482
 20
132.559
 30
0.0
 40
0.2
 41
0.2
  0
VERTEX
  8
0
 10
257.506
 20
132.563
 30
0.0
 40
0.2
 41
0.2
  0
VERTEX
  8
0
 10
257.51
 20
132.587
 30
0.0
 40
0.2
 41
0.2
  0
VERTEX
  8
0
 10
257.478
 20
132.6
 30
0.0
 40
0.2
 41
0.2
  0
VERTEX
  8
0
 10
257.469
 20
132.6
 30
0.0
 40
0.2
 41
0.2
  0
VERTEX
  8
0
 10
251.668
 20
132.6
 30
0.0
 40
0.2
 41
0.2
  0
VERTEX
  8
0
 10
251.657
 20
132.6
 30
0.0
 40
0.2
 41
0.2
  0
VERTEX
  8
0
 10
251.626
 20
132.587
 30
0.0
 40
0.2
 41
0.2
  0
VERTEX
  8
0
 10
251.631
 20
132.563
 30
0.0
 40
0.2
 41
0.2
  0
VERTEX
  8
0
 10
251.653
 20
132.559
 30
0.0
 40
0.2
 41
0.2
  0
VERTEX
  8
0
 10
251.668
 20
132.591
 30
0.0
 40
0.2
 41
0.2
  0
VERTEX
  8
0
 10
251.668
 20
132.6
 30
0.0
 40
0.2
 41
0.2
  0
VERTEX
  8
0
 10
251.668
 20
135.5
 30
0.0
 40
0.2
 41
0.2
  0
VERTEX
  8
0
 10
251.668
 20
135.518
 30
0.0
 40
0.2
 41
0.2
  0
VERTEX
  8
0
 10
251.64
 20
135.571
 30
0.0
 40
0.2
 41
0.2
  0
VERTEX
  8
0
 10
251.586
 20
135.6
 30
0.0
 40
0.2
 41
0.2
  0
VERTEX
  8
0
 10
251.569
 20
135.6
 30
0.0
 40
0.2
 41
0.2
  0
VERTEX
  8
0
 10
241.569
 20
135.6
 30
0.0
 40
0.2
 41
0.2
  0
VERTEX
  8
0
 10
218.979
 20
135.6
 30
0.0
 40
0.2
 41
0.2
  0
VERTEX
  8
0
 10
210.979
 20
135.6
 30
0.0
 40
0.2
 41
0.2
  0
VERTEX
  8
0
 10
210.961
 20
135.6
 30
0.0
 40
0.2
 41
0.2
  0
VERTEX
  8
0
 10
210.909
 20
135.571
 30
0.0
 40
0.2
 41
0.2
  0
VERTEX
  8
0
 10
210.88
 20
135.518
 30
0.0
 40
0.2
 41
0.2
  0
VERTEX
  8
0
 10
210.88
 20
135.5
 30
0.0
 40
0.2
 41
0.2
  0
VERTEX
  8
0
 10
210.88
 20
132.6
 30
0.0
 40
0.2
 41
0.2
  0
VERTEX
  8
0
 10
210.88
 20
132.591
 30
0.0
 40
0.2
 41
0.2
  0
VERTEX
  8
0
 10
210.894
 20
132.559
 30
0.0
 40
0.2
 41
0.2
  0
VERTEX
  8
0
 10
210.917
 20
132.563
 30
0.0
 40
0.2
 41
0.2
  0
VERTEX
  8
0
 10
210.921
 20
132.587
 30
0.0
 40
0.2
 41
0.2
  0
VERTEX
  8
0
 10
210.889
 20
132.6
 30
0.0
 40
0.2
 41
0.2
  0
VERTEX
  8
0
 10
210.88
 20
132.6
 30
0.0
 40
0.2
 41
0.2
  0
VERTEX
  8
0
 10
205.08
 20
132.6
 30
0.0
 40
0.2
 41
0.2
  0
VERTEX
  8
0
 10
205.069
 20
132.6
 30
0.0
 40
0.2
 41
0.2
  0
VERTEX
  8
0
 10
205.037
 20
132.587
 30
0.0
 40
0.2
 41
0.2
  0
VERTEX
  8
0
 10
205.041
 20
132.563
 30
0.0
 40
0.2
 41
0.2
  0
VERTEX
  8
0
 10
205.064
 20
132.559
 30
0.0
 40
0.2
 41
0.2
  0
VERTEX
  8
0
 10
205.08
 20
132.591
 30
0.0
 40
0.2
 41
0.2
  0
VERTEX
  8
0
 10
205.08
 20
132.6
 30
0.0
 40
0.2
 41
0.2
  0
VERTEX
  8
0
 10
205.08
 20
135.5
 30
0.0
 40
0.2
 41
0.2
  0
VERTEX
  8
0
 10
205.08
 20
135.518
 30
0.0
 40
0.2
 41
0.2
  0
VERTEX
  8
0
 10
205.049
 20
135.571
 30
0.0
 40
0.2
 41
0.2
  0
VERTEX
  8
0
 10
204.996
 20
135.6
 30
0.0
 40
0.2
 41
0.2
  0
VERTEX
  8
0
 10
204.979
 20
135.6
 30
0.0
 40
0.2
 41
0.2
  0
VERTEX
  8
0
 10
198.979
 20
135.6
 30
0.0
 40
0.2
 41
0.2
  0
VERTEX
  8
0
 10
198.961
 20
135.6
 30
0.0
 40
0.2
 41
0.2
  0
VERTEX
  8
0
 10
198.909
 20
135.571
 30
0.0
 40
0.2
 41
0.2
  0
VERTEX
  8
0
 10
198.88
 20
135.518
 30
0.0
 40
0.2
 41
0.2
  0
VERTEX
  8
0
 10
198.88
 20
135.5
 30
0.0
 40
0.2
 41
0.2
  0
VERTEX
  8
0
 10
198.88
 20
132.6
 30
0.0
 40
0.2
 41
0.2
  0
VERTEX
  8
0
 10
198.88
 20
132.591
 30
0.0
 40
0.2
 41
0.2
  0
VERTEX
  8
0
 10
198.894
 20
132.559
 30
0.0
 40
0.2
 41
0.2
  0
VERTEX
  8
0
 10
198.917
 20
132.563
 30
0.0
 40
0.2
 41
0.2
  0
VERTEX
  8
0
 10
198.921
 20
132.587
 30
0.0
 40
0.2
 41
0.2
  0
VERTEX
  8
0
 10
198.889
 20
132.6
 30
0.0
 40
0.2
 41
0.2
  0
VERTEX
  8
0
 10
198.88
 20
132.6
 30
0.0
 40
0.2
 41
0.2
  0
VERTEX
  8
0
 10
193.08
 20
132.6
 30
0.0
 40
0.2
 41
0.2
  0
VERTEX
  8
0
 10
193.069
 20
132.6
 30
0.0
 40
0.2
 41
0.2
  0
VERTEX
  8
0
 10
193.037
 20
132.587
 30
0.0
 40
0.2
 41
0.2
  0
VERTEX
  8
0
 10
193.041
 20
132.563
 30
0.0
 40
0.2
 41
0.2
  0
VERTEX
  8
0
 10
193.065
 20
132.559
 30
0.0
 40
0.2
 41
0.2
  0
VERTEX
  8
0
 10
193.08
 20
132.591
 30
0.0
 40
0.2
 41
0.2
  0
VERTEX
  8
0
 10
193.08
 20
132.6
 30
0.0
 40
0.2
 41
0.2
  0
VERTEX
  8
0
 10
193.08
 20
135.5
 30
0.0
 40
0.2
 41
0.2
  0
VERTEX
  8
0
 10
193.08
 20
135.518
 30
0.0
 40
0.2
 41
0.2
  0
VERTEX
  8
0
 10
193.05
 20
135.571
 30
0.0
 40
0.2
 41
0.2
  0
VERTEX
  8
0
 10
192.996
 20
135.6
 30
0.0
 40
0.2
 41
0.2
  0
VERTEX
  8
0
 10
192.979
 20
135.6
 30
0.0
 40
0.2
 41
0.2
  0
VERTEX
  8
0
 10
186.979
 20
135.6
 30
0.0
 40
0.2
 41
0.2
  0
VERTEX
  8
0
 10
186.961
 20
135.6
 30
0.0
 40
0.2
 41
0.2
  0
VERTEX
  8
0
 10
186.907
 20
135.571
 30
0.0
 40
0.2
 41
0.2
  0
VERTEX
  8
0
 10
186.878
 20
135.518
 30
0.0
 40
0.2
 41
0.2
  0
VERTEX
  8
0
 10
186.878
 20
135.5
 30
0.0
 40
0.2
 41
0.2
  0
VERTEX
  8
0
 10
186.878
 20
132.6
 30
0.0
 40
0.2
 41
0.2
  0
VERTEX
  8
0
 10
186.878
 20
132.591
 30
0.0
 40
0.2
 41
0.2
  0
VERTEX
  8
0
 10
186.892
 20
132.559
 30
0.0
 40
0.2
 41
0.2
  0
VERTEX
  8
0
 10
186.916
 20
132.563
 30
0.0
 40
0.2
 41
0.2
  0
VERTEX
  8
0
 10
186.92
 20
132.587
 30
0.0
 40
0.2
 41
0.2
  0
VERTEX
  8
0
 10
186.888
 20
132.6
 30
0.0
 40
0.2
 41
0.2
  0
VERTEX
  8
0
 10
186.878
 20
132.6
 30
0.0
 40
0.2
 41
0.2
  0
VERTEX
  8
0
 10
181.08
 20
132.6
 30
0.0
 40
0.2
 41
0.2
  0
VERTEX
  8
0
 10
181.069
 20
132.6
 30
0.0
 40
0.2
 41
0.2
  0
VERTEX
  8
0
 10
181.037
 20
132.587
 30
0.0
 40
0.2
 41
0.2
  0
VERTEX
  8
0
 10
181.041
 20
132.563
 30
0.0
 40
0.2
 41
0.2
  0
VERTEX
  8
0
 10
181.065
 20
132.559
 30
0.0
 40
0.2
 41
0.2
  0
VERTEX
  8
0
 10
181.08
 20
132.591
 30
0.0
 40
0.2
 41
0.2
  0
VERTEX
  8
0
 10
181.08
 20
132.6
 30
0.0
 40
0.2
 41
0.2
  0
VERTEX
  8
0
 10
181.08
 20
135.5
 30
0.0
 40
0.2
 41
0.2
  0
VERTEX
  8
0
 10
181.08
 20
135.518
 30
0.0
 40
0.2
 41
0.2
  0
VERTEX
  8
0
 10
181.049
 20
135.571
 30
0.0
 40
0.2
 41
0.2
  0
VERTEX
  8
0
 10
180.996
 20
135.6
 30
0.0
 40
0.2
 41
0.2
  0
VERTEX
  8
0
 10
180.979
 20
135.6
 30
0.0
 40
0.2
 41
0.2
  0
VERTEX
  8
0
 10
174.979
 20
135.6
 30
0.0
 40
0.2
 41
0.2
  0
VERTEX
  8
0
 10
174.961
 20
135.6
 30
0.0
 40
0.2
 41
0.2
  0
VERTEX
  8
0
 10
174.908
 20
135.571
 30
0.0
 40
0.2
 41
0.2
  0
VERTEX
  8
0
 10
174.879
 20
135.518
 30
0.0
 40
0.2
 41
0.2
  0
VERTEX
  8
0
 10
174.879
 20
135.5
 30
0.0
 40
0.2
 41
0.2
  0
VERTEX
  8
0
 10
174.879
 20
132.6
 30
0.0
 40
0.2
 41
0.2
  0
VERTEX
  8
0
 10
174.879
 20
132.591
 30
0.0
 40
0.2
 41
0.2
  0
VERTEX
  8
0
 10
174.892
 20
132.559
 30
0.0
 40
0.2
 41
0.2
  0
VERTEX
  8
0
 10
174.916
 20
132.563
 30
0.0
 40
0.2
 41
0.2
  0
VERTEX
  8
0
 10
174.92
 20
132.587
 30
0.0
 40
0.2
 41
0.2
  0
VERTEX
  8
0
 10
174.888
 20
132.6
 30
0.0
 40
0.2
 41
0.2
  0
VERTEX
  8
0
 10
174.879
 20
132.6
 30
0.0
 40
0.2
 41
0.2
  0
VERTEX
  8
0
 10
169.078
 20
132.6
 30
0.0
 40
0.2
 41
0.2
  0
VERTEX
  8
0
 10
169.067
 20
132.6
 30
0.0
 40
0.2
 41
0.2
  0
VERTEX
  8
0
 10
169.036
 20
132.587
 30
0.0
 40
0.2
 41
0.2
  0
VERTEX
  8
0
 10
169.041
 20
132.563
 30
0.0
 40
0.2
 41
0.2
  0
VERTEX
  8
0
 10
169.063
 20
132.559
 30
0.0
 40
0.2
 41
0.2
  0
VERTEX
  8
0
 10
169.078
 20
132.591
 30
0.0
 40
0.2
 41
0.2
  0
VERTEX
  8
0
 10
169.078
 20
132.6
 30
0.0
 40
0.2
 41
0.2
  0
VERTEX
  8
0
 10
169.078
 20
135.5
 30
0.0
 40
0.2
 41
0.2
  0
VERTEX
  8
0
 10
169.078
 20
135.518
 30
0.0
 40
0.2
 41
0.2
  0
VERTEX
  8
0
 10
169.049
 20
135.571
 30
0.0
 40
0.2
 41
0.2
  0
VERTEX
  8
0
 10
168.996
 20
135.6
 30
0.0
 40
0.2
 41
0.2
  0
VERTEX
  8
0
 10
168.979
 20
135.6
 30
0.0
 40
0.2
 41
0.2
  0
VERTEX
  8
0
 10
162.979
 20
135.6
 30
0.0
 40
0.2
 41
0.2
  0
VERTEX
  8
0
 10
162.961
 20
135.6
 30
0.0
 40
0.2
 41
0.2
  0
VERTEX
  8
0
 10
162.907
 20
135.571
 30
0.0
 40
0.2
 41
0.2
  0
VERTEX
  8
0
 10
162.879
 20
135.518
 30
0.0
 40
0.2
 41
0.2
  0
VERTEX
  8
0
 10
162.879
 20
135.5
 30
0.0
 40
0.2
 41
0.2
  0
VERTEX
  8
0
 10
162.879
 20
132.6
 30
0.0
 40
0.2
 41
0.2
  0
VERTEX
  8
0
 10
162.879
 20
132.591
 30
0.0
 40
0.2
 41
0.2
  0
VERTEX
  8
0
 10
162.892
 20
132.559
 30
0.0
 40
0.2
 41
0.2
  0
VERTEX
  8
0
 10
162.916
 20
132.563
 30
0.0
 40
0.2
 41
0.2
  0
VERTEX
  8
0
 10
162.92
 20
132.587
 30
0.0
 40
0.2
 41
0.2
  0
VERTEX
  8
0
 10
162.888
 20
132.6
 30
0.0
 40
0.2
 41
0.2
  0
VERTEX
  8
0
 10
162.879
 20
132.6
 30
0.0
 40
0.2
 41
0.2
  0
VERTEX
  8
0
 10
157.08
 20
132.6
 30
0.0
 40
0.2
 41
0.2
  0
VERTEX
  8
0
 10
157.069
 20
132.6
 30
0.0
 40
0.2
 41
0.2
  0
VERTEX
  8
0
 10
157.037
 20
132.587
 30
0.0
 40
0.2
 41
0.2
  0
VERTEX
  8
0
 10
157.041
 20
132.563
 30
0.0
 40
0.2
 41
0.2
  0
VERTEX
  8
0
 10
157.065
 20
132.559
 30
0.0
 40
0.2
 41
0.2
  0
VERTEX
  8
0
 10
157.08
 20
132.591
 30
0.0
 40
0.2
 41
0.2
  0
VERTEX
  8
0
 10
157.08
 20
132.6
 30
0.0
 40
0.2
 41
0.2
  0
VERTEX
  8
0
 10
157.08
 20
135.5
 30
0.0
 40
0.2
 41
0.2
  0
VERTEX
  8
0
 10
157.08
 20
135.518
 30
0.0
 40
0.2
 41
0.2
  0
VERTEX
  8
0
 10
157.05
 20
135.571
 30
0.0
 40
0.2
 41
0.2
  0
VERTEX
  8
0
 10
156.996
 20
135.6
 30
0.0
 40
0.2
 41
0.2
  0
VERTEX
  8
0
 10
156.979
 20
135.6
 30
0.0
 40
0.2
 41
0.2
  0
VERTEX
  8
0
 10
148.98
 20
135.6
 30
0.0
 40
0.2
 41
0.2
  0
VERTEX
  8
0
 10
126.39
 20
135.6
 30
0.0
 40
0.2
 41
0.2
  0
VERTEX
  8
0
 10
116.389
 20
135.6
 30
0.0
 40
0.2
 41
0.2
  0
VERTEX
  8
0
 10
116.371
 20
135.6
 30
0.0
 40
0.2
 41
0.2
  0
VERTEX
  8
0
 10
116.319
 20
135.571
 30
0.0
 40
0.2
 41
0.2
  0
VERTEX
  8
0
 10
116.29
 20
135.518
 30
0.0
 40
0.2
 41
0.2
  0
VERTEX
  8
0
 10
116.29
 20
135.5
 30
0.0
 40
0.2
 41
0.2
  0
VERTEX
  8
0
 10
116.29
 20
132.6
 30
0.0
 40
0.2
 41
0.2
  0
VERTEX
  8
0
 10
116.29
 20
132.591
 30
0.0
 40
0.2
 41
0.2
  0
VERTEX
  8
0
 10
116.304
 20
132.559
 30
0.0
 40
0.2
 41
0.2
  0
VERTEX
  8
0
 10
116.327
 20
132.563
 30
0.0
 40
0.2
 41
0.2
  0
VERTEX
  8
0
 10
116.331
 20
132.587
 30
0.0
 40
0.2
 41
0.2
  0
VERTEX
  8
0
 10
116.3
 20
132.6
 30
0.0
 40
0.2
 41
0.2
  0
VERTEX
  8
0
 10
116.29
 20
132.6
 30
0.0
 40
0.2
 41
0.2
  0
VERTEX
  8
0
 10
110.49
 20
132.6
 30
0.0
 40
0.2
 41
0.2
  0
VERTEX
  8
0
 10
110.479
 20
132.6
 30
0.0
 40
0.2
 41
0.2
  0
VERTEX
  8
0
 10
110.447
 20
132.587
 30
0.0
 40
0.2
 41
0.2
  0
VERTEX
  8
0
 10
110.451
 20
132.563
 30
0.0
 40
0.2
 41
0.2
  0
VERTEX
  8
0
 10
110.474
 20
132.559
 30
0.0
 40
0.2
 41
0.2
  0
VERTEX
  8
0
 10
110.49
 20
132.591
 30
0.0
 40
0.2
 41
0.2
  0
VERTEX
  8
0
 10
110.49
 20
132.6
 30
0.0
 40
0.2
 41
0.2
  0
VERTEX
  8
0
 10
110.49
 20
135.5
 30
0.0
 40
0.2
 41
0.2
  0
VERTEX
  8
0
 10
110.49
 20
135.518
 30
0.0
 40
0.2
 41
0.2
  0
VERTEX
  8
0
 10
110.459
 20
135.571
 30
0.0
 40
0.2
 41
0.2
  0
VERTEX
  8
0
 10
110.406
 20
135.6
 30
0.0
 40
0.2
 41
0.2
  0
VERTEX
  8
0
 10
110.389
 20
135.6
 30
0.0
 40
0.2
 41
0.2
  0
VERTEX
  8
0
 10
104.389
 20
135.6
 30
0.0
 40
0.2
 41
0.2
  0
VERTEX
  8
0
 10
104.371
 20
135.6
 30
0.0
 40
0.2
 41
0.2
  0
VERTEX
  8
0
 10
104.319
 20
135.571
 30
0.0
 40
0.2
 41
0.2
  0
VERTEX
  8
0
 10
104.29
 20
135.518
 30
0.0
 40
0.2
 41
0.2
  0
VERTEX
  8
0
 10
104.29
 20
135.5
 30
0.0
 40
0.2
 41
0.2
  0
VERTEX
  8
0
 10
104.29
 20
132.6
 30
0.0
 40
0.2
 41
0.2
  0
VERTEX
  8
0
 10
104.29
 20
132.591
 30
0.0
 40
0.2
 41
0.2
  0
VERTEX
  8
0
 10
104.304
 20
132.559
 30
0.0
 40
0.2
 41
0.2
  0
VERTEX
  8
0
 10
104.327
 20
132.563
 30
0.0
 40
0.2
 41
0.2
  0
VERTEX
  8
0
 10
104.331
 20
132.587
 30
0.0
 40
0.2
 41
0.2
  0
VERTEX
  8
0
 10
104.299
 20
132.6
 30
0.0
 40
0.2
 41
0.2
  0
VERTEX
  8
0
 10
104.29
 20
132.6
 30
0.0
 40
0.2
 41
0.2
  0
VERTEX
  8
0
 10
98.4899
 20
132.6
 30
0.0
 40
0.2
 41
0.2
  0
VERTEX
  8
0
 10
98.4786
 20
132.6
 30
0.0
 40
0.2
 41
0.2
  0
VERTEX
  8
0
 10
98.4472
 20
132.587
 30
0.0
 40
0.2
 41
0.2
  0
VERTEX
  8
0
 10
98.4511
 20
132.563
 30
0.0
 40
0.2
 41
0.2
  0
VERTEX
  8
0
 10
98.4747
 20
132.559
 30
0.0
 40
0.2
 41
0.2
  0
VERTEX
  8
0
 10
98.4899
 20
132.591
 30
0.0
 40
0.2
 41
0.2
  0
VERTEX
  8
0
 10
98.4899
 20
132.6
 30
0.0
 40
0.2
 41
0.2
  0
VERTEX
  8
0
 10
98.4899
 20
135.5
 30
0.0
 40
0.2
 41
0.2
  0
VERTEX
  8
0
 10
98.4899
 20
135.518
 30
0.0
 40
0.2
 41
0.2
  0
VERTEX
  8
0
 10
98.4596
 20
135.571
 30
0.0
 40
0.2
 41
0.2
  0
VERTEX
  8
0
 10
98.4056
 20
135.6
 30
0.0
 40
0.2
 41
0.2
  0
VERTEX
  8
0
 10
98.389
 20
135.6
 30
0.0
 40
0.2
 41
0.2
  0
VERTEX
  8
0
 10
92.3893
 20
135.6
 30
0.0
 40
0.2
 41
0.2
  0
VERTEX
  8
0
 10
92.3713
 20
135.6
 30
0.0
 40
0.2
 41
0.2
  0
VERTEX
  8
0
 10
92.3188
 20
135.571
 30
0.0
 40
0.2
 41
0.2
  0
VERTEX
  8
0
 10
92.2898
 20
135.518
 30
0.0
 40
0.2
 41
0.2
  0
VERTEX
  8
0
 10
92.2898
 20
135.5
 30
0.0
 40
0.2
 41
0.2
  0
VERTEX
  8
0
 10
92.2898
 20
132.6
 30
0.0
 40
0.2
 41
0.2
  0
VERTEX
  8
0
 10
92.2898
 20
132.591
 30
0.0
 40
0.2
 41
0.2
  0
VERTEX
  8
0
 10
92.3036
 20
132.559
 30
0.0
 40
0.2
 41
0.2
  0
VERTEX
  8
0
 10
92.3272
 20
132.563
 30
0.0
 40
0.2
 41
0.2
  0
VERTEX
  8
0
 10
92.3315
 20
132.587
 30
0.0
 40
0.2
 41
0.2
  0
VERTEX
  8
0
 10
92.2997
 20
132.6
 30
0.0
 40
0.2
 41
0.2
  0
VERTEX
  8
0
 10
92.2898
 20
132.6
 30
0.0
 40
0.2
 41
0.2
  0
VERTEX
  8
0
 10
86.4898
 20
132.6
 30
0.0
 40
0.2
 41
0.2
  0
VERTEX
  8
0
 10
86.4789
 20
132.6
 30
0.0
 40
0.2
 41
0.2
  0
VERTEX
  8
0
 10
86.4471
 20
132.587
 30
0.0
 40
0.2
 41
0.2
  0
VERTEX
  8
0
 10
86.4514
 20
132.563
 30
0.0
 40
0.2
 41
0.2
  0
VERTEX
  8
0
 10
86.4747
 20
132.559
 30
0.0
 40
0.2
 41
0.2
  0
VERTEX
  8
0
 10
86.4898
 20
132.591
 30
0.0
 40
0.2
 41
0.2
  0
VERTEX
  8
0
 10
86.4898
 20
132.6
 30
0.0
 40
0.2
 41
0.2
  0
VERTEX
  8
0
 10
86.4898
 20
135.5
 30
0.0
 40
0.2
 41
0.2
  0
VERTEX
  8
0
 10
86.4898
 20
135.518
 30
0.0
 40
0.2
 41
0.2
  0
VERTEX
  8
0
 10
86.4595
 20
135.571
 30
0.0
 40
0.2
 41
0.2
  0
VERTEX
  8
0
 10
86.4059
 20
135.6
 30
0.0
 40
0.2
 41
0.2
  0
VERTEX
  8
0
 10
86.3893
 20
135.6
 30
0.0
 40
0.2
 41
0.2
  0
VERTEX
  8
0
 10
76.3887
 20
135.6
 30
0.0
 40
0.2
 41
0.2
  0
VERTEX
  8
0
 10
53.8
 20
135.6
 30
0.0
 40
0.2
 41
0.2
  0
VERTEX
  8
0
 10
45.3002
 20
135.6
 30
0.0
 40
0.2
 41
0.2
  0
VERTEX
  8
0
 10
45.2822
 20
135.6
 30
0.0
 40
0.2
 41
0.2
  0
VERTEX
  8
0
 10
45.2286
 20
135.571
 30
0.0
 40
0.2
 41
0.2
  0
VERTEX
  8
0
 10
45.1997
 20
135.518
 30
0.0
 40
0.2
 41
0.2
  0
VERTEX
  8
0
 10
45.1997
 20
135.5
 30
0.0
 40
0.2
 41
0.2
  0
VERTEX
  8
0
 10
45.1997
 20
132.6
 30
0.0
 40
0.2
 41
0.2
  0
VERTEX
  8
0
 10
45.1997
 20
132.591
 30
0.0
 40
0.2
 41
0.2
  0
VERTEX
  8
0
 10
45.2134
 20
132.559
 30
0.0
 40
0.2
 41
0.2
  0
VERTEX
  8
0
 10
45.2367
 20
132.563
 30
0.0
 40
0.2
 41
0.2
  0
VERTEX
  8
0
 10
45.2409
 20
132.587
 30
0.0
 40
0.2
 41
0.2
  0
VERTEX
  8
0
 10
45.2092
 20
132.6
 30
0.0
 40
0.2
 41
0.2
  0
VERTEX
  8
0
 10
45.1997
 20
132.6
 30
0.0
 40
0.2
 41
0.2
  0
VERTEX
  8
0
 10
39.3996
 20
132.6
 30
0.0
 40
0.2
 41
0.2
  0
VERTEX
  8
0
 10
39.3883
 20
132.6
 30
0.0
 40
0.2
 41
0.2
  0
VERTEX
  8
0
 10
39.3569
 20
132.587
 30
0.0
 40
0.2
 41
0.2
  0
VERTEX
  8
0
 10
39.3622
 20
132.563
 30
0.0
 40
0.2
 41
0.2
  0
VERTEX
  8
0
 10
39.3845
 20
132.559
 30
0.0
 40
0.2
 41
0.2
  0
VERTEX
  8
0
 10
39.3996
 20
132.591
 30
0.0
 40
0.2
 41
0.2
  0
VERTEX
  8
0
 10
39.3996
 20
132.6
 30
0.0
 40
0.2
 41
0.2
  0
VERTEX
  8
0
 10
39.3996
 20
135.5
 30
0.0
 40
0.2
 41
0.2
  0
VERTEX
  8
0
 10
39.3996
 20
135.518
 30
0.0
 40
0.2
 41
0.2
  0
VERTEX
  8
0
 10
39.3707
 20
135.571
 30
0.0
 40
0.2
 41
0.2
  0
VERTEX
  8
0
 10
39.3167
 20
135.6
 30
0.0
 40
0.2
 41
0.2
  0
VERTEX
  8
0
 10
39.3002
 20
135.6
 30
0.0
 40
0.2
 41
0.2
  0
VERTEX
  8
0
 10
33.3003
 20
135.6
 30
0.0
 40
0.2
 41
0.2
  0
VERTEX
  8
0
 10
33.2824
 20
135.6
 30
0.0
 40
0.2
 41
0.2
  0
VERTEX
  8
0
 10
33.2286
 20
135.571
 30
0.0
 40
0.2
 41
0.2
  0
VERTEX
  8
0
 10
33.1997
 20
135.518
 30
0.0
 40
0.2
 41
0.2
  0
VERTEX
  8
0
 10
33.1997
 20
135.5
 30
0.0
 40
0.2
 41
0.2
  0
VERTEX
  8
0
 10
33.1997
 20
132.6
 30
0.0
 40
0.2
 41
0.2
  0
VERTEX
  8
0
 10
33.1997
 20
132.591
 30
0.0
 40
0.2
 41
0.2
  0
VERTEX
  8
0
 10
33.2135
 20
132.559
 30
0.0
 40
0.2
 41
0.2
  0
VERTEX
  8
0
 10
33.2369
 20
132.563
 30
0.0
 40
0.2
 41
0.2
  0
VERTEX
  8
0
 10
33.2411
 20
132.587
 30
0.0
 40
0.2
 41
0.2
  0
VERTEX
  8
0
 10
33.2093
 20
132.6
 30
0.0
 40
0.2
 41
0.2
  0
VERTEX
  8
0
 10
33.1997
 20
132.6
 30
0.0
 40
0.2
 41
0.2
  0
VERTEX
  8
0
 10
27.3995
 20
132.6
 30
0.0
 40
0.2
 41
0.2
  0
VERTEX
  8
0
 10
27.3885
 20
132.6
 30
0.0
 40
0.2
 41
0.2
  0
VERTEX
  8
0
 10
27.3568
 20
132.587
 30
0.0
 40
0.2
 41
0.2
  0
VERTEX
  8
0
 10
27.3623
 20
132.563
 30
0.0
 40
0.2
 41
0.2
  0
VERTEX
  8
0
 10
27.3844
 20
132.559
 30
0.0
 40
0.2
 41
0.2
  0
VERTEX
  8
0
 10
27.3995
 20
132.591
 30
0.0
 40
0.2
 41
0.2
  0
VERTEX
  8
0
 10
27.3995
 20
132.6
 30
0.0
 40
0.2
 41
0.2
  0
VERTEX
  8
0
 10
27.3995
 20
135.5
 30
0.0
 40
0.2
 41
0.2
  0
VERTEX
  8
0
 10
27.3995
 20
135.518
 30
0.0
 40
0.2
 41
0.2
  0
VERTEX
  8
0
 10
27.3706
 20
135.571
 30
0.0
 40
0.2
 41
0.2
  0
VERTEX
  8
0
 10
27.3169
 20
135.6
 30
0.0
 40
0.2
 41
0.2
  0
VERTEX
  8
0
 10
27.3003
 20
135.6
 30
0.0
 40
0.2
 41
0.2
  0
VERTEX
  8
0
 10
18.7992
 20
135.6
 30
0.0
 40
0.2
 41
0.2
  0
VERTEX
  8
0
 10
18.7813
 20
135.6
 30
0.0
 40
0.2
 41
0.2
  0
VERTEX
  8
0
 10
18.7289
 20
135.571
 30
0.0
 40
0.2
 41
0.2
  0
VERTEX
  8
0
 10
18.7
 20
135.518
 30
0.0
 40
0.2
 41
0.2
  0
VERTEX
  8
0
 10
18.7
 20
135.5
 30
0.0
 40
0.2
 41
0.2
  0
VERTEX
  8
0
 10
18.7
 20
132.5
 30
0.0
 40
0.2
 41
0.2
  0
VERTEX
  8
0
 10
18.7
 20
125.966
 30
0.0
 40
0.2
 41
0.2
  0
VERTEX
  8
0
 10
18.7
 20
125.914
 30
0.0
 40
0.2
 41
0.2
  0
VERTEX
  8
0
 10
18.7317
 20
125.757
 30
0.0
 40
0.2
 41
0.2
  0
VERTEX
  8
0
 10
18.8061
 20
125.596
 30
0.0
 40
0.2
 41
0.2
  0
VERTEX
  8
0
 10
18.8268
 20
125.566
 30
0.0
 40
0.2
 41
0.2
  0
VERTEX
  8
0
 10
18.8474
 20
125.537
 30
0.0
 40
0.2
 41
0.2
  0
VERTEX
  8
0
 10
18.9728
 20
125.413
 30
0.0
 40
0.2
 41
0.2
  0
VERTEX
  8
0
 10
19.1258
 20
125.321
 30
0.0
 40
0.2
 41
0.2
  0
VERTEX
  8
0
 10
19.1602
 20
125.309
 30
0.0
 40
0.2
 41
0.2
  0
VERTEX
  8
0
 10
19.1933
 20
125.297
 30
0.0
 40
0.2
 41
0.2
  0
VERTEX
  8
0
 10
19.3683
 20
125.268
 30
0.0
 40
0.2
 41
0.2
  0
VERTEX
  8
0
 10
19.5461
 20
125.283
 30
0.0
 40
0.2
 41
0.2
  0
VERTEX
  8
0
 10
19.5819
 20
125.291
 30
0.0
 40
0.2
 41
0.2
  0
VERTEX
  8
0
 10
19.6164
 20
125.301
 30
0.0
 40
0.2
 41
0.2
  0
VERTEX
  8
0
 10
19.7749
 20
125.378
 30
0.0
 40
0.2
 41
0.2
  0
VERTEX
  8
0
 10
19.9126
 20
125.49
 30
0.0
 40
0.2
 41
0.2
  0
VERTEX
  8
0
 10
19.9361
 20
125.517
 30
0.0
 40
0.2
 41
0.2
  0
VERTEX
  8
0
 10
22.3173
 20
128.355
 30
0.0
 40
0.2
 41
0.2
  0
VERTEX
  8
0
 10
22.3339
 20
128.375
 30
0.0
 40
0.2
 41
0.2
  0
VERTEX
  8
0
 10
22.4317
 20
128.455
 30
0.0
 40
0.2
 41
0.2
  0
VERTEX
  8
0
 10
22.5461
 20
128.51
 30
0.0
 40
0.2
 41
0.2
  0
VERTEX
  8
0
 10
22.5709
 20
128.516
 30
0.0
 40
0.2
 41
0.2
  0
VERTEX
  8
0
 10
22.5957
 20
128.523
 30
0.0
 40
0.2
 41
0.2
  0
VERTEX
  8
0
 10
22.8465
 20
128.513
 30
0.0
 40
0.2
 41
0.2
  0
VERTEX
  8
0
 10
22.8713
 20
128.504
 30
0.0
 40
0.2
 41
0.2
  0
VERTEX
  8
0
 10
22.8947
 20
128.495
 30
0.0
 40
0.2
 41
0.2
  0
VERTEX
  8
0
 10
23.0036
 20
128.431
 30
0.0
 40
0.2
 41
0.2
  0
VERTEX
  8
0
 10
23.0945
 20
128.342
 30
0.0
 40
0.2
 41
0.2
  0
VERTEX
  8
0
 10
23.1097
 20
128.32
 30
0.0
 40
0.2
 41
0.2
  0
VERTEX
  8
0
 10
23.1235
 20
128.3
 30
0.0
 40
0.2
 41
0.2
  0
VERTEX
  8
0
 10
23.1772
 20
128.184
 30
0.0
 40
0.2
 41
0.2
  0
VERTEX
  8
0
 10
23.2006
 20
128.072
 30
0.0
 40
0.2
 41
0.2
  0
VERTEX
  8
0
 10
23.2006
 20
128.034
 30
0.0
 40
0.2
 41
0.2
  0
VERTEX
  8
0
 10
23.2006
 20
116.967
 30
0.0
 40
0.2
 41
0.2
  0
VERTEX
  8
0
 10
23.2006
 20
116.929
 30
0.0
 40
0.2
 41
0.2
  0
VERTEX
  8
0
 10
23.1772
 20
116.818
 30
0.0
 40
0.2
 41
0.2
  0
VERTEX
  8
0
 10
23.1235
 20
116.702
 30
0.0
 40
0.2
 41
0.2
  0
VERTEX
  8
0
 10
23.1097
 20
116.68
 30
0.0
 40
0.2
 41
0.2
  0
VERTEX
  8
0
 10
23.0945
 20
116.659
 30
0.0
 40
0.2
 41
0.2
  0
VERTEX
  8
0
 10
23.0036
 20
116.571
 30
0.0
 40
0.2
 41
0.2
  0
VERTEX
  8
0
 10
22.8947
 20
116.506
 30
0.0
 40
0.2
 41
0.2
  0
VERTEX
  8
0
 10
22.8713
 20
116.497
 30
0.0
 40
0.2
 41
0.2
  0
VERTEX
  8
0
 10
22.8465
 20
116.488
 30
0.0
 40
0.2
 41
0.2
  0
VERTEX
  8
0
 10
22.5957
 20
116.479
 30
0.0
 40
0.2
 41
0.2
  0
VERTEX
  8
0
 10
22.5709
 20
116.484
 30
0.0
 40
0.2
 41
0.2
  0
VERTEX
  8
0
 10
22.5461
 20
116.491
 30
0.0
 40
0.2
 41
0.2
  0
VERTEX
  8
0
 10
22.4317
 20
116.546
 30
0.0
 40
0.2
 41
0.2
  0
VERTEX
  8
0
 10
22.3339
 20
116.626
 30
0.0
 40
0.2
 41
0.2
  0
VERTEX
  8
0
 10
22.3173
 20
116.645
 30
0.0
 40
0.2
 41
0.2
  0
VERTEX
  8
0
 10
19.9361
 20
119.483
 30
0.0
 40
0.2
 41
0.2
  0
VERTEX
  8
0
 10
19.9126
 20
119.511
 30
0.0
 40
0.2
 41
0.2
  0
VERTEX
  8
0
 10
19.7749
 20
119.623
 30
0.0
 40
0.2
 41
0.2
  0
VERTEX
  8
0
 10
19.6164
 20
119.701
 30
0.0
 40
0.2
 41
0.2
  0
VERTEX
  8
0
 10
19.5819
 20
119.709
 30
0.0
 40
0.2
 41
0.2
  0
VERTEX
  8
0
 10
19.5461
 20
119.718
 30
0.0
 40
0.2
 41
0.2
  0
VERTEX
  8
0
 10
19.3683
 20
119.733
 30
0.0
 40
0.2
 41
0.2
  0
VERTEX
  8
0
 10
19.1933
 20
119.703
 30
0.0
 40
0.2
 41
0.2
  0
VERTEX
  8
0
 10
19.1602
 20
119.691
 30
0.0
 40
0.2
 41
0.2
  0
VERTEX
  8
0
 10
19.1258
 20
119.678
 30
0.0
 40
0.2
 41
0.2
  0
VERTEX
  8
0
 10
18.9728
 20
119.589
 30
0.0
 40
0.2
 41
0.2
  0
VERTEX
  8
0
 10
18.8474
 20
119.465
 30
0.0
 40
0.2
 41
0.2
  0
VERTEX
  8
0
 10
18.8268
 20
119.435
 30
0.0
 40
0.2
 41
0.2
  0
VERTEX
  8
0
 10
18.8061
 20
119.406
 30
0.0
 40
0.2
 41
0.2
  0
VERTEX
  8
0
 10
18.7317
 20
119.245
 30
0.0
 40
0.2
 41
0.2
  0
VERTEX
  8
0
 10
18.7
 20
119.086
 30
0.0
 40
0.2
 41
0.2
  0
VERTEX
  8
0
 10
18.7
 20
119.032
 30
0.0
 40
0.2
 41
0.2
  0
VERTEX
  8
0
 10
18.7
 20
112.5
 30
0.0
 40
0.2
 41
0.2
  0
VERTEX
  8
0
 10
18.7
 20
109.5
 30
0.0
 40
0.2
 41
0.2
  0
VERTEX
  8
0
 10
18.7
 20
109.484
 30
0.0
 40
0.2
 41
0.2
  0
VERTEX
  8
0
 10
18.7289
 20
109.43
 30
0.0
 40
0.2
 41
0.2
  0
VERTEX
  8
0
 10
18.7813
 20
109.4
 30
0.0
 40
0.2
 41
0.2
  0
VERTEX
  8
0
 10
18.7992
 20
109.4
 30
0.0
 40
0.2
 41
0.2
  0
SEQEND
 8
0
  0
POLYLINE
  8
0
 62
     0
 66
     1
 10
0
 20
0
 30
0.0
 40
0.566929
 41
0.566929
  0
VERTEX
  8
0
 10
55.3448
 20
109.4
 30
0.0
 40
0.2
 41
0.2
  0
VERTEX
  8
0
 10
55.3448
 20
132.6
 30
0.0
 40
0.2
 41
0.2
  0
SEQEND
 8
0
  0
POLYLINE
  8
0
 62
     0
 66
     1
 10
0
 20
0
 30
0.0
 40
0.566929
 41
0.566929
  0
VERTEX
  8
0
 10
56.8456
 20
135.6
 30
0.0
 40
0.2
 41
0.2
  0
VERTEX
  8
0
 10
56.8456
 20
112.4
 30
0.0
 40
0.2
 41
0.2
  0
SEQEND
 8
0
  0
POLYLINE
  8
0
 62
     0
 66
     1
 10
0
 20
0
 30
0.0
 40
0.566929
 41
0.566929
  0
VERTEX
  8
0
 10
58.3449
 20
109.4
 30
0.0
 40
0.2
 41
0.2
  0
VERTEX
  8
0
 10
58.3449
 20
132.6
 30
0.0
 40
0.2
 41
0.2
  0
SEQEND
 8
0
  0
POLYLINE
  8
0
 62
     0
 66
     1
 10
0
 20
0
 30
0.0
 40
0.566929
 41
0.566929
  0
VERTEX
  8
0
 10
59.8456
 20
135.6
 30
0.0
 40
0.2
 41
0.2
  0
VERTEX
  8
0
 10
59.8456
 20
112.4
 30
0.0
 40
0.2
 41
0.2
  0
SEQEND
 8
0
  0
POLYLINE
  8
0
 62
     0
 66
     1
 10
0
 20
0
 30
0.0
 40
0.566929
 41
0.566929
  0
VERTEX
  8
0
 10
61.3449
 20
109.4
 30
0.0
 40
0.2
 41
0.2
  0
VERTEX
  8
0
 10
61.3449
 20
132.6
 30
0.0
 40
0.2
 41
0.2
  0
SEQEND
 8
0
  0
POLYLINE
  8
0
 62
     0
 66
     1
 10
0
 20
0
 30
0.0
 40
0.566929
 41
0.566929
  0
VERTEX
  8
0
 10
62.8456
 20
135.6
 30
0.0
 40
0.2
 41
0.2
  0
VERTEX
  8
0
 10
62.8456
 20
112.4
 30
0.0
 40
0.2
 41
0.2
  0
SEQEND
 8
0
  0
POLYLINE
  8
0
 62
     0
 66
     1
 10
0
 20
0
 30
0.0
 40
0.566929
 41
0.566929
  0
VERTEX
  8
0
 10
64.3449
 20
109.4
 30
0.0
 40
0.2
 41
0.2
  0
VERTEX
  8
0
 10
64.3449
 20
132.6
 30
0.0
 40
0.2
 41
0.2
  0
SEQEND
 8
0
  0
POLYLINE
  8
0
 62
     0
 66
     1
 10
0
 20
0
 30
0.0
 40
0.566929
 41
0.566929
  0
VERTEX
  8
0
 10
65.8453
 20
135.6
 30
0.0
 40
0.2
 41
0.2
  0
VERTEX
  8
0
 10
65.8453
 20
112.4
 30
0.0
 40
0.2
 41
0.2
  0
SEQEND
 8
0
  0
POLYLINE
  8
0
 62
     0
 66
     1
 10
0
 20
0
 30
0.0
 40
0.566929
 41
0.566929
  0
VERTEX
  8
0
 10
67.3446
 20
109.4
 30
0.0
 40
0.2
 41
0.2
  0
VERTEX
  8
0
 10
67.3446
 20
132.6
 30
0.0
 40
0.2
 41
0.2
  0
SEQEND
 8
0
  0
POLYLINE
  8
0
 62
     0
 66
     1
 10
0
 20
0
 30
0.0
 40
0.566929
 41
0.566929
  0
VERTEX
  8
0
 10
68.8453
 20
135.6
 30
0.0
 40
0.2
 41
0.2
  0
VERTEX
  8
0
 10
68.8453
 20
112.4
 30
0.0
 40
0.2
 41
0.2
  0
SEQEND
 8
0
  0
POLYLINE
  8
0
 62
     0
 66
     1
 10
0
 20
0
 30
0.0
 40
0.566929
 41
0.566929
  0
VERTEX
  8
0
 10
70.3446
 20
109.4
 30
0.0
 40
0.2
 41
0.2
  0
VERTEX
  8
0
 10
70.3446
 20
132.6
 30
0.0
 40
0.2
 41
0.2
  0
SEQEND
 8
0
  0
POLYLINE
  8
0
 62
     0
 66
     1
 10
0
 20
0
 30
0.0
 40
0.566929
 41
0.566929
  0
VERTEX
  8
0
 10
71.8439
 20
135.6
 30
0.0
 40
0.2
 41
0.2
  0
VERTEX
  8
0
 10
71.8439
 20
112.4
 30
0.0
 40
0.2
 41
0.2
  0
SEQEND
 8
0
  0
POLYLINE
  8
0
 62
     0
 66
     1
 10
0
 20
0
 30
0.0
 40
0.566929
 41
0.566929
  0
VERTEX
  8
0
 10
73.3446
 20
109.4
 30
0.0
 40
0.2
 41
0.2
  0
VERTEX
  8
0
 10
73.3446
 20
132.6
 30
0.0
 40
0.2
 41
0.2
  0
SEQEND
 8
0
  0
POLYLINE
  8
0
 62
     0
 66
     1
 10
0
 20
0
 30
0.0
 40
0.566929
 41
0.566929
  0
VERTEX
  8
0
 10
74.8439
 20
135.6
 30
0.0
 40
0.2
 41
0.2
  0
VERTEX
  8
0
 10
74.8439
 20
112.4
 30
0.0
 40
0.2
 41
0.2
  0
SEQEND
 8
0
  0
POLYLINE
  8
0
 62
     0
 66
     1
 10
0
 20
0
 30
0.0
 40
0.566929
 41
0.566929
  0
VERTEX
  8
0
 10
127.934
 20
109.4
 30
0.0
 40
0.2
 41
0.2
  0
VERTEX
  8
0
 10
127.934
 20
132.6
 30
0.0
 40
0.2
 41
0.2
  0
SEQEND
 8
0
  0
POLYLINE
  8
0
 62
     0
 66
     1
 10
0
 20
0
 30
0.0
 40
0.566929
 41
0.566929
  0
VERTEX
  8
0
 10
129.433
 20
135.6
 30
0.0
 40
0.2
 41
0.2
  0
VERTEX
  8
0
 10
129.433
 20
112.4
 30
0.0
 40
0.2
 41
0.2
  0
SEQEND
 8
0
  0
POLYLINE
  8
0
 62
     0
 66
     1
 10
0
 20
0
 30
0.0
 40
0.566929
 41
0.566929
  0
VERTEX
  8
0
 10
130.934
 20
109.4
 30
0.0
 40
0.2
 41
0.2
  0
VERTEX
  8
0
 10
130.934
 20
132.6
 30
0.0
 40
0.2
 41
0.2
  0
SEQEND
 8
0
  0
POLYLINE
  8
0
 62
     0
 66
     1
 10
0
 20
0
 30
0.0
 40
0.566929
 41
0.566929
  0
VERTEX
  8
0
 10
132.433
 20
135.6
 30
0.0
 40
0.2
 41
0.2
  0
VERTEX
  8
0
 10
132.433
 20
112.4
 30
0.0
 40
0.2
 41
0.2
  0
SEQEND
 8
0
  0
POLYLINE
  8
0
 62
     0
 66
     1
 10
0
 20
0
 30
0.0
 40
0.566929
 41
0.566929
  0
VERTEX
  8
0
 10
133.934
 20
109.4
 30
0.0
 40
0.2
 41
0.2
  0
VERTEX
  8
0
 10
133.934
 20
132.6
 30
0.0
 40
0.2
 41
0.2
  0
SEQEND
 8
0
  0
POLYLINE
  8
0
 62
     0
 66
     1
 10
0
 20
0
 30
0.0
 40
0.566929
 41
0.566929
  0
VERTEX
  8
0
 10
135.434
 20
135.6
 30
0.0
 40
0.2
 41
0.2
  0
VERTEX
  8
0
 10
135.434
 20
112.4
 30
0.0
 40
0.2
 41
0.2
  0
SEQEND
 8
0
  0
POLYLINE
  8
0
 62
     0
 66
     1
 10
0
 20
0
 30
0.0
 40
0.566929
 41
0.566929
  0
VERTEX
  8
0
 10
136.934
 20
109.4
 30
0.0
 40
0.2
 41
0.2
  0
VERTEX
  8
0
 10
136.934
 20
132.6
 30
0.0
 40
0.2
 41
0.2
  0
SEQEND
 8
0
  0
POLYLINE
  8
0
 62
     0
 66
     1
 10
0
 20
0
 30
0.0
 40
0.566929
 41
0.566929
  0
VERTEX
  8
0
 10
138.434
 20
135.6
 30
0.0
 40
0.2
 41
0.2
  0
VERTEX
  8
0
 10
138.434
 20
112.4
 30
0.0
 40
0.2
 41
0.2
  0
SEQEND
 8
0
  0
POLYLINE
  8
0
 62
     0
 66
     1
 10
0
 20
0
 30
0.0
 40
0.566929
 41
0.566929
  0
VERTEX
  8
0
 10
139.934
 20
109.4
 30
0.0
 40
0.2
 41
0.2
  0
VERTEX
  8
0
 10
139.934
 20
132.6
 30
0.0
 40
0.2
 41
0.2
  0
SEQEND
 8
0
  0
POLYLINE
  8
0
 62
     0
 66
     1
 10
0
 20
0
 30
0.0
 40
0.566929
 41
0.566929
  0
VERTEX
  8
0
 10
141.434
 20
135.6
 30
0.0
 40
0.2
 41
0.2
  0
VERTEX
  8
0
 10
141.434
 20
112.4
 30
0.0
 40
0.2
 41
0.2
  0
SEQEND
 8
0
  0
POLYLINE
  8
0
 62
     0
 66
     1
 10
0
 20
0
 30
0.0
 40
0.566929
 41
0.566929
  0
VERTEX
  8
0
 10
142.934
 20
109.4
 30
0.0
 40
0.2
 41
0.2
  0
VERTEX
  8
0
 10
142.934
 20
132.6
 30
0.0
 40
0.2
 41
0.2
  0
SEQEND
 8
0
  0
POLYLINE
  8
0
 62
     0
 66
     1
 10
0
 20
0
 30
0.0
 40
0.566929
 41
0.566929
  0
VERTEX
  8
0
 10
144.435
 20
135.6
 30
0.0
 40
0.2
 41
0.2
  0
VERTEX
  8
0
 10
144.435
 20
112.4
 30
0.0
 40
0.2
 41
0.2
  0
SEQEND
 8
0
  0
POLYLINE
  8
0
 62
     0
 66
     1
 10
0
 20
0
 30
0.0
 40
0.566929
 41
0.566929
  0
VERTEX
  8
0
 10
145.934
 20
109.4
 30
0.0
 40
0.2
 41
0.2
  0
VERTEX
  8
0
 10
145.934
 20
132.6
 30
0.0
 40
0.2
 41
0.2
  0
SEQEND
 8
0
  0
POLYLINE
  8
0
 62
     0
 66
     1
 10
0
 20
0
 30
0.0
 40
0.566929
 41
0.566929
  0
VERTEX
  8
0
 10
147.435
 20
135.6
 30
0.0
 40
0.2
 41
0.2
  0
VERTEX
  8
0
 10
147.435
 20
112.4
 30
0.0
 40
0.2
 41
0.2
  0
SEQEND
 8
0
  0
POLYLINE
  8
0
 62
     0
 66
     1
 10
0
 20
0
 30
0.0
 40
0.566929
 41
0.566929
  0
VERTEX
  8
0
 10
220.523
 20
109.4
 30
0.0
 40
0.2
 41
0.2
  0
VERTEX
  8
0
 10
220.523
 20
132.6
 30
0.0
 40
0.2
 41
0.2
  0
SEQEND
 8
0
  0
POLYLINE
  8
0
 62
     0
 66
     1
 10
0
 20
0
 30
0.0
 40
0.566929
 41
0.566929
  0
VERTEX
  8
0
 10
222.024
 20
135.6
 30
0.0
 40
0.2
 41
0.2
  0
VERTEX
  8
0
 10
222.024
 20
112.4
 30
0.0
 40
0.2
 41
0.2
  0
SEQEND
 8
0
  0
POLYLINE
  8
0
 62
     0
 66
     1
 10
0
 20
0
 30
0.0
 40
0.566929
 41
0.566929
  0
VERTEX
  8
0
 10
223.523
 20
109.4
 30
0.0
 40
0.2
 41
0.2
  0
VERTEX
  8
0
 10
223.523
 20
132.6
 30
0.0
 40
0.2
 41
0.2
  0
SEQEND
 8
0
  0
POLYLINE
  8
0
 62
     0
 66
     1
 10
0
 20
0
 30
0.0
 40
0.566929
 41
0.566929
  0
VERTEX
  8
0
 10
225.024
 20
135.6
 30
0.0
 40
0.2
 41
0.2
  0
VERTEX
  8
0
 10
225.024
 20
112.4
 30
0.0
 40
0.2
 41
0.2
  0
SEQEND
 8
0
  0
POLYLINE
  8
0
 62
     0
 66
     1
 10
0
 20
0
 30
0.0
 40
0.566929
 41
0.566929
  0
VERTEX
  8
0
 10
226.523
 20
109.4
 30
0.0
 40
0.2
 41
0.2
  0
VERTEX
  8
0
 10
226.523
 20
132.6
 30
0.0
 40
0.2
 41
0.2
  0
SEQEND
 8
0
  0
POLYLINE
  8
0
 62
     0
 66
     1
 10
0
 20
0
 30
0.0
 40
0.566929
 41
0.566929
  0
VERTEX
  8
0
 10
228.024
 20
135.6
 30
0.0
 40
0.2
 41
0.2
  0
VERTEX
  8
0
 10
228.024
 20
112.4
 30
0.0
 40
0.2
 41
0.2
  0
SEQEND
 8
0
  0
POLYLINE
  8
0
 62
     0
 66
     1
 10
0
 20
0
 30
0.0
 40
0.566929
 41
0.566929
  0
VERTEX
  8
0
 10
229.523
 20
109.4
 30
0.0
 40
0.2
 41
0.2
  0
VERTEX
  8
0
 10
229.523
 20
132.6
 30
0.0
 40
0.2
 41
0.2
  0
SEQEND
 8
0
  0
POLYLINE
  8
0
 62
     0
 66
     1
 10
0
 20
0
 30
0.0
 40
0.566929
 41
0.566929
  0
VERTEX
  8
0
 10
231.024
 20
135.6
 30
0.0
 40
0.2
 41
0.2
  0
VERTEX
  8
0
 10
231.024
 20
112.4
 30
0.0
 40
0.2
 41
0.2
  0
SEQEND
 8
0
  0
POLYLINE
  8
0
 62
     0
 66
     1
 10
0
 20
0
 30
0.0
 40
0.566929
 41
0.566929
  0
VERTEX
  8
0
 10
232.523
 20
109.4
 30
0.0
 40
0.2
 41
0.2
  0
VERTEX
  8
0
 10
232.523
 20
132.6
 30
0.0
 40
0.2
 41
0.2
  0
SEQEND
 8
0
  0
POLYLINE
  8
0
 62
     0
 66
     1
 10
0
 20
0
 30
0.0
 40
0.566929
 41
0.566929
  0
VERTEX
  8
0
 10
234.024
 20
135.6
 30
0.0
 40
0.2
 41
0.2
  0
VERTEX
  8
0
 10
234.024
 20
112.4
 30
0.0
 40
0.2
 41
0.2
  0
SEQEND
 8
0
  0
POLYLINE
  8
0
 62
     0
 66
     1
 10
0
 20
0
 30
0.0
 40
0.566929
 41
0.566929
  0
VERTEX
  8
0
 10
235.525
 20
109.4
 30
0.0
 40
0.2
 41
0.2
  0
VERTEX
  8
0
 10
235.525
 20
132.6
 30
0.0
 40
0.2
 41
0.2
  0
SEQEND
 8
0
  0
POLYLINE
  8
0
 62
     0
 66
     1
 10
0
 20
0
 30
0.0
 40
0.566929
 41
0.566929
  0
VERTEX
  8
0
 10
237.024
 20
135.6
 30
0.0
 40
0.2
 41
0.2
  0
VERTEX
  8
0
 10
237.024
 20
112.4
 30
0.0
 40
0.2
 41
0.2
  0
SEQEND
 8
0
  0
POLYLINE
  8
0
 62
     0
 66
     1
 10
0
 20
0
 30
0.0
 40
0.566929
 41
0.566929
  0
VERTEX
  8
0
 10
238.525
 20
109.4
 30
0.0
 40
0.2
 41
0.2
  0
VERTEX
  8
0
 10
238.525
 20
132.6
 30
0.0
 40
0.2
 41
0.2
  0
SEQEND
 8
0
  0
POLYLINE
  8
0
 62
     0
 66
     1
 10
0
 20
0
 30
0.0
 40
0.566929
 41
0.566929
  0
VERTEX
  8
0
 10
240.024
 20
135.6
 30
0.0
 40
0.2
 41
0.2
  0
VERTEX
  8
0
 10
240.024
 20
112.4
 30
0.0
 40
0.2
 41
0.2
  0
SEQEND
 8
0
  0
POLYLINE
  8
0
 62
     0
 66
     1
 10
0
 20
0
 30
0.0
 40
0.566929
 41
0.566929
  0
VERTEX
  8
0
 10
293.113
 20
109.4
 30
0.0
 40
0.2
 41
0.2
  0
VERTEX
  8
0
 10
293.113
 20
132.6
 30
0.0
 40
0.2
 41
0.2
  0
SEQEND
 8
0
  0
POLYLINE
  8
0
 62
     0
 66
     1
 10
0
 20
0
 30
0.0
 40
0.566929
 41
0.566929
  0
VERTEX
  8
0
 10
294.614
 20
135.6
 30
0.0
 40
0.2
 41
0.2
  0
VERTEX
  8
0
 10
294.614
 20
112.4
 30
0.0
 40
0.2
 41
0.2
  0
SEQEND
 8
0
  0
POLYLINE
  8
0
 62
     0
 66
     1
 10
0
 20
0
 30
0.0
 40
0.566929
 41
0.566929
  0
VERTEX
  8
0
 10
296.114
 20
109.4
 30
0.0
 40
0.2
 41
0.2
  0
VERTEX
  8
0
 10
296.114
 20
132.6
 30
0.0
 40
0.2
 41
0.2
  0
SEQEND
 8
0
  0
POLYLINE
  8
0
 62
     0
 66
     1
 10
0
 20
0
 30
0.0
 40
0.566929
 41
0.566929
  0
VERTEX
  8
0
 10
297.614
 20
135.6
 30
0.0
 40
0.2
 41
0.2
  0
VERTEX
  8
0
 10
297.614
 20
112.4
 30
0.0
 40
0.2
 41
0.2
  0
SEQEND
 8
0
  0
POLYLINE
  8
0
 62
     0
 66
     1
 10
0
 20
0
 30
0.0
 40
0.566929
 41
0.566929
  0
VERTEX
  8
0
 10
299.114
 20
109.4
 30
0.0
 40
0.2
 41
0.2
  0
VERTEX
  8
0
 10
299.114
 20
132.6
 30
0.0
 40
0.2
 41
0.2
  0
SEQEND
 8
0
  0
POLYLINE
  8
0
 62
     0
 66
     1
 10
0
 20
0
 30
0.0
 40
0.566929
 41
0.566929
  0
VERTEX
  8
0
 10
300.614
 20
135.6
 30
0.0
 40
0.2
 41
0.2
  0
VERTEX
  8
0
 10
300.614
 20
112.4
 30
0.0
 40
0.2
 41
0.2
  0
SEQEND
 8
0
  0
POLYLINE
  8
0
 62
     0
 66
     1
 10
0
 20
0
 30
0.0
 40
0.566929
 41
0.566929
  0
VERTEX
  8
0
 10
302.113
 20
109.4
 30
0.0
 40
0.2
 41
0.2
  0
VERTEX
  8
0
 10
302.113
 20
132.6
 30
0.0
 40
0.2
 41
0.2
  0
SEQEND
 8
0
  0
POLYLINE
  8
0
 62
     0
 66
     1
 10
0
 20
0
 30
0.0
 40
0.566929
 41
0.566929
  0
VERTEX
  8
0
 10
303.614
 20
135.6
 30
0.0
 40
0.2
 41
0.2
  0
VERTEX
  8
0
 10
303.614
 20
112.4
 30
0.0
 40
0.2
 41
0.2
  0
SEQEND
 8
0
  0
POLYLINE
  8
0
 62
     0
 66
     1
 10
0
 20
0
 30
0.0
 40
0.566929
 41
0.566929
  0
VERTEX
  8
0
 10
305.113
 20
109.4
 30
0.0
 40
0.2
 41
0.2
  0
VERTEX
  8
0
 10
305.113
 20
132.6
 30
0.0
 40
0.2
 41
0.2
  0
SEQEND
 8
0
  0
POLYLINE
  8
0
 62
     0
 66
     1
 10
0
 20
0
 30
0.0
 40
0.566929
 41
0.566929
  0
VERTEX
  8
0
 10
306.614
 20
135.6
 30
0.0
 40
0.2
 41
0.2
  0
VERTEX
  8
0
 10
306.614
 20
112.4
 30
0.0
 40
0.2
 41
0.2
  0
SEQEND
 8
0
  0
POLYLINE
  8
0
 62
     0
 66
     1
 10
0
 20
0
 30
0.0
 40
0.566929
 41
0.566929
  0
VERTEX
  8
0
 10
308.113
 20
109.4
 30
0.0
 40
0.2
 41
0.2
  0
VERTEX
  8
0
 10
308.113
 20
132.6
 30
0.0
 40
0.2
 41
0.2
  0
SEQEND
 8
0
  0
POLYLINE
  8
0
 62
     0
 66
     1
 10
0
 20
0
 30
0.0
 40
0.566929
 41
0.566929
  0
VERTEX
  8
0
 10
309.614
 20
135.6
 30
0.0
 40
0.2
 41
0.2
  0
VERTEX
  8
0
 10
309.614
 20
112.4
 30
0.0
 40
0.2
 41
0.2
  0
SEQEND
 8
0
  0
POLYLINE
  8
0
 62
     0
 66
     1
 10
0
 20
0
 30
0.0
 40
0.566929
 41
0.566929
  0
VERTEX
  8
0
 10
311.113
 20
109.4
 30
0.0
 40
0.2
 41
0.2
  0
VERTEX
  8
0
 10
311.113
 20
132.6
 30
0.0
 40
0.2
 41
0.2
  0
SEQEND
 8
0
  0
POLYLINE
  8
0
 62
     0
 66
     1
 10
0
 20
0
 30
0.0
 40
0.566929
 41
0.566929
  0
VERTEX
  8
0
 10
312.613
 20
135.6
 30
0.0
 40
0.2
 41
0.2
  0
VERTEX
  8
0
 10
312.613
 20
112.4
 30
0.0
 40
0.2
 41
0.2
  0
SEQEND
 8
0
  0
ENDSEC
  0
EOF
