  0
SECTION
  2
HEADER
  9
$ACADVER
  1
AC1027
  9
$ACADMAINTVER
 70
   125
  9
$DWGCODEPAGE
  3
ANSI_1252
  9
$LASTSAVEDBY
  1
pinpo
  9
$REQUIREDVERSIONS
160
                 0
  9
$INSBASE
 10
0.0
 20
0.0
 30
0.0
  9
$EXTMIN
 10
13.10405102986456
 20
21.6
 30
0.0
  9
$EXTMAX
 10
683.9919964703288
 20
170.3442634504657
 30
0.0
  9
$LIMMIN
 10
0.0
 20
0.0
  9
$LIMMAX
 10
12.0
 20
9.0
  9
$ORTHOMODE
 70
     0
  9
$REGENMODE
 70
     1
  9
$FILLMODE
 70
     0
  9
$QTEXTMODE
 70
     0
  9
$MIRRTEXT
 70
     0
  9
$LTSCALE
 40
1.0
  9
$ATTMODE
 70
     1
  9
$TEXTSIZE
 40
0.2
  9
$TRACEWID
 40
0.05
  9
$TEXTSTYLE
  7
STANDARD
  9
$CLAYER
  8
0
  9
$CELTYPE
  6
CONTINUOUS
  9
$CECOLOR
 62
   256
  9
$CELTSCALE
 40
1.0
  9
$DISPSILH
 70
     0
  9
$DIMSCALE
 40
1.0
  9
$DIMASZ
 40
0.18
  9
$DIMEXO
 40
0.0625
  9
$DIMDLI
 40
0.38
  9
$DIMRND
 40
0.0
  9
$DIMDLE
 40
0.0
  9
$DIMEXE
 40
0.18
  9
$DIMTP
 40
0.0
  9
$DIMTM
 40
0.0
  9
$DIMTXT
 40
0.18
  9
$DIMCEN
 40
0.09
  9
$DIMTSZ
 40
0.0
  9
$DIMTOL
 70
     0
  9
$DIMLIM
 70
     0
  9
$DIMTIH
 70
     1
  9
$DIMTOH
 70
     1
  9
$DIMSE1
 70
     0
  9
$DIMSE2
 70
     0
  9
$DIMTAD
 70
     0
  9
$DIMZIN
 70
     0
  9
$DIMBLK
  1

  9
$DIMASO
 70
     1
  9
$DIMSHO
 70
     1
  9
$DIMPOST
  1

  9
$DIMAPOST
  1

  9
$DIMALT
 70
     0
  9
$DIMALTD
 70
     2
  9
$DIMALTF
 40
25.4
  9
$DIMLFAC
 40
1.0
  9
$DIMTOFL
 70
     0
  9
$DIMTVP
 40
0.0
  9
$DIMTIX
 70
     0
  9
$DIMSOXD
 70
     0
  9
$DIMSAH
 70
     0
  9
$DIMBLK1
  1

  9
$DIMBLK2
  1

  9
$DIMSTYLE
  2
STANDARD
  9
$DIMCLRD
 70
     0
  9
$DIMCLRE
 70
     0
  9
$DIMCLRT
 70
     0
  9
$DIMTFAC
 40
1.0
  9
$DIMGAP
 40
0.09
  9
$DIMJUST
 70
     0
  9
$DIMSD1
 70
     0
  9
$DIMSD2
 70
     0
  9
$DIMTOLJ
 70
     1
  9
$DIMTZIN
 70
     0
  9
$DIMALTZ
 70
     0
  9
$DIMALTTZ
 70
     0
  9
$DIMUPT
 70
     0
  9
$DIMDEC
 70
     4
  9
$DIMTDEC
 70
     4
  9
$DIMALTU
 70
     2
  9
$DIMALTTD
 70
     2
  9
$DIMTXSTY
  7
STANDARD
  9
$DIMAUNIT
 70
     0
  9
$DIMADEC
 70
     0
  9
$DIMALTRND
 40
0.0
  9
$DIMAZIN
 70
     0
  9
$DIMDSEP
 70
    46
  9
$DIMATFIT
 70
     3
  9
$DIMFRAC
 70
     0
  9
$DIMLDRBLK
  1

  9
$DIMLUNIT
 70
     2
  9
$DIMLWD
 70
    -2
  9
$DIMLWE
 70
    -2
  9
$DIMTMOVE
 70
     0
  9
$DIMFXL
 40
1.0
  9
$DIMFXLON
 70
     0
  9
$DIMJOGANG
 40
0.7853981633974483
  9
$DIMTFILL
 70
     0
  9
$DIMTFILLCLR
 70
     0
  9
$DIMARCSYM
 70
     0
  9
$DIMLTYPE
  6

  9
$DIMLTEX1
  6

  9
$DIMLTEX2
  6

  9
$DIMTXTDIRECTION
 70
     0
  9
$LUNITS
 70
     2
  9
$LUPREC
 70
     4
  9
$SKETCHINC
 40
0.1
  9
$FILLETRAD
 40
1.0
  9
$AUNITS
 70
     0
  9
$AUPREC
 70
     0
  9
$MENU
  1
.
  9
$ELEVATION
 40
0.0
  9
$PELEVATION
 40
0.0
  9
$THICKNESS
 40
0.0
  9
$LIMCHECK
 70
     0
  9
$CHAMFERA
 40
0.0
  9
$CHAMFERB
 40
0.0
  9
$CHAMFERC
 40
0.0
  9
$CHAMFERD
 40
0.0
  9
$SKPOLY
 70
     0
  9
$TDCREATE
 40
2460339.763298611
  9
$TDUCREATE
 40
2460339.721631945
  9
$TDUPDATE
 40
2460455.769768519
  9
$TDUUPDATE
 40
2460455.686435186
  9
$TDINDWG
 40
0.5115625000
  9
$TDUSRTIMER
 40
0.5115625000
  9
$USRTIMER
 70
     1
  9
$ANGBASE
 50
0.0
  9
$ANGDIR
 70
     0
  9
$PDMODE
 70
     0
  9
$PDSIZE
 40
0.0
  9
$PLINEWID
 40
0.0
  9
$SPLFRAME
 70
     1
  9
$SPLINETYPE
 70
     6
  9
$SPLINESEGS
 70
     8
  9
$HANDSEED
  5
2C94
  9
$SURFTAB1
 70
     6
  9
$SURFTAB2
 70
     6
  9
$SURFTYPE
 70
     6
  9
$SURFU
 70
     6
  9
$SURFV
 70
     6
  9
$UCSBASE
  2

  9
$UCSNAME
  2

  9
$UCSORG
 10
0.0
 20
0.0
 30
0.0
  9
$UCSXDIR
 10
1.0
 20
0.0
 30
0.0
  9
$UCSYDIR
 10
0.0
 20
1.0
 30
0.0
  9
$UCSORTHOREF
  2

  9
$UCSORTHOVIEW
 70
     0
  9
$UCSORGTOP
 10
0.0
 20
0.0
 30
0.0
  9
$UCSORGBOTTOM
 10
0.0
 20
0.0
 30
0.0
  9
$UCSORGLEFT
 10
0.0
 20
0.0
 30
0.0
  9
$UCSORGRIGHT
 10
0.0
 20
0.0
 30
0.0
  9
$UCSORGFRONT
 10
0.0
 20
0.0
 30
0.0
  9
$UCSORGBACK
 10
0.0
 20
0.0
 30
0.0
  9
$PUCSBASE
  2

  9
$PUCSNAME
  2

  9
$PUCSORG
 10
0.0
 20
0.0
 30
0.0
  9
$PUCSXDIR
 10
1.0
 20
0.0
 30
0.0
  9
$PUCSYDIR
 10
0.0
 20
1.0
 30
0.0
  9
$PUCSORTHOREF
  2

  9
$PUCSORTHOVIEW
 70
     0
  9
$PUCSORGTOP
 10
0.0
 20
0.0
 30
0.0
  9
$PUCSORGBOTTOM
 10
0.0
 20
0.0
 30
0.0
  9
$PUCSORGLEFT
 10
0.0
 20
0.0
 30
0.0
  9
$PUCSORGRIGHT
 10
0.0
 20
0.0
 30
0.0
  9
$PUCSORGFRONT
 10
0.0
 20
0.0
 30
0.0
  9
$PUCSORGBACK
 10
0.0
 20
0.0
 30
0.0
  9
$USERI1
 70
     0
  9
$USERI2
 70
     0
  9
$USERI3
 70
     0
  9
$USERI4
 70
     0
  9
$USERI5
 70
     0
  9
$USERR1
 40
0.0
  9
$USERR2
 40
0.0
  9
$USERR3
 40
0.0
  9
$USERR4
 40
0.0
  9
$USERR5
 40
0.0
  9
$WORLDVIEW
 70
     1
  9
$SHADEDGE
 70
     3
  9
$SHADEDIF
 70
    70
  9
$TILEMODE
 70
     1
  9
$MAXACTVP
 70
    64
  9
$PINSBASE
 10
0.0
 20
0.0
 30
0.0
  9
$PLIMCHECK
 70
     0
  9
$PEXTMIN
 10
1.000000000000000E+20
 20
1.000000000000000E+20
 30
1.000000000000000E+20
  9
$PEXTMAX
 10
-1.000000000000000E+20
 20
-1.000000000000000E+20
 30
-1.000000000000000E+20
  9
$PLIMMIN
 10
0.0
 20
0.0
  9
$PLIMMAX
 10
12.0
 20
9.0
  9
$UNITMODE
 70
     0
  9
$VISRETAIN
 70
     1
  9
$PLINEGEN
 70
     0
  9
$PSLTSCALE
 70
     1
  9
$TREEDEPTH
 70
  3020
  9
$CMLSTYLE
  2
Standard
  9
$CMLJUST
 70
     0
  9
$CMLSCALE
 40
1.0
  9
$PROXYGRAPHICS
 70
     1
  9
$MEASUREMENT
 70
     0
  9
$CELWEIGHT
370
    -1
  9
$ENDCAPS
280
     0
  9
$JOINSTYLE
280
     0
  9
$LWDISPLAY
290
     0
  9
$INSUNITS
 70
     0
  9
$HYPERLINKBASE
  1

  9
$STYLESHEET
  1

  9
$XEDIT
290
     1
  9
$CEPSNTYPE
380
     0
  9
$PSTYLEMODE
290
     1
  9
$FINGERPRINTGUID
  2
{354C332B-8898-7048-BD76-6DB4BEB3BF80}
  9
$VERSIONGUID
  2
{52B0EBDA-FD2A-7F4C-89F0-2B1A81ADC4CD}
  9
$EXTNAMES
290
     1
  9
$PSVPSCALE
 40
0.0
  9
$OLESTARTUP
290
     0
  9
$SORTENTS
280
   127
  9
$INDEXCTL
280
     0
  9
$HIDETEXT
280
     0
  9
$XCLIPFRAME
280
     2
  9
$HALOGAP
280
     0
  9
$OBSCOLOR
 70
   257
  9
$OBSLTYPE
280
     0
  9
$INTERSECTIONDISPLAY
280
     0
  9
$INTERSECTIONCOLOR
 70
   257
  9
$DIMASSOC
280
     1
  9
$PROJECTNAME
  1

  9
$CAMERADISPLAY
290
     0
  9
$LENSLENGTH
 40
50.0
  9
$CAMERAHEIGHT
 40
0.0
  9
$STEPSPERSEC
 40
2.0
  9
$STEPSIZE
 40
6.0
  9
$3DDWFPREC
 40
2.0
  9
$PSOLWIDTH
 40
0.25
  9
$PSOLHEIGHT
 40
4.0
  9
$LOFTANG1
 40
1.570796326794896
  9
$LOFTANG2
 40
1.570796326794896
  9
$LOFTMAG1
 40
0.0
  9
$LOFTMAG2
 40
0.0
  9
$LOFTPARAM
 70
     7
  9
$LOFTNORMALS
280
     1
  9
$LATITUDE
 40
37.795
  9
$LONGITUDE
 40
-122.394
  9
$NORTHDIRECTION
 40
0.0
  9
$TIMEZONE
 70
 -8000
  9
$LIGHTGLYPHDISPLAY
280
     1
  9
$TILEMODELIGHTSYNCH
280
     1
  9
$CMATERIAL
347
299E
  9
$SOLIDHIST
280
     0
  9
$SHOWHIST
280
     1
  9
$DWFFRAME
280
     2
  9
$DGNFRAME
280
     0
  9
$REALWORLDSCALE
290
     1
  9
$INTERFERECOLOR
 62
     1
  9
$INTERFEREOBJVS
345
29C0
  9
$INTERFEREVPVS
346
29BD
  9
$CSHADOW
280
     0
  9
$SHADOWPLANELOCATION
 40
0.0
  0
ENDSEC
  0
SECTION
  2
CLASSES
  0
CLASS
  1
ACDBDICTIONARYWDFLT
  2
AcDbDictionaryWithDefault
  3
ObjectDBX Classes
 90
        0
 91
        1
280
     0
281
     0
  0
CLASS
  1
MATERIAL
  2
AcDbMaterial
  3
ObjectDBX Classes
 90
     1153
 91
        3
280
     0
281
     0
  0
CLASS
  1
VISUALSTYLE
  2
AcDbVisualStyle
  3
ObjectDBX Classes
 90
     4095
 91
       24
280
     0
281
     0
  0
CLASS
  1
SCALE
  2
AcDbScale
  3
ObjectDBX Classes
 90
     1153
 91
       17
280
     0
281
     0
  0
CLASS
  1
TABLESTYLE
  2
AcDbTableStyle
  3
ObjectDBX Classes
 90
     4095
 91
        1
280
     0
281
     0
  0
CLASS
  1
MLEADERSTYLE
  2
AcDbMLeaderStyle
  3
ACDB_MLEADERSTYLE_CLASS
 90
     4095
 91
        1
280
     0
281
     0
  0
CLASS
  1
ACDBSECTIONVIEWSTYLE
  2
AcDbSectionViewStyle
  3
ObjectDBX Classes
 90
     1025
 91
        1
280
     0
281
     0
  0
CLASS
  1
ACDBDETAILVIEWSTYLE
  2
AcDbDetailViewStyle
  3
ObjectDBX Classes
 90
     1025
 91
        1
280
     0
281
     0
  0
CLASS
  1
ACARRAYJIGENTITY
  2
AcArrayJigEntity
  3
ACAD_ARRAY
 90
      129
 91
        0
280
     0
281
     1
  0
CLASS
  1
ACDBASSOCNETWORK
  2
AcDbAssocNetwork
  3
ObjectDBX Classes
 90
     1025
 91
        0
280
     0
281
     0
  0
CLASS
  1
ACDBASSOCACTION
  2
AcDbAssocAction
  3
ObjectDBX Classes
 90
     1025
 91
        0
280
     0
281
     0
  0
CLASS
  1
ACDBASSOCARRAYACTIONBODY
  2
AcDbAssocArrayActionBody
  3
ObjectDBX Classes
 90
     1025
 91
        0
280
     0
281
     0
  0
CLASS
  1
ACDBASSOCVERTEXACTIONPARAM
  2
AcDbAssocVertexActionParam
  3
ObjectDBX Classes
 90
     1025
 91
        0
280
     0
281
     0
  0
CLASS
  1
ACDBASSOCDEPENDENCY
  2
AcDbAssocDependency
  3
ObjectDBX Classes
 90
     1025
 91
        0
280
     0
281
     0
  0
CLASS
  1
ACDBASSOCARRAYRECTANGULARPARAMETERS
  2
AcDbAssocArrayRectangularParameters
  3
ObjectDBX Classes
 90
     1025
 91
        0
280
     0
281
     0
  0
CLASS
  1
DICTIONARYVAR
  2
AcDbDictionaryVar
  3
ObjectDBX Classes
 90
        0
 91
        9
280
     0
281
     0
  0
CLASS
  1
SORTENTSTABLE
  2
AcDbSortentsTable
  3
ObjectDBX Classes
 90
        0
 91
        1
280
     0
281
     0
  0
CLASS
  1
CELLSTYLEMAP
  2
AcDbCellStyleMap
  3
ObjectDBX Classes
 90
     1152
 91
        1
280
     0
281
     0
  0
ENDSEC
  0
SECTION
  2
TABLES
  0
TABLE
  2
VPORT
  5
2995
330
0
100
AcDbSymbolTable
 70
     1
1001
ACAD
1000
DbSaveVer
1071
      278
  0
VPORT
  5
2A00
330
2995
100
AcDbSymbolTableRecord
100
AcDbViewportTableRecord
  2
*ACTIVE
 70
     0
 10
0.0
 20
0.0
 11
1.0
 21
1.0
 12
168.8666244863073
 22
73.99822871153554
 13
0.0
 23
0.0
 14
1.0
 24
1.0
 15
0.0
 25
0.0
 16
0.0
 26
0.0
 36
1.0
 17
0.0
 27
0.0
 37
0.0
 40
291.5000996961363
 41
1.951690821256038
 42
50.0
 43
0.0
 44
0.0
 50
0.0
 51
0.0
 71
     0
 72
   100
 73
     1
 74
     1
 75
     0
 76
     0
 77
     0
 78
     0
281
     0
 65
     1
110
0.0
120
0.0
130
0.0
111
1.0
121
0.0
131
0.0
112
0.0
122
1.0
132
0.0
 79
     0
146
0.0
348
29BC
 60
     3
 61
     5
292
     1
282
     0
141
0.0
142
0.0
 63
   250
421
  3355443
1001
ACAD_NAV_VCDISPLAY
1070
     3
  0
ENDTAB
  0
TABLE
  2
LTYPE
  5
2992
330
0
100
AcDbSymbolTable
 70
     1
  0
LTYPE
  5
29E7
330
2992
100
AcDbSymbolTableRecord
100
AcDbLinetypeTableRecord
  2
ByBlock
 70
     0
  3

 72
    65
 73
     0
 40
0.0
  0
LTYPE
  5
29E8
330
2992
100
AcDbSymbolTableRecord
100
AcDbLinetypeTableRecord
  2
ByLayer
 70
     0
  3

 72
    65
 73
     0
 40
0.0
  0
LTYPE
  5
29E9
330
2992
100
AcDbSymbolTableRecord
100
AcDbLinetypeTableRecord
  2
CONTINUOUS
 70
     0
  3
Solid line
 72
    65
 73
     0
 40
0.0
  0
ENDTAB
  0
TABLE
  2
LAYER
  5
298F
102
{ACAD_XDICTIONARY
360
2BCC
102
}
330
0
100
AcDbSymbolTable
 70
     1
  0
LAYER
  5
29E1
102
{ACAD_XDICTIONARY
360
2BC7
102
}
330
298F
100
AcDbSymbolTableRecord
100
AcDbLayerTableRecord
  2
0
 70
     0
 62
     7
  6
CONTINUOUS
370
    -3
390
299C
347
29AE
348
0
  0
ENDTAB
  0
TABLE
  2
STYLE
  5
2990
330
0
100
AcDbSymbolTable
 70
     2
  0
STYLE
  5
29E2
330
2990
100
AcDbSymbolTableRecord
100
AcDbTextStyleTableRecord
  2
STANDARD
 70
     0
 40
0.0
 41
1.0
 50
0.0
 71
     0
 42
0.2
  3
txt
  4

  0
STYLE
  5
29E6
330
2990
100
AcDbSymbolTableRecord
100
AcDbTextStyleTableRecord
  2
ANNOTATIVE
 70
     0
 40
0.0
 41
1.0
 50
0.0
 71
     0
 42
0.2
  3
txt
  4

1001
ACADANNOTATIVE
1000
AnnotativeData
1002
{
1070
     1
1070
     1
1002
}
  0
ENDTAB
  0
TABLE
  2
VIEW
  5
2993
330
0
100
AcDbSymbolTable
 70
     2
  0
ENDTAB
  0
TABLE
  2
UCS
  5
2994
330
0
100
AcDbSymbolTable
 70
     0
  0
ENDTAB
  0
TABLE
  2
APPID
  5
2996
330
0
100
AcDbSymbolTable
 70
     6
  0
APPID
  5
29E3
330
2996
100
AcDbSymbolTableRecord
100
AcDbRegAppTableRecord
  2
ACAD
 70
     0
  0
APPID
  5
29EA
330
2996
100
AcDbSymbolTableRecord
100
AcDbRegAppTableRecord
  2
ACADANNOTATIVE
 70
     0
  0
APPID
  5
2A01
330
2996
100
AcDbSymbolTableRecord
100
AcDbRegAppTableRecord
  2
ACAD_NAV_VCDISPLAY
 70
     0
  0
APPID
  5
2A02
330
2996
100
AcDbSymbolTableRecord
100
AcDbRegAppTableRecord
  2
ACAD_EXEMPT_FROM_CAD_STANDARDS
 70
     0
  0
APPID
  5
2A03
330
2996
100
AcDbSymbolTableRecord
100
AcDbRegAppTableRecord
  2
ACDBDYNAMICBLOCKTRUENAME2
 70
     0
  0
APPID
  5
2A04
330
2996
100
AcDbSymbolTableRecord
100
AcDbRegAppTableRecord
  2
ACAD_MLEADERVER
 70
     0
  0
ENDTAB
  0
TABLE
  2
DIMSTYLE
  5
2997
330
0
100
AcDbSymbolTable
 70
     2
100
AcDbDimStyleTable
 71
     0
  0
DIMSTYLE
105
29E4
330
2997
100
AcDbSymbolTableRecord
100
AcDbDimStyleTableRecord
  2
STANDARD
 70
     0
279
     2
340
29E2
  0
DIMSTYLE
105
29E5
330
2997
100
AcDbSymbolTableRecord
100
AcDbDimStyleTableRecord
  2
ANNOTATIVE
 70
     0
279
     2
340
29E2
1001
ACADANNOTATIVE
1000
AnnotativeData
1002
{
1070
     1
1070
     1
1002
}
  0
ENDTAB
  0
TABLE
  2
BLOCK_RECORD
  5
298E
330
0
100
AcDbSymbolTable
 70
    42
  0
BLOCK_RECORD
  5
29FC
102
{ACAD_XDICTIONARY
360
2AB4
102
}
330
298E
100
AcDbSymbolTableRecord
100
AcDbBlockTableRecord
  2
*Model_Space
340
29FF
 70
     0
280
     1
281
     0
  0
BLOCK_RECORD
  5
29F8
330
298E
100
AcDbSymbolTableRecord
100
AcDbBlockTableRecord
  2
*Paper_Space
340
29FB
 70
     0
280
     1
281
     0
  0
BLOCK_RECORD
  5
2A06
330
298E
100
AcDbSymbolTableRecord
100
AcDbBlockTableRecord
  2
$MODEL_SPACE
340
0
 70
     0
280
     1
281
     0
  0
BLOCK_RECORD
  5
2A08
330
298E
100
AcDbSymbolTableRecord
100
AcDbBlockTableRecord
  2
$PAPER_SPACE
340
0
 70
     0
280
     1
281
     0
  0
BLOCK_RECORD
  5
2A84
330
298E
100
AcDbSymbolTableRecord
100
AcDbBlockTableRecord
  2
A$C06EED040
340
0
 70
     0
280
     1
281
     0
  0
BLOCK_RECORD
  5
2A92
330
298E
100
AcDbSymbolTableRecord
100
AcDbBlockTableRecord
  2
*U36
340
0
102
{BLKREFS
331
2BDB
331
2BDC
331
2BDD
331
2BDE
331
2BDF
331
2BE0
331
2BE1
331
2BE2
331
2BE3
331
2BE4
331
2BE5
331
2BE6
331
2BE7
331
2BE8
331
2BE9
331
2BEA
331
2BEB
331
2BEC
331
2BED
331
2BEE
331
2BEF
331
2BF0
331
2BF1
331
2BF2
331
2BF3
331
2BF4
331
2BF5
331
D2C
331
D2D
331
D2E
102
}
 70
     0
280
     1
281
     0
  0
BLOCK_RECORD
  5
2A94
330
298E
100
AcDbSymbolTableRecord
100
AcDbBlockTableRecord
  2
*U37
340
0
102
{BLKREFS
331
2AB2
102
}
 70
     0
280
     1
281
     0
  0
BLOCK_RECORD
  5
2AAB
330
298E
100
AcDbSymbolTableRecord
100
AcDbBlockTableRecord
  2
*U39
340
0
102
{BLKREFS
102
}
 70
     0
280
     1
281
     0
  0
ENDTAB
  0
ENDSEC
  0
SECTION
  2
BLOCKS
  0
BLOCK
  5
29FD
330
29FC
100
AcDbEntity
  8
0
100
AcDbBlockBegin
  2
*Model_Space
 70
     0
 10
0.0
 20
0.0
 30
0.0
  3
*Model_Space
  1

  0
ENDBLK
  5
29FE
330
29FC
100
AcDbEntity
  8
0
100
AcDbBlockEnd
  0
BLOCK
  5
29F9
330
29F8
100
AcDbEntity
 67
     1
  8
0
100
AcDbBlockBegin
  2
*Paper_Space
 70
     0
 10
0.0
 20
0.0
 30
0.0
  3
*Paper_Space
  1

  0
ENDBLK
  5
29FA
330
29F8
100
AcDbEntity
 67
     1
  8
0
100
AcDbBlockEnd
  0
BLOCK
  5
2A07
330
2A06
100
AcDbEntity
  8
0
100
AcDbBlockBegin
  2
$MODEL_SPACE
 70
     0
 10
0.0
 20
0.0
 30
0.0
  3
$MODEL_SPACE
  1

  0
ENDBLK
  5
71
330
2A06
100
AcDbEntity
  8
0
100
AcDbBlockEnd
  0
BLOCK
  5
2A09
330
2A08
100
AcDbEntity
  8
0
100
AcDbBlockBegin
  2
$PAPER_SPACE
 70
     0
 10
0.0
 20
0.0
 30
0.0
  3
$PAPER_SPACE
  1

  0
ENDBLK
  5
6D
330
2A08
100
AcDbEntity
  8
0
100
AcDbBlockEnd
  0
BLOCK
  5
2A85
330
2A84
100
AcDbEntity
  8
0
100
AcDbBlockBegin
  2
A$C06EED040
 70
     0
 10
0.0
 20
0.0
 30
0.0
  3
A$C06EED040
  1

  0
CIRCLE
  5
C36
330
2A84
100
AcDbEntity
  8
0
  6
Continuous
100
AcDbCircle
 10
8.0
 20
8.0
 30
0.0
 40
4.999999999999996
  0
CIRCLE
  5
C37
330
2A84
100
AcDbEntity
  8
0
  6
Continuous
100
AcDbCircle
 10
8.0
 20
8.0
 30
0.0
 40
6.0
  0
CIRCLE
  5
C38
330
2A84
100
AcDbEntity
  8
0
  6
Continuous
100
AcDbCircle
 10
8.0
 20
8.0
 30
0.0
 40
7.0
  0
CIRCLE
  5
C39
330
2A84
100
AcDbEntity
  8
0
  6
Continuous
100
AcDbCircle
 10
8.0
 20
8.0
 30
0.0
 40
8.0
  0
ENDBLK
  5
C3D
330
2A84
100
AcDbEntity
  8
0
100
AcDbBlockEnd
  0
BLOCK
  5
2A93
330
2A92
100
AcDbEntity
  8
0
100
AcDbBlockBegin
  2
*U36
 70
     1
 10
0.0
 20
0.0
 30
0.0
  3
*U36
  1

  0
ARC
  5
D1F
330
2A92
100
AcDbEntity
  8
0
  6
Continuous
100
AcDbCircle
 10
0.2950735716293025
 20
1.363903834108326
 30
0.0
 40
6.460688424464212
100
AcDbArc
 50
98.49941634391489
 51
209.605496669341
  0
ARC
  5
D20
330
2A92
100
AcDbEntity
  8
0
  6
Continuous
100
AcDbCircle
 10
0.6756856928698767
 20
0.5307737553398653
 30
0.0
 40
7.345291404872883
100
AcDbArc
 50
335.9920882011035
 51
100.4756028008992
  0
ARC
  5
D21
330
2A92
100
AcDbEntity
  8
0
  6
Continuous
100
AcDbCircle
 10
-0.4641670103648609
 20
0.5191556880387794
 30
0.0
 40
8.395220848251522
100
AcDbArc
 50
205.8245270984905
 51
339.2313434452473
  0
ENDBLK
  5
D1A
330
2A92
100
AcDbEntity
  8
0
100
AcDbBlockEnd
  0
BLOCK
  5
2A95
330
2A94
100
AcDbEntity
  8
0
100
AcDbBlockBegin
  2
*U37
 70
     1
 10
0.0
 20
0.0
 30
0.0
  3
*U37
  1

  0
INSERT
  5
D2C
330
2A94
100
AcDbEntity
  8
0
  6
ByBlock
 62
     0
100
AcDbBlockReference
  2
*U36
 10
101.7069614632485
 20
84.15925053845937
 30
0.0
  0
INSERT
  5
D2D
330
2A94
100
AcDbEntity
  8
0
  6
ByBlock
 62
     0
100
AcDbBlockReference
  2
*U36
 10
102.5063967099727
 20
85.28242198877533
 30
0.0
 50
120.0
  0
INSERT
  5
D2E
330
2A94
100
AcDbEntity
  8
0
  6
ByBlock
 62
     0
100
AcDbBlockReference
  2
*U36
 10
101.1339840778315
 20
85.41316749596116
 30
0.0
 50
240.0
  0
ENDBLK
  5
D1D
330
2A94
100
AcDbEntity
  8
0
100
AcDbBlockEnd
  0
BLOCK
  5
2AAC
330
2AAB
100
AcDbEntity
  8
0
100
AcDbBlockBegin
  2
*U39
 70
     1
 10
0.0
 20
0.0
 30
0.0
  3
*U39
  1

  0
INSERT
  5
2AB2
330
2AAB
100
AcDbEntity
  8
0
  6
Continuous
100
AcDbBlockReference
  2
*U37
 10
-101.8201903939021
 20
-85.34779474236824
 30
0.0
  0
ENDBLK
  5
2AAD
330
2AAB
100
AcDbEntity
  8
0
100
AcDbBlockEnd
  0
ENDSEC
  0
SECTION
  2
ENTITIES
  0
LWPOLYLINE
  5
7D
330
29FC
100
AcDbEntity
  8
0
 62
     0
100
AcDbPolyline
 90
      454
 70
     1
 43
0.2
 10
36.8004
 20
24.6999
 10
45.19969999999999
 20
24.6999
 10
45.2092
 20
24.6999
 10
45.2409
 20
24.7151
 10
45.2367
 20
24.7385
 10
45.2134
 20
24.7427
 10
45.19969999999999
 20
24.711
 10
45.19969999999999
 20
24.6999
 10
45.19969999999999
 20
21.8006
 10
45.19969999999999
 20
21.784
 10
45.2286
 20
21.7303
 10
45.2822
 20
21.7
 10
45.30019999999999
 20
21.7
 10
51.3002
 20
21.7
 10
51.3168
 20
21.7
 10
51.37039999999999
 20
21.7303
 10
51.3994
 20
21.784
 10
51.3994
 20
21.8006
 10
51.3994
 20
24.6999
 10
51.3994
 20
24.711
 10
51.38419999999999
 20
24.7427
 10
51.3623
 20
24.7385
 10
51.3567
 20
24.7151
 10
51.3884
 20
24.6999
 10
51.3994
 20
24.6999
 10
57.19969999999999
 20
24.6999
 10
57.2093
 20
24.6999
 10
57.24099999999999
 20
24.7151
 10
57.2368
 20
24.7385
 10
57.21350000000001
 20
24.7427
 10
57.19969999999999
 20
24.711
 10
57.19969999999999
 20
24.6999
 10
57.19969999999999
 20
21.8006
 10
57.19969999999999
 20
21.784
 10
57.2287
 20
21.7303
 10
57.28229999999999
 20
21.7
 10
57.3003
 20
21.7
 10
63.3003
 20
21.7
 10
63.3166
 20
21.7
 10
63.3705
 20
21.7303
 10
63.4009
 20
21.784
 10
63.4009
 20
21.8006
 10
63.4009
 20
24.6999
 10
63.4009
 20
24.711
 10
63.3857
 20
24.7427
 10
63.3621
 20
24.7385
 10
63.3582
 20
24.7151
 10
63.38989999999999
 20
24.6999
 10
63.4009
 20
24.6999
 10
71.7998
 20
24.6999
 10
80.20050000000001
 20
24.6999
 10
80.20999999999999
 20
24.6999
 10
80.24179999999999
 20
24.7151
 10
80.23749999999997
 20
24.7385
 10
80.21429999999998
 20
24.7427
 10
80.20050000000001
 20
24.711
 10
80.20050000000001
 20
24.6999
 10
80.20050000000001
 20
21.8006
 10
80.20050000000001
 20
21.784
 10
80.2294
 20
21.7303
 10
80.28159999999997
 20
21.7
 10
80.2996
 20
21.7
 10
86.2997
 20
21.7
 10
86.31629999999999
 20
21.7
 10
86.3699
 20
21.7303
 10
86.40019999999998
 20
21.784
 10
86.40019999999998
 20
21.8006
 10
86.40019999999998
 20
24.6999
 10
86.40019999999998
 20
24.711
 10
86.385
 20
24.7427
 10
86.36180000000001
 20
24.7385
 10
86.35749999999999
 20
24.7151
 10
86.3893
 20
24.6999
 10
86.40019999999998
 20
24.6999
 10
92.20019999999999
 20
24.6999
 10
92.21009999999999
 20
24.6999
 10
92.2419
 20
24.7151
 10
92.2376
 20
24.7385
 10
92.21429999999999
 20
24.7427
 10
92.20019999999999
 20
24.711
 10
92.20019999999999
 20
24.6999
 10
92.20019999999999
 20
21.8006
 10
92.20019999999999
 20
21.784
 10
92.2295
 20
21.7303
 10
92.2817
 20
21.7
 10
92.29969999999999
 20
21.7
 10
98.2998
 20
21.7
 10
98.31600000000001
 20
21.7
 10
98.37000000000001
 20
21.7303
 10
98.4003
 20
21.784
 10
98.4003
 20
21.8006
 10
98.4003
 20
24.6999
 10
98.4003
 20
24.711
 10
98.38509999999999
 20
24.7427
 10
98.36150000000001
 20
24.7385
 10
98.3576
 20
24.7151
 10
98.389
 20
24.6999
 10
98.4003
 20
24.6999
 10
106.799
 20
24.6999
 10
107.293
 20
24.6999
 10
108.774
 20
24.8309
 10
110.707
 20
25.2154
 10
112.575
 20
25.8479
 10
113.923
 20
26.4763
 10
114.35
 20
26.7229
 10
114.563
 20
26.847
 10
115.191
 20
27.248
 10
115.995
 20
27.824
 10
116.757
 20
28.4496
 10
117.476
 20
29.1235
 10
118.15
 20
29.8428
 10
118.776
 20
30.6048
 10
119.352
 20
31.4083
 10
119.753
 20
32.0366
 10
119.877
 20
32.2502
 10
120.124
 20
32.6788
 10
120.752
 20
34.0265
 10
121.384
 20
35.8923
 10
121.769
 20
37.8259
 10
121.9
 20
39.3072
 10
121.9
 20
39.80040000000001
 10
121.9
 20
49.7004
 10
121.9
 20
49.7113
 10
121.885
 20
49.7431
 10
121.863
 20
49.7374
 10
121.857
 20
49.7156
 10
121.889
 20
49.7004
 10
121.9
 20
49.7004
 10
124.801
 20
49.7004
 10
124.817
 20
49.7004
 10
124.871
 20
49.7293
 10
124.9
 20
49.7829
 10
124.9
 20
49.7995
 10
124.9
 20
55.79959999999999
 10
124.9
 20
55.8176
 10
124.871
 20
55.8712
 10
124.817
 20
55.9001
 10
124.801
 20
55.9001
 10
121.9
 20
55.9001
 10
121.889
 20
55.9001
 10
121.857
 20
55.8863
 10
121.863
 20
55.8631
 10
121.885
 20
55.8588
 10
121.9
 20
55.89059999999999
 10
121.9
 20
55.9001
 10
121.9
 20
61.7001
 10
121.9
 20
61.7114
 10
121.885
 20
61.7432
 10
121.863
 20
61.7375
 10
121.857
 20
61.7153
 10
121.889
 20
61.7001
 10
121.9
 20
61.7001
 10
124.801
 20
61.7001
 10
124.817
 20
61.7001
 10
124.871
 20
61.7291
 10
124.9
 20
61.783
 10
124.9
 20
61.7996
 10
124.9
 20
67.7997
 10
124.9
 20
67.8173
 10
124.871
 20
67.87130000000002
 10
124.817
 20
67.9002
 10
124.801
 20
67.9002
 10
121.9
 20
67.9002
 10
121.889
 20
67.9002
 10
121.857
 20
67.8864
 10
121.863
 20
67.86279999999999
 10
121.885
 20
67.85859999999999
 10
121.9
 20
67.8903
 10
121.9
 20
67.9002
 10
121.9
 20
73.70019999999998
 10
121.9
 20
73.71120000000001
 10
121.885
 20
73.74290000000001
 10
121.863
 20
73.7376
 10
121.857
 20
73.7154
 10
121.889
 20
73.70019999999998
 10
121.9
 20
73.70019999999998
 10
124.801
 20
73.70019999999998
 10
124.817
 20
73.70019999999998
 10
124.871
 20
73.7291
 10
124.9
 20
73.78279999999998
 10
124.9
 20
73.79940000000001
 10
124.9
 20
79.7994
 10
124.9
 20
79.81740000000001
 10
124.871
 20
79.87100000000001
 10
124.817
 20
79.8999
 10
124.801
 20
79.8999
 10
121.9
 20
79.8999
 10
121.889
 20
79.8999
 10
121.857
 20
79.8862
 10
121.863
 20
79.86289999999998
 10
121.885
 20
79.8587
 10
121.9
 20
79.8904
 10
121.9
 20
79.8999
 10
121.9
 20
89.79989999999999
 10
121.9
 20
90.29450000000002
 10
121.769
 20
91.7758
 10
121.384
 20
93.7094
 10
120.752
 20
95.57529999999998
 10
120.124
 20
96.92289999999999
 10
119.877
 20
97.3501
 10
119.753
 20
97.56529999999999
 10
119.352
 20
98.19360000000001
 10
118.776
 20
98.99689999999999
 10
118.15
 20
99.75889999999999
 10
117.476
 20
100.478
 10
116.757
 20
101.152
 10
115.995
 20
101.778
 10
115.191
 20
102.354
 10
114.563
 20
102.755
 10
114.35
 20
102.877
 10
113.921
 20
103.125
 10
112.575
 20
103.754
 10
110.707
 20
104.386
 10
108.774
 20
104.771
 10
107.293
 20
104.9
 10
106.799
 20
104.9
 10
98.9005
 20
104.9
 10
98.88930000000001
 20
104.9
 10
98.8579
 20
104.886
 10
98.86169999999999
 20
104.863
 10
98.8854
 20
104.859
 10
98.9005
 20
104.891
 10
98.9005
 20
104.9
 10
98.9005
 20
107.8
 10
98.9005
 20
107.818
 10
98.87019999999999
 20
107.871
 10
98.81619999999999
 20
107.9
 10
98.8
 20
107.9
 10
92.79999999999999
 20
107.9
 10
92.782
 20
107.9
 10
92.7294
 20
107.871
 10
92.70050000000001
 20
107.818
 10
92.70050000000001
 20
107.8
 10
92.70050000000001
 20
104.9
 10
92.70050000000001
 20
104.891
 10
92.71460000000001
 20
104.859
 10
92.73789999999999
 20
104.863
 10
92.7421
 20
104.886
 10
92.71040000000001
 20
104.9
 10
92.70050000000001
 20
104.9
 10
86.90049999999999
 20
104.9
 10
86.8895
 20
104.9
 10
86.85779999999999
 20
104.886
 10
86.86200000000003
 20
104.863
 10
86.8853
 20
104.859
 10
86.90049999999999
 20
104.891
 10
86.90049999999999
 20
104.9
 10
86.90049999999999
 20
107.8
 10
86.90049999999999
 20
107.818
 10
86.87009999999999
 20
107.871
 10
86.81650000000001
 20
107.9
 10
86.7999
 20
107.9
 10
80.7999
 20
107.9
 10
80.78189999999999
 20
107.9
 10
80.72969999999997
 20
107.871
 10
80.70069999999999
 20
107.818
 10
80.70069999999999
 20
107.8
 10
80.70069999999999
 20
104.9
 10
80.70069999999999
 20
104.891
 10
80.7145
 20
104.859
 10
80.73779999999999
 20
104.863
 10
80.74200000000001
 20
104.886
 10
80.7103
 20
104.9
 10
80.70069999999999
 20
104.9
 10
74.9004
 20
104.9
 10
74.88939999999998
 20
104.9
 10
74.85769999999999
 20
104.886
 10
74.8619
 20
104.863
 10
74.88519999999998
 20
104.859
 10
74.9004
 20
104.891
 10
74.9004
 20
104.9
 10
74.9004
 20
107.8
 10
74.9004
 20
107.818
 10
74.87
 20
107.871
 10
74.8164
 20
107.9
 10
74.79980000000001
 20
107.9
 10
68.7998
 20
107.9
 10
68.7821
 20
107.9
 10
68.7282
 20
107.871
 10
68.6992
 20
107.818
 10
68.6992
 20
107.8
 10
68.6992
 20
104.9
 10
68.6992
 20
104.891
 10
68.71300000000001
 20
104.859
 10
68.7366
 20
104.863
 10
68.7405
 20
104.886
 10
68.70910000000001
 20
104.9
 10
68.6992
 20
104.9
 10
62.9006
 20
104.9
 10
62.88969999999999
 20
104.9
 10
62.8579
 20
104.886
 10
62.8618
 20
104.863
 10
62.8855
 20
104.859
 10
62.9006
 20
104.891
 10
62.9006
 20
104.9
 10
62.9006
 20
107.8
 10
62.9006
 20
107.818
 10
62.8703
 20
107.871
 10
62.8167
 20
107.9
 10
62.8001
 20
107.9
 10
56.79999999999999
 20
107.9
 10
56.78209999999999
 20
107.9
 10
56.7284
 20
107.871
 10
56.6995
 20
107.818
 10
56.6995
 20
107.8
 10
56.6995
 20
104.9
 10
56.6995
 20
104.891
 10
56.7133
 20
104.859
 10
56.7365
 20
104.863
 10
56.7408
 20
104.886
 10
56.70899999999999
 20
104.9
 10
56.6995
 20
104.9
 10
50.89909999999999
 20
104.9
 10
50.8882
 20
104.9
 10
50.8564
 20
104.886
 10
50.8621
 20
104.863
 10
50.884
 20
104.859
 10
50.89909999999999
 20
104.891
 10
50.89909999999999
 20
104.9
 10
50.89909999999999
 20
107.8
 10
50.89909999999999
 20
107.818
 10
50.87019999999999
 20
107.871
 10
50.8166
 20
107.9
 10
50.8
 20
107.9
 10
44.79999999999999
 20
107.9
 10
44.782
 20
107.9
 10
44.72979999999998
 20
107.871
 10
44.7008
 20
107.818
 10
44.7008
 20
107.8
 10
44.7008
 20
104.9
 10
44.7008
 20
104.891
 10
44.71459999999999
 20
104.859
 10
44.7379
 20
104.863
 10
44.7421
 20
104.886
 10
44.71029999999999
 20
104.9
 10
44.7008
 20
104.9
 10
36.8004
 20
104.9
 10
36.3058
 20
104.9
 10
34.8244
 20
104.771
 10
32.891
 20
104.386
 10
31.0251
 20
103.754
 10
29.6774
 20
103.124
 10
29.2503
 20
102.877
 10
29.0353
 20
102.754
 10
28.4069
 20
102.354
 10
27.6035
 20
101.778
 10
26.8414
 20
101.152
 10
26.1221
 20
100.478
 10
25.4482
 20
99.75889999999999
 10
24.8226
 20
98.99689999999999
 10
24.2466
 20
98.19360000000001
 10
23.847
 20
97.56529999999999
 10
23.7229
 20
97.3501
 10
23.4763
 20
96.92289999999999
 10
22.8465
 20
95.57529999999998
 10
22.214
 20
93.7094
 10
21.8295
 20
91.7758
 10
21.7
 20
90.29450000000002
 10
21.7
 20
89.79989999999999
 10
21.7
 20
79.8999
 10
21.7
 20
79.8904
 10
21.7138
 20
79.8587
 10
21.7372
 20
79.86289999999998
 10
21.7413
 20
79.8862
 10
21.7096
 20
79.8999
 10
21.7
 20
79.8999
 10
18.7992
 20
79.8999
 10
18.7813
 20
79.8999
 10
18.7289
 20
79.87100000000001
 10
18.7
 20
79.81740000000001
 10
18.7
 20
79.7994
 10
18.7
 20
73.79940000000001
 10
18.7
 20
73.78279999999998
 10
18.7289
 20
73.7291
 10
18.7813
 20
73.70019999999998
 10
18.7992
 20
73.70019999999998
 10
21.7
 20
73.70019999999998
 10
21.7096
 20
73.70019999999998
 10
21.7413
 20
73.7154
 10
21.7372
 20
73.7376
 10
21.7138
 20
73.74290000000001
 10
21.7
 20
73.71120000000001
 10
21.7
 20
73.70019999999998
 10
21.7
 20
67.9002
 10
21.7
 20
67.8903
 10
21.7138
 20
67.85859999999999
 10
21.7372
 20
67.86279999999999
 10
21.7413
 20
67.8864
 10
21.7096
 20
67.9002
 10
21.7
 20
67.9002
 10
18.7992
 20
67.9002
 10
18.7813
 20
67.9002
 10
18.7289
 20
67.87130000000002
 10
18.7
 20
67.8173
 10
18.7
 20
67.7997
 10
18.7
 20
61.7996
 10
18.7
 20
61.783
 10
18.7289
 20
61.7291
 10
18.7813
 20
61.7001
 10
18.7992
 20
61.7001
 10
21.7
 20
61.7001
 10
21.7096
 20
61.7001
 10
21.7413
 20
61.7153
 10
21.7372
 20
61.7375
 10
21.7138
 20
61.7432
 10
21.7
 20
61.7114
 10
21.7
 20
61.7001
 10
21.7
 20
55.9001
 10
21.7
 20
55.89059999999999
 10
21.7138
 20
55.8588
 10
21.7372
 20
55.8631
 10
21.7413
 20
55.8863
 10
21.7096
 20
55.9001
 10
21.7
 20
55.9001
 10
18.7992
 20
55.9001
 10
18.7813
 20
55.9001
 10
18.7289
 20
55.8712
 10
18.7
 20
55.8176
 10
18.7
 20
55.79959999999999
 10
18.7
 20
49.7995
 10
18.7
 20
49.7829
 10
18.7289
 20
49.7293
 10
18.7813
 20
49.7004
 10
18.7992
 20
49.7004
 10
21.7
 20
49.7004
 10
21.7096
 20
49.7004
 10
21.7413
 20
49.7156
 10
21.7372
 20
49.7374
 10
21.7138
 20
49.7431
 10
21.7
 20
49.7113
 10
21.7
 20
49.7004
 10
21.7
 20
39.80040000000001
 10
21.7
 20
39.3072
 10
21.8295
 20
37.8259
 10
22.214
 20
35.8923
 10
22.8465
 20
34.0265
 10
23.4749
 20
32.6788
 10
23.7229
 20
32.2502
 10
23.8456
 20
32.0366
 10
24.2466
 20
31.4083
 10
24.8226
 20
30.6048
 10
25.4482
 20
29.8428
 10
26.1221
 20
29.1235
 10
26.8414
 20
28.4496
 10
27.6035
 20
27.824
 10
28.4069
 20
27.248
 10
29.0353
 20
26.847
 10
29.2503
 20
26.7229
 10
29.6774
 20
26.4763
 10
31.0251
 20
25.8479
 10
32.891
 20
25.2154
 10
34.8244
 20
24.8309
 10
36.3058
 20
24.6999
 10
36.8004
 20
24.6999
  0
LWPOLYLINE
  5
245
330
29FC
100
AcDbEntity
  8
0
 62
     0
100
AcDbPolyline
 90
      454
 70
     1
 43
0.2
 10
144.5
 20
24.6999
 10
152.9
 20
24.6999
 10
152.91
 20
24.6999
 10
152.942
 20
24.7151
 10
152.937
 20
24.7385
 10
152.914
 20
24.7427
 10
152.9
 20
24.711
 10
152.9
 20
24.6999
 10
152.9
 20
21.8006
 10
152.9
 20
21.784
 10
152.929
 20
21.7303
 10
152.981
 20
21.7
 10
152.999
 20
21.7
 10
159.001
 20
21.7
 10
159.017
 20
21.7
 10
159.07
 20
21.7303
 10
159.1
 20
21.784
 10
159.1
 20
21.8006
 10
159.1
 20
24.6999
 10
159.1
 20
24.711
 10
159.085
 20
24.7427
 10
159.063
 20
24.7385
 10
159.057
 20
24.7151
 10
159.089
 20
24.6999
 10
159.1
 20
24.6999
 10
164.9
 20
24.6999
 10
164.91
 20
24.6999
 10
164.942
 20
24.7151
 10
164.937
 20
24.7385
 10
164.914
 20
24.7427
 10
164.9
 20
24.711
 10
164.9
 20
24.6999
 10
164.9
 20
21.8006
 10
164.9
 20
21.784
 10
164.929
 20
21.7303
 10
164.983
 20
21.7
 10
165.0009999999998
 20
21.7
 10
171.0
 20
21.7
 10
171.016
 20
21.7
 10
171.07
 20
21.7303
 10
171.1
 20
21.784
 10
171.1
 20
21.8006
 10
171.1
 20
24.6999
 10
171.1
 20
24.711
 10
171.085
 20
24.7427
 10
171.0609999999998
 20
24.7385
 10
171.057
 20
24.7151
 10
171.089
 20
24.6999
 10
171.1
 20
24.6999
 10
179.5
 20
24.6999
 10
187.9
 20
24.6999
 10
187.909
 20
24.6999
 10
187.941
 20
24.7151
 10
187.937
 20
24.7385
 10
187.913
 20
24.7427
 10
187.9
 20
24.711
 10
187.9
 20
24.6999
 10
187.9
 20
21.8006
 10
187.9
 20
21.784
 10
187.929
 20
21.7303
 10
187.982
 20
21.7
 10
188.0
 20
21.7
 10
194.0
 20
21.7
 10
194.017
 20
21.7
 10
194.07
 20
21.7303
 10
194.099
 20
21.784
 10
194.099
 20
21.8006
 10
194.099
 20
24.6999
 10
194.099
 20
24.711
 10
194.084
 20
24.7427
 10
194.062
 20
24.7385
 10
194.057
 20
24.7151
 10
194.088
 20
24.6999
 10
194.099
 20
24.6999
 10
199.9
 20
24.6999
 10
199.909
 20
24.6999
 10
199.9409999999998
 20
24.7151
 10
199.937
 20
24.7385
 10
199.914
 20
24.7427
 10
199.9
 20
24.711
 10
199.9
 20
24.6999
 10
199.9
 20
21.8006
 10
199.9
 20
21.784
 10
199.929
 20
21.7303
 10
199.982
 20
21.7
 10
200.0
 20
21.7
 10
206.0
 20
21.7
 10
206.017
 20
21.7
 10
206.071
 20
21.7303
 10
206.099
 20
21.784
 10
206.099
 20
21.8006
 10
206.099
 20
24.6999
 10
206.099
 20
24.711
 10
206.084
 20
24.7427
 10
206.062
 20
24.7385
 10
206.057
 20
24.7151
 10
206.089
 20
24.6999
 10
206.099
 20
24.6999
 10
214.5
 20
24.6999
 10
214.993
 20
24.6999
 10
216.475
 20
24.8309
 10
218.408
 20
25.2154
 10
220.274
 20
25.8479
 10
221.622
 20
26.4763
 10
222.05
 20
26.7229
 10
222.264
 20
26.847
 10
222.892
 20
27.248
 10
223.696
 20
27.824
 10
224.458
 20
28.4496
 10
225.177
 20
29.1235
 10
225.851
 20
29.8428
 10
226.476
 20
30.6048
 10
227.052
 20
31.4083
 10
227.453
 20
32.0366
 10
227.578
 20
32.2502
 10
227.824
 20
32.6788
 10
228.451
 20
34.0265
 10
229.085
 20
35.8923
 10
229.47
 20
37.8259
 10
229.6
 20
39.3072
 10
229.6
 20
39.80040000000001
 10
229.6
 20
49.7004
 10
229.6
 20
49.7113
 10
229.585
 20
49.7431
 10
229.562
 20
49.7374
 10
229.558
 20
49.7156
 10
229.59
 20
49.7004
 10
229.6
 20
49.7004
 10
232.5
 20
49.7004
 10
232.517
 20
49.7004
 10
232.57
 20
49.7293
 10
232.601
 20
49.7829
 10
232.601
 20
49.7995
 10
232.601
 20
55.79959999999999
 10
232.601
 20
55.8176
 10
232.57
 20
55.8712
 10
232.517
 20
55.9001
 10
232.5
 20
55.9001
 10
229.6
 20
55.9001
 10
229.59
 20
55.9001
 10
229.558
 20
55.8863
 10
229.562
 20
55.8631
 10
229.585
 20
55.8588
 10
229.6
 20
55.89059999999999
 10
229.6
 20
55.9001
 10
229.6
 20
61.7001
 10
229.6
 20
61.7114
 10
229.585
 20
61.7432
 10
229.562
 20
61.7375
 10
229.558
 20
61.7153
 10
229.59
 20
61.7001
 10
229.6
 20
61.7001
 10
232.5
 20
61.7001
 10
232.517
 20
61.7001
 10
232.57
 20
61.7291
 10
232.601
 20
61.783
 10
232.601
 20
61.7996
 10
232.601
 20
67.7997
 10
232.601
 20
67.8173
 10
232.57
 20
67.87130000000002
 10
232.517
 20
67.9002
 10
232.5
 20
67.9002
 10
229.6
 20
67.9002
 10
229.59
 20
67.9002
 10
229.558
 20
67.8864
 10
229.562
 20
67.86279999999999
 10
229.585
 20
67.85859999999999
 10
229.6
 20
67.8903
 10
229.6
 20
67.9002
 10
229.6
 20
73.70019999999998
 10
229.6
 20
73.71120000000001
 10
229.585
 20
73.74290000000001
 10
229.562
 20
73.7376
 10
229.558
 20
73.7154
 10
229.59
 20
73.70019999999998
 10
229.6
 20
73.70019999999998
 10
232.5
 20
73.70019999999998
 10
232.517
 20
73.70019999999998
 10
232.57
 20
73.7291
 10
232.601
 20
73.78279999999998
 10
232.601
 20
73.79940000000001
 10
232.601
 20
79.7994
 10
232.601
 20
79.81740000000001
 10
232.57
 20
79.87100000000001
 10
232.517
 20
79.8999
 10
232.5
 20
79.8999
 10
229.6
 20
79.8999
 10
229.59
 20
79.8999
 10
229.558
 20
79.8862
 10
229.562
 20
79.86289999999998
 10
229.585
 20
79.8587
 10
229.6
 20
79.8904
 10
229.6
 20
79.8999
 10
229.6
 20
89.79989999999999
 10
229.6
 20
90.29450000000002
 10
229.47
 20
91.7758
 10
229.085
 20
93.7094
 10
228.451
 20
95.57529999999998
 10
227.823
 20
96.92289999999999
 10
227.578
 20
97.3501
 10
227.453
 20
97.56529999999999
 10
227.052
 20
98.19360000000001
 10
226.476
 20
98.99689999999999
 10
225.851
 20
99.75889999999999
 10
225.177
 20
100.478
 10
224.458
 20
101.152
 10
223.696
 20
101.778
 10
222.892
 20
102.354
 10
222.264
 20
102.755
 10
222.05
 20
102.877
 10
221.622
 20
103.125
 10
220.274
 20
103.754
 10
218.408
 20
104.386
 10
216.475
 20
104.771
 10
214.993
 20
104.9
 10
214.5
 20
104.9
 10
206.6
 20
104.9
 10
206.588
 20
104.9
 10
206.557
 20
104.886
 10
206.562
 20
104.863
 10
206.585
 20
104.859
 10
206.6
 20
104.891
 10
206.6
 20
104.9
 10
206.6
 20
107.8
 10
206.6
 20
107.818
 10
206.571
 20
107.871
 10
206.517
 20
107.9
 10
206.5
 20
107.9
 10
200.501
 20
107.9
 10
200.483
 20
107.9
 10
200.429
 20
107.871
 10
200.4
 20
107.818
 10
200.4
 20
107.8
 10
200.4
 20
104.9
 10
200.4
 20
104.891
 10
200.414
 20
104.859
 10
200.437
 20
104.863
 10
200.441
 20
104.886
 10
200.41
 20
104.9
 10
200.4
 20
104.9
 10
194.6
 20
104.9
 10
194.589
 20
104.9
 10
194.557
 20
104.886
 10
194.563
 20
104.863
 10
194.584
 20
104.859
 10
194.6
 20
104.891
 10
194.6
 20
104.9
 10
194.6
 20
107.8
 10
194.6
 20
107.818
 10
194.571
 20
107.871
 10
194.517
 20
107.9
 10
194.501
 20
107.9
 10
188.5
 20
107.9
 10
188.482
 20
107.9
 10
188.429
 20
107.871
 10
188.4
 20
107.818
 10
188.4
 20
107.8
 10
188.4
 20
104.9
 10
188.4
 20
104.891
 10
188.414
 20
104.859
 10
188.437
 20
104.863
 10
188.4409999999998
 20
104.886
 10
188.409
 20
104.9
 10
188.4
 20
104.9
 10
182.6
 20
104.9
 10
182.589
 20
104.9
 10
182.557
 20
104.886
 10
182.563
 20
104.863
 10
182.585
 20
104.859
 10
182.6
 20
104.891
 10
182.6
 20
104.9
 10
182.6
 20
107.8
 10
182.6
 20
107.818
 10
182.571
 20
107.871
 10
182.517
 20
107.9
 10
182.5
 20
107.9
 10
176.5
 20
107.9
 10
176.483
 20
107.9
 10
176.429
 20
107.871
 10
176.4
 20
107.818
 10
176.4
 20
107.8
 10
176.4
 20
104.9
 10
176.4
 20
104.891
 10
176.414
 20
104.859
 10
176.437
 20
104.863
 10
176.4409999999998
 20
104.886
 10
176.41
 20
104.9
 10
176.4
 20
104.9
 10
170.6
 20
104.9
 10
170.589
 20
104.9
 10
170.5569999999999
 20
104.886
 10
170.562
 20
104.863
 10
170.585
 20
104.859
 10
170.6
 20
104.891
 10
170.6
 20
104.9
 10
170.6
 20
107.8
 10
170.6
 20
107.818
 10
170.571
 20
107.871
 10
170.517
 20
107.9
 10
170.5009999999998
 20
107.9
 10
164.501
 20
107.9
 10
164.483
 20
107.9
 10
164.429
 20
107.871
 10
164.4
 20
107.818
 10
164.4
 20
107.8
 10
164.4
 20
104.9
 10
164.4
 20
104.891
 10
164.414
 20
104.859
 10
164.437
 20
104.863
 10
164.4409999999998
 20
104.886
 10
164.41
 20
104.9
 10
164.4
 20
104.9
 10
158.6
 20
104.9
 10
158.589
 20
104.9
 10
158.557
 20
104.886
 10
158.561
 20
104.863
 10
158.585
 20
104.859
 10
158.6
 20
104.891
 10
158.6
 20
104.9
 10
158.6
 20
107.8
 10
158.6
 20
107.818
 10
158.569
 20
107.871
 10
158.516
 20
107.9
 10
158.499
 20
107.9
 10
152.499
 20
107.9
 10
152.481
 20
107.9
 10
152.429
 20
107.871
 10
152.4
 20
107.818
 10
152.4
 20
107.8
 10
152.4
 20
104.9
 10
152.4
 20
104.891
 10
152.414
 20
104.859
 10
152.437
 20
104.863
 10
152.441
 20
104.886
 10
152.41
 20
104.9
 10
152.4
 20
104.9
 10
144.5
 20
104.9
 10
144.005
 20
104.9
 10
142.524
 20
104.771
 10
140.591
 20
104.386
 10
138.724
 20
103.754
 10
137.377
 20
103.124
 10
136.949
 20
102.877
 10
136.735
 20
102.755
 10
136.107
 20
102.354
 10
135.304
 20
101.778
 10
134.541
 20
101.152
 10
133.823
 20
100.478
 10
133.149
 20
99.75889999999999
 10
132.522
 20
98.99689999999999
 10
131.946
 20
98.19360000000001
 10
131.546
 20
97.56529999999999
 10
131.423
 20
97.3501
 10
131.177
 20
96.92289999999999
 10
130.547
 20
95.57529999999998
 10
129.915
 20
93.7094
 10
129.53
 20
91.7758
 10
129.401
 20
90.29450000000002
 10
129.401
 20
89.79989999999999
 10
129.401
 20
79.8999
 10
129.401
 20
79.8904
 10
129.414
 20
79.8587
 10
129.438
 20
79.86289999999998
 10
129.442
 20
79.8862
 10
129.41
 20
79.8999
 10
129.401
 20
79.8999
 10
126.5
 20
79.8999
 10
126.482
 20
79.8999
 10
126.43
 20
79.87100000000001
 10
126.401
 20
79.81740000000001
 10
126.401
 20
79.7994
 10
126.401
 20
73.79940000000001
 10
126.401
 20
73.78279999999998
 10
126.43
 20
73.7291
 10
126.482
 20
73.70019999999998
 10
126.5
 20
73.70019999999998
 10
129.401
 20
73.70019999999998
 10
129.41
 20
73.70019999999998
 10
129.442
 20
73.7154
 10
129.438
 20
73.7376
 10
129.414
 20
73.74290000000001
 10
129.401
 20
73.71120000000001
 10
129.401
 20
73.70019999999998
 10
129.401
 20
67.9002
 10
129.401
 20
67.8903
 10
129.414
 20
67.85859999999999
 10
129.438
 20
67.86279999999999
 10
129.442
 20
67.8864
 10
129.41
 20
67.9002
 10
129.401
 20
67.9002
 10
126.5
 20
67.9002
 10
126.482
 20
67.9002
 10
126.43
 20
67.87130000000002
 10
126.401
 20
67.8173
 10
126.401
 20
67.7997
 10
126.401
 20
61.7996
 10
126.401
 20
61.783
 10
126.43
 20
61.7291
 10
126.482
 20
61.7001
 10
126.5
 20
61.7001
 10
129.401
 20
61.7001
 10
129.41
 20
61.7001
 10
129.442
 20
61.7153
 10
129.438
 20
61.7375
 10
129.414
 20
61.7432
 10
129.401
 20
61.7114
 10
129.401
 20
61.7001
 10
129.401
 20
55.9001
 10
129.401
 20
55.89059999999999
 10
129.414
 20
55.8588
 10
129.438
 20
55.8631
 10
129.442
 20
55.8863
 10
129.41
 20
55.9001
 10
129.401
 20
55.9001
 10
126.5
 20
55.9001
 10
126.482
 20
55.9001
 10
126.43
 20
55.8712
 10
126.401
 20
55.8176
 10
126.401
 20
55.79959999999999
 10
126.401
 20
49.7995
 10
126.401
 20
49.7829
 10
126.43
 20
49.7293
 10
126.482
 20
49.7004
 10
126.5
 20
49.7004
 10
129.401
 20
49.7004
 10
129.41
 20
49.7004
 10
129.442
 20
49.7156
 10
129.438
 20
49.7374
 10
129.414
 20
49.7431
 10
129.401
 20
49.7113
 10
129.401
 20
49.7004
 10
129.401
 20
39.80040000000001
 10
129.401
 20
39.3072
 10
129.53
 20
37.8259
 10
129.915
 20
35.8923
 10
130.547
 20
34.0265
 10
131.175
 20
32.6788
 10
131.423
 20
32.2502
 10
131.546
 20
32.0366
 10
131.946
 20
31.4083
 10
132.522
 20
30.6048
 10
133.149
 20
29.8428
 10
133.823
 20
29.1235
 10
134.541
 20
28.4496
 10
135.304
 20
27.824
 10
136.107
 20
27.248
 10
136.735
 20
26.847
 10
136.949
 20
26.7229
 10
137.377
 20
26.4763
 10
138.724
 20
25.8479
 10
140.591
 20
25.2154
 10
142.524
 20
24.8309
 10
144.005
 20
24.6999
 10
144.5
 20
24.6999
  0
CIRCLE
  5
2ADC
330
29FC
100
AcDbEntity
  8
0
  6
Continuous
 62
   240
420
 15540004
100
AcDbCircle
 10
36.54768491686339
 20
41.49603701435118
 30
0.0
 40
4.0
  0
CIRCLE
  5
2ADD
330
29FC
100
AcDbEntity
  8
0
  6
Continuous
 62
   240
420
 15540004
100
AcDbCircle
 10
36.54768491686339
 20
62.29956779736824
 30
0.0
 40
1.005083673754029
  0
CIRCLE
  5
2AE5
330
29FC
100
AcDbEntity
  8
0
  6
Continuous
 62
     1
100
AcDbCircle
 10
136.5
 20
97.54965
 30
0.0
 40
1.5
  0
CIRCLE
  5
2AE6
330
29FC
100
AcDbEntity
  8
0
  6
Continuous
 62
     1
100
AcDbCircle
 10
222.5
 20
97.54965
 30
0.0
 40
1.5
  0
CIRCLE
  5
2AE7
330
29FC
100
AcDbEntity
  8
0
  6
Continuous
 62
     1
100
AcDbCircle
 10
222.5
 20
32.04965
 30
0.0
 40
1.5
  0
CIRCLE
  5
2AE8
330
29FC
100
AcDbEntity
  8
0
  6
Continuous
 62
     1
100
AcDbCircle
 10
136.5
 20
32.04965
 30
0.0
 40
1.5
  0
LINE
  5
2BB0
330
29FC
100
AcDbEntity
  8
0
  6
Continuous
 62
   240
420
 15540004
100
AcDbLine
 10
147.435
 20
130.2580283001901
 30
0.0
 11
147.435
 21
126.2580283001901
 31
0.0
  0
LINE
  5
2BB1
330
29FC
100
AcDbEntity
  8
0
  6
Continuous
 62
   240
420
 15540004
100
AcDbLine
 10
148.435
 20
125.2580283001901
 30
0.0
 11
156.435
 21
125.2580283001901
 31
0.0
  0
LINE
  5
2BB2
330
29FC
100
AcDbEntity
  8
0
  6
Continuous
 62
   240
420
 15540004
100
AcDbLine
 10
157.435
 20
126.2580283001901
 30
0.0
 11
157.435
 21
130.2580283001901
 31
0.0
  0
LINE
  5
2BB3
330
29FC
100
AcDbEntity
  8
0
  6
Continuous
 62
   240
420
 15540004
100
AcDbLine
 10
156.435
 20
131.2580283001901
 30
0.0
 11
148.435
 21
131.2580283001901
 31
0.0
  0
ARC
  5
2BC2
330
29FC
100
AcDbEntity
  8
0
  6
Continuous
 62
   240
420
 15540004
100
AcDbCircle
 10
148.435
 20
130.2580283001901
 30
0.0
 40
1.0
100
AcDbArc
 50
90.0
 51
180.0000000000002
  0
ARC
  5
2BC4
330
29FC
100
AcDbEntity
  8
0
  6
Continuous
 62
   240
420
 15540004
100
AcDbCircle
 10
156.435
 20
130.2580283001901
 30
0.0
 40
1.0
100
AcDbArc
 50
0.0
 51
90.0
  0
ARC
  5
2BC5
330
29FC
100
AcDbEntity
  8
0
  6
Continuous
 62
   240
420
 15540004
100
AcDbCircle
 10
156.435
 20
126.2580283001901
 30
0.0
 40
1.0
100
AcDbArc
 50
270.0
 51
0.0
  0
ARC
  5
2BC6
330
29FC
100
AcDbEntity
  8
0
  6
Continuous
 62
   240
420
 15540004
100
AcDbCircle
 10
148.435
 20
126.2580283001901
 30
0.0
 40
1.0
100
AcDbArc
 50
180.0000000000002
 51
270.0
  0
INSERT
  5
2BDB
330
29FC
100
AcDbEntity
  8
0
  6
ByBlock
 62
     1
100
AcDbBlockReference
  2
*U36
 10
54.97146269858561
 20
40.69341900050089
 30
0.0
  0
INSERT
  5
2BDC
330
29FC
100
AcDbEntity
  8
0
  6
ByBlock
 62
     1
100
AcDbBlockReference
  2
*U36
 10
55.77089794530981
 20
41.81659045081683
 30
0.0
 50
120.0
  0
INSERT
  5
2BDD
330
29FC
100
AcDbEntity
  8
0
  6
ByBlock
 62
     1
100
AcDbBlockReference
  2
*U36
 10
54.39848531316861
 20
41.94733595800268
 30
0.0
 50
239.9999999999999
  0
INSERT
  5
2BDE
330
29FC
100
AcDbEntity
  8
0
  6
ByBlock
 62
     1
100
AcDbBlockReference
  2
*U36
 10
54.97146269858561
 20
63.39341900050088
 30
0.0
  0
INSERT
  5
2BDF
330
29FC
100
AcDbEntity
  8
0
  6
ByBlock
 62
     1
100
AcDbBlockReference
  2
*U36
 10
55.77089794530981
 20
64.51659045081683
 30
0.0
 50
120.0
  0
INSERT
  5
2BE0
330
29FC
100
AcDbEntity
  8
0
  6
ByBlock
 62
     1
100
AcDbBlockReference
  2
*U36
 10
54.39848531316861
 20
64.64733595800267
 30
0.0
 50
239.9999999999999
  0
INSERT
  5
2BE1
330
29FC
100
AcDbEntity
  8
0
  6
ByBlock
 62
     1
100
AcDbBlockReference
  2
*U36
 10
54.97146269858561
 20
86.09341900050088
 30
0.0
  0
INSERT
  5
2BE2
330
29FC
100
AcDbEntity
  8
0
  6
ByBlock
 62
     1
100
AcDbBlockReference
  2
*U36
 10
55.77089794530981
 20
87.21659045081684
 30
0.0
 50
120.0
  0
INSERT
  5
2BE3
330
29FC
100
AcDbEntity
  8
0
  6
ByBlock
 62
     1
100
AcDbBlockReference
  2
*U36
 10
54.39848531316861
 20
87.34733595800268
 30
0.0
 50
239.9999999999999
  0
INSERT
  5
2BE4
330
29FC
100
AcDbEntity
  8
0
  6
ByBlock
 62
     1
100
AcDbBlockReference
  2
*U36
 10
79.97146269858561
 20
40.69341900050089
 30
0.0
  0
INSERT
  5
2BE5
330
29FC
100
AcDbEntity
  8
0
  6
ByBlock
 62
     1
100
AcDbBlockReference
  2
*U36
 10
80.77089794530982
 20
41.81659045081683
 30
0.0
 50
120.0
  0
INSERT
  5
2BE6
330
29FC
100
AcDbEntity
  8
0
  6
ByBlock
 62
     1
100
AcDbBlockReference
  2
*U36
 10
79.39848531316861
 20
41.94733595800268
 30
0.0
 50
239.9999999999999
  0
INSERT
  5
2BE7
330
29FC
100
AcDbEntity
  8
0
  6
ByBlock
 62
     1
100
AcDbBlockReference
  2
*U36
 10
79.97146269858561
 20
63.39341900050088
 30
0.0
  0
INSERT
  5
2BE8
330
29FC
100
AcDbEntity
  8
0
  6
ByBlock
 62
     1
100
AcDbBlockReference
  2
*U36
 10
80.77089794530982
 20
64.51659045081683
 30
0.0
 50
120.0
  0
INSERT
  5
2BE9
330
29FC
100
AcDbEntity
  8
0
  6
ByBlock
 62
     1
100
AcDbBlockReference
  2
*U36
 10
79.39848531316861
 20
64.64733595800267
 30
0.0
 50
239.9999999999999
  0
INSERT
  5
2BEA
330
29FC
100
AcDbEntity
  8
0
  6
ByBlock
 62
     1
100
AcDbBlockReference
  2
*U36
 10
79.97146269858561
 20
86.09341900050088
 30
0.0
  0
INSERT
  5
2BEB
330
29FC
100
AcDbEntity
  8
0
  6
ByBlock
 62
     1
100
AcDbBlockReference
  2
*U36
 10
80.77089794530982
 20
87.21659045081684
 30
0.0
 50
120.0
  0
INSERT
  5
2BEC
330
29FC
100
AcDbEntity
  8
0
  6
ByBlock
 62
     1
100
AcDbBlockReference
  2
*U36
 10
79.39848531316861
 20
87.34733595800268
 30
0.0
 50
239.9999999999999
  0
INSERT
  5
2BED
330
29FC
100
AcDbEntity
  8
0
  6
ByBlock
 62
     1
100
AcDbBlockReference
  2
*U36
 10
104.9714626985856
 20
40.69341900050089
 30
0.0
  0
INSERT
  5
2BEE
330
29FC
100
AcDbEntity
  8
0
  6
ByBlock
 62
     1
100
AcDbBlockReference
  2
*U36
 10
105.7708979453098
 20
41.81659045081683
 30
0.0
 50
120.0
  0
INSERT
  5
2BEF
330
29FC
100
AcDbEntity
  8
0
  6
ByBlock
 62
     1
100
AcDbBlockReference
  2
*U36
 10
104.3984853131686
 20
41.94733595800268
 30
0.0
 50
239.9999999999999
  0
INSERT
  5
2BF0
330
29FC
100
AcDbEntity
  8
0
  6
ByBlock
 62
     1
100
AcDbBlockReference
  2
*U36
 10
104.9714626985856
 20
63.39341900050088
 30
0.0
  0
INSERT
  5
2BF1
330
29FC
100
AcDbEntity
  8
0
  6
ByBlock
 62
     1
100
AcDbBlockReference
  2
*U36
 10
105.7708979453098
 20
64.51659045081683
 30
0.0
 50
120.0
  0
INSERT
  5
2BF2
330
29FC
100
AcDbEntity
  8
0
  6
ByBlock
 62
     1
100
AcDbBlockReference
  2
*U36
 10
104.3984853131686
 20
64.64733595800267
 30
0.0
 50
239.9999999999999
  0
INSERT
  5
2BF3
330
29FC
100
AcDbEntity
  8
0
  6
ByBlock
 62
     1
100
AcDbBlockReference
  2
*U36
 10
104.9714626985856
 20
86.09341900050088
 30
0.0
  0
INSERT
  5
2BF4
330
29FC
100
AcDbEntity
  8
0
  6
ByBlock
 62
     1
100
AcDbBlockReference
  2
*U36
 10
105.7708979453098
 20
87.21659045081684
 30
0.0
 50
120.0
  0
INSERT
  5
2BF5
330
29FC
100
AcDbEntity
  8
0
  6
ByBlock
 62
     1
100
AcDbBlockReference
  2
*U36
 10
104.3984853131686
 20
87.34733595800268
 30
0.0
 50
239.9999999999999
  0
LWPOLYLINE
  5
2C3E
330
29FC
100
AcDbEntity
  8
0
 62
     0
100
AcDbPolyline
 90
      893
 70
     1
 43
0.2
 10
18.7992
 20
108.6593265115855
 10
27.3003
 20
108.6593265115855
 10
27.3169
 20
108.6593265115855
 10
27.3706
 20
108.6893265115855
 10
27.3995
 20
108.7433265115855
 10
27.3995
 20
108.7593265115855
 10
27.3995
 20
111.6593265115855
 10
27.3995
 20
111.6703265115855
 10
27.3844
 20
111.7013265115855
 10
27.3623
 20
111.6973265115855
 10
27.3568
 20
111.6743265115855
 10
27.3885
 20
111.6593265115855
 10
27.3995
 20
111.6593265115855
 10
33.19970000000001
 20
111.6593265115855
 10
33.2093
 20
111.6593265115855
 10
33.24110000000001
 20
111.6743265115855
 10
33.23690000000001
 20
111.6973265115855
 10
33.21350000000001
 20
111.7013265115855
 10
33.19970000000001
 20
111.6703265115855
 10
33.19970000000001
 20
111.6593265115855
 10
33.19970000000001
 20
108.7593265115855
 10
33.19970000000001
 20
108.7433265115855
 10
33.2286
 20
108.6893265115855
 10
33.28240000000001
 20
108.6593265115855
 10
33.30030000000001
 20
108.6593265115855
 10
39.30020000000001
 20
108.6593265115855
 10
39.3167
 20
108.6593265115855
 10
39.3707
 20
108.6893265115855
 10
39.39960000000001
 20
108.7433265115855
 10
39.39960000000001
 20
108.7593265115855
 10
39.39960000000001
 20
111.6593265115855
 10
39.39960000000001
 20
111.6703265115855
 10
39.3845
 20
111.7013265115855
 10
39.3622
 20
111.6973265115855
 10
39.35690000000001
 20
111.6743265115855
 10
39.3883
 20
111.6593265115855
 10
39.39960000000001
 20
111.6593265115855
 10
45.19969999999999
 20
111.6593265115855
 10
45.20920000000001
 20
111.6593265115855
 10
45.24090000000001
 20
111.6743265115855
 10
45.2367
 20
111.6973265115855
 10
45.21340000000001
 20
111.7013265115855
 10
45.19969999999999
 20
111.6703265115855
 10
45.19969999999999
 20
111.6593265115855
 10
45.19969999999999
 20
108.7593265115855
 10
45.19969999999999
 20
108.7433265115855
 10
45.2286
 20
108.6893265115855
 10
45.2822
 20
108.6593265115855
 10
45.3002
 20
108.6593265115855
 10
53.79999999999999
 20
108.6593265115855
 10
76.3887
 20
108.6593265115855
 10
86.3893
 20
108.6593265115855
 10
86.40590000000001
 20
108.6593265115855
 10
86.4595
 20
108.6893265115855
 10
86.48979999999999
 20
108.7433265115855
 10
86.48979999999999
 20
108.7593265115855
 10
86.48979999999999
 20
111.6593265115855
 10
86.48979999999999
 20
111.6703265115855
 10
86.4747
 20
111.7013265115855
 10
86.45140000000001
 20
111.6973265115855
 10
86.44710000000001
 20
111.6743265115855
 10
86.47889999999998
 20
111.6593265115855
 10
86.48979999999999
 20
111.6593265115855
 10
92.28979999999998
 20
111.6593265115855
 10
92.29969999999999
 20
111.6593265115855
 10
92.3315
 20
111.6743265115855
 10
92.3272
 20
111.6973265115855
 10
92.30360000000001
 20
111.7013265115855
 10
92.28979999999998
 20
111.6703265115855
 10
92.28979999999998
 20
111.6593265115855
 10
92.28979999999998
 20
108.7593265115855
 10
92.28979999999998
 20
108.7433265115855
 10
92.3188
 20
108.6893265115855
 10
92.3713
 20
108.6593265115855
 10
92.38930000000001
 20
108.6593265115855
 10
98.389
 20
108.6593265115855
 10
98.40560000000001
 20
108.6593265115855
 10
98.45959999999999
 20
108.6893265115855
 10
98.4899
 20
108.7433265115855
 10
98.4899
 20
108.7593265115855
 10
98.4899
 20
111.6593265115855
 10
98.4899
 20
111.6703265115855
 10
98.47470000000001
 20
111.7013265115855
 10
98.4511
 20
111.6973265115855
 10
98.4472
 20
111.6743265115855
 10
98.4786
 20
111.6593265115855
 10
98.4899
 20
111.6593265115855
 10
104.29
 20
111.6593265115855
 10
104.299
 20
111.6593265115855
 10
104.331
 20
111.6743265115855
 10
104.327
 20
111.6973265115855
 10
104.304
 20
111.7013265115855
 10
104.29
 20
111.6703265115855
 10
104.29
 20
111.6593265115855
 10
104.29
 20
108.7593265115855
 10
104.29
 20
108.7433265115855
 10
104.319
 20
108.6893265115855
 10
104.371
 20
108.6593265115855
 10
104.389
 20
108.6593265115855
 10
110.389
 20
108.6593265115855
 10
110.406
 20
108.6593265115855
 10
110.459
 20
108.6893265115855
 10
110.49
 20
108.7433265115855
 10
110.49
 20
108.7593265115855
 10
110.49
 20
111.6593265115855
 10
110.49
 20
111.6703265115855
 10
110.474
 20
111.7013265115855
 10
110.451
 20
111.6973265115855
 10
110.447
 20
111.6743265115855
 10
110.479
 20
111.6593265115855
 10
110.49
 20
111.6593265115855
 10
116.29
 20
111.6593265115855
 10
116.3
 20
111.6593265115855
 10
116.331
 20
111.6743265115855
 10
116.327
 20
111.6973265115855
 10
116.304
 20
111.7013265115855
 10
116.29
 20
111.6703265115855
 10
116.29
 20
111.6593265115855
 10
116.29
 20
108.7593265115855
 10
116.29
 20
108.7433265115855
 10
116.319
 20
108.6893265115855
 10
116.371
 20
108.6593265115855
 10
116.389
 20
108.6593265115855
 10
126.39
 20
108.6593265115855
 10
148.9799999999999
 20
108.6593265115855
 10
156.979
 20
108.6593265115855
 10
156.996
 20
108.6593265115855
 10
157.05
 20
108.6893265115855
 10
157.08
 20
108.7433265115855
 10
157.08
 20
108.7593265115855
 10
157.08
 20
111.6593265115855
 10
157.08
 20
111.6703265115855
 10
157.065
 20
111.7013265115855
 10
157.041
 20
111.6973265115855
 10
157.037
 20
111.6743265115855
 10
157.069
 20
111.6593265115855
 10
157.08
 20
111.6593265115855
 10
162.879
 20
111.6593265115855
 10
162.888
 20
111.6593265115855
 10
162.92
 20
111.6743265115855
 10
162.916
 20
111.6973265115855
 10
162.892
 20
111.7013265115855
 10
162.879
 20
111.6703265115855
 10
162.879
 20
111.6593265115855
 10
162.879
 20
108.7593265115855
 10
162.879
 20
108.7433265115855
 10
162.907
 20
108.6893265115855
 10
162.961
 20
108.6593265115855
 10
162.979
 20
108.6593265115855
 10
168.979
 20
108.6593265115855
 10
168.996
 20
108.6593265115855
 10
169.049
 20
108.6893265115855
 10
169.078
 20
108.7433265115855
 10
169.078
 20
108.7593265115855
 10
169.078
 20
111.6593265115855
 10
169.078
 20
111.6703265115855
 10
169.063
 20
111.7013265115855
 10
169.041
 20
111.6973265115855
 10
169.036
 20
111.6743265115855
 10
169.067
 20
111.6593265115855
 10
169.078
 20
111.6593265115855
 10
174.879
 20
111.6593265115855
 10
174.888
 20
111.6593265115855
 10
174.92
 20
111.6743265115855
 10
174.916
 20
111.6973265115855
 10
174.892
 20
111.7013265115855
 10
174.879
 20
111.6703265115855
 10
174.879
 20
111.6593265115855
 10
174.879
 20
108.7593265115855
 10
174.879
 20
108.7433265115855
 10
174.9079999999999
 20
108.6893265115855
 10
174.961
 20
108.6593265115855
 10
174.979
 20
108.6593265115855
 10
180.979
 20
108.6593265115855
 10
180.996
 20
108.6593265115855
 10
181.049
 20
108.6893265115855
 10
181.08
 20
108.7433265115855
 10
181.08
 20
108.7593265115855
 10
181.08
 20
111.6593265115855
 10
181.08
 20
111.6703265115855
 10
181.065
 20
111.7013265115855
 10
181.041
 20
111.6973265115855
 10
181.037
 20
111.6743265115855
 10
181.069
 20
111.6593265115855
 10
181.08
 20
111.6593265115855
 10
186.878
 20
111.6593265115855
 10
186.888
 20
111.6593265115855
 10
186.92
 20
111.6743265115855
 10
186.916
 20
111.6973265115855
 10
186.892
 20
111.7013265115855
 10
186.878
 20
111.6703265115855
 10
186.878
 20
111.6593265115855
 10
186.878
 20
108.7593265115855
 10
186.878
 20
108.7433265115855
 10
186.907
 20
108.6893265115855
 10
186.9609999999999
 20
108.6593265115855
 10
186.979
 20
108.6593265115855
 10
192.979
 20
108.6593265115855
 10
192.996
 20
108.6593265115855
 10
193.05
 20
108.6893265115855
 10
193.08
 20
108.7433265115855
 10
193.08
 20
108.7593265115855
 10
193.08
 20
111.6593265115855
 10
193.08
 20
111.6703265115855
 10
193.065
 20
111.7013265115855
 10
193.041
 20
111.6973265115855
 10
193.037
 20
111.6743265115855
 10
193.069
 20
111.6593265115855
 10
193.08
 20
111.6593265115855
 10
198.88
 20
111.6593265115855
 10
198.889
 20
111.6593265115855
 10
198.921
 20
111.6743265115855
 10
198.917
 20
111.6973265115855
 10
198.894
 20
111.7013265115855
 10
198.88
 20
111.6703265115855
 10
198.88
 20
111.6593265115855
 10
198.88
 20
108.7593265115855
 10
198.88
 20
108.7433265115855
 10
198.909
 20
108.6893265115855
 10
198.961
 20
108.6593265115855
 10
198.979
 20
108.6593265115855
 10
204.979
 20
108.6593265115855
 10
204.996
 20
108.6593265115855
 10
205.049
 20
108.6893265115855
 10
205.08
 20
108.7433265115855
 10
205.08
 20
108.7593265115855
 10
205.08
 20
111.6593265115855
 10
205.08
 20
111.6703265115855
 10
205.064
 20
111.7013265115855
 10
205.041
 20
111.6973265115855
 10
205.037
 20
111.6743265115855
 10
205.069
 20
111.6593265115855
 10
205.08
 20
111.6593265115855
 10
210.88
 20
111.6593265115855
 10
210.889
 20
111.6593265115855
 10
210.921
 20
111.6743265115855
 10
210.917
 20
111.6973265115855
 10
210.894
 20
111.7013265115855
 10
210.88
 20
111.6703265115855
 10
210.88
 20
111.6593265115855
 10
210.88
 20
108.7593265115855
 10
210.88
 20
108.7433265115855
 10
210.909
 20
108.6893265115855
 10
210.961
 20
108.6593265115855
 10
210.979
 20
108.6593265115855
 10
218.979
 20
108.6593265115855
 10
241.569
 20
108.6593265115855
 10
251.569
 20
108.6593265115855
 10
251.586
 20
108.6593265115855
 10
251.64
 20
108.6893265115855
 10
251.668
 20
108.7433265115855
 10
251.668
 20
108.7593265115855
 10
251.668
 20
111.6593265115855
 10
251.668
 20
111.6703265115855
 10
251.653
 20
111.7013265115855
 10
251.631
 20
111.6973265115855
 10
251.626
 20
111.6743265115855
 10
251.657
 20
111.6593265115855
 10
251.668
 20
111.6593265115855
 10
257.469
 20
111.6593265115855
 10
257.478
 20
111.6593265115855
 10
257.51
 20
111.6743265115855
 10
257.506
 20
111.6973265115855
 10
257.4820000000001
 20
111.7013265115855
 10
257.469
 20
111.6703265115855
 10
257.469
 20
111.6593265115855
 10
257.469
 20
108.7593265115855
 10
257.469
 20
108.7433265115855
 10
257.4970000000001
 20
108.6893265115855
 10
257.551
 20
108.6593265115855
 10
257.5690000000001
 20
108.6593265115855
 10
263.5690000000001
 20
108.6593265115855
 10
263.586
 20
108.6593265115855
 10
263.639
 20
108.6893265115855
 10
263.668
 20
108.7433265115855
 10
263.668
 20
108.7593265115855
 10
263.668
 20
111.6593265115855
 10
263.668
 20
111.6703265115855
 10
263.653
 20
111.7013265115855
 10
263.631
 20
111.6973265115855
 10
263.626
 20
111.6743265115855
 10
263.657
 20
111.6593265115855
 10
263.668
 20
111.6593265115855
 10
269.469
 20
111.6593265115855
 10
269.4780000000001
 20
111.6593265115855
 10
269.51
 20
111.6743265115855
 10
269.506
 20
111.6973265115855
 10
269.4820000000001
 20
111.7013265115855
 10
269.469
 20
111.6703265115855
 10
269.469
 20
111.6593265115855
 10
269.469
 20
108.7593265115855
 10
269.469
 20
108.7433265115855
 10
269.4980000000001
 20
108.6893265115855
 10
269.551
 20
108.6593265115855
 10
269.5690000000001
 20
108.6593265115855
 10
275.5690000000001
 20
108.6593265115855
 10
275.586
 20
108.6593265115855
 10
275.639
 20
108.6893265115855
 10
275.668
 20
108.7433265115855
 10
275.668
 20
108.7593265115855
 10
275.668
 20
111.6593265115855
 10
275.668
 20
111.6703265115855
 10
275.653
 20
111.7013265115855
 10
275.631
 20
111.6973265115855
 10
275.626
 20
111.6743265115855
 10
275.657
 20
111.6593265115855
 10
275.668
 20
111.6593265115855
 10
281.4680000000001
 20
111.6593265115855
 10
281.4780000000001
 20
111.6593265115855
 10
281.51
 20
111.6743265115855
 10
281.506
 20
111.6973265115855
 10
281.4820000000001
 20
111.7013265115855
 10
281.4680000000001
 20
111.6703265115855
 10
281.4680000000001
 20
111.6593265115855
 10
281.4680000000001
 20
108.7593265115855
 10
281.4680000000001
 20
108.7433265115855
 10
281.497
 20
108.6893265115855
 10
281.5510000000001
 20
108.6593265115855
 10
281.5690000000001
 20
108.6593265115855
 10
291.568
 20
108.6593265115855
 10
314.158
 20
108.6593265115855
 10
322.658
 20
108.6593265115855
 10
322.6750000000001
 20
108.6593265115855
 10
322.7280000000001
 20
108.6893265115855
 10
322.759
 20
108.7433265115855
 10
322.759
 20
108.7593265115855
 10
322.759
 20
111.6593265115855
 10
322.759
 20
111.6703265115855
 10
322.743
 20
111.7013265115855
 10
322.72
 20
111.6973265115855
 10
322.716
 20
111.6743265115855
 10
322.748
 20
111.6593265115855
 10
322.759
 20
111.6593265115855
 10
328.5590000000001
 20
111.6593265115855
 10
328.5680000000001
 20
111.6593265115855
 10
328.6
 20
111.6743265115855
 10
328.596
 20
111.6973265115855
 10
328.573
 20
111.7013265115855
 10
328.5590000000001
 20
111.6703265115855
 10
328.5590000000001
 20
111.6593265115855
 10
328.5590000000001
 20
108.7593265115855
 10
328.5590000000001
 20
108.7433265115855
 10
328.5880000000001
 20
108.6893265115855
 10
328.64
 20
108.6593265115855
 10
328.658
 20
108.6593265115855
 10
334.658
 20
108.6593265115855
 10
334.6750000000001
 20
108.6593265115855
 10
334.7280000000001
 20
108.6893265115855
 10
334.759
 20
108.7433265115855
 10
334.759
 20
108.7593265115855
 10
334.759
 20
111.6593265115855
 10
334.759
 20
111.6703265115855
 10
334.7430000000001
 20
111.7013265115855
 10
334.72
 20
111.6973265115855
 10
334.716
 20
111.6743265115855
 10
334.748
 20
111.6593265115855
 10
334.759
 20
111.6593265115855
 10
340.5590000000001
 20
111.6593265115855
 10
340.568
 20
111.6593265115855
 10
340.6
 20
111.6743265115855
 10
340.596
 20
111.6973265115855
 10
340.572
 20
111.7013265115855
 10
340.5590000000001
 20
111.6703265115855
 10
340.5590000000001
 20
111.6593265115855
 10
340.5590000000001
 20
108.7593265115855
 10
340.5590000000001
 20
108.7433265115855
 10
340.5880000000001
 20
108.6893265115855
 10
340.64
 20
108.6593265115855
 10
340.658
 20
108.6593265115855
 10
349.158
 20
108.6593265115855
 10
349.174
 20
108.6593265115855
 10
349.2280000000001
 20
108.6893265115855
 10
349.258
 20
108.7433265115855
 10
349.258
 20
108.7593265115855
 10
349.258
 20
111.7593265115855
 10
349.258
 20
118.2913265115855
 10
349.258
 20
118.3303265115855
 10
349.28
 20
118.4433265115855
 10
349.3340000000001
 20
118.5593265115855
 10
349.349
 20
118.5793265115855
 10
349.363
 20
118.6013265115855
 10
349.4540000000001
 20
118.6893265115855
 10
349.5630000000001
 20
118.7533265115855
 10
349.5880000000001
 20
118.7613265115855
 10
349.611
 20
118.7713265115855
 10
349.8630000000001
 20
118.7823265115855
 10
349.888
 20
118.7753265115855
 10
349.913
 20
118.7703265115855
 10
350.027
 20
118.7143265115855
 10
350.125
 20
118.6343265115855
 10
350.1410000000001
 20
118.6143265115855
 10
352.5209999999999
 20
115.7763265115855
 10
352.5440000000001
 20
115.7493265115855
 10
352.6810000000001
 20
115.6373265115855
 10
352.841
 20
115.5603265115855
 10
352.8770000000001
 20
115.5503265115855
 10
352.912
 20
115.5423265115855
 10
353.0880000000001
 20
115.5273265115855
 10
353.265
 20
115.5563265115855
 10
353.296
 20
115.5683265115855
 10
353.332
 20
115.5803265115855
 10
353.4830000000001
 20
115.6713265115855
 10
353.61
 20
115.7963265115855
 10
353.631
 20
115.8253265115855
 10
353.653
 20
115.8553265115855
 10
353.7230000000001
 20
116.0163265115855
 10
353.759
 20
116.1733265115855
 10
353.759
 20
116.2263265115855
 10
353.759
 20
127.2933265115855
 10
353.759
 20
127.3463265115855
 10
353.7230000000001
 20
127.5033265115855
 10
353.653
 20
127.6643265115855
 10
353.631
 20
127.6933265115855
 10
353.61
 20
127.7243265115855
 10
353.4830000000001
 20
127.8483265115855
 10
353.332
 20
127.9383265115855
 10
353.296
 20
127.9503265115855
 10
353.265
 20
127.9623265115855
 10
353.0880000000001
 20
127.9933265115855
 10
352.912
 20
127.9773265115855
 10
352.8770000000001
 20
127.9683265115855
 10
352.841
 20
127.9593265115855
 10
352.6810000000001
 20
127.8823265115855
 10
352.5440000000001
 20
127.7693265115855
 10
352.5209999999999
 20
127.7423265115855
 10
350.1410000000001
 20
124.9043265115855
 10
350.125
 20
124.8853265115855
 10
350.027
 20
124.8053265115855
 10
349.913
 20
124.7503265115855
 10
349.888
 20
124.7433265115855
 10
349.8630000000001
 20
124.7383265115855
 10
349.611
 20
124.7473265115855
 10
349.5880000000001
 20
124.7553265115855
 10
349.5630000000001
 20
124.7653265115855
 10
349.4540000000001
 20
124.8303265115855
 10
349.363
 20
124.9183265115855
 10
349.349
 20
124.9393265115855
 10
349.3340000000001
 20
124.9613265115855
 10
349.28
 20
125.0763265115855
 10
349.258
 20
125.1883265115855
 10
349.258
 20
125.2253265115855
 10
349.258
 20
131.7593265115855
 10
349.258
 20
134.7593265115855
 10
349.258
 20
134.7773265115855
 10
349.2280000000001
 20
134.8303265115855
 10
349.174
 20
134.8593265115855
 10
349.158
 20
134.8593265115855
 10
340.658
 20
134.8593265115855
 10
340.64
 20
134.8593265115855
 10
340.5880000000001
 20
134.8303265115855
 10
340.5590000000001
 20
134.7773265115855
 10
340.5590000000001
 20
134.7593265115855
 10
340.5590000000001
 20
131.8593265115855
 10
340.5590000000001
 20
131.8503265115855
 10
340.572
 20
131.8183265115855
 10
340.596
 20
131.8223265115855
 10
340.6
 20
131.8463265115855
 10
340.568
 20
131.8593265115855
 10
340.5590000000001
 20
131.8593265115855
 10
334.759
 20
131.8593265115855
 10
334.748
 20
131.8593265115855
 10
334.716
 20
131.8463265115855
 10
334.72
 20
131.8223265115855
 10
334.7430000000001
 20
131.8183265115855
 10
334.759
 20
131.8503265115855
 10
334.759
 20
131.8593265115855
 10
334.759
 20
134.7593265115855
 10
334.759
 20
134.7773265115855
 10
334.7280000000001
 20
134.8303265115855
 10
334.6750000000001
 20
134.8593265115855
 10
334.658
 20
134.8593265115855
 10
328.658
 20
134.8593265115855
 10
328.64
 20
134.8593265115855
 10
328.5880000000001
 20
134.8303265115855
 10
328.5590000000001
 20
134.7773265115855
 10
328.5590000000001
 20
134.7593265115855
 10
328.5590000000001
 20
131.8593265115855
 10
328.5590000000001
 20
131.8503265115855
 10
328.573
 20
131.8183265115855
 10
328.596
 20
131.8223265115855
 10
328.6
 20
131.8463265115855
 10
328.5680000000001
 20
131.8593265115855
 10
328.5590000000001
 20
131.8593265115855
 10
322.759
 20
131.8593265115855
 10
322.748
 20
131.8593265115855
 10
322.716
 20
131.8463265115855
 10
322.72
 20
131.8223265115855
 10
322.743
 20
131.8183265115855
 10
322.759
 20
131.8503265115855
 10
322.759
 20
131.8593265115855
 10
322.759
 20
134.7593265115855
 10
322.759
 20
134.7773265115855
 10
322.7280000000001
 20
134.8303265115855
 10
322.6750000000001
 20
134.8593265115855
 10
322.658
 20
134.8593265115855
 10
314.158
 20
134.8593265115855
 10
291.568
 20
134.8593265115855
 10
281.5690000000001
 20
134.8593265115855
 10
281.5510000000001
 20
134.8593265115855
 10
281.497
 20
134.8303265115855
 10
281.4680000000001
 20
134.7773265115855
 10
281.4680000000001
 20
134.7593265115855
 10
281.4680000000001
 20
131.8593265115855
 10
281.4680000000001
 20
131.8503265115855
 10
281.4820000000001
 20
131.8183265115855
 10
281.506
 20
131.8223265115855
 10
281.51
 20
131.8463265115855
 10
281.4780000000001
 20
131.8593265115855
 10
281.4680000000001
 20
131.8593265115855
 10
275.668
 20
131.8593265115855
 10
275.657
 20
131.8593265115855
 10
275.626
 20
131.8463265115855
 10
275.631
 20
131.8223265115855
 10
275.653
 20
131.8183265115855
 10
275.668
 20
131.8503265115855
 10
275.668
 20
131.8593265115855
 10
275.668
 20
134.7593265115855
 10
275.668
 20
134.7773265115855
 10
275.639
 20
134.8303265115855
 10
275.586
 20
134.8593265115855
 10
275.5690000000001
 20
134.8593265115855
 10
269.5690000000001
 20
134.8593265115855
 10
269.551
 20
134.8593265115855
 10
269.4980000000001
 20
134.8303265115855
 10
269.469
 20
134.7773265115855
 10
269.469
 20
134.7593265115855
 10
269.469
 20
131.8593265115855
 10
269.469
 20
131.8503265115855
 10
269.4820000000001
 20
131.8183265115855
 10
269.506
 20
131.8223265115855
 10
269.51
 20
131.8463265115855
 10
269.4780000000001
 20
131.8593265115855
 10
269.469
 20
131.8593265115855
 10
263.668
 20
131.8593265115855
 10
263.657
 20
131.8593265115855
 10
263.626
 20
131.8463265115855
 10
263.631
 20
131.8223265115855
 10
263.653
 20
131.8183265115855
 10
263.668
 20
131.8503265115855
 10
263.668
 20
131.8593265115855
 10
263.668
 20
134.7593265115855
 10
263.668
 20
134.7773265115855
 10
263.639
 20
134.8303265115855
 10
263.586
 20
134.8593265115855
 10
263.5690000000001
 20
134.8593265115855
 10
257.5690000000001
 20
134.8593265115855
 10
257.551
 20
134.8593265115855
 10
257.4970000000001
 20
134.8303265115855
 10
257.469
 20
134.7773265115855
 10
257.469
 20
134.7593265115855
 10
257.469
 20
131.8593265115855
 10
257.469
 20
131.8503265115855
 10
257.4820000000001
 20
131.8183265115855
 10
257.506
 20
131.8223265115855
 10
257.51
 20
131.8463265115855
 10
257.478
 20
131.8593265115855
 10
257.469
 20
131.8593265115855
 10
251.668
 20
131.8593265115855
 10
251.657
 20
131.8593265115855
 10
251.626
 20
131.8463265115855
 10
251.631
 20
131.8223265115855
 10
251.653
 20
131.8183265115855
 10
251.668
 20
131.8503265115855
 10
251.668
 20
131.8593265115855
 10
251.668
 20
134.7593265115855
 10
251.668
 20
134.7773265115855
 10
251.64
 20
134.8303265115855
 10
251.586
 20
134.8593265115855
 10
251.569
 20
134.8593265115855
 10
241.569
 20
134.8593265115855
 10
218.979
 20
134.8593265115855
 10
210.979
 20
134.8593265115855
 10
210.961
 20
134.8593265115855
 10
210.909
 20
134.8303265115855
 10
210.88
 20
134.7773265115855
 10
210.88
 20
134.7593265115855
 10
210.88
 20
131.8593265115855
 10
210.88
 20
131.8503265115855
 10
210.894
 20
131.8183265115855
 10
210.917
 20
131.8223265115855
 10
210.921
 20
131.8463265115855
 10
210.889
 20
131.8593265115855
 10
210.88
 20
131.8593265115855
 10
205.08
 20
131.8593265115855
 10
205.069
 20
131.8593265115855
 10
205.037
 20
131.8463265115855
 10
205.041
 20
131.8223265115855
 10
205.064
 20
131.8183265115855
 10
205.08
 20
131.8503265115855
 10
205.08
 20
131.8593265115855
 10
205.08
 20
134.7593265115855
 10
205.08
 20
134.7773265115855
 10
205.049
 20
134.8303265115855
 10
204.996
 20
134.8593265115855
 10
204.979
 20
134.8593265115855
 10
198.979
 20
134.8593265115855
 10
198.961
 20
134.8593265115855
 10
198.909
 20
134.8303265115855
 10
198.88
 20
134.7773265115855
 10
198.88
 20
134.7593265115855
 10
198.88
 20
131.8593265115855
 10
198.88
 20
131.8503265115855
 10
198.894
 20
131.8183265115855
 10
198.917
 20
131.8223265115855
 10
198.921
 20
131.8463265115855
 10
198.889
 20
131.8593265115855
 10
198.88
 20
131.8593265115855
 10
193.08
 20
131.8593265115855
 10
193.069
 20
131.8593265115855
 10
193.037
 20
131.8463265115855
 10
193.041
 20
131.8223265115855
 10
193.065
 20
131.8183265115855
 10
193.08
 20
131.8503265115855
 10
193.08
 20
131.8593265115855
 10
193.08
 20
134.7593265115855
 10
193.08
 20
134.7773265115855
 10
193.05
 20
134.8303265115855
 10
192.996
 20
134.8593265115855
 10
192.979
 20
134.8593265115855
 10
186.979
 20
134.8593265115855
 10
186.9609999999999
 20
134.8593265115855
 10
186.907
 20
134.8303265115855
 10
186.878
 20
134.7773265115855
 10
186.878
 20
134.7593265115855
 10
186.878
 20
131.8593265115855
 10
186.878
 20
131.8503265115855
 10
186.892
 20
131.8183265115855
 10
186.916
 20
131.8223265115855
 10
186.92
 20
131.8463265115855
 10
186.888
 20
131.8593265115855
 10
186.878
 20
131.8593265115855
 10
181.08
 20
131.8593265115855
 10
181.069
 20
131.8593265115855
 10
181.037
 20
131.8463265115855
 10
181.041
 20
131.8223265115855
 10
181.065
 20
131.8183265115855
 10
181.08
 20
131.8503265115855
 10
181.08
 20
131.8593265115855
 10
181.08
 20
134.7593265115855
 10
181.08
 20
134.7773265115855
 10
181.049
 20
134.8303265115855
 10
180.996
 20
134.8593265115855
 10
180.979
 20
134.8593265115855
 10
174.979
 20
134.8593265115855
 10
174.961
 20
134.8593265115855
 10
174.9079999999999
 20
134.8303265115855
 10
174.879
 20
134.7773265115855
 10
174.879
 20
134.7593265115855
 10
174.879
 20
131.8593265115855
 10
174.879
 20
131.8503265115855
 10
174.892
 20
131.8183265115855
 10
174.916
 20
131.8223265115855
 10
174.92
 20
131.8463265115855
 10
174.888
 20
131.8593265115855
 10
174.879
 20
131.8593265115855
 10
169.078
 20
131.8593265115855
 10
169.067
 20
131.8593265115855
 10
169.036
 20
131.8463265115855
 10
169.041
 20
131.8223265115855
 10
169.063
 20
131.8183265115855
 10
169.078
 20
131.8503265115855
 10
169.078
 20
131.8593265115855
 10
169.078
 20
134.7593265115855
 10
169.078
 20
134.7773265115855
 10
169.049
 20
134.8303265115855
 10
168.996
 20
134.8593265115855
 10
168.979
 20
134.8593265115855
 10
162.979
 20
134.8593265115855
 10
162.961
 20
134.8593265115855
 10
162.907
 20
134.8303265115855
 10
162.879
 20
134.7773265115855
 10
162.879
 20
134.7593265115855
 10
162.879
 20
131.8593265115855
 10
162.879
 20
131.8503265115855
 10
162.892
 20
131.8183265115855
 10
162.916
 20
131.8223265115855
 10
162.92
 20
131.8463265115855
 10
162.888
 20
131.8593265115855
 10
162.879
 20
131.8593265115855
 10
157.08
 20
131.8593265115855
 10
157.069
 20
131.8593265115855
 10
157.037
 20
131.8463265115855
 10
157.041
 20
131.8223265115855
 10
157.065
 20
131.8183265115855
 10
157.08
 20
131.8503265115855
 10
157.08
 20
131.8593265115855
 10
157.08
 20
134.7593265115855
 10
157.08
 20
134.7773265115855
 10
157.05
 20
134.8303265115855
 10
156.996
 20
134.8593265115855
 10
156.979
 20
134.8593265115855
 10
148.9799999999999
 20
134.8593265115855
 10
126.39
 20
134.8593265115855
 10
116.389
 20
134.8593265115855
 10
116.371
 20
134.8593265115855
 10
116.319
 20
134.8303265115855
 10
116.29
 20
134.7773265115855
 10
116.29
 20
134.7593265115855
 10
116.29
 20
131.8593265115855
 10
116.29
 20
131.8503265115855
 10
116.304
 20
131.8183265115855
 10
116.327
 20
131.8223265115855
 10
116.331
 20
131.8463265115855
 10
116.3
 20
131.8593265115855
 10
116.29
 20
131.8593265115855
 10
110.49
 20
131.8593265115855
 10
110.479
 20
131.8593265115855
 10
110.447
 20
131.8463265115855
 10
110.451
 20
131.8223265115855
 10
110.474
 20
131.8183265115855
 10
110.49
 20
131.8503265115855
 10
110.49
 20
131.8593265115855
 10
110.49
 20
134.7593265115855
 10
110.49
 20
134.7773265115855
 10
110.459
 20
134.8303265115855
 10
110.406
 20
134.8593265115855
 10
110.389
 20
134.8593265115855
 10
104.389
 20
134.8593265115855
 10
104.371
 20
134.8593265115855
 10
104.319
 20
134.8303265115855
 10
104.29
 20
134.7773265115855
 10
104.29
 20
134.7593265115855
 10
104.29
 20
131.8593265115855
 10
104.29
 20
131.8503265115855
 10
104.304
 20
131.8183265115855
 10
104.327
 20
131.8223265115855
 10
104.331
 20
131.8463265115855
 10
104.299
 20
131.8593265115855
 10
104.29
 20
131.8593265115855
 10
98.4899
 20
131.8593265115855
 10
98.4786
 20
131.8593265115855
 10
98.4472
 20
131.8463265115855
 10
98.4511
 20
131.8223265115855
 10
98.47470000000001
 20
131.8183265115855
 10
98.4899
 20
131.8503265115855
 10
98.4899
 20
131.8593265115855
 10
98.4899
 20
134.7593265115855
 10
98.4899
 20
134.7773265115855
 10
98.45959999999999
 20
134.8303265115855
 10
98.40560000000001
 20
134.8593265115855
 10
98.389
 20
134.8593265115855
 10
92.38930000000001
 20
134.8593265115855
 10
92.3713
 20
134.8593265115855
 10
92.3188
 20
134.8303265115855
 10
92.28979999999998
 20
134.7773265115855
 10
92.28979999999998
 20
134.7593265115855
 10
92.28979999999998
 20
131.8593265115855
 10
92.28979999999998
 20
131.8503265115855
 10
92.30360000000001
 20
131.8183265115855
 10
92.3272
 20
131.8223265115855
 10
92.3315
 20
131.8463265115855
 10
92.29969999999999
 20
131.8593265115855
 10
92.28979999999998
 20
131.8593265115855
 10
86.48979999999999
 20
131.8593265115855
 10
86.47889999999998
 20
131.8593265115855
 10
86.44710000000001
 20
131.8463265115855
 10
86.45140000000001
 20
131.8223265115855
 10
86.4747
 20
131.8183265115855
 10
86.48979999999999
 20
131.8503265115855
 10
86.48979999999999
 20
131.8593265115855
 10
86.48979999999999
 20
134.7593265115855
 10
86.48979999999999
 20
134.7773265115855
 10
86.4595
 20
134.8303265115855
 10
86.40590000000001
 20
134.8593265115855
 10
86.3893
 20
134.8593265115855
 10
76.3887
 20
134.8593265115855
 10
53.79999999999999
 20
134.8593265115855
 10
45.3002
 20
134.8593265115855
 10
45.2822
 20
134.8593265115855
 10
45.2286
 20
134.8303265115855
 10
45.19969999999999
 20
134.7773265115855
 10
45.19969999999999
 20
134.7593265115855
 10
45.19969999999999
 20
131.8593265115855
 10
45.19969999999999
 20
131.8503265115855
 10
45.21340000000001
 20
131.8183265115855
 10
45.2367
 20
131.8223265115855
 10
45.24090000000001
 20
131.8463265115855
 10
45.20920000000001
 20
131.8593265115855
 10
45.19969999999999
 20
131.8593265115855
 10
39.39960000000001
 20
131.8593265115855
 10
39.3883
 20
131.8593265115855
 10
39.35690000000001
 20
131.8463265115855
 10
39.3622
 20
131.8223265115855
 10
39.3845
 20
131.8183265115855
 10
39.39960000000001
 20
131.8503265115855
 10
39.39960000000001
 20
131.8593265115855
 10
39.39960000000001
 20
134.7593265115855
 10
39.39960000000001
 20
134.7773265115855
 10
39.3707
 20
134.8303265115855
 10
39.3167
 20
134.8593265115855
 10
39.30020000000001
 20
134.8593265115855
 10
33.30030000000001
 20
134.8593265115855
 10
33.28240000000001
 20
134.8593265115855
 10
33.2286
 20
134.8303265115855
 10
33.19970000000001
 20
134.7773265115855
 10
33.19970000000001
 20
134.7593265115855
 10
33.19970000000001
 20
131.8593265115855
 10
33.19970000000001
 20
131.8503265115855
 10
33.21350000000001
 20
131.8183265115855
 10
33.23690000000001
 20
131.8223265115855
 10
33.24110000000001
 20
131.8463265115855
 10
33.2093
 20
131.8593265115855
 10
33.19970000000001
 20
131.8593265115855
 10
27.3995
 20
131.8593265115855
 10
27.3885
 20
131.8593265115855
 10
27.3568
 20
131.8463265115855
 10
27.3623
 20
131.8223265115855
 10
27.3844
 20
131.8183265115855
 10
27.3995
 20
131.8503265115855
 10
27.3995
 20
131.8593265115855
 10
27.3995
 20
134.7593265115855
 10
27.3995
 20
134.7773265115855
 10
27.3706
 20
134.8303265115855
 10
27.3169
 20
134.8593265115855
 10
27.3003
 20
134.8593265115855
 10
18.7992
 20
134.8593265115855
 10
18.7813
 20
134.8593265115855
 10
18.7289
 20
134.8303265115855
 10
18.7
 20
134.7773265115855
 10
18.7
 20
134.7593265115855
 10
18.7
 20
131.7593265115855
 10
18.7
 20
125.2253265115855
 10
18.7
 20
125.1733265115855
 10
18.7317
 20
125.0163265115855
 10
18.8061
 20
124.8553265115855
 10
18.8268
 20
124.8253265115855
 10
18.8474
 20
124.7963265115855
 10
18.9728
 20
124.6723265115855
 10
19.1258
 20
124.5803265115855
 10
19.1602
 20
124.5683265115855
 10
19.1933
 20
124.5563265115855
 10
19.3683
 20
124.5273265115855
 10
19.5461
 20
124.5423265115855
 10
19.5819
 20
124.5503265115855
 10
19.6164
 20
124.5603265115855
 10
19.7749
 20
124.6373265115855
 10
19.9126
 20
124.7493265115855
 10
19.9361
 20
124.7763265115855
 10
22.3173
 20
127.6143265115855
 10
22.3339
 20
127.6343265115855
 10
22.4317
 20
127.7143265115855
 10
22.5461
 20
127.7693265115855
 10
22.5709
 20
127.7753265115855
 10
22.5957
 20
127.7823265115855
 10
22.8465
 20
127.7723265115855
 10
22.8713
 20
127.7633265115855
 10
22.8947
 20
127.7543265115855
 10
23.0036
 20
127.6903265115855
 10
23.0945
 20
127.6013265115855
 10
23.1097
 20
127.5793265115855
 10
23.1235
 20
127.5593265115855
 10
23.1772
 20
127.4433265115855
 10
23.2006
 20
127.3313265115855
 10
23.2006
 20
127.2933265115855
 10
23.2006
 20
116.2263265115855
 10
23.2006
 20
116.1883265115855
 10
23.1772
 20
116.0773265115855
 10
23.1235
 20
115.9613265115855
 10
23.1097
 20
115.9393265115855
 10
23.0945
 20
115.9183265115855
 10
23.0036
 20
115.8303265115855
 10
22.8947
 20
115.7653265115855
 10
22.8713
 20
115.7563265115856
 10
22.8465
 20
115.7473265115855
 10
22.5957
 20
115.7383265115855
 10
22.5709
 20
115.7433265115855
 10
22.5461
 20
115.7503265115855
 10
22.4317
 20
115.8053265115855
 10
22.3339
 20
115.8853265115855
 10
22.3173
 20
115.9043265115855
 10
19.9361
 20
118.7423265115855
 10
19.9126
 20
118.7703265115855
 10
19.7749
 20
118.8823265115855
 10
19.6164
 20
118.9603265115855
 10
19.5819
 20
118.9683265115855
 10
19.5461
 20
118.9773265115855
 10
19.3683
 20
118.9923265115855
 10
19.1933
 20
118.9623265115855
 10
19.1602
 20
118.9503265115855
 10
19.1258
 20
118.9373265115855
 10
18.9728
 20
118.8483265115855
 10
18.8474
 20
118.7243265115855
 10
18.8268
 20
118.6943265115855
 10
18.8061
 20
118.6653265115855
 10
18.7317
 20
118.5043265115855
 10
18.7
 20
118.3453265115855
 10
18.7
 20
118.2913265115855
 10
18.7
 20
111.7593265115855
 10
18.7
 20
108.7593265115855
 10
18.7
 20
108.7433265115855
 10
18.7289
 20
108.6893265115855
 10
18.7813
 20
108.6593265115855
 10
18.7992
 20
108.6593265115855
  0
LWPOLYLINE
  5
2C3F
330
29FC
100
AcDbEntity
  8
0
 62
     0
100
AcDbPolyline
 90
        2
 70
     0
 43
0.2
 10
55.34480000000001
 20
108.6593265115855
 10
55.34480000000001
 20
131.8593265115855
  0
LWPOLYLINE
  5
2C40
330
29FC
100
AcDbEntity
  8
0
 62
     0
100
AcDbPolyline
 90
        2
 70
     0
 43
0.2
 10
56.84560000000001
 20
134.8593265115855
 10
56.84560000000001
 20
111.6593265115855
  0
LWPOLYLINE
  5
2C41
330
29FC
100
AcDbEntity
  8
0
 62
     0
100
AcDbPolyline
 90
        2
 70
     0
 43
0.2
 10
58.34490000000001
 20
108.6593265115855
 10
58.34490000000001
 20
131.8593265115855
  0
LWPOLYLINE
  5
2C42
330
29FC
100
AcDbEntity
  8
0
 62
     0
100
AcDbPolyline
 90
        2
 70
     0
 43
0.2
 10
59.8456
 20
134.8593265115855
 10
59.8456
 20
111.6593265115855
  0
LWPOLYLINE
  5
2C43
330
29FC
100
AcDbEntity
  8
0
 62
     0
100
AcDbPolyline
 90
        2
 70
     0
 43
0.2
 10
61.34490000000001
 20
108.6593265115855
 10
61.34490000000001
 20
131.8593265115855
  0
LWPOLYLINE
  5
2C44
330
29FC
100
AcDbEntity
  8
0
 62
     0
100
AcDbPolyline
 90
        2
 70
     0
 43
0.2
 10
62.84559999999999
 20
134.8593265115855
 10
62.84559999999999
 20
111.6593265115855
  0
LWPOLYLINE
  5
2C45
330
29FC
100
AcDbEntity
  8
0
 62
     0
100
AcDbPolyline
 90
        2
 70
     0
 43
0.2
 10
64.3449
 20
108.6593265115855
 10
64.3449
 20
131.8593265115855
  0
LWPOLYLINE
  5
2C46
330
29FC
100
AcDbEntity
  8
0
 62
     0
100
AcDbPolyline
 90
        2
 70
     0
 43
0.2
 10
65.84529999999999
 20
134.8593265115855
 10
65.84529999999999
 20
111.6593265115855
  0
LWPOLYLINE
  5
2C47
330
29FC
100
AcDbEntity
  8
0
 62
     0
100
AcDbPolyline
 90
        2
 70
     0
 43
0.2
 10
67.3446
 20
108.6593265115855
 10
67.3446
 20
131.8593265115855
  0
LWPOLYLINE
  5
2C48
330
29FC
100
AcDbEntity
  8
0
 62
     0
100
AcDbPolyline
 90
        2
 70
     0
 43
0.2
 10
68.84529999999999
 20
134.8593265115855
 10
68.84529999999999
 20
111.6593265115855
  0
LWPOLYLINE
  5
2C49
330
29FC
100
AcDbEntity
  8
0
 62
     0
100
AcDbPolyline
 90
        2
 70
     0
 43
0.2
 10
70.3446
 20
108.6593265115855
 10
70.3446
 20
131.8593265115855
  0
LWPOLYLINE
  5
2C4A
330
29FC
100
AcDbEntity
  8
0
 62
     0
100
AcDbPolyline
 90
        2
 70
     0
 43
0.2
 10
71.84390000000002
 20
134.8593265115855
 10
71.84390000000002
 20
111.6593265115855
  0
LWPOLYLINE
  5
2C4B
330
29FC
100
AcDbEntity
  8
0
 62
     0
100
AcDbPolyline
 90
        2
 70
     0
 43
0.2
 10
73.34459999999999
 20
108.6593265115855
 10
73.34459999999999
 20
131.8593265115855
  0
LWPOLYLINE
  5
2C4C
330
29FC
100
AcDbEntity
  8
0
 62
     0
100
AcDbPolyline
 90
        2
 70
     0
 43
0.2
 10
74.84390000000001
 20
134.8593265115855
 10
74.84390000000001
 20
111.6593265115855
  0
LWPOLYLINE
  5
2C4D
330
29FC
100
AcDbEntity
  8
0
 62
     0
100
AcDbPolyline
 90
        2
 70
     0
 43
0.2
 10
127.934
 20
108.6593265115855
 10
127.934
 20
131.8593265115855
  0
LWPOLYLINE
  5
2C4E
330
29FC
100
AcDbEntity
  8
0
 62
     0
100
AcDbPolyline
 90
        2
 70
     0
 43
0.2
 10
129.4329999999999
 20
134.8593265115855
 10
129.4329999999999
 20
111.6593265115855
  0
LWPOLYLINE
  5
2C4F
330
29FC
100
AcDbEntity
  8
0
 62
     0
100
AcDbPolyline
 90
        2
 70
     0
 43
0.2
 10
130.934
 20
108.6593265115855
 10
130.934
 20
131.8593265115855
  0
LWPOLYLINE
  5
2C50
330
29FC
100
AcDbEntity
  8
0
 62
     0
100
AcDbPolyline
 90
        2
 70
     0
 43
0.2
 10
132.4329999999999
 20
134.8593265115855
 10
132.4329999999999
 20
111.6593265115855
  0
LWPOLYLINE
  5
2C51
330
29FC
100
AcDbEntity
  8
0
 62
     0
100
AcDbPolyline
 90
        2
 70
     0
 43
0.2
 10
133.9339999999999
 20
108.6593265115855
 10
133.9339999999999
 20
131.8593265115855
  0
LWPOLYLINE
  5
2C52
330
29FC
100
AcDbEntity
  8
0
 62
     0
100
AcDbPolyline
 90
        2
 70
     0
 43
0.2
 10
135.4339999999999
 20
134.8593265115855
 10
135.4339999999999
 20
111.6593265115855
  0
LWPOLYLINE
  5
2C53
330
29FC
100
AcDbEntity
  8
0
 62
     0
100
AcDbPolyline
 90
        2
 70
     0
 43
0.2
 10
136.934
 20
108.6593265115855
 10
136.934
 20
131.8593265115855
  0
LWPOLYLINE
  5
2C54
330
29FC
100
AcDbEntity
  8
0
 62
     0
100
AcDbPolyline
 90
        2
 70
     0
 43
0.2
 10
138.4339999999999
 20
134.8593265115855
 10
138.4339999999999
 20
111.6593265115855
  0
LWPOLYLINE
  5
2C55
330
29FC
100
AcDbEntity
  8
0
 62
     0
100
AcDbPolyline
 90
        2
 70
     0
 43
0.2
 10
139.934
 20
108.6593265115855
 10
139.934
 20
131.8593265115855
  0
LWPOLYLINE
  5
2C56
330
29FC
100
AcDbEntity
  8
0
 62
     0
100
AcDbPolyline
 90
        2
 70
     0
 43
0.2
 10
141.4339999999999
 20
134.8593265115855
 10
141.4339999999999
 20
111.6593265115855
  0
LWPOLYLINE
  5
2C57
330
29FC
100
AcDbEntity
  8
0
 62
     0
100
AcDbPolyline
 90
        2
 70
     0
 43
0.2
 10
142.9339999999999
 20
108.6593265115855
 10
142.9339999999999
 20
131.8593265115855
  0
LWPOLYLINE
  5
2C58
330
29FC
100
AcDbEntity
  8
0
 62
     0
100
AcDbPolyline
 90
        2
 70
     0
 43
0.2
 10
144.435
 20
134.8593265115855
 10
144.435
 20
111.6593265115855
  0
LWPOLYLINE
  5
2C59
330
29FC
100
AcDbEntity
  8
0
 62
     0
100
AcDbPolyline
 90
        2
 70
     0
 43
0.2
 10
145.9339999999999
 20
108.6593265115855
 10
145.9339999999999
 20
131.8593265115855
  0
LWPOLYLINE
  5
2C5A
330
29FC
100
AcDbEntity
  8
0
 62
     0
100
AcDbPolyline
 90
        2
 70
     0
 43
0.2
 10
147.435
 20
134.8593265115855
 10
147.435
 20
111.6593265115855
  0
LWPOLYLINE
  5
2C5B
330
29FC
100
AcDbEntity
  8
0
 62
     0
100
AcDbPolyline
 90
        2
 70
     0
 43
0.2
 10
220.523
 20
108.6593265115855
 10
220.523
 20
131.8593265115855
  0
LWPOLYLINE
  5
2C5C
330
29FC
100
AcDbEntity
  8
0
 62
     0
100
AcDbPolyline
 90
        2
 70
     0
 43
0.2
 10
222.024
 20
134.8593265115855
 10
222.024
 20
111.6593265115855
  0
LWPOLYLINE
  5
2C5D
330
29FC
100
AcDbEntity
  8
0
 62
     0
100
AcDbPolyline
 90
        2
 70
     0
 43
0.2
 10
223.523
 20
108.6593265115855
 10
223.523
 20
131.8593265115855
  0
LWPOLYLINE
  5
2C5E
330
29FC
100
AcDbEntity
  8
0
 62
     0
100
AcDbPolyline
 90
        2
 70
     0
 43
0.2
 10
225.024
 20
134.8593265115855
 10
225.024
 20
111.6593265115855
  0
LWPOLYLINE
  5
2C5F
330
29FC
100
AcDbEntity
  8
0
 62
     0
100
AcDbPolyline
 90
        2
 70
     0
 43
0.2
 10
226.523
 20
108.6593265115855
 10
226.523
 20
131.8593265115855
  0
LWPOLYLINE
  5
2C60
330
29FC
100
AcDbEntity
  8
0
 62
     0
100
AcDbPolyline
 90
        2
 70
     0
 43
0.2
 10
228.024
 20
134.8593265115855
 10
228.024
 20
111.6593265115855
  0
LWPOLYLINE
  5
2C61
330
29FC
100
AcDbEntity
  8
0
 62
     0
100
AcDbPolyline
 90
        2
 70
     0
 43
0.2
 10
229.523
 20
108.6593265115855
 10
229.523
 20
131.8593265115855
  0
LWPOLYLINE
  5
2C62
330
29FC
100
AcDbEntity
  8
0
 62
     0
100
AcDbPolyline
 90
        2
 70
     0
 43
0.2
 10
231.024
 20
134.8593265115855
 10
231.024
 20
111.6593265115855
  0
LWPOLYLINE
  5
2C63
330
29FC
100
AcDbEntity
  8
0
 62
     0
100
AcDbPolyline
 90
        2
 70
     0
 43
0.2
 10
232.523
 20
108.6593265115855
 10
232.523
 20
131.8593265115855
  0
LWPOLYLINE
  5
2C64
330
29FC
100
AcDbEntity
  8
0
 62
     0
100
AcDbPolyline
 90
        2
 70
     0
 43
0.2
 10
234.024
 20
134.8593265115855
 10
234.024
 20
111.6593265115855
  0
LWPOLYLINE
  5
2C65
330
29FC
100
AcDbEntity
  8
0
 62
     0
100
AcDbPolyline
 90
        2
 70
     0
 43
0.2
 10
235.525
 20
108.6593265115855
 10
235.525
 20
131.8593265115855
  0
LWPOLYLINE
  5
2C66
330
29FC
100
AcDbEntity
  8
0
 62
     0
100
AcDbPolyline
 90
        2
 70
     0
 43
0.2
 10
237.024
 20
134.8593265115855
 10
237.024
 20
111.6593265115855
  0
LWPOLYLINE
  5
2C67
330
29FC
100
AcDbEntity
  8
0
 62
     0
100
AcDbPolyline
 90
        2
 70
     0
 43
0.2
 10
238.525
 20
108.6593265115855
 10
238.525
 20
131.8593265115855
  0
LWPOLYLINE
  5
2C68
330
29FC
100
AcDbEntity
  8
0
 62
     0
100
AcDbPolyline
 90
        2
 70
     0
 43
0.2
 10
240.024
 20
134.8593265115855
 10
240.024
 20
111.6593265115855
  0
LWPOLYLINE
  5
2C69
330
29FC
100
AcDbEntity
  8
0
 62
     0
100
AcDbPolyline
 90
        2
 70
     0
 43
0.2
 10
293.113
 20
108.6593265115855
 10
293.113
 20
131.8593265115855
  0
LWPOLYLINE
  5
2C6A
330
29FC
100
AcDbEntity
  8
0
 62
     0
100
AcDbPolyline
 90
        2
 70
     0
 43
0.2
 10
294.614
 20
134.8593265115855
 10
294.614
 20
111.6593265115855
  0
LWPOLYLINE
  5
2C6B
330
29FC
100
AcDbEntity
  8
0
 62
     0
100
AcDbPolyline
 90
        2
 70
     0
 43
0.2
 10
296.114
 20
108.6593265115855
 10
296.114
 20
131.8593265115855
  0
LWPOLYLINE
  5
2C6C
330
29FC
100
AcDbEntity
  8
0
 62
     0
100
AcDbPolyline
 90
        2
 70
     0
 43
0.2
 10
297.614
 20
134.8593265115855
 10
297.614
 20
111.6593265115855
  0
LWPOLYLINE
  5
2C6D
330
29FC
100
AcDbEntity
  8
0
 62
     0
100
AcDbPolyline
 90
        2
 70
     0
 43
0.2
 10
299.1140000000001
 20
108.6593265115855
 10
299.1140000000001
 20
131.8593265115855
  0
LWPOLYLINE
  5
2C6E
330
29FC
100
AcDbEntity
  8
0
 62
     0
100
AcDbPolyline
 90
        2
 70
     0
 43
0.2
 10
300.614
 20
134.8593265115855
 10
300.614
 20
111.6593265115855
  0
LWPOLYLINE
  5
2C6F
330
29FC
100
AcDbEntity
  8
0
 62
     0
100
AcDbPolyline
 90
        2
 70
     0
 43
0.2
 10
302.1130000000001
 20
108.6593265115855
 10
302.1130000000001
 20
131.8593265115855
  0
LWPOLYLINE
  5
2C70
330
29FC
100
AcDbEntity
  8
0
 62
     0
100
AcDbPolyline
 90
        2
 70
     0
 43
0.2
 10
303.614
 20
134.8593265115855
 10
303.614
 20
111.6593265115855
  0
LWPOLYLINE
  5
2C71
330
29FC
100
AcDbEntity
  8
0
 62
     0
100
AcDbPolyline
 90
        2
 70
     0
 43
0.2
 10
305.1130000000001
 20
108.6593265115855
 10
305.1130000000001
 20
131.8593265115855
  0
LWPOLYLINE
  5
2C72
330
29FC
100
AcDbEntity
  8
0
 62
     0
100
AcDbPolyline
 90
        2
 70
     0
 43
0.2
 10
306.614
 20
134.8593265115855
 10
306.614
 20
111.6593265115855
  0
LWPOLYLINE
  5
2C73
330
29FC
100
AcDbEntity
  8
0
 62
     0
100
AcDbPolyline
 90
        2
 70
     0
 43
0.2
 10
308.1130000000001
 20
108.6593265115855
 10
308.1130000000001
 20
131.8593265115855
  0
LWPOLYLINE
  5
2C74
330
29FC
100
AcDbEntity
  8
0
 62
     0
100
AcDbPolyline
 90
        2
 70
     0
 43
0.2
 10
309.6140000000001
 20
134.8593265115855
 10
309.6140000000001
 20
111.6593265115855
  0
LWPOLYLINE
  5
2C75
330
29FC
100
AcDbEntity
  8
0
 62
     0
100
AcDbPolyline
 90
        2
 70
     0
 43
0.2
 10
311.1130000000001
 20
108.6593265115855
 10
311.1130000000001
 20
131.8593265115855
  0
LWPOLYLINE
  5
2C76
330
29FC
100
AcDbEntity
  8
0
 62
     0
100
AcDbPolyline
 90
        2
 70
     0
 43
0.2
 10
312.6130000000001
 20
134.8593265115855
 10
312.6130000000001
 20
111.6593265115855
  0
ENDSEC
  0
SECTION
  2
OBJECTS
  0
DICTIONARY
  5
2999
330
0
100
AcDbDictionary
281
     1
  3
ACAD_CIP_PREVIOUS_PRODUCT_INFO
350
2A9B
  3
ACAD_COLOR
350
29EF
  3
ACAD_DETAILVIEWSTYLE
350
29F6
  3
ACAD_GROUP
350
299A
  3
ACAD_LAST_SAVED_VERSION_INFO
350
2AF2
  3
ACAD_LAYOUT
350
29EE
  3
ACAD_MATERIAL
350
299D
  3
ACAD_MLEADERSTYLE
350
29F2
  3
ACAD_MLINESTYLE
350
29EB
  3
ACAD_PLOTSETTINGS
350
29ED
  3
ACAD_PLOTSTYLENAME
350
299B
  3
ACAD_SCALELIST
350
29CF
  3
ACAD_SECTIONVIEWSTYLE
350
29F4
  3
ACAD_TABLESTYLE
350
29F0
  3
ACAD_VISUALSTYLE
350
29B6
  3
ACDB_RECOMPOSE_DATA
350
2C87
  3
AcDbVariableDictionary
350
2AC1
  3
AcDsDecomposeData
350
2C8D
  0
DICTIONARY
  5
2BCC
330
298F
100
AcDbDictionary
280
     1
281
     1
  3
ACAD_LAYERSTATES
360
2BCD
  0
DICTIONARY
  5
2BC7
330
29E1
100
AcDbDictionary
280
     1
281
     1
  3
ADSK_XREC_LAYER_RECONCILED
360
2BC8
  0
DICTIONARY
  5
2AB4
330
29FC
100
AcDbDictionary
280
     1
281
     1
  3
ACAD_SORTENTS
360
2BC3
  0
XRECORD
  5
2A9B
102
{ACAD_REACTORS
330
2999
102
}
330
2999
100
AcDbXrecord
280
     1
300
ACD
300
2023
300

  0
DICTIONARY
  5
29EF
102
{ACAD_REACTORS
330
2999
102
}
330
2999
100
AcDbDictionary
281
     1
  0
DICTIONARY
  5
29F6
102
{ACAD_REACTORS
330
2999
102
}
330
2999
100
AcDbDictionary
281
     1
  3
Imperial24
350
29F7
  0
DICTIONARY
  5
299A
102
{ACAD_REACTORS
330
2999
102
}
330
2999
100
AcDbDictionary
281
     1
  0
XRECORD
  5
2AF2
102
{ACAD_REACTORS
330
2999
102
}
330
2999
100
AcDbXrecord
280
     1
300
{F624427F-9419-984A-9046-013CF4AD2E07}
301
{AB84F1E5-D023-AB40-9AC7-1062A1E479E6}
302
{F624427F-9419-984A-9046-013CF4AD2E07}
303
C:\Users\pinpo\Desktop\RoundedBox(1).dwg
  0
DICTIONARY
  5
29EE
102
{ACAD_REACTORS
330
2999
102
}
330
2999
100
AcDbDictionary
281
     1
  3
Layout1
350
29FB
  3
Model
350
29FF
  0
DICTIONARY
  5
299D
102
{ACAD_REACTORS
330
2999
102
}
330
2999
100
AcDbDictionary
281
     1
  3
ByBlock
350
29A6
  3
ByLayer
350
299E
  3
Global
350
29AE
  0
DICTIONARY
  5
29F2
102
{ACAD_REACTORS
330
2999
102
}
330
2999
100
AcDbDictionary
281
     1
  3
Standard
350
29F3
  0
DICTIONARY
  5
29EB
102
{ACAD_REACTORS
330
2999
102
}
330
2999
100
AcDbDictionary
281
     1
  3
Standard
350
29EC
  0
DICTIONARY
  5
29ED
102
{ACAD_REACTORS
330
2999
102
}
330
2999
100
AcDbDictionary
281
     1
  0
ACDBDICTIONARYWDFLT
  5
299B
102
{ACAD_REACTORS
330
2999
102
}
330
2999
100
AcDbDictionary
281
     1
  3
Normal
350
299C
100
AcDbDictionaryWithDefault
340
299C
  0
DICTIONARY
  5
29CF
102
{ACAD_REACTORS
330
2999
102
}
330
2999
100
AcDbDictionary
281
     1
  3
A0
350
29D0
  3
A1
350
29D1
  3
A2
350
29D2
  3
A3
350
29D3
  3
A4
350
29D4
  3
A5
350
29D5
  3
A6
350
29D6
  3
A7
350
29D7
  3
A8
350
29D8
  3
A9
350
29D9
  3
B0
350
29DA
  3
B1
350
29DB
  3
B2
350
29DC
  3
B3
350
29DD
  3
B4
350
29DE
  3
B5
350
29DF
  3
B6
350
29E0
  0
DICTIONARY
  5
29F4
102
{ACAD_REACTORS
330
2999
102
}
330
2999
100
AcDbDictionary
281
     1
  3
Imperial24
350
29F5
  0
DICTIONARY
  5
29F0
102
{ACAD_REACTORS
330
2999
102
}
330
2999
100
AcDbDictionary
281
     1
  3
Standard
350
29F1
  0
DICTIONARY
  5
29B6
102
{ACAD_REACTORS
330
2999
102
}
330
2999
100
AcDbDictionary
281
     1
  3
2dWireframe
350
29BC
  3
Basic
350
29BB
  3
Brighten
350
29C2
  3
ColorChange
350
29C6
  3
Conceptual
350
29BF
  3
Dim
350
29C1
  3
EdgeColorOff
350
29CE
  3
Facepattern
350
29C5
  3
Flat
350
29B7
  3
FlatWithEdges
350
29B8
  3
Gouraud
350
29B9
  3
GouraudWithEdges
350
29BA
  3
Hidden
350
29BE
  3
JitterOff
350
29CC
  3
Linepattern
350
29C4
  3
OverhangOff
350
29CD
  3
Realistic
350
29C0
  3
Shaded
350
29CB
  3
Shaded with edges
350
29CA
  3
Shades of Gray
350
29C7
  3
Sketchy
350
29C8
  3
Thicken
350
29C3
  3
Wireframe
350
29BD
  3
X-Ray
350
29C9
  0
XRECORD
  5
2C87
102
{ACAD_REACTORS
330
2999
102
}
330
2999
100
AcDbXrecord
280
     1
 90
        1
330
29F1
  0
DICTIONARY
  5
2AC1
102
{ACAD_REACTORS
330
2999
102
}
330
2999
100
AcDbDictionary
281
     1
  3
CANNOSCALE
350
2AF8
  3
CMLEADERSTYLE
350
2AF4
  3
CTABLESTYLE
350
2AF3
  3
CVIEWDETAILSTYLE
350
2AF5
  3
CVIEWSECTIONSTYLE
350
2AF6
  3
LAYEREVAL
350
2AFA
  3
LAYERNOTIFY
350
2AFB
  3
LIGHTINGUNITS
350
2AF9
  3
MSLTSCALE
350
2AF7
  0
DICTIONARY
  5
2C8D
102
{ACAD_REACTORS
330
2999
102
}
330
2999
100
AcDbDictionary
281
     1
  3
AcDsRecords
350
2C8F
  3
AcDsSchemas
350
2C8E
1001
ACAD
1070
     2
  0
DICTIONARY
  5
2BCD
102
{ACAD_REACTORS
330
2BCC
102
}
330
2BCC
100
AcDbDictionary
281
     1
  0
XRECORD
  5
2BC8
102
{ACAD_REACTORS
330
2BC7
102
}
330
2BC7
100
AcDbXrecord
280
     1
290
     1
  0
SORTENTSTABLE
  5
2BC3
102
{ACAD_REACTORS
330
2AB4
102
}
330
2AB4
100
AcDbSortentsTable
330
29FC
331
2ADC
  5
2BA1
331
2ADD
  5
2BA2
331
2AE5
  5
2BA3
331
2AE6
  5
2BA4
331
2AE7
  5
2BA5
331
2AE8
  5
2BA6
331
2BB0
  5
2BEE
331
2BB1
  5
2BEF
331
2BB2
  5
2BF1
331
2BB3
  5
2BF3
331
2BC2
  5
2BF5
331
2BC4
  5
2BF4
331
2BC5
  5
2BF2
331
2BC6
  5
2BF0
331
2BDB
  5
2B9E
331
2BDC
  5
2B9F
331
2BDD
  5
2BA0
331
2BDE
  5
2B9B
331
2BDF
  5
2B9C
331
2BE0
  5
2B9D
331
2BE1
  5
2B98
331
2BE2
  5
2B99
331
2BE3
  5
2B9A
331
2BE4
  5
2B95
331
2BE5
  5
2B96
331
2BE6
  5
2B97
331
2BE7
  5
2B92
331
2BE8
  5
2B93
331
2BE9
  5
2B94
331
2BEA
  5
2B8F
331
2BEB
  5
2B90
331
2BEC
  5
2B91
331
2BED
  5
2B8C
331
2BEE
  5
2B8D
331
2BEF
  5
2B8E
331
2BF0
  5
2B89
331
2BF1
  5
2B8A
331
2BF2
  5
2B8B
331
2BF3
  5
2B86
331
2BF4
  5
2B87
331
2BF5
  5
2B88
  0
ACDBDETAILVIEWSTYLE
  5
29F7
102
{ACAD_XDICTIONARY
360
2C92
102
}
102
{ACAD_REACTORS
330
29F6
102
}
330
29F6
100
AcDbModelDocViewStyle
 70
     0
  3
Imperial24
290
     0
100
AcDbDetailViewStyle
 70
     0
 71
     0
 90
        3
 71
     1
340
29E2
 62
   256
 40
0.24
340
0
 62
   256
 40
0.24
300

 40
0.36
280
     3
 71
     2
340
29E9
 90
       25
 62
   256
 71
     3
340
29E2
 62
   256
 40
0.24
 90
        1
 40
0.75
 90
        1
300
%<\AcVar ViewType \f "%tc1">% %<\AcVar ViewDetailId>%\PSCALE %<\AcVar ViewScale \f "%sn">%
 71
     4
340
29E9
 90
       25
 62
   256
340
29E9
 90
       25
 62
   256
280
     0
  0
LAYOUT
  5
29FB
102
{ACAD_REACTORS
330
29EE
102
}
330
29EE
100
AcDbPlotSettings
  1

  2
OKI C833 PCL6
  4

  6

 40
0.0
 41
0.0
 42
0.0
 43
0.0
 44
0.0
 45
0.0
 46
0.0
 47
0.0
 48
0.0
 49
0.0
140
0.0
141
0.0
142
1.0
143
1.0
 70
   688
 72
     0
 73
     0
 74
     5
  7

 75
    16
147
1.0
 76
     0
 77
     2
 78
   300
148
0.0
149
0.0
100
AcDbLayout
  1
Layout1
 70
     1
 71
     1
 10
0.0
 20
0.0
 11
12.0
 21
9.0
 12
0.0
 22
0.0
 32
0.0
 14
1.000000000000000E+20
 24
1.000000000000000E+20
 34
1.000000000000000E+20
 15
-1.000000000000000E+20
 25
-1.000000000000000E+20
 35
-1.000000000000000E+20
146
0.0
 13
0.0
 23
0.0
 33
0.0
 16
1.0
 26
0.0
 36
0.0
 17
0.0
 27
1.0
 37
0.0
 76
     0
330
29F8
  0
LAYOUT
  5
29FF
102
{ACAD_REACTORS
330
29EE
102
}
330
29EE
100
AcDbPlotSettings
  1

  2
OKI C833 PCL6
  4

  6

 40
0.0
 41
0.0
 42
0.0
 43
0.0
 44
0.0
 45
0.0
 46
0.0
 47
0.0
 48
0.0
 49
0.0
140
0.0
141
0.0
142
1.0
143
1.0
 70
  1712
 72
     0
 73
     0
 74
     0
  7

 75
     0
147
1.0
 76
     0
 77
     2
 78
   300
148
0.0
149
0.0
100
AcDbLayout
  1
Model
 70
     1
 71
     0
 10
0.0
 20
0.0
 11
12.0
 21
9.0
 12
0.0
 22
0.0
 32
0.0
 14
0.0
 24
0.0
 34
0.0
 15
0.0
 25
0.0
 35
0.0
146
0.0
 13
0.0
 23
0.0
 33
0.0
 16
1.0
 26
0.0
 36
0.0
 17
0.0
 27
1.0
 37
0.0
 76
     0
330
29FC
331
2A00
  0
MATERIAL
  5
29A6
102
{ACAD_XDICTIONARY
360
29A7
102
}
102
{ACAD_REACTORS
330
299D
102
}
330
299D
100
AcDbMaterial
  1
ByBlock
 72
     0
 43
0.0208333333333333
 43
0.0
 43
0.0
 43
0.0
 43
0.0
 43
0.0208333333333333
 43
0.0
 43
0.0
 43
0.0
 43
0.0
 43
1.0
 43
0.0
 43
0.0
 43
0.0
 43
0.0
 43
1.0
 77
     0
 47
0.0208333333333333
 47
0.0
 47
0.0
 47
0.0
 47
0.0
 47
0.0208333333333333
 47
0.0
 47
0.0
 47
0.0
 47
0.0
 47
1.0
 47
0.0
 47
0.0
 47
0.0
 47
0.0
 47
1.0
171
     0
 49
0.0208333333333333
 49
0.0
 49
0.0
 49
0.0
 49
0.0
 49
0.0208333333333333
 49
0.0
 49
0.0
 49
0.0
 49
0.0
 49
1.0
 49
0.0
 49
0.0
 49
0.0
 49
0.0
 49
1.0
175
     0
142
0.0208333333333333
142
0.0
142
0.0
142
0.0
142
0.0
142
0.0208333333333333
142
0.0
142
0.0
142
0.0
142
0.0
142
1.0
142
0.0
142
0.0
142
0.0
142
0.0
142
1.0
179
     0
144
0.0208333333333333
144
0.0
144
0.0
144
0.0
144
0.0
144
0.0208333333333333
144
0.0
144
0.0
144
0.0
144
0.0
144
1.0
144
0.0
144
0.0
144
0.0
144
0.0
144
1.0
147
0.0208333333333333
147
0.0
147
0.0
147
0.0
147
0.0
147
0.0208333333333333
147
0.0
147
0.0
147
0.0
147
0.0
147
1.0
147
0.0
147
0.0
147
0.0
147
0.0
147
1.0
  0
MATERIAL
  5
299E
102
{ACAD_XDICTIONARY
360
299F
102
}
102
{ACAD_REACTORS
330
299D
102
}
330
299D
100
AcDbMaterial
  1
ByLayer
 72
     0
 43
0.0208333333333333
 43
0.0
 43
0.0
 43
0.0
 43
0.0
 43
0.0208333333333333
 43
0.0
 43
0.0
 43
0.0
 43
0.0
 43
1.0
 43
0.0
 43
0.0
 43
0.0
 43
0.0
 43
1.0
 77
     0
 47
0.0208333333333333
 47
0.0
 47
0.0
 47
0.0
 47
0.0
 47
0.0208333333333333
 47
0.0
 47
0.0
 47
0.0
 47
0.0
 47
1.0
 47
0.0
 47
0.0
 47
0.0
 47
0.0
 47
1.0
171
     0
 49
0.0208333333333333
 49
0.0
 49
0.0
 49
0.0
 49
0.0
 49
0.0208333333333333
 49
0.0
 49
0.0
 49
0.0
 49
0.0
 49
1.0
 49
0.0
 49
0.0
 49
0.0
 49
0.0
 49
1.0
175
     0
142
0.0208333333333333
142
0.0
142
0.0
142
0.0
142
0.0
142
0.0208333333333333
142
0.0
142
0.0
142
0.0
142
0.0
142
1.0
142
0.0
142
0.0
142
0.0
142
0.0
142
1.0
179
     0
144
0.0208333333333333
144
0.0
144
0.0
144
0.0
144
0.0
144
0.0208333333333333
144
0.0
144
0.0
144
0.0
144
0.0
144
1.0
144
0.0
144
0.0
144
0.0
144
0.0
144
1.0
147
0.0208333333333333
147
0.0
147
0.0
147
0.0
147
0.0
147
0.0208333333333333
147
0.0
147
0.0
147
0.0
147
0.0
147
1.0
147
0.0
147
0.0
147
0.0
147
0.0
147
1.0
  0
MATERIAL
  5
29AE
102
{ACAD_XDICTIONARY
360
29AF
102
}
102
{ACAD_REACTORS
330
299D
102
}
330
299D
100
AcDbMaterial
  1
Global
 72
     0
 43
0.0208333333333333
 43
0.0
 43
0.0
 43
0.0
 43
0.0
 43
0.0208333333333333
 43
0.0
 43
0.0
 43
0.0
 43
0.0
 43
1.0
 43
0.0
 43
0.0
 43
0.0
 43
0.0
 43
1.0
 77
     0
 47
0.0208333333333333
 47
0.0
 47
0.0
 47
0.0
 47
0.0
 47
0.0208333333333333
 47
0.0
 47
0.0
 47
0.0
 47
0.0
 47
1.0
 47
0.0
 47
0.0
 47
0.0
 47
0.0
 47
1.0
171
     0
 49
0.0208333333333333
 49
0.0
 49
0.0
 49
0.0
 49
0.0
 49
0.0208333333333333
 49
0.0
 49
0.0
 49
0.0
 49
0.0
 49
1.0
 49
0.0
 49
0.0
 49
0.0
 49
0.0
 49
1.0
175
     0
142
0.0208333333333333
142
0.0
142
0.0
142
0.0
142
0.0
142
0.0208333333333333
142
0.0
142
0.0
142
0.0
142
0.0
142
1.0
142
0.0
142
0.0
142
0.0
142
0.0
142
1.0
179
     0
144
0.0208333333333333
144
0.0
144
0.0
144
0.0
144
0.0
144
0.0208333333333333
144
0.0
144
0.0
144
0.0
144
0.0
144
1.0
144
0.0
144
0.0
144
0.0
144
0.0
144
1.0
147
0.0208333333333333
147
0.0
147
0.0
147
0.0
147
0.0
147
0.0208333333333333
147
0.0
147
0.0
147
0.0
147
0.0
147
1.0
147
0.0
147
0.0
147
0.0
147
0.0
147
1.0
  0
MLEADERSTYLE
  5
29F3
102
{ACAD_REACTORS
330
29F2
102
}
330
29F2
100
AcDbMLeaderStyle
179
     2
170
     2
171
     1
172
     0
 90
        2
 40
0.0
 41
0.0
173
     1
 91
-1056964608
340
29E7
 92
       -2
290
     1
 42
0.09
291
     1
 43
0.36
  3
Standard
 44
0.18
300

342
29E2
174
     1
178
     6
175
     1
176
     0
 93
-1056964608
 45
0.18
292
     0
297
     0
 46
0.18
 94
-1056964608
 47
1.0
 49
1.0
140
1.0
293
     1
141
0.0
294
     1
177
     0
142
1.0
295
     0
296
     0
143
0.125
271
     0
272
     9
273
     9
298
     0
  0
MLINESTYLE
  5
29EC
102
{ACAD_REACTORS
330
29EB
102
}
330
29EB
100
AcDbMlineStyle
  2
STANDARD
 70
     0
  3

 62
   256
 51
90.0
 52
90.0
 71
     2
 49
0.5
 62
   256
  6
BYLAYER
 49
-0.5
 62
   256
  6
BYLAYER
  0
ACDBPLACEHOLDER
  5
299C
102
{ACAD_REACTORS
330
299B
102
}
330
299B
  0
SCALE
  5
29D0
102
{ACAD_REACTORS
330
29CF
102
}
330
29CF
100
AcDbScale
 70
     0
300
1:1
140
1.0
141
1.0
290
     1
  0
SCALE
  5
29D1
102
{ACAD_REACTORS
330
29CF
102
}
330
29CF
100
AcDbScale
 70
     0
300
1/128" = 1'-0"
140
0.0078125
141
12.0
290
     0
  0
SCALE
  5
29D2
102
{ACAD_REACTORS
330
29CF
102
}
330
29CF
100
AcDbScale
 70
     0
300
1/64" = 1'-0"
140
0.015625
141
12.0
290
     0
  0
SCALE
  5
29D3
102
{ACAD_REACTORS
330
29CF
102
}
330
29CF
100
AcDbScale
 70
     0
300
1/32" = 1'-0"
140
0.03125
141
12.0
290
     0
  0
SCALE
  5
29D4
102
{ACAD_REACTORS
330
29CF
102
}
330
29CF
100
AcDbScale
 70
     0
300
1/16" = 1'-0"
140
0.0625
141
12.0
290
     0
  0
SCALE
  5
29D5
102
{ACAD_REACTORS
330
29CF
102
}
330
29CF
100
AcDbScale
 70
     0
300
3/32" = 1'-0"
140
0.09375
141
12.0
290
     0
  0
SCALE
  5
29D6
102
{ACAD_REACTORS
330
29CF
102
}
330
29CF
100
AcDbScale
 70
     0
300
1/8" = 1'-0"
140
0.125
141
12.0
290
     0
  0
SCALE
  5
29D7
102
{ACAD_REACTORS
330
29CF
102
}
330
29CF
100
AcDbScale
 70
     0
300
3/16" = 1'-0"
140
0.1875
141
12.0
290
     0
  0
SCALE
  5
29D8
102
{ACAD_REACTORS
330
29CF
102
}
330
29CF
100
AcDbScale
 70
     0
300
1/4" = 1'-0"
140
0.25
141
12.0
290
     0
  0
SCALE
  5
29D9
102
{ACAD_REACTORS
330
29CF
102
}
330
29CF
100
AcDbScale
 70
     0
300
3/8" = 1'-0"
140
0.375
141
12.0
290
     0
  0
SCALE
  5
29DA
102
{ACAD_REACTORS
330
29CF
102
}
330
29CF
100
AcDbScale
 70
     0
300
1/2" = 1'-0"
140
0.5
141
12.0
290
     0
  0
SCALE
  5
29DB
102
{ACAD_REACTORS
330
29CF
102
}
330
29CF
100
AcDbScale
 70
     0
300
3/4" = 1'-0"
140
0.75
141
12.0
290
     0
  0
SCALE
  5
29DC
102
{ACAD_REACTORS
330
29CF
102
}
330
29CF
100
AcDbScale
 70
     0
300
1" = 1'-0"
140
1.0
141
12.0
290
     0
  0
SCALE
  5
29DD
102
{ACAD_REACTORS
330
29CF
102
}
330
29CF
100
AcDbScale
 70
     0
300
1-1/2" = 1'-0"
140
1.5
141
12.0
290
     0
  0
SCALE
  5
29DE
102
{ACAD_REACTORS
330
29CF
102
}
330
29CF
100
AcDbScale
 70
     0
300
3" = 1'-0"
140
3.0
141
12.0
290
     0
  0
SCALE
  5
29DF
102
{ACAD_REACTORS
330
29CF
102
}
330
29CF
100
AcDbScale
 70
     0
300
6" = 1'-0"
140
6.0
141
12.0
290
     0
  0
SCALE
  5
29E0
102
{ACAD_REACTORS
330
29CF
102
}
330
29CF
100
AcDbScale
 70
     0
300
1'-0" = 1'-0"
140
12.0
141
12.0
290
     0
  0
ACDBSECTIONVIEWSTYLE
  5
29F5
102
{ACAD_XDICTIONARY
360
2C90
102
}
102
{ACAD_REACTORS
330
29F4
102
}
330
29F4
100
AcDbModelDocViewStyle
 70
     0
  3
Imperial24
290
     0
100
AcDbSectionViewStyle
 70
     0
 71
     0
 90
       78
 71
     1
340
29E2
 62
   256
 40
0.24
340
0
340
0
 62
   256
 40
0.24
300
I, O, Q, S, X, Z
 40
0.48
 90
        3
 40
0.18
 90
        1
 71
     2
340
29E9
 90
       25
 62
   256
340
29E9
 90
       50
 62
   256
 40
0.24
 40
0.0
 40
0.24
 71
     3
340
29E2
 62
   256
 40
0.24
 90
        1
 40
0.75
 90
        1
300
%<\AcVar ViewType \f "%tc1">% %<\AcVar ViewSectionStartId>%-%<\AcVar ViewSectionEndId>%\PSCALE %<\AcVar ViewScale \f "%sn">%
 71
     4
 62
   256
 62
   257
300
ANSI31
 40
1.0
 90
        0
290
     0
290
     0
 90
        6
 40
0.0
 40
1.570796326794896
 40
0.2617993877991494
 40
1.308996938995747
 40
-0.2617993877991494
 40
1.832595714594046
  0
TABLESTYLE
  5
29F1
102
{ACAD_XDICTIONARY
360
2C85
102
}
102
{ACAD_REACTORS
330
29F0
102
}
330
29F0
100
AcDbTableStyle
280
     0
  3
Standard
 70
     0
 71
     0
 40
0.06
 41
0.06
280
     0
281
     0
  7
STANDARD
140
0.18
170
     2
 62
     0
 63
     7
283
     0
 90
      512
 91
        0
  1

274
    -2
284
     1
 64
     0
275
    -2
285
     1
 65
     0
276
    -2
286
     1
 66
     0
277
    -2
287
     1
 67
     0
278
    -2
288
     1
 68
     0
279
    -2
289
     1
 69
     0
  7
STANDARD
140
0.25
170
     5
 62
     0
 63
     7
283
     0
 90
      512
 91
        0
  1

274
    -2
284
     1
 64
     0
275
    -2
285
     1
 65
     0
276
    -2
286
     1
 66
     0
277
    -2
287
     1
 67
     0
278
    -2
288
     1
 68
     0
279
    -2
289
     1
 69
     0
  7
STANDARD
140
0.18
170
     5
 62
     0
 63
     7
283
     0
 90
      512
 91
        0
  1

274
    -2
284
     1
 64
     0
275
    -2
285
     1
 65
     0
276
    -2
286
     1
 66
     0
277
    -2
287
     1
 67
     0
278
    -2
288
     1
 68
     0
279
    -2
289
     1
 69
     0
  0
VISUALSTYLE
  5
29BC
102
{ACAD_REACTORS
330
29B6
102
}
330
29B6
100
AcDbVisualStyle
  2
2dWireframe
 70
     4
177
     3
291
     0
 70
    58
 90
        0
176
     1
 90
        2
176
     1
 90
        0
176
     1
 90
        0
176
     1
 40
0.6
176
     1
 40
30.0
176
     1
 62
     7
420
 16777215
176
     1
 90
        1
176
     1
 90
        4
176
     1
 62
     7
176
     1
 62
   257
176
     1
 90
        1
176
     1
 90
        1
176
     1
 40
1.0
176
     1
 90
        0
176
     1
 62
   257
176
     1
 40
1.0
176
     1
 90
        1
176
     1
 90
        6
176
     1
 90
        2
176
     1
 62
     7
176
     1
 90
        5
176
     1
 90
        0
176
     1
 90
        0
176
     1
290
     0
176
     1
 90
        1
176
     1
 40
0.0
176
     1
 90
        0
176
     1
290
     1
176
     1
290
     1
176
     1
290
     0
176
     1
290
     0
176
     1
290
     0
176
     1
290
     0
176
     1
290
     0
176
     1
290
     0
176
     1
290
     0
176
     1
 90
       50
176
     1
 40
0.0
176
     1
 40
1.0
176
     1
 90
        0
176
     1
 62
    18
420
        0
176
     1
 90
       50
176
     1
 90
        3
176
     1
 62
     5
420
      255
176
     1
290
     0
176
     1
 90
       50
176
     1
 90
       50
176
     1
 90
       50
176
     1
290
     0
176
     1
 90
       50
176
     1
 62
   256
176
     0
 40
1.0
176
     0
 90
        2
176
     1
  1
strokes_ogs.tif
176
     1
290
     0
176
     1
 40
1.0
176
     1
 40
1.0
176
     1
1001
ACAD
1000
AcDbSavedByObjectVersion
1070
     0
  0
VISUALSTYLE
  5
29BB
102
{ACAD_REACTORS
330
29B6
102
}
330
29B6
100
AcDbVisualStyle
  2
Basic
 70
     7
177
     3
291
     1
 70
    58
 90
        1
176
     1
 90
        0
176
     1
 90
        1
176
     1
 90
        0
176
     1
 40
0.6
176
     1
 40
30.0
176
     1
 62
     7
420
 16777215
176
     1
 90
        0
176
     1
 90
        4
176
     1
 62
     7
176
     1
 62
   257
176
     1
 90
        1
176
     1
 90
        1
176
     1
 40
1.0
176
     1
 90
        8
176
     1
 62
     7
176
     1
 40
1.0
176
     1
 90
        1
176
     1
 90
        6
176
     1
 90
        2
176
     1
 62
     7
176
     1
 90
        5
176
     1
 90
        0
176
     1
 90
        0
176
     1
290
     0
176
     1
 90
        1
176
     1
 40
0.0
176
     1
 90
        0
176
     1
290
     0
176
     1
290
     1
176
     1
290
     1
176
     1
290
     0
176
     1
290
     0
176
     1
290
     0
176
     1
290
     0
176
     1
290
     0
176
     1
290
     0
176
     1
 90
       50
176
     1
 40
0.0
176
     1
 40
1.0
176
     1
 90
        0
176
     1
 62
    18
420
        0
176
     1
 90
       50
176
     1
 90
        3
176
     1
 62
     5
420
      255
176
     1
290
     0
176
     1
 90
       50
176
     1
 90
       50
176
     1
 90
       50
176
     1
290
     0
176
     1
 90
       50
176
     1
 62
   256
176
     0
 40
1.0
176
     0
 90
        2
176
     1
  1
strokes_ogs.tif
176
     1
290
     0
176
     1
 40
1.0
176
     1
 40
1.0
176
     1
1001
ACAD
1000
AcDbSavedByObjectVersion
1070
     0
  0
VISUALSTYLE
  5
29C2
102
{ACAD_REACTORS
330
29B6
102
}
330
29B6
100
AcDbVisualStyle
  2
Brighten
 70
    12
177
     3
291
     1
 70
    58
 90
        2
176
     1
 90
        2
176
     1
 90
        0
176
     1
 90
        0
176
     1
 40
0.6
176
     1
 40
30.0
176
     1
 62
     7
420
 16777215
176
     1
 90
        1
176
     1
 90
        4
176
     1
 62
     7
176
     1
 62
   257
176
     1
 90
        1
176
     1
 90
        1
176
     1
 40
1.0
176
     1
 90
        8
176
     1
 62
     7
176
     1
 40
1.0
176
     1
 90
        1
176
     1
 90
        6
176
     1
 90
        2
176
     1
 62
     7
176
     1
 90
        5
176
     1
 90
        0
176
     1
 90
        0
176
     1
290
     0
176
     1
 90
        1
176
     1
 40
50.0
176
     1
 90
        0
176
     1
290
     0
176
     1
290
     1
176
     1
290
     1
176
     1
290
     0
176
     1
290
     0
176
     1
290
     0
176
     1
290
     0
176
     1
290
     0
176
     1
290
     0
176
     1
 90
       50
176
     1
 40
0.0
176
     1
 40
1.0
176
     1
 90
        0
176
     1
 62
    18
420
        0
176
     1
 90
       50
176
     1
 90
        3
176
     1
 62
     5
420
      255
176
     1
290
     0
176
     1
 90
       50
176
     1
 90
       50
176
     1
 90
       50
176
     1
290
     0
176
     1
 90
       50
176
     1
 62
   256
176
     0
 40
1.0
176
     0
 90
        2
176
     1
  1
strokes_ogs.tif
176
     1
290
     0
176
     1
 40
1.0
176
     1
 40
1.0
176
     1
1001
ACAD
1000
AcDbSavedByObjectVersion
1070
     0
  0
VISUALSTYLE
  5
29C6
102
{ACAD_REACTORS
330
29B6
102
}
330
29B6
100
AcDbVisualStyle
  2
ColorChange
 70
    16
177
     3
291
     1
 70
    58
 90
        2
176
     1
 90
        2
176
     1
 90
        3
176
     1
 90
        0
176
     1
 40
0.6
176
     1
 40
30.0
176
     1
 62
     8
420
  8421504
176
     1
 90
        1
176
     1
 90
        4
176
     1
 62
     7
176
     1
 62
   257
176
     1
 90
        1
176
     1
 90
        1
176
     1
 40
1.0
176
     1
 90
        8
176
     1
 62
     8
420
  8421504
176
     1
 40
1.0
176
     1
 90
        1
176
     1
 90
        6
176
     1
 90
        2
176
     1
 62
     7
176
     1
 90
        5
176
     1
 90
        0
176
     1
 90
        0
176
     1
290
     0
176
     1
 90
        1
176
     1
 40
0.0
176
     1
 90
        0
176
     1
290
     0
176
     1
290
     1
176
     1
290
     1
176
     1
290
     0
176
     1
290
     0
176
     1
290
     0
176
     1
290
     0
176
     1
290
     0
176
     1
290
     0
176
     1
 90
       50
176
     1
 40
0.0
176
     1
 40
1.0
176
     1
 90
        0
176
     1
 62
    18
420
        0
176
     1
 90
       50
176
     1
 90
        3
176
     1
 62
     5
420
      255
176
     1
290
     0
176
     1
 90
       50
176
     1
 90
       50
176
     1
 90
       50
176
     1
290
     0
176
     1
 90
       50
176
     1
 62
   256
176
     0
 40
1.0
176
     0
 90
        2
176
     1
  1
strokes_ogs.tif
176
     1
290
     0
176
     1
 40
1.0
176
     1
 40
1.0
176
     1
1001
ACAD
1000
AcDbSavedByObjectVersion
1070
     0
  0
VISUALSTYLE
  5
29BF
102
{ACAD_REACTORS
330
29B6
102
}
330
29B6
100
AcDbVisualStyle
  2
Conceptual
 70
     9
177
     3
291
     0
 70
    58
 90
        3
176
     1
 90
        2
176
     1
 90
        0
176
     1
 90
        0
176
     1
 40
0.6
176
     1
 40
30.0
176
     1
 62
     7
420
 16777215
176
     1
 90
        2
176
     1
 90
        2
176
     1
 62
     7
176
     1
 62
   257
176
     1
 90
        1
176
     1
 90
        1
176
     1
 40
179.0
176
     1
 90
        8
176
     1
 62
     7
176
     1
 40
1.0
176
     1
 90
        1
176
     1
 90
        6
176
     1
 90
        2
176
     1
 62
     7
176
     1
 90
        3
176
     1
 90
        0
176
     1
 90
        0
176
     1
290
     0
176
     1
 90
        1
176
     1
 40
0.0
176
     1
 90
        0
176
     1
290
     0
176
     1
290
     1
176
     1
290
     1
176
     1
290
     0
176
     1
290
     0
176
     1
290
     0
176
     1
290
     0
176
     1
290
     0
176
     1
290
     0
176
     1
 90
       50
176
     1
 40
0.0
176
     1
 40
1.0
176
     1
 90
        0
176
     1
 62
    18
420
        0
176
     1
 90
       50
176
     1
 90
        3
176
     1
 62
     5
420
      255
176
     1
290
     0
176
     1
 90
       50
176
     1
 90
       50
176
     1
 90
       50
176
     1
290
     0
176
     1
 90
       50
176
     1
 62
   256
176
     0
 40
1.0
176
     0
 90
        2
176
     1
  1
strokes_ogs.tif
176
     1
290
     0
176
     1
 40
1.0
176
     1
 40
1.0
176
     1
1001
ACAD
1000
AcDbSavedByObjectVersion
1070
     0
  0
VISUALSTYLE
  5
29C1
102
{ACAD_REACTORS
330
29B6
102
}
330
29B6
100
AcDbVisualStyle
  2
Dim
 70
    11
177
     3
291
     1
 70
    58
 90
        2
176
     1
 90
        2
176
     1
 90
        0
176
     1
 90
        0
176
     1
 40
0.6
176
     1
 40
30.0
176
     1
 62
     7
420
 16777215
176
     1
 90
        1
176
     1
 90
        4
176
     1
 62
     7
176
     1
 62
   257
176
     1
 90
        1
176
     1
 90
        1
176
     1
 40
1.0
176
     1
 90
        8
176
     1
 62
     7
176
     1
 40
1.0
176
     1
 90
        1
176
     1
 90
        6
176
     1
 90
        2
176
     1
 62
     7
176
     1
 90
        5
176
     1
 90
        0
176
     1
 90
        0
176
     1
290
     0
176
     1
 90
        1
176
     1
 40
-50.0
176
     1
 90
        0
176
     1
290
     0
176
     1
290
     1
176
     1
290
     1
176
     1
290
     0
176
     1
290
     0
176
     1
290
     0
176
     1
290
     0
176
     1
290
     0
176
     1
290
     0
176
     1
 90
       50
176
     1
 40
0.0
176
     1
 40
1.0
176
     1
 90
        0
176
     1
 62
    18
420
        0
176
     1
 90
       50
176
     1
 90
        3
176
     1
 62
     5
420
      255
176
     1
290
     0
176
     1
 90
       50
176
     1
 90
       50
176
     1
 90
       50
176
     1
290
     0
176
     1
 90
       50
176
     1
 62
   256
176
     0
 40
1.0
176
     0
 90
        2
176
     1
  1
strokes_ogs.tif
176
     1
290
     0
176
     1
 40
1.0
176
     1
 40
1.0
176
     1
1001
ACAD
1000
AcDbSavedByObjectVersion
1070
     0
  0
VISUALSTYLE
  5
29CE
102
{ACAD_REACTORS
330
29B6
102
}
330
29B6
100
AcDbVisualStyle
  2
EdgeColorOff
 70
    22
177
     3
291
     1
 70
    58
 90
        2
176
     0
 90
        2
176
     0
 90
        0
176
     0
 90
        0
176
     0
 40
0.6
176
     0
 40
30.0
176
     0
 62
     7
420
 16777215
176
     0
 90
        1
176
     0
 90
        4
176
     0
 62
     7
176
     0
 62
   257
176
     0
 90
        1
176
     0
 90
        1
176
     0
 40
1.0
176
     0
 90
        8
176
     2
 62
     7
176
     0
 40
1.0
176
     0
 90
        1
176
     0
 90
        6
176
     0
 90
        2
176
     0
 62
     7
176
     0
 90
        5
176
     0
 90
        0
176
     0
 90
        0
176
     0
290
     0
176
     0
 90
        1
176
     0
 40
0.0
176
     0
 90
        0
176
     0
290
     0
176
     1
290
     1
176
     1
290
     1
176
     1
290
     0
176
     1
290
     0
176
     1
290
     0
176
     1
290
     0
176
     1
290
     0
176
     1
290
     0
176
     1
 90
       50
176
     0
 40
0.0
176
     0
 40
1.0
176
     0
 90
        0
176
     0
 62
    18
420
        0
176
     0
 90
       50
176
     0
 90
        3
176
     0
 62
     5
420
      255
176
     0
290
     0
176
     1
 90
       50
176
     0
 90
       50
176
     0
 90
       50
176
     0
290
     0
176
     1
 90
       50
176
     0
 62
   256
176
     0
 40
1.0
176
     0
 90
        2
176
     0
  1
strokes_ogs.tif
176
     0
290
     0
176
     1
 40
1.0
176
     0
 40
1.0
176
     0
1001
ACAD
1000
AcDbSavedByObjectVersion
1070
     0
  0
VISUALSTYLE
  5
29C5
102
{ACAD_REACTORS
330
29B6
102
}
330
29B6
100
AcDbVisualStyle
  2
Facepattern
 70
    15
177
     3
291
     1
 70
    58
 90
        2
176
     1
 90
        2
176
     1
 90
        0
176
     1
 90
        0
176
     1
 40
0.6
176
     1
 40
30.0
176
     1
 62
     7
420
 16777215
176
     1
 90
        1
176
     1
 90
        4
176
     1
 62
     7
176
     1
 62
   257
176
     1
 90
        1
176
     1
 90
        1
176
     1
 40
1.0
176
     1
 90
        8
176
     1
 62
     7
176
     1
 40
1.0
176
     1
 90
        1
176
     1
 90
        6
176
     1
 90
        2
176
     1
 62
     7
176
     1
 90
        5
176
     1
 90
        0
176
     1
 90
        0
176
     1
290
     0
176
     1
 90
        1
176
     1
 40
0.0
176
     1
 90
        0
176
     1
290
     0
176
     1
290
     1
176
     1
290
     1
176
     1
290
     0
176
     1
290
     0
176
     1
290
     0
176
     1
290
     0
176
     1
290
     0
176
     1
290
     0
176
     1
 90
       50
176
     1
 40
0.0
176
     1
 40
1.0
176
     1
 90
        0
176
     1
 62
    18
420
        0
176
     1
 90
       50
176
     1
 90
        3
176
     1
 62
     5
420
      255
176
     1
290
     0
176
     1
 90
       50
176
     1
 90
       50
176
     1
 90
       50
176
     1
290
     0
176
     1
 90
       50
176
     1
 62
   256
176
     0
 40
1.0
176
     0
 90
        2
176
     1
  1
strokes_ogs.tif
176
     1
290
     0
176
     1
 40
1.0
176
     1
 40
1.0
176
     1
1001
ACAD
1000
AcDbSavedByObjectVersion
1070
     0
  0
VISUALSTYLE
  5
29B7
102
{ACAD_REACTORS
330
29B6
102
}
330
29B6
100
AcDbVisualStyle
  2
Flat
 70
     0
177
     3
291
     1
 70
    58
 90
        2
176
     1
 90
        1
176
     1
 90
        1
176
     1
 90
        2
176
     1
 40
0.6
176
     1
 40
30.0
176
     1
 62
     7
420
 16777215
176
     1
 90
        0
176
     1
 90
        0
176
     1
 62
     7
176
     1
 62
   257
176
     1
 90
        1
176
     1
 90
        1
176
     1
 40
1.0
176
     1
 90
        8
176
     1
 62
     7
176
     1
 40
1.0
176
     1
 90
        1
176
     1
 90
        6
176
     1
 90
        2
176
     1
 62
     7
176
     1
 90
        5
176
     1
 90
        0
176
     1
 90
        0
176
     1
290
     0
176
     1
 90
       13
176
     1
 40
0.0
176
     1
 90
        0
176
     1
290
     0
176
     1
290
     1
176
     1
290
     1
176
     1
290
     0
176
     1
290
     0
176
     1
290
     0
176
     1
290
     0
176
     1
290
     0
176
     1
290
     0
176
     1
 90
       50
176
     1
 40
0.0
176
     1
 40
1.0
176
     1
 90
        0
176
     1
 62
    18
420
        0
176
     1
 90
       50
176
     1
 90
        3
176
     1
 62
     5
420
      255
176
     1
290
     0
176
     1
 90
       50
176
     1
 90
       50
176
     1
 90
       50
176
     1
290
     0
176
     1
 90
       50
176
     1
 62
   256
176
     0
 40
1.0
176
     0
 90
        2
176
     1
  1
strokes_ogs.tif
176
     1
290
     0
176
     1
 40
1.0
176
     1
 40
1.0
176
     1
1001
ACAD
1000
AcDbSavedByObjectVersion
1070
     0
  0
VISUALSTYLE
  5
29B8
102
{ACAD_REACTORS
330
29B6
102
}
330
29B6
100
AcDbVisualStyle
  2
FlatWithEdges
 70
     1
177
     3
291
     1
 70
    58
 90
        2
176
     1
 90
        1
176
     1
 90
        1
176
     1
 90
        2
176
     1
 40
0.6
176
     1
 40
30.0
176
     1
 62
     7
420
 16777215
176
     1
 90
        1
176
     1
 90
        0
176
     1
 62
     7
176
     1
 62
   257
176
     1
 90
        1
176
     1
 90
        1
176
     1
 40
1.0
176
     1
 90
        0
176
     1
 62
   257
176
     1
 40
1.0
176
     1
 90
        1
176
     1
 90
        6
176
     1
 90
        2
176
     1
 62
     7
176
     1
 90
        5
176
     1
 90
        0
176
     1
 90
        0
176
     1
290
     0
176
     1
 90
       13
176
     1
 40
0.0
176
     1
 90
        0
176
     1
290
     0
176
     1
290
     1
176
     1
290
     1
176
     1
290
     0
176
     1
290
     0
176
     1
290
     0
176
     1
290
     0
176
     1
290
     0
176
     1
290
     0
176
     1
 90
       50
176
     1
 40
0.0
176
     1
 40
1.0
176
     1
 90
        0
176
     1
 62
    18
420
        0
176
     1
 90
       50
176
     1
 90
        3
176
     1
 62
     5
420
      255
176
     1
290
     0
176
     1
 90
       50
176
     1
 90
       50
176
     1
 90
       50
176
     1
290
     0
176
     1
 90
       50
176
     1
 62
   256
176
     0
 40
1.0
176
     0
 90
        2
176
     1
  1
strokes_ogs.tif
176
     1
290
     0
176
     1
 40
1.0
176
     1
 40
1.0
176
     1
1001
ACAD
1000
AcDbSavedByObjectVersion
1070
     0
  0
VISUALSTYLE
  5
29B9
102
{ACAD_REACTORS
330
29B6
102
}
330
29B6
100
AcDbVisualStyle
  2
Gouraud
 70
     2
177
     3
291
     1
 70
    58
 90
        2
176
     1
 90
        2
176
     1
 90
        1
176
     1
 90
        2
176
     1
 40
0.6
176
     1
 40
30.0
176
     1
 62
     7
420
 16777215
176
     1
 90
        0
176
     1
 90
        0
176
     1
 62
     7
176
     1
 62
   257
176
     1
 90
        1
176
     1
 90
        1
176
     1
 40
1.0
176
     1
 90
        0
176
     1
 62
     7
176
     1
 40
1.0
176
     1
 90
        1
176
     1
 90
        6
176
     1
 90
        2
176
     1
 62
     7
176
     1
 90
        5
176
     1
 90
        0
176
     1
 90
        0
176
     1
290
     0
176
     1
 90
       13
176
     1
 40
0.0
176
     1
 90
        0
176
     1
290
     0
176
     1
290
     1
176
     1
290
     1
176
     1
290
     0
176
     1
290
     0
176
     1
290
     0
176
     1
290
     0
176
     1
290
     0
176
     1
290
     0
176
     1
 90
       50
176
     1
 40
0.0
176
     1
 40
1.0
176
     1
 90
        0
176
     1
 62
    18
420
        0
176
     1
 90
       50
176
     1
 90
        3
176
     1
 62
     5
420
      255
176
     1
290
     0
176
     1
 90
       50
176
     1
 90
       50
176
     1
 90
       50
176
     1
290
     0
176
     1
 90
       50
176
     1
 62
   256
176
     0
 40
1.0
176
     0
 90
        2
176
     1
  1
strokes_ogs.tif
176
     1
290
     0
176
     1
 40
1.0
176
     1
 40
1.0
176
     1
1001
ACAD
1000
AcDbSavedByObjectVersion
1070
     0
  0
VISUALSTYLE
  5
29BA
102
{ACAD_REACTORS
330
29B6
102
}
330
29B6
100
AcDbVisualStyle
  2
GouraudWithEdges
 70
     3
177
     3
291
     1
 70
    58
 90
        2
176
     1
 90
        2
176
     1
 90
        1
176
     1
 90
        2
176
     1
 40
0.6
176
     1
 40
30.0
176
     1
 62
     7
420
 16777215
176
     1
 90
        1
176
     1
 90
        0
176
     1
 62
     7
176
     1
 62
   257
176
     1
 90
        1
176
     1
 90
        1
176
     1
 40
1.0
176
     1
 90
        0
176
     1
 62
   257
176
     1
 40
1.0
176
     1
 90
        1
176
     1
 90
        6
176
     1
 90
        2
176
     1
 62
     7
176
     1
 90
        5
176
     1
 90
        0
176
     1
 90
        0
176
     1
290
     0
176
     1
 90
       13
176
     1
 40
0.0
176
     1
 90
        0
176
     1
290
     0
176
     1
290
     1
176
     1
290
     1
176
     1
290
     0
176
     1
290
     0
176
     1
290
     0
176
     1
290
     0
176
     1
290
     0
176
     1
290
     0
176
     1
 90
       50
176
     1
 40
0.0
176
     1
 40
1.0
176
     1
 90
        0
176
     1
 62
    18
420
        0
176
     1
 90
       50
176
     1
 90
        3
176
     1
 62
     5
420
      255
176
     1
290
     0
176
     1
 90
       50
176
     1
 90
       50
176
     1
 90
       50
176
     1
290
     0
176
     1
 90
       50
176
     1
 62
   256
176
     0
 40
1.0
176
     0
 90
        2
176
     1
  1
strokes_ogs.tif
176
     1
290
     0
176
     1
 40
1.0
176
     1
 40
1.0
176
     1
1001
ACAD
1000
AcDbSavedByObjectVersion
1070
     0
  0
VISUALSTYLE
  5
29BE
102
{ACAD_REACTORS
330
29B6
102
}
330
29B6
100
AcDbVisualStyle
  2
Hidden
 70
     6
177
     3
291
     0
 70
    58
 90
        1
176
     1
 90
        2
176
     1
 90
        2
176
     1
 90
        0
176
     1
 40
0.6
176
     1
 40
30.0
176
     1
 62
     7
420
 16777215
176
     1
 90
        2
176
     1
 90
        2
176
     1
 62
     7
176
     1
 62
   257
176
     1
 90
        2
176
     1
 90
        1
176
     1
 40
40.0
176
     1
 90
        0
176
     1
 62
   257
176
     1
 40
1.0
176
     1
 90
        1
176
     1
 90
        6
176
     1
 90
        2
176
     1
 62
     7
176
     1
 90
        3
176
     1
 90
        0
176
     1
 90
        0
176
     1
290
     0
176
     1
 90
        1
176
     1
 40
0.0
176
     1
 90
        0
176
     1
290
     0
176
     1
290
     1
176
     1
290
     1
176
     1
290
     0
176
     1
290
     0
176
     1
290
     0
176
     1
290
     0
176
     1
290
     0
176
     1
290
     0
176
     1
 90
       50
176
     1
 40
0.0
176
     1
 40
1.0
176
     1
 90
        0
176
     1
 62
    18
420
        0
176
     1
 90
       50
176
     1
 90
        3
176
     1
 62
     5
420
      255
176
     1
290
     0
176
     1
 90
       50
176
     1
 90
       50
176
     1
 90
       50
176
     1
290
     0
176
     1
 90
       50
176
     1
 62
   256
176
     0
 40
1.0
176
     0
 90
        2
176
     1
  1
strokes_ogs.tif
176
     1
290
     0
176
     1
 40
1.0
176
     1
 40
1.0
176
     1
1001
ACAD
1000
AcDbSavedByObjectVersion
1070
     0
  0
VISUALSTYLE
  5
29CC
102
{ACAD_REACTORS
330
29B6
102
}
330
29B6
100
AcDbVisualStyle
  2
JitterOff
 70
    20
177
     3
291
     1
 70
    58
 90
        2
176
     0
 90
        2
176
     0
 90
        0
176
     0
 90
        0
176
     0
 40
0.6
176
     0
 40
30.0
176
     0
 62
     7
420
 16777215
176
     0
 90
        1
176
     0
 90
        4
176
     0
 62
     7
176
     0
 62
   257
176
     0
 90
        1
176
     0
 90
        1
176
     0
 40
1.0
176
     0
 90
       10
176
     2
 62
     7
176
     0
 40
1.0
176
     0
 90
        1
176
     0
 90
        6
176
     0
 90
        2
176
     0
 62
     7
176
     0
 90
        5
176
     0
 90
        0
176
     0
 90
        0
176
     0
290
     0
176
     0
 90
        1
176
     0
 40
0.0
176
     0
 90
        0
176
     0
290
     0
176
     1
290
     1
176
     1
290
     1
176
     1
290
     0
176
     1
290
     0
176
     1
290
     0
176
     1
290
     0
176
     1
290
     0
176
     1
290
     0
176
     1
 90
       50
176
     0
 40
0.0
176
     0
 40
1.0
176
     0
 90
        0
176
     0
 62
    18
420
        0
176
     0
 90
       50
176
     0
 90
        3
176
     0
 62
     5
420
      255
176
     0
290
     0
176
     1
 90
       50
176
     0
 90
       50
176
     0
 90
       50
176
     0
290
     0
176
     1
 90
       50
176
     0
 62
   256
176
     0
 40
1.0
176
     0
 90
        2
176
     0
  1
strokes_ogs.tif
176
     0
290
     0
176
     1
 40
1.0
176
     0
 40
1.0
176
     0
1001
ACAD
1000
AcDbSavedByObjectVersion
1070
     0
  0
VISUALSTYLE
  5
29C4
102
{ACAD_REACTORS
330
29B6
102
}
330
29B6
100
AcDbVisualStyle
  2
Linepattern
 70
    14
177
     3
291
     1
 70
    58
 90
        2
176
     1
 90
        2
176
     1
 90
        0
176
     1
 90
        0
176
     1
 40
0.6
176
     1
 40
30.0
176
     1
 62
     7
420
 16777215
176
     1
 90
        1
176
     1
 90
        4
176
     1
 62
     7
176
     1
 62
   257
176
     1
 90
        7
176
     1
 90
        7
176
     1
 40
1.0
176
     1
 90
        8
176
     1
 62
     7
176
     1
 40
1.0
176
     1
 90
        1
176
     1
 90
        6
176
     1
 90
        2
176
     1
 62
     7
176
     1
 90
        5
176
     1
 90
        0
176
     1
 90
        0
176
     1
290
     0
176
     1
 90
        1
176
     1
 40
0.0
176
     1
 90
        0
176
     1
290
     0
176
     1
290
     1
176
     1
290
     1
176
     1
290
     0
176
     1
290
     0
176
     1
290
     0
176
     1
290
     0
176
     1
290
     0
176
     1
290
     0
176
     1
 90
       50
176
     1
 40
0.0
176
     1
 40
1.0
176
     1
 90
        0
176
     1
 62
    18
420
        0
176
     1
 90
       50
176
     1
 90
        3
176
     1
 62
     5
420
      255
176
     1
290
     0
176
     1
 90
       50
176
     1
 90
       50
176
     1
 90
       50
176
     1
290
     0
176
     1
 90
       50
176
     1
 62
   256
176
     0
 40
1.0
176
     0
 90
        2
176
     1
  1
strokes_ogs.tif
176
     1
290
     0
176
     1
 40
1.0
176
     1
 40
1.0
176
     1
1001
ACAD
1000
AcDbSavedByObjectVersion
1070
     0
  0
VISUALSTYLE
  5
29CD
102
{ACAD_REACTORS
330
29B6
102
}
330
29B6
100
AcDbVisualStyle
  2
OverhangOff
 70
    21
177
     3
291
     1
 70
    58
 90
        2
176
     0
 90
        2
176
     0
 90
        0
176
     0
 90
        0
176
     0
 40
0.6
176
     0
 40
30.0
176
     0
 62
     7
420
 16777215
176
     0
 90
        1
176
     0
 90
        4
176
     0
 62
     7
176
     0
 62
   257
176
     0
 90
        1
176
     0
 90
        1
176
     0
 40
1.0
176
     0
 90
        9
176
     2
 62
     7
176
     0
 40
1.0
176
     0
 90
        1
176
     0
 90
        6
176
     0
 90
        2
176
     0
 62
     7
176
     0
 90
        5
176
     0
 90
        0
176
     0
 90
        0
176
     0
290
     0
176
     0
 90
        1
176
     0
 40
0.0
176
     0
 90
        0
176
     0
290
     0
176
     1
290
     1
176
     1
290
     1
176
     1
290
     0
176
     1
290
     0
176
     1
290
     0
176
     1
290
     0
176
     1
290
     0
176
     1
290
     0
176
     1
 90
       50
176
     0
 40
0.0
176
     0
 40
1.0
176
     0
 90
        0
176
     0
 62
    18
420
        0
176
     0
 90
       50
176
     0
 90
        3
176
     0
 62
     5
420
      255
176
     0
290
     0
176
     1
 90
       50
176
     0
 90
       50
176
     0
 90
       50
176
     0
290
     0
176
     1
 90
       50
176
     0
 62
   256
176
     0
 40
1.0
176
     0
 90
        2
176
     0
  1
strokes_ogs.tif
176
     0
290
     0
176
     1
 40
1.0
176
     0
 40
1.0
176
     0
1001
ACAD
1000
AcDbSavedByObjectVersion
1070
     0
  0
VISUALSTYLE
  5
29C0
102
{ACAD_REACTORS
330
29B6
102
}
330
29B6
100
AcDbVisualStyle
  2
Realistic
 70
     8
177
     3
291
     0
 70
    58
 90
        2
176
     1
 90
        3
176
     1
 90
        0
176
     1
 90
        2
176
     1
 40
0.6
176
     1
 40
30.0
176
     1
 62
     7
420
 16777215
176
     1
 90
        0
176
     1
 90
        0
176
     1
 62
     7
176
     1
 62
   257
176
     1
 90
        1
176
     1
 90
        1
176
     1
 40
1.0
176
     1
 90
        8
176
     1
 62
   257
176
     1
 40
1.0
176
     1
 90
        1
176
     1
 90
        6
176
     1
 90
        2
176
     1
 62
     7
176
     1
 90
        3
176
     1
 90
        0
176
     1
 90
        0
176
     1
290
     0
176
     1
 90
       13
176
     1
 40
0.0
176
     1
 90
        0
176
     1
290
     0
176
     1
290
     1
176
     1
290
     1
176
     1
290
     0
176
     1
290
     0
176
     1
290
     0
176
     1
290
     0
176
     1
290
     0
176
     1
290
     0
176
     1
 90
       50
176
     1
 40
0.0
176
     1
 40
1.0
176
     1
 90
        0
176
     1
 62
    18
420
        0
176
     1
 90
       50
176
     1
 90
        3
176
     1
 62
     5
420
      255
176
     1
290
     0
176
     1
 90
       50
176
     1
 90
       50
176
     1
 90
       50
176
     1
290
     0
176
     1
 90
       50
176
     1
 62
   256
176
     0
 40
1.0
176
     0
 90
        2
176
     1
  1
strokes_ogs.tif
176
     1
290
     0
176
     1
 40
1.0
176
     1
 40
1.0
176
     1
1001
ACAD
1000
AcDbSavedByObjectVersion
1070
     0
  0
VISUALSTYLE
  5
29CB
102
{ACAD_REACTORS
330
29B6
102
}
330
29B6
100
AcDbVisualStyle
  2
Shaded
 70
    27
177
     3
291
     0
 70
    58
 90
        2
176
     1
 90
        2
176
     1
 90
        1
176
     1
 90
        2
176
     1
 40
0.6
176
     1
 40
30.0
176
     1
 62
     7
420
 16777215
176
     1
 90
        0
176
     1
 90
        4
176
     1
 62
     7
176
     1
 62
   257
176
     1
 90
        1
176
     1
 90
        1
176
     1
 40
1.0
176
     1
 90
        8
176
     1
 62
   257
176
     1
 40
1.0
176
     1
 90
        1
176
     1
 90
        6
176
     1
 90
        2
176
     1
 62
     8
420
  7895160
176
     1
 90
        3
176
     1
 90
        0
176
     1
 90
        0
176
     1
290
     0
176
     1
 90
        5
176
     1
 40
0.0
176
     1
 90
        0
176
     1
290
     0
176
     1
290
     1
176
     1
290
     1
176
     1
290
     0
176
     1
290
     0
176
     1
290
     0
176
     1
290
     0
176
     1
290
     0
176
     1
290
     0
176
     1
 90
       50
176
     1
 40
0.0
176
     1
 40
1.0
176
     1
 90
        0
176
     1
 62
    18
420
        0
176
     1
 90
       50
176
     1
 90
        3
176
     1
 62
     5
420
      255
176
     1
290
     0
176
     1
 90
       50
176
     1
 90
       50
176
     1
 90
       50
176
     1
290
     0
176
     1
 90
       50
176
     1
 62
   256
176
     0
 40
1.0
176
     0
 90
        2
176
     1
  1
strokes_ogs.tif
176
     1
290
     0
176
     1
 40
1.0
176
     1
 40
1.0
176
     1
1001
ACAD
1000
AcDbSavedByObjectVersion
1070
     0
  0
VISUALSTYLE
  5
29CA
102
{ACAD_REACTORS
330
29B6
102
}
330
29B6
100
AcDbVisualStyle
  2
Shaded with edges
 70
    26
177
     3
291
     0
 70
    58
 90
        2
176
     1
 90
        2
176
     1
 90
        1
176
     1
 90
        2
176
     1
 40
0.6
176
     1
 40
30.0
176
     1
 62
     7
420
 16777215
176
     1
 90
        1
176
     1
 90
        2
176
     1
 62
     7
176
     1
 62
   257
176
     1
 90
        2
176
     1
 90
        1
176
     1
 40
1.0
176
     1
 90
        8
176
     1
 62
   257
176
     1
 40
1.0
176
     1
 90
        1
176
     1
 90
        6
176
     1
 90
        2
176
     1
 62
     7
176
     1
 90
        3
176
     1
 90
        0
176
     1
 90
        0
176
     1
290
     0
176
     1
 90
        5
176
     1
 40
0.0
176
     1
 90
        0
176
     1
290
     0
176
     1
290
     1
176
     1
290
     1
176
     1
290
     0
176
     1
290
     0
176
     1
290
     0
176
     1
290
     0
176
     1
290
     0
176
     1
290
     0
176
     1
 90
       50
176
     1
 40
0.0
176
     1
 40
1.0
176
     1
 90
        0
176
     1
 62
    18
420
        0
176
     1
 90
       50
176
     1
 90
        3
176
     1
 62
     5
420
      255
176
     1
290
     0
176
     1
 90
       50
176
     1
 90
       50
176
     1
 90
       50
176
     1
290
     0
176
     1
 90
       50
176
     1
 62
   256
176
     0
 40
1.0
176
     0
 90
        2
176
     1
  1
strokes_ogs.tif
176
     1
290
     0
176
     1
 40
1.0
176
     1
 40
1.0
176
     1
1001
ACAD
1000
AcDbSavedByObjectVersion
1070
     0
  0
VISUALSTYLE
  5
29C7
102
{ACAD_REACTORS
330
29B6
102
}
330
29B6
100
AcDbVisualStyle
  2
Shades of Gray
 70
    23
177
     3
291
     0
 70
    58
 90
        2
176
     1
 90
        2
176
     1
 90
        3
176
     1
 90
        0
176
     1
 40
0.6
176
     1
 40
30.0
176
     1
 62
     7
420
 16777215
176
     1
 90
        2
176
     1
 90
        2
176
     1
 62
     7
176
     1
 62
     7
176
     1
 90
        1
176
     1
 90
        1
176
     1
 40
40.0
176
     1
 90
        8
176
     1
 62
     7
176
     1
 40
1.0
176
     1
 90
        1
176
     1
 90
        6
176
     1
 90
        2
176
     1
 62
     7
176
     1
 90
        3
176
     1
 90
        0
176
     1
 90
        0
176
     1
290
     0
176
     1
 90
        1
176
     1
 40
0.0
176
     1
 90
        0
176
     1
290
     0
176
     1
290
     1
176
     1
290
     1
176
     1
290
     0
176
     1
290
     0
176
     1
290
     0
176
     1
290
     0
176
     1
290
     0
176
     1
290
     0
176
     1
 90
       50
176
     1
 40
0.0
176
     1
 40
1.0
176
     1
 90
        0
176
     1
 62
    18
420
        0
176
     1
 90
       50
176
     1
 90
        3
176
     1
 62
     5
420
      255
176
     1
290
     0
176
     1
 90
       50
176
     1
 90
       50
176
     1
 90
       50
176
     1
290
     0
176
     1
 90
       50
176
     1
 62
   256
176
     0
 40
1.0
176
     0
 90
        2
176
     1
  1
strokes_ogs.tif
176
     1
290
     0
176
     1
 40
1.0
176
     1
 40
1.0
176
     1
1001
ACAD
1000
AcDbSavedByObjectVersion
1070
     0
  0
VISUALSTYLE
  5
29C8
102
{ACAD_REACTORS
330
29B6
102
}
330
29B6
100
AcDbVisualStyle
  2
Sketchy
 70
    24
177
     3
291
     0
 70
    58
 90
        1
176
     1
 90
        2
176
     1
 90
        2
176
     1
 90
        0
176
     1
 40
0.6
176
     1
 40
30.0
176
     1
 62
     7
420
 16777215
176
     1
 90
        2
176
     1
 90
        2
176
     1
 62
     7
176
     1
 62
     7
176
     1
 90
        1
176
     1
 90
        1
176
     1
 40
40.0
176
     1
 90
       11
176
     1
 62
     7
176
     1
 40
1.0
176
     1
 90
        1
176
     1
 90
        6
176
     1
 90
        2
176
     1
 62
     7
176
     1
 90
        6
176
     1
 90
        0
176
     1
 90
        0
176
     1
290
     0
176
     1
 90
        1
176
     1
 40
0.0
176
     1
 90
        0
176
     1
290
     0
176
     1
290
     1
176
     1
290
     1
176
     1
290
     0
176
     1
290
     0
176
     1
290
     0
176
     1
290
     0
176
     1
290
     0
176
     1
290
     0
176
     1
 90
       50
176
     1
 40
0.0
176
     1
 40
1.0
176
     1
 90
        0
176
     1
 62
    18
420
        0
176
     1
 90
       50
176
     1
 90
        3
176
     1
 62
     5
420
      255
176
     1
290
     0
176
     1
 90
       50
176
     1
 90
       50
176
     1
 90
       50
176
     1
290
     0
176
     1
 90
       50
176
     1
 62
   256
176
     0
 40
1.0
176
     0
 90
        2
176
     1
  1
strokes_ogs.tif
176
     1
290
     0
176
     1
 40
1.0
176
     1
 40
1.0
176
     1
1001
ACAD
1000
AcDbSavedByObjectVersion
1070
     0
  0
VISUALSTYLE
  5
29C3
102
{ACAD_REACTORS
330
29B6
102
}
330
29B6
100
AcDbVisualStyle
  2
Thicken
 70
    13
177
     3
291
     1
 70
    58
 90
        2
176
     1
 90
        2
176
     1
 90
        0
176
     1
 90
        0
176
     1
 40
0.6
176
     1
 40
30.0
176
     1
 62
     7
420
 16777215
176
     1
 90
        1
176
     1
 90
        4
176
     1
 62
     7
176
     1
 62
   257
176
     1
 90
        1
176
     1
 90
        1
176
     1
 40
1.0
176
     1
 90
       12
176
     1
 62
     7
176
     1
 40
1.0
176
     1
 90
        1
176
     1
 90
        6
176
     1
 90
        2
176
     1
 62
     7
176
     1
 90
        5
176
     1
 90
        0
176
     1
 90
        0
176
     1
290
     0
176
     1
 90
        1
176
     1
 40
0.0
176
     1
 90
        0
176
     1
290
     0
176
     1
290
     1
176
     1
290
     1
176
     1
290
     0
176
     1
290
     0
176
     1
290
     0
176
     1
290
     0
176
     1
290
     0
176
     1
290
     0
176
     1
 90
       50
176
     1
 40
0.0
176
     1
 40
1.0
176
     1
 90
        0
176
     1
 62
    18
420
        0
176
     1
 90
       50
176
     1
 90
        3
176
     1
 62
     5
420
      255
176
     1
290
     0
176
     1
 90
       50
176
     1
 90
       50
176
     1
 90
       50
176
     1
290
     0
176
     1
 90
       50
176
     1
 62
   256
176
     0
 40
1.0
176
     0
 90
        2
176
     1
  1
strokes_ogs.tif
176
     1
290
     0
176
     1
 40
1.0
176
     1
 40
1.0
176
     1
1001
ACAD
1000
AcDbSavedByObjectVersion
1070
     0
  0
VISUALSTYLE
  5
29BD
102
{ACAD_REACTORS
330
29B6
102
}
330
29B6
100
AcDbVisualStyle
  2
Wireframe
 70
     5
177
     3
291
     0
 70
    58
 90
        0
176
     1
 90
        2
176
     1
 90
        0
176
     1
 90
        0
176
     1
 40
0.6
176
     1
 40
30.0
176
     1
 62
     7
420
 16777215
176
     1
 90
        1
176
     1
 90
        4
176
     1
 62
     7
176
     1
 62
   257
176
     1
 90
        1
176
     1
 90
        1
176
     1
 40
1.0
176
     1
 90
        0
176
     1
 62
   257
176
     1
 40
1.0
176
     1
 90
        1
176
     1
 90
        6
176
     1
 90
        2
176
     1
 62
     7
176
     1
 90
        3
176
     1
 90
        0
176
     1
 90
        0
176
     1
290
     0
176
     1
 90
        1
176
     1
 40
0.0
176
     1
 90
        0
176
     1
290
     0
176
     1
290
     1
176
     1
290
     1
176
     1
290
     0
176
     1
290
     0
176
     1
290
     0
176
     1
290
     0
176
     1
290
     0
176
     1
290
     0
176
     1
 90
       50
176
     1
 40
0.0
176
     1
 40
1.0
176
     1
 90
        0
176
     1
 62
    18
420
        0
176
     1
 90
       50
176
     1
 90
        3
176
     1
 62
     5
420
      255
176
     1
290
     0
176
     1
 90
       50
176
     1
 90
       50
176
     1
 90
       50
176
     1
290
     0
176
     1
 90
       50
176
     1
 62
   256
176
     0
 40
1.0
176
     0
 90
        2
176
     1
  1
strokes_ogs.tif
176
     1
290
     0
176
     1
 40
1.0
176
     1
 40
1.0
176
     1
1001
ACAD
1000
AcDbSavedByObjectVersion
1070
     0
  0
VISUALSTYLE
  5
29C9
102
{ACAD_REACTORS
330
29B6
102
}
330
29B6
100
AcDbVisualStyle
  2
X-Ray
 70
    25
177
     3
291
     0
 70
    58
 90
        2
176
     1
 90
        2
176
     1
 90
        1
176
     1
 90
        1
176
     1
 40
0.5
176
     1
 40
30.0
176
     1
 62
     7
420
 16777215
176
     1
 90
        1
176
     1
 90
        0
176
     1
 62
     7
176
     1
 62
   257
176
     1
 90
        1
176
     1
 90
        1
176
     1
 40
1.0
176
     1
 90
        8
176
     1
 62
     7
176
     1
 40
1.0
176
     1
 90
        1
176
     1
 90
        6
176
     1
 90
        2
176
     1
 62
     7
176
     1
 90
        3
176
     1
 90
        0
176
     1
 90
        0
176
     1
290
     0
176
     1
 90
       13
176
     1
 40
0.0
176
     1
 90
        0
176
     1
290
     0
176
     1
290
     1
176
     1
290
     1
176
     1
290
     0
176
     1
290
     0
176
     1
290
     0
176
     1
290
     0
176
     1
290
     0
176
     1
290
     0
176
     1
 90
       50
176
     1
 40
0.0
176
     1
 40
1.0
176
     1
 90
        0
176
     1
 62
    18
420
        0
176
     1
 90
       50
176
     1
 90
        3
176
     1
 62
     5
420
      255
176
     1
290
     0
176
     1
 90
       50
176
     1
 90
       50
176
     1
 90
       50
176
     1
290
     0
176
     1
 90
       50
176
     1
 62
   256
176
     0
 40
1.0
176
     0
 90
        2
176
     1
  1
strokes_ogs.tif
176
     1
290
     0
176
     1
 40
1.0
176
     1
 40
1.0
176
     1
1001
ACAD
1000
AcDbSavedByObjectVersion
1070
     0
  0
DICTIONARYVAR
  5
2AF8
102
{ACAD_REACTORS
330
2AC1
102
}
330
2AC1
100
DictionaryVariables
280
     0
  1
1:1
  0
DICTIONARYVAR
  5
2AF4
102
{ACAD_REACTORS
330
2AC1
102
}
330
2AC1
100
DictionaryVariables
280
     0
  1
STANDARD
  0
DICTIONARYVAR
  5
2AF3
102
{ACAD_REACTORS
330
2AC1
102
}
330
2AC1
100
DictionaryVariables
280
     0
  1
STANDARD
  0
DICTIONARYVAR
  5
2AF5
102
{ACAD_REACTORS
330
2AC1
102
}
330
2AC1
100
DictionaryVariables
280
     0
  1
Imperial24
  0
DICTIONARYVAR
  5
2AF6
102
{ACAD_REACTORS
330
2AC1
102
}
330
2AC1
100
DictionaryVariables
280
     0
  1
Imperial24
  0
DICTIONARYVAR
  5
2AFA
102
{ACAD_REACTORS
330
2AC1
102
}
330
2AC1
100
DictionaryVariables
280
     0
  1
1
  0
DICTIONARYVAR
  5
2AFB
102
{ACAD_REACTORS
330
2AC1
102
}
330
2AC1
100
DictionaryVariables
280
     0
  1
15
  0
DICTIONARYVAR
  5
2AF9
102
{ACAD_REACTORS
330
2AC1
102
}
330
2AC1
100
DictionaryVariables
280
     0
  1
0
  0
DICTIONARYVAR
  5
2AF7
102
{ACAD_REACTORS
330
2AC1
102
}
330
2AC1
100
DictionaryVariables
280
     0
  1
0
  0
DICTIONARY
  5
2C8F
102
{ACAD_REACTORS
330
2C8D
102
}
330
2C8D
100
AcDbDictionary
281
     1
  0
DICTIONARY
  5
2C8E
102
{ACAD_REACTORS
330
2C8D
102
}
330
2C8D
100
AcDbDictionary
281
     1
  3
1610514906112
350
2C88
  3
1610514906128
350
2C89
  3
1610514906144
350
2C8A
  3
1610514906160
350
2C8B
  3
1610514906176
350
2C8C
  0
DICTIONARY
  5
2C92
330
29F7
100
AcDbDictionary
280
     1
281
     1
  3
ACAD_XREC_ROUNDTRIP
360
2C93
  0
DICTIONARY
  5
29A7
330
29A6
100
AcDbDictionary
280
     1
281
     1
  3
BUMPTILE
360
29A9
  3
DIFFUSETILE
360
29A8
  3
OPACITYTILE
360
29AC
  3
REFLECTIONTILE
360
29AB
  3
REFRACTIONTILE
360
29AD
  3
SPECULARTILE
360
29AA
  0
DICTIONARY
  5
299F
330
299E
100
AcDbDictionary
280
     1
281
     1
  3
BUMPTILE
360
29A1
  3
DIFFUSETILE
360
29A0
  3
OPACITYTILE
360
29A4
  3
REFLECTIONTILE
360
29A3
  3
REFRACTIONTILE
360
29A5
  3
SPECULARTILE
360
29A2
  0
DICTIONARY
  5
29AF
330
29AE
100
AcDbDictionary
280
     1
281
     1
  3
BUMPTILE
360
29B1
  3
DIFFUSETILE
360
29B0
  3
OPACITYTILE
360
29B4
  3
REFLECTIONTILE
360
29B3
  3
REFRACTIONTILE
360
29B5
  3
SPECULARTILE
360
29B2
  0
DICTIONARY
  5
2C90
330
29F5
100
AcDbDictionary
280
     1
281
     1
  3
ACAD_XREC_ROUNDTRIP
360
2C91
  0
DICTIONARY
  5
2C85
330
29F1
100
AcDbDictionary
280
     1
281
     1
  3
ACAD_ROUNDTRIP_2008_TABLESTYLE_CELLSTYLEMAP
360
2C86
  0
XRECORD
  5
2C88
102
{ACAD_REACTORS
330
2C8E
102
}
330
2C8E
100
AcDbXrecord
280
     1
  1
AcDb_Thumbnail_Schema
102
{ATTRRECORD
341
2C89
  2
AcDbDs::TreatedAsObjectData
280
     1
291
     1
102
ATTRRECORD}
102
{ATTRRECORD
341
2C8A
  2
AcDbDs::Legacy
280
     1
291
     1
102
ATTRRECORD}
  2
AcDbDs::ID
280
    10
 91
        8
102
{ATTRRECORD
341
2C8B
  2
AcDs:Indexable
280
     1
291
     1
102
ATTRRECORD}
102
{ATTRRECORD
341
2C8C
  2
AcDbDs::HandleAttribute
280
     7
282
     1
102
ATTRRECORD}
  2
Thumbnail_Data
280
    15
 91
        0
  0
XRECORD
  5
2C89
102
{ACAD_REACTORS
330
2C8E
102
}
330
2C8E
100
AcDbXrecord
280
     1
  1
AcDbDs::TreatedAsObjectDataSchema
  2
AcDbDs::TreatedAsObjectData
280
     1
 91
        0
  0
XRECORD
  5
2C8A
102
{ACAD_REACTORS
330
2C8E
102
}
330
2C8E
100
AcDbXrecord
280
     1
  1
AcDbDs::LegacySchema
  2
AcDbDs::Legacy
280
     1
 91
        0
  0
XRECORD
  5
2C8B
102
{ACAD_REACTORS
330
2C8E
102
}
330
2C8E
100
AcDbXrecord
280
     1
  1
AcDbDs::IndexedPropertySchema
  2
AcDs:Indexable
280
     1
 91
        0
  0
XRECORD
  5
2C8C
102
{ACAD_REACTORS
330
2C8E
102
}
330
2C8E
100
AcDbXrecord
280
     1
  1
AcDbDs::HandleAttributeSchema
  2
AcDbDs::HandleAttribute
280
     7
 91
        1
284
     1
  0
XRECORD
  5
2C93
102
{ACAD_REACTORS
330
2C92
102
}
330
2C92
100
AcDbXrecord
280
     1
102
DISPLAYNAME
  1
Imperial24
102
FLAGS
 90
        0
  0
XRECORD
  5
29A9
102
{ACAD_REACTORS
330
29A7
102
}
330
29A7
100
AcDbXrecord
280
     1
270
     1
271
     1
  0
XRECORD
  5
29A8
102
{ACAD_REACTORS
330
29A7
102
}
330
29A7
100
AcDbXrecord
280
     1
270
     1
271
     1
  0
XRECORD
  5
29AC
102
{ACAD_REACTORS
330
29A7
102
}
330
29A7
100
AcDbXrecord
280
     1
270
     1
271
     1
  0
XRECORD
  5
29AB
102
{ACAD_REACTORS
330
29A7
102
}
330
29A7
100
AcDbXrecord
280
     1
270
     1
271
     1
  0
XRECORD
  5
29AD
102
{ACAD_REACTORS
330
29A7
102
}
330
29A7
100
AcDbXrecord
280
     1
270
     1
271
     1
  0
XRECORD
  5
29AA
102
{ACAD_REACTORS
330
29A7
102
}
330
29A7
100
AcDbXrecord
280
     1
270
     1
271
     1
  0
XRECORD
  5
29A1
102
{ACAD_REACTORS
330
299F
102
}
330
299F
100
AcDbXrecord
280
     1
270
     1
271
     1
  0
XRECORD
  5
29A0
102
{ACAD_REACTORS
330
299F
102
}
330
299F
100
AcDbXrecord
280
     1
270
     1
271
     1
  0
XRECORD
  5
29A4
102
{ACAD_REACTORS
330
299F
102
}
330
299F
100
AcDbXrecord
280
     1
270
     1
271
     1
  0
XRECORD
  5
29A3
102
{ACAD_REACTORS
330
299F
102
}
330
299F
100
AcDbXrecord
280
     1
270
     1
271
     1
  0
XRECORD
  5
29A5
102
{ACAD_REACTORS
330
299F
102
}
330
299F
100
AcDbXrecord
280
     1
270
     1
271
     1
  0
XRECORD
  5
29A2
102
{ACAD_REACTORS
330
299F
102
}
330
299F
100
AcDbXrecord
280
     1
270
     1
271
     1
  0
XRECORD
  5
29B1
102
{ACAD_REACTORS
330
29AF
102
}
330
29AF
100
AcDbXrecord
280
     1
270
     1
271
     1
  0
XRECORD
  5
29B0
102
{ACAD_REACTORS
330
29AF
102
}
330
29AF
100
AcDbXrecord
280
     1
270
     1
271
     1
  0
XRECORD
  5
29B4
102
{ACAD_REACTORS
330
29AF
102
}
330
29AF
100
AcDbXrecord
280
     1
270
     1
271
     1
  0
XRECORD
  5
29B3
102
{ACAD_REACTORS
330
29AF
102
}
330
29AF
100
AcDbXrecord
280
     1
270
     1
271
     1
  0
XRECORD
  5
29B5
102
{ACAD_REACTORS
330
29AF
102
}
330
29AF
100
AcDbXrecord
280
     1
270
     1
271
     1
  0
XRECORD
  5
29B2
102
{ACAD_REACTORS
330
29AF
102
}
330
29AF
100
AcDbXrecord
280
     1
270
     1
271
     1
  0
XRECORD
  5
2C91
102
{ACAD_REACTORS
330
2C90
102
}
330
2C90
100
AcDbXrecord
280
     1
102
DISPLAYNAME
  1
Imperial24
102
FLAGS
 90
        0
  0
CELLSTYLEMAP
  5
2C86
102
{ACAD_REACTORS
330
2C85
102
}
330
2C85
100
AcDbCellStyleMap
 90
        3
300
CELLSTYLE
  1
TABLEFORMAT_BEGIN
 90
        5
170
     1
 91
        0
 92
    32768
 62
   257
 93
        1
300
CONTENTFORMAT
  1
CONTENTFORMAT_BEGIN
 90
        0
 91
        0
 92
      512
 93
        0
300

 40
0.0
140
1.0
 94
        5
 62
     0
340
29E2
144
0.25
309
CONTENTFORMAT_END
171
     0
 94
        0
309
TABLEFORMAT_END
  1
CELLSTYLE_BEGIN
 90
        1
 91
        1
300
_TITLE
309
CELLSTYLE_END
300
CELLSTYLE
  1
TABLEFORMAT_BEGIN
 90
        5
170
     1
 91
        0
 92
        0
 62
   257
 93
        1
300
CONTENTFORMAT
  1
CONTENTFORMAT_BEGIN
 90
        0
 91
        0
 92
      512
 93
        0
300

 40
0.0
140
1.0
 94
        5
 62
     0
340
29E2
144
0.18
309
CONTENTFORMAT_END
171
     0
 94
        0
309
TABLEFORMAT_END
  1
CELLSTYLE_BEGIN
 90
        2
 91
        1
300
_HEADER
309
CELLSTYLE_END
300
CELLSTYLE
  1
TABLEFORMAT_BEGIN
 90
        5
170
     1
 91
        0
 92
        0
 62
   257
 93
        1
300
CONTENTFORMAT
  1
CONTENTFORMAT_BEGIN
 90
        0
 91
        0
 92
      512
 93
        0
300

 40
0.0
140
1.0
 94
        2
 62
     0
340
29E2
144
0.18
309
CONTENTFORMAT_END
171
     0
 94
        0
309
TABLEFORMAT_END
  1
CELLSTYLE_BEGIN
 90
        3
 91
        2
300
_DATA
309
CELLSTYLE_END
  0
ENDSEC
  0
SECTION
  2
ACDSDATA
 70
     2
 71
     8
  0
ACDSSCHEMA
 90
        0
  1
AcDb_Thumbnail_Schema
  2
AcDbDs::ID
280
    10
 91
        8
  2
Thumbnail_Data
280
    15
 91
        0
101
ACDSRECORD
 95
        0
 90
        1
  2
AcDbDs::TreatedAsObjectData
280
     1
291
     1
101
ACDSRECORD
 95
        0
 90
        2
  2
AcDbDs::Legacy
280
     1
291
     1
101
ACDSRECORD
  1
AcDbDs::ID
 90
        3
  2
AcDs:Indexable
280
     1
291
     1
101
ACDSRECORD
  1
AcDbDs::ID
 90
        4
  2
AcDbDs::HandleAttribute
280
     7
282
     1
  0
ACDSSCHEMA
 90
        1
  1
AcDbDs::TreatedAsObjectDataSchema
  2
AcDbDs::TreatedAsObjectData
280
     1
 91
        0
  0
ACDSSCHEMA
 90
        2
  1
AcDbDs::LegacySchema
  2
AcDbDs::Legacy
280
     1
 91
        0
  0
ACDSSCHEMA
 90
        3
  1
AcDbDs::IndexedPropertySchema
  2
AcDs:Indexable
280
     1
 91
        0
  0
ACDSSCHEMA
 90
        4
  1
AcDbDs::HandleAttributeSchema
  2
AcDbDs::HandleAttribute
280
     7
 91
        1
284
     1
  0
ACDSRECORD
 90
        0
  2
AcDbDs::ID
280
    10
320
29FF
  2
Thumbnail_Data
280
    15
 94
     1462
310
89504E470D0A1A0A0000000D494844520000010000000083080300000055FF359600000300504C5445212830FFFFFF2128300000000000000000000000000000000000000000000000000000330000660000990000CC0000FF0033000033330033660033990033CC0033FF0066000066330066660066990066CC0066FF0099
310
000099330099660099990099CC0099FF00CC0000CC3300CC6600CC9900CCCC00CCFF00FF0000FF3300FF6600FF9900FFCC00FFFF3300003300333300663300993300CC3300FF3333003333333333663333993333CC3333FF3366003366333366663366993366CC3366FF3399003399333399663399993399CC3399FF33CC00
310
33CC3333CC6633CC9933CCCC33CCFF33FF0033FF3333FF6633FF9933FFCC33FFFF6600006600336600666600996600CC6600FF6633006633336633666633996633CC6633FF6666006666336666666666996666CC6666FF6699006699336699666699996699CC6699FF66CC0066CC3366CC6666CC9966CCCC66CCFF66FF0066
310
FF3366FF6666FF9966FFCC66FFFF9900009900339900669900999900CC9900FF9933009933339933669933999933CC9933FF9966009966339966669966999966CC9966FF9999009999339999669999999999CC9999FF99CC0099CC3399CC6699CC9999CCCC99CCFF99FF0099FF3399FF6699FF9999FFCC99FFFFCC0000CC00
310
33CC0066CC0099CC00CCCC00FFCC3300CC3333CC3366CC3399CC33CCCC33FFCC6600CC6633CC6666CC6699CC66CCCC66FFCC9900CC9933CC9966CC9999CC99CCCC99FFCCCC00CCCC33CCCC66CCCC99CCCCCCCCCCFFCCFF00CCFF33CCFF66CCFF99CCFFCCCCFFFFFF0000FF0033FF0066FF0099FF00CCFF00FFFF3300FF3333
310
FF3366FF3399FF33CCFF33FFFF6600FF6633FF6666FF6699FF66CCFF66FFFF9900FF9933FF9966FF9999FF99CCFF99FFFFCC00FFCC33FFCC66FFCC99FFCCCCFFCCFFFFFF00FFFF33FFFF66FFFF99FFFFCCFFFFFF0000000D0D0D1A1A1A2828283535354343435050505D5D5D6B6B6B787878868686939393A1A1A1AEAEAEBB
310
BBBBC9C9C9D6D6D6E4E4E4F1F1F1FFFFFF0000000000000000000000000000000000000000000000000000000000002E4550F1000002004944415478DAED9AC19683200C45F3FF1FD51D9F94FD745AB501D329D6EA34E1DE458B47F4C03384272202000000000000000000000000000000000000E0A2BFDCFFEEE50659CE8B
310
77DE5C692ABD732735579E2A80547D306D9BF579765E4B295EC7A7E32D779ADB30FF9E2DC03A24FE780C4600B94AF02AB8BAEEF4AA4DC70AA03B9A5DE41801F4D41CF0760494A322406308705804FC6F16D8D1EC9002EC8B8063043877087C61049C9B043F18B8610578D30859FB12D8080D6F85F573CD6E8E6308508DC727
310
D1EC0CD49EE71FEA95705BA5BECE8591A0BBA14B3ABBF4D5BF68AEFECF55AFFDEF52E0124481AD025C7F7A23406208E04C0A4BB929EA469F1E220D68EDC1AC735915B70A102104EC43D2C918DA70AF8A08905D808793AF4DFD2802B8E3DEA6C68402682B807762AD449E6940F7044C86104000DD666CD20D81A689EA678125
310
33A69F0544BD8437CC2CA03705649EFCD7C5C4B340E97282799360B929F0DA09268C80A989C5D83F6D8A522D5EA79E0586B7C2CF563EB1C258E151ACB017F7B987C0F04E7016E0B6DB47C57EBB758A7905988CD0C06B82F7FD5E95E9758A19059036ED8DB6282A473A410D2880373F3E94908CDF0647FF3A3CFCFE80DE85D1
310
EA5B719A045025BFD56629B3794D9DD7E675FD7A0B9444A3DAC5E71CBBF51BF32C217B0E0000000000000000000000000000000000000000DFC90FBB470C8DA92D67530000000049454E44AE426082F0BA391AFDA0E32074EA0693ACD70A7D08A05137F8F097A4CA1B03A6D0C76B72BC2839FDABB27D96646F901EE983B2C4
310
97BFE75F3FF9E6066E2382E9FE871BB8EF0F67763FFA689CBCAA0100000000000000000000000000000038CF0F4A3BB56657555BD40000000049454E44AE426082
  0
ENDSEC
  0
EOF
